<svg width="60" height="61" viewBox="0 0 60 61" fill="none" xmlns="http://www.w3.org/2000/svg">
<circle cx="30" cy="30.5" r="30" fill="#5CB6DB"/>
<path d="M37.2508 18.8123H24.7508C24.1175 18.7389 23.4757 18.8096 22.8736 19.0193C22.2715 19.2289 21.7246 19.5719 21.2737 20.0228C20.8229 20.4736 20.4799 21.0205 20.2702 21.6226C20.0606 22.2248 19.9899 22.8665 20.0633 23.4998V38.4998C19.9899 39.1331 20.0606 39.7749 20.2702 40.377C20.4799 40.9791 20.8229 41.526 21.2737 41.9769C21.7246 42.4277 22.2715 42.7707 22.8736 42.9803C23.4757 43.19 24.1175 43.2607 24.7508 43.1873H37.2508C37.8841 43.2607 38.5258 43.19 39.1279 42.9803C39.7301 42.7707 40.277 42.4277 40.7278 41.9769C41.1787 41.526 41.5217 40.9791 41.7313 40.377C41.9409 39.7749 42.0117 39.1331 41.9383 38.4998V23.4998C42.0117 22.8665 41.9409 22.2248 41.7313 21.6226C41.5217 21.0205 41.1787 20.4736 40.7278 20.0228C40.277 19.5719 39.7301 19.2289 39.1279 19.0193C38.5258 18.8096 37.8841 18.7389 37.2508 18.8123ZM40.0633 38.4998C40.0633 40.4711 39.222 41.3123 37.2508 41.3123H24.7508C22.7795 41.3123 21.9383 40.4711 21.9383 38.4998V23.4998C21.9383 21.5286 22.7795 20.6873 24.7508 20.6873H37.2508C39.222 20.6873 40.0633 21.5286 40.0633 23.4998V38.4998ZM26.9383 25.9998C26.9383 26.1852 26.8833 26.3665 26.7803 26.5206C26.6773 26.6748 26.5308 26.795 26.3595 26.8659C26.1882 26.9369 25.9997 26.9555 25.8179 26.9193C25.636 26.8831 25.469 26.7938 25.3379 26.6627C25.2068 26.5316 25.1175 26.3646 25.0813 26.1827C25.0451 26.0008 25.0637 25.8123 25.1346 25.641C25.2056 25.4697 25.3258 25.3233 25.4799 25.2203C25.6341 25.1173 25.8154 25.0623 26.0008 25.0623C26.2494 25.0623 26.4879 25.1611 26.6637 25.3369C26.8395 25.5127 26.9383 25.7512 26.9383 25.9998ZM26.9383 30.9998C26.9383 31.1852 26.8833 31.3665 26.7803 31.5206C26.6773 31.6748 26.5308 31.795 26.3595 31.8659C26.1882 31.9369 25.9997 31.9555 25.8179 31.9193C25.636 31.8831 25.469 31.7938 25.3379 31.6627C25.2068 31.5316 25.1175 31.3646 25.0813 31.1827C25.0451 31.0008 25.0637 30.8123 25.1346 30.641C25.2056 30.4697 25.3258 30.3233 25.4799 30.2203C25.6341 30.1173 25.8154 30.0623 26.0008 30.0623C26.2494 30.0623 26.4879 30.1611 26.6637 30.3369C26.8395 30.5127 26.9383 30.7512 26.9383 30.9998ZM26.9383 35.9998C26.9383 36.1852 26.8833 36.3665 26.7803 36.5206C26.6773 36.6748 26.5308 36.795 26.3595 36.8659C26.1882 36.9369 25.9997 36.9555 25.8179 36.9193C25.636 36.8831 25.469 36.7938 25.3379 36.6627C25.2068 36.5316 25.1175 36.3646 25.0813 36.1827C25.0451 36.0008 25.0637 35.8123 25.1346 35.641C25.2056 35.4697 25.3258 35.3233 25.4799 35.2203C25.6341 35.1173 25.8154 35.0623 26.0008 35.0623C26.2494 35.0623 26.4879 35.1611 26.6637 35.3369C26.8395 35.5127 26.9383 35.7512 26.9383 35.9998ZM36.9383 25.9998C36.9383 26.2484 36.8395 26.4869 36.6637 26.6627C36.4879 26.8385 36.2494 26.9373 36.0008 26.9373H29.7508C29.5021 26.9373 29.2637 26.8385 29.0879 26.6627C28.9121 26.4869 28.8133 26.2484 28.8133 25.9998C28.8133 25.7512 28.9121 25.5127 29.0879 25.3369C29.2637 25.1611 29.5021 25.0623 29.7508 25.0623H36.0008C36.2494 25.0623 36.4879 25.1611 36.6637 25.3369C36.8395 25.5127 36.9383 25.7512 36.9383 25.9998ZM36.9383 30.9998C36.9383 31.2484 36.8395 31.4869 36.6637 31.6627C36.4879 31.8385 36.2494 31.9373 36.0008 31.9373H29.7508C29.5021 31.9373 29.2637 31.8385 29.0879 31.6627C28.9121 31.4869 28.8133 31.2484 28.8133 30.9998C28.8133 30.7512 28.9121 30.5127 29.0879 30.3369C29.2637 30.1611 29.5021 30.0623 29.7508 30.0623H36.0008C36.2494 30.0623 36.4879 30.1611 36.6637 30.3369C36.8395 30.5127 36.9383 30.7512 36.9383 30.9998ZM36.9383 35.9998C36.9383 36.2484 36.8395 36.4869 36.6637 36.6627C36.4879 36.8385 36.2494 36.9373 36.0008 36.9373H29.7508C29.5021 36.9373 29.2637 36.8385 29.0879 36.6627C28.9121 36.4869 28.8133 36.2484 28.8133 35.9998C28.8133 35.7512 28.9121 35.5127 29.0879 35.3369C29.2637 35.1611 29.5021 35.0623 29.7508 35.0623H36.0008C36.2494 35.0623 36.4879 35.1611 36.6637 35.3369C36.8395 35.5127 36.9383 35.7512 36.9383 35.9998Z" fill="white"/>
</svg>
