<svg width="40" height="40" viewBox="0 0 40 40" fill="none" xmlns="http://www.w3.org/2000/svg">
<mask id="mask0_313_2035" style="mask-type:alpha" maskUnits="userSpaceOnUse" x="8" y="8" width="24" height="24">
<rect x="8" y="8" width="24" height="24" fill="#D9D9D9"/>
</mask>
<g mask="url(#mask0_313_2035)">
<path d="M18.5961 24.5998L25.6461 17.5498L24.2461 16.1498L18.5961 21.7998L15.7461 18.9498L14.3461 20.3498L18.5961 24.5998ZM19.9961 29.9998C18.6128 29.9998 17.3128 29.7373 16.0961 29.2123C14.8794 28.6873 13.8211 27.9748 12.9211 27.0748C12.0211 26.1748 11.3086 25.1164 10.7836 23.8998C10.2586 22.6831 9.99609 21.3831 9.99609 19.9998C9.99609 18.6164 10.2586 17.3164 10.7836 16.0998C11.3086 14.8831 12.0211 13.8248 12.9211 12.9248C13.8211 12.0248 14.8794 11.3123 16.0961 10.7873C17.3128 10.2623 18.6128 9.99976 19.9961 9.99976C21.3794 9.99976 22.6794 10.2623 23.8961 10.7873C25.1128 11.3123 26.1711 12.0248 27.0711 12.9248C27.9711 13.8248 28.6836 14.8831 29.2086 16.0998C29.7336 17.3164 29.9961 18.6164 29.9961 19.9998C29.9961 21.3831 29.7336 22.6831 29.2086 23.8998C28.6836 25.1164 27.9711 26.1748 27.0711 27.0748C26.1711 27.9748 25.1128 28.6873 23.8961 29.2123C22.6794 29.7373 21.3794 29.9998 19.9961 29.9998ZM19.9961 27.9998C22.2294 27.9998 24.1211 27.2248 25.6711 25.6748C27.2211 24.1248 27.9961 22.2331 27.9961 19.9998C27.9961 17.7664 27.2211 15.8748 25.6711 14.3248C24.1211 12.7748 22.2294 11.9998 19.9961 11.9998C17.7628 11.9998 15.8711 12.7748 14.3211 14.3248C12.7711 15.8748 11.9961 17.7664 11.9961 19.9998C11.9961 22.2331 12.7711 24.1248 14.3211 25.6748C15.8711 27.2248 17.7628 27.9998 19.9961 27.9998Z" fill="#179F36"/>
</g>
</svg>
