<svg width="34" height="34" viewBox="0 0 34 34" fill="none" xmlns="http://www.w3.org/2000/svg">
<rect width="34" height="34" rx="17" fill="#5CB6DB"/>
<path d="M14.9766 24C14.2948 24 13.7066 23.7627 13.212 23.2882C12.7174 22.8136 12.4366 22.2421 12.3698 21.5737C11.5677 21.4668 10.8993 21.1125 10.3646 20.5109C9.82986 19.9094 9.5625 19.2009 9.5625 18.3854C9.5625 18.1047 9.59926 17.8273 9.67279 17.5533C9.74631 17.2792 9.8566 17.0219 10.0036 16.7812C9.8566 16.5406 9.74631 16.2866 9.67279 16.0193C9.59926 15.7519 9.5625 15.4712 9.5625 15.1771C9.5625 14.3616 9.82986 13.6565 10.3646 13.0616C10.8993 12.4667 11.561 12.1158 12.3497 12.0089C12.3898 11.3271 12.6639 10.7489 13.1719 10.2743C13.6799 9.79978 14.2814 9.5625 14.9766 9.5625C15.3241 9.5625 15.6483 9.62934 15.9491 9.76302C16.2499 9.8967 16.5273 10.0772 16.7812 10.3044C17.0219 10.0772 17.2959 9.8967 17.6034 9.76302C17.9109 9.62934 18.2384 9.5625 18.5859 9.5625C19.2811 9.5625 19.8793 9.79644 20.3806 10.2643C20.8819 10.7322 21.1526 11.307 21.1927 11.9888C21.9814 12.0957 22.6465 12.45 23.1879 13.0516C23.7293 13.6531 24 14.3616 24 15.1771C24 15.4712 23.9632 15.7519 23.8897 16.0193C23.8162 16.2866 23.7059 16.5406 23.5589 16.7812C23.7059 17.0219 23.8162 17.2792 23.8897 17.5533C23.9632 17.8273 24 18.1047 24 18.3854C24 19.2142 23.7293 19.9261 23.1879 20.521C22.6465 21.1158 21.9747 21.4668 21.1727 21.5737C21.1058 22.2421 20.8284 22.8136 20.3405 23.2882C19.8526 23.7627 19.2677 24 18.5859 24C18.2517 24 17.9276 23.9365 17.6134 23.8095C17.2993 23.6825 17.0219 23.5054 16.7812 23.2781C16.5273 23.5054 16.2465 23.6825 15.9391 23.8095C15.6316 23.9365 15.3108 24 14.9766 24ZM17.5833 12.1693V21.3932C17.5833 21.674 17.6803 21.9112 17.8741 22.1051C18.0679 22.2989 18.3052 22.3958 18.5859 22.3958C18.8533 22.3958 19.0839 22.2889 19.2777 22.075C19.4716 21.8611 19.5752 21.6205 19.5885 21.3531C19.3078 21.2462 19.0505 21.1025 18.8165 20.922C18.5826 20.7415 18.372 20.5243 18.1849 20.2703C18.0512 20.0832 18.0011 19.8826 18.0345 19.6687C18.0679 19.4549 18.1782 19.2811 18.3654 19.1474C18.5525 19.0137 18.753 18.9636 18.9669 18.997C19.1808 19.0304 19.3546 19.1407 19.4883 19.3279C19.6353 19.5418 19.8225 19.7055 20.0497 19.8191C20.277 19.9328 20.5243 19.9896 20.7917 19.9896C21.2328 19.9896 21.6105 19.8325 21.9246 19.5184C22.2388 19.2042 22.3958 18.8266 22.3958 18.3854C22.3958 18.3186 22.3925 18.2517 22.3858 18.1849C22.3791 18.1181 22.3624 18.0512 22.3357 17.9844C22.1084 18.1181 21.8645 18.2183 21.6038 18.2852C21.3431 18.352 21.0724 18.3854 20.7917 18.3854C20.5644 18.3854 20.3739 18.3086 20.2202 18.1548C20.0665 18.0011 19.9896 17.8106 19.9896 17.5833C19.9896 17.3561 20.0665 17.1656 20.2202 17.0118C20.3739 16.8581 20.5644 16.7812 20.7917 16.7812C21.2328 16.7812 21.6105 16.6242 21.9246 16.31C22.2388 15.9959 22.3958 15.6182 22.3958 15.1771C22.3958 14.7359 22.2388 14.3616 21.9246 14.0542C21.6105 13.7467 21.2328 13.5863 20.7917 13.5729C20.6446 13.8135 20.4541 14.0241 20.2202 14.2046C19.9862 14.385 19.7289 14.5287 19.4482 14.6357C19.2343 14.7159 19.0271 14.7092 18.8266 14.6156C18.626 14.522 18.4924 14.3683 18.4255 14.1544C18.3587 13.9405 18.3687 13.7333 18.4556 13.5328C18.5425 13.3323 18.6929 13.1986 18.9068 13.1318C19.1073 13.0649 19.271 12.9446 19.398 12.7708C19.525 12.597 19.5885 12.3965 19.5885 12.1693C19.5885 11.8885 19.4916 11.6513 19.2978 11.4574C19.1039 11.2636 18.8667 11.1667 18.5859 11.1667C18.3052 11.1667 18.0679 11.2636 17.8741 11.4574C17.6803 11.6513 17.5833 11.8885 17.5833 12.1693ZM15.9792 21.3932V12.1693C15.9792 11.8885 15.8822 11.6513 15.6884 11.4574C15.4946 11.2636 15.2573 11.1667 14.9766 11.1667C14.6958 11.1667 14.4586 11.2636 14.2647 11.4574C14.0709 11.6513 13.974 11.8885 13.974 12.1693C13.974 12.3832 14.0341 12.5803 14.1544 12.7608C14.2747 12.9413 14.4352 13.0649 14.6357 13.1318C14.8496 13.1986 15.0033 13.3323 15.0969 13.5328C15.1905 13.7333 15.2038 13.9405 15.137 14.1544C15.0568 14.3683 14.9164 14.522 14.7159 14.6156C14.5154 14.7092 14.3082 14.7159 14.0943 14.6357C13.8135 14.5287 13.5562 14.385 13.3223 14.2046C13.0883 14.0241 12.8978 13.8135 12.7508 13.5729C12.323 13.5863 11.952 13.75 11.6379 14.0642C11.3237 14.3783 11.1667 14.7493 11.1667 15.1771C11.1667 15.6182 11.3237 15.9959 11.6379 16.31C11.952 16.6242 12.3297 16.7812 12.7708 16.7812C12.9981 16.7812 13.1886 16.8581 13.3423 17.0118C13.4961 17.1656 13.5729 17.3561 13.5729 17.5833C13.5729 17.8106 13.4961 18.0011 13.3423 18.1548C13.1886 18.3086 12.9981 18.3854 12.7708 18.3854C12.4901 18.3854 12.2194 18.352 11.9587 18.2852C11.698 18.2183 11.4541 18.1181 11.2268 17.9844C11.2001 18.0512 11.1834 18.1181 11.1767 18.1849C11.17 18.2517 11.1667 18.3186 11.1667 18.3854C11.1667 18.8266 11.3237 19.2042 11.6379 19.5184C11.952 19.8325 12.3297 19.9896 12.7708 19.9896C13.0382 19.9896 13.2855 19.9328 13.5128 19.8191C13.74 19.7055 13.9272 19.5418 14.0742 19.3279C14.2079 19.1407 14.3817 19.0304 14.5956 18.997C14.8095 18.9636 15.01 19.0137 15.1971 19.1474C15.3843 19.2811 15.4946 19.4549 15.528 19.6687C15.5614 19.8826 15.5113 20.0832 15.3776 20.2703C15.1905 20.5243 14.9766 20.7449 14.7359 20.932C14.4953 21.1192 14.2346 21.2662 13.9539 21.3732C13.9673 21.6405 14.0742 21.8778 14.2747 22.085C14.4753 22.2922 14.7092 22.3958 14.9766 22.3958C15.2573 22.3958 15.4946 22.2989 15.6884 22.1051C15.8822 21.9112 15.9792 21.674 15.9792 21.3932Z" fill="white"/>
</svg>