<svg width="72" height="86" viewBox="0 0 72 86" fill="none" xmlns="http://www.w3.org/2000/svg">
<path fill-rule="evenodd" clip-rule="evenodd" d="M1.625 68V8.62505C1.625 8.62505 3.1875 2.2688 7.875 2.2688C12.5625 2.2688 42.25 2.37505 42.25 2.37505V18.6813C42.25 18.6813 46.2938 24.25 48.5 24.25H61V53.1344C61 53.1344 43.5281 48.675 39.6812 65.2969C38.0812 72.2063 41.1937 74.8157 42.25 77.0813L7.875 77.375C7.875 77.375 1.625 75.35 1.625 68Z" fill="url(#paint0_linear_823_25074)"/>
<path fill-rule="evenodd" clip-rule="evenodd" d="M41.4969 78.9375H7.875C5.80313 78.9375 3.81561 78.1156 2.34998 76.65C0.884358 75.1844 0.0625 73.1969 0.0625 71.125C0.0625 57 0.0625 22.75 0.0625 8.625C0.0625 6.55313 0.884358 4.56563 2.34998 3.1C3.81561 1.63438 5.80313 0.8125 7.875 0.8125H42.25C42.7062 0.8125 43.1406 1.0125 43.4375 1.35937L62.1875 23.2344C62.4281 23.5156 62.5625 23.8781 62.5625 24.25V52.6906C68.125 55.5375 71.9375 61.3281 71.9375 68C71.9375 77.4875 64.2375 85.1875 54.75 85.1875C49.4188 85.1875 44.65 82.7531 41.4969 78.9375ZM54.75 53.9375C62.5125 53.9375 68.8125 60.2375 68.8125 68C68.8125 75.7625 62.5125 82.0625 54.75 82.0625C46.9875 82.0625 40.6875 75.7625 40.6875 68C40.6875 60.2375 46.9875 53.9375 54.75 53.9375ZM40.6875 3.9375H7.875C6.63125 3.9375 5.44061 4.43125 4.55936 5.30937C3.68124 6.19062 3.1875 7.38125 3.1875 8.625V71.125C3.1875 72.3688 3.68124 73.5594 4.55936 74.4406C5.44061 75.3188 6.63125 75.8125 7.875 75.8125H39.4406C38.2406 73.4688 37.5625 70.8125 37.5625 68C37.5625 58.5125 45.2625 50.8125 54.75 50.8125C56.375 50.8125 57.9469 51.0375 59.4375 51.4594V25.8125H48.5C44.1844 25.8125 40.6875 22.3156 40.6875 18V3.9375ZM43.8125 6.6V18C43.8125 20.5875 45.9125 22.6875 48.5 22.6875H57.6031L43.8125 6.6Z" fill="#BDEBFF"/>
<g clip-path="url(#clip0_823_25074)">
<path d="M59 66.9999C58.6933 66.9999 58.4173 66.8133 58.3033 66.5279L57.7347 65.2539L56.4587 64.6559C56.176 64.5366 55.994 64.2579 56 63.9513C56.006 63.6446 56.198 63.3726 56.4847 63.2639L57.7833 62.7719L58.3033 61.4713C58.4173 61.1866 58.6927 60.9993 59 60.9993C59.3073 60.9993 59.5827 61.1859 59.6967 61.4713L60.22 62.7799L61.5287 63.3033C61.8133 63.4173 62.0007 63.6926 62.0007 63.9999C62.0007 64.3073 61.814 64.5826 61.5287 64.6966L60.22 65.2199L59.6967 66.5286C59.5827 66.8133 59.3073 67.0006 59 67.0006V66.9999ZM61.108 67.9819C60.2933 68.3186 59.3627 68.4319 58.3907 68.2406C56.5773 67.8833 55.1167 66.4226 54.7593 64.6093C54.568 63.6373 54.6807 62.7066 55.018 61.8919C55.194 61.4659 54.882 60.9999 54.4213 60.9999H49.3333C47.4927 60.9999 46 62.4926 46 64.3333V73.6666C46 75.5073 47.4927 76.9999 49.3333 76.9999H58.6667C60.5073 76.9999 62 75.5073 62 73.6666V68.5786C62 68.1179 61.534 67.8059 61.108 67.9819ZM55.132 73.6666C54.8367 73.6666 54.578 73.4706 54.4973 73.1866L54.0687 71.6666H50.598L50.1693 73.1866C50.0893 73.4706 49.83 73.6666 49.5347 73.6666C49.0987 73.6666 48.7827 73.2506 48.8993 72.8306L50.96 65.4253C51.054 65.0199 51.3207 64.6786 51.692 64.4886C52.0707 64.2939 52.5053 64.2819 52.918 64.4553C53.3093 64.6193 53.6093 64.9999 53.7207 65.4786L55.768 72.8313C55.8847 73.2513 55.5693 73.6673 55.1327 73.6673L55.132 73.6666ZM58.6667 72.9999C58.6667 73.3679 58.368 73.6666 58 73.6666C57.632 73.6666 57.3333 73.3679 57.3333 72.9999V69.7253C57.3333 69.3573 57.632 69.0586 58 69.0586C58.368 69.0586 58.6667 69.3573 58.6667 69.7253V72.9999ZM52.26 65.7766L50.974 70.3333H53.692L52.406 65.7766C52.3867 65.7006 52.2787 65.7006 52.26 65.7766Z" fill="url(#paint1_linear_823_25074)"/>
</g>
<path d="M45.9375 44.875H11.5625C10.7 44.875 10 44.175 10 43.3125C10 42.45 10.7 41.75 11.5625 41.75H45.9375C46.8 41.75 47.5 42.45 47.5 43.3125C47.5 44.175 46.8 44.875 45.9375 44.875Z" fill="#BDEBFF"/>
<path d="M45.9375 35.5H11.5625C10.7 35.5 10 34.8 10 33.9375C10 33.075 10.7 32.375 11.5625 32.375H45.9375C46.8 32.375 47.5 33.075 47.5 33.9375C47.5 34.8 46.8 35.5 45.9375 35.5Z" fill="#BDEBFF"/>
<path d="M27.1875 26.125H11.5625C10.7 26.125 10 25.425 10 24.5625C10 23.7 10.7 23 11.5625 23H27.1875C28.05 23 28.75 23.7 28.75 24.5625C28.75 25.425 28.05 26.125 27.1875 26.125Z" fill="#BDEBFF"/>
<defs>
<linearGradient id="paint0_linear_823_25074" x1="-61.5" y1="-25" x2="72" y2="52.5" gradientUnits="userSpaceOnUse">
<stop stop-color="#003366"/>
<stop offset="1" stop-color="#87CEEB"/>
</linearGradient>
<linearGradient id="paint1_linear_823_25074" x1="28.9888" y1="55.1899" x2="60.2382" y2="78.1374" gradientUnits="userSpaceOnUse">
<stop stop-color="#003366"/>
<stop offset="1" stop-color="#87CEEB"/>
</linearGradient>
<clipPath id="clip0_823_25074">
<rect width="16" height="16" fill="white" transform="translate(46 61)"/>
</clipPath>
</defs>
</svg>
