<svg width="24" height="24" viewBox="0 0 24 24" fill="none" xmlns="http://www.w3.org/2000/svg">
<mask id="mask0_2611_61650" style="mask-type:alpha" maskUnits="userSpaceOnUse" x="0" y="0" width="24" height="24">
<rect width="24" height="24" fill="#D9D9D9"/>
</mask>
<g mask="url(#mask0_2611_61650)">
<path d="M11.2002 17.6501H6.8502C5.28703 17.6501 3.95461 17.0988 2.85295 15.9963C1.75111 14.8938 1.2002 13.5605 1.2002 11.9963C1.2002 10.4322 1.75111 9.1001 2.85295 8.0001C3.95461 6.9001 5.28703 6.3501 6.8502 6.3501H11.2002V9.0001H6.8502C6.01686 9.0001 5.30853 9.29176 4.7252 9.8751C4.14186 10.4584 3.8502 11.1668 3.8502 12.0001C3.8502 12.8334 4.14186 13.5418 4.7252 14.1251C5.30853 14.7084 6.01686 15.0001 6.8502 15.0001H11.2002V17.6501ZM7.5502 13.3001V10.6501H16.4502V13.3001H7.5502ZM12.8002 17.6501V15.0001H17.1502C17.9835 15.0001 18.6919 14.7084 19.2752 14.1251C19.8585 13.5418 20.1502 12.8334 20.1502 12.0001C20.1502 11.1668 19.8585 10.4584 19.2752 9.8751C18.6919 9.29176 17.9835 9.0001 17.1502 9.0001H12.8002V6.3501H17.1502C18.7134 6.3501 20.0459 6.90135 21.1477 8.00385C22.2494 9.10635 22.8002 10.4397 22.8002 12.0038C22.8002 13.568 22.2494 14.9001 21.1477 16.0001C20.0459 17.1001 18.7134 17.6501 17.1502 17.6501H12.8002Z" fill="#4DA3C7"/>
</g>
</svg>
