<svg width="42" height="42" viewBox="0 0 42 42" fill="none" xmlns="http://www.w3.org/2000/svg">
<rect width="42" height="42" rx="21" fill="#D9F0F9"/>
<mask id="mask0_110_170" style="mask-type:alpha" maskUnits="userSpaceOnUse" x="9" y="9" width="25" height="25">
<rect x="9.39941" y="9.03754" width="24" height="24" fill="#D9D9D9"/>
</mask>
<g mask="url(#mask0_110_170)">
<path d="M27.3994 24.7875C27.3994 26.5209 26.7911 27.9959 25.5744 29.2125C24.3577 30.4292 22.8827 31.0375 21.1494 31.0375C19.4161 31.0375 17.9411 30.4292 16.7244 29.2125C15.5077 27.9959 14.8994 26.5209 14.8994 24.7875V15.5375C14.8994 14.2875 15.3369 13.225 16.2119 12.35C17.0869 11.475 18.1494 11.0375 19.3994 11.0375C20.6494 11.0375 21.7119 11.475 22.5869 12.35C23.4619 13.225 23.8994 14.2875 23.8994 15.5375V24.2875C23.8994 25.0542 23.6327 25.7042 23.0994 26.2375C22.5661 26.7709 21.9161 27.0375 21.1494 27.0375C20.3827 27.0375 19.7327 26.7709 19.1994 26.2375C18.6661 25.7042 18.3994 25.0542 18.3994 24.2875V15.0375H20.3994V24.2875C20.3994 24.5042 20.4702 24.6834 20.6119 24.825C20.7536 24.9667 20.9327 25.0375 21.1494 25.0375C21.3661 25.0375 21.5452 24.9667 21.6869 24.825C21.8286 24.6834 21.8994 24.5042 21.8994 24.2875V15.5375C21.8827 14.8375 21.6369 14.2459 21.1619 13.7625C20.6869 13.2792 20.0994 13.0375 19.3994 13.0375C18.6994 13.0375 18.1077 13.2792 17.6244 13.7625C17.1411 14.2459 16.8994 14.8375 16.8994 15.5375V24.7875C16.8827 25.9709 17.2911 26.975 18.1244 27.8C18.9577 28.625 19.9661 29.0375 21.1494 29.0375C22.3161 29.0375 23.3077 28.625 24.1244 27.8C24.9411 26.975 25.3661 25.9709 25.3994 24.7875V15.0375H27.3994V24.7875Z" fill="#003366"/>
</g>
</svg>
