<svg xmlns="http://www.w3.org/2000/svg" width="24" height="24" viewBox="0 0 24 24" fill="none">
  <mask id="mask0_5842_106105" style="mask-type:alpha" maskUnits="userSpaceOnUse" x="0" y="0" width="24" height="24">
    <rect width="24" height="24" fill="#D9D9D9"/>
  </mask>
  <g mask="url(#mask0_5842_106105)">
    <path d="M13.484 4.85783C12.5658 4.32709 11.4342 4.32709 10.516 4.85783C8.54102 5.99949 8.54102 8.85051 10.516 9.99217C11.4342 10.5229 12.5658 10.5229 13.484 9.99217C15.459 8.85051 15.459 5.99949 13.484 4.85783ZM3 15.975V8.025C3 7.65833 3.0875 7.325 3.2625 7.025C3.4375 6.725 3.68333 6.48333 4 6.3L11 2.275C11.1667 2.19167 11.3292 2.125 11.4875 2.075C11.6458 2.025 11.8167 2 12 2C12.1833 2 12.3583 2.025 12.525 2.075C12.6917 2.125 12.85 2.19167 13 2.275L20 6.3C20.3167 6.48333 20.5625 6.725 20.7375 7.025C20.9125 7.325 21 7.65833 21 8.025V11C21 11.5523 20.5523 12 20 12C19.4477 12 19 11.5523 19 11V10.938C19 10.1208 18.1156 9.60986 17.4076 10.018L13.7209 12.1435C12.6409 12.7661 11.3103 12.7641 10.2322 12.1381L9.44776 11.6826C7.4738 10.5364 5 11.9606 5 14.2432C5 15.2996 5.56283 16.276 6.47699 16.8054L10.5023 19.1367C10.8103 19.3151 11 19.6442 11 20.0002C11 20.7676 10.17 21.2477 9.50476 20.8652L4 17.7C3.68333 17.5167 3.4375 17.275 3.2625 16.975C3.0875 16.675 3 16.3417 3 15.975ZM18 22C18.1333 22 18.25 21.95 18.35 21.85C18.45 21.75 18.5 21.6333 18.5 21.5C18.5 21.3667 18.45 21.25 18.35 21.15C18.25 21.05 18.1333 21 18 21C17.8667 21 17.75 21.05 17.65 21.15C17.55 21.25 17.5 21.3667 17.5 21.5C17.5 21.6333 17.55 21.75 17.65 21.85C17.75 21.95 17.8667 22 18 22ZM17.5 19.5C17.5 19.7761 17.7239 20 18 20C18.2761 20 18.5 19.7761 18.5 19.5V16.5C18.5 16.2239 18.2761 16 18 16C17.7239 16 17.5 16.2239 17.5 16.5V19.5ZM18 24C16.6167 24 15.4375 23.5125 14.4625 22.5375C13.4875 21.5625 13 20.3833 13 19C13 17.6167 13.4875 16.4375 14.4625 15.4625C15.4375 14.4875 16.6167 14 18 14C19.3833 14 20.5625 14.4875 21.5375 15.4625C22.5125 16.4375 23 17.6167 23 19C23 20.3833 22.5125 21.5625 21.5375 22.5375C20.5625 23.5125 19.3833 24 18 24Z" fill="#003366"/>
  </g>
</svg>