<svg width="16" height="17" viewBox="0 0 16 17" fill="none" xmlns="http://www.w3.org/2000/svg">
<mask id="mask0_3442_35541" style="mask-type:alpha" maskUnits="userSpaceOnUse" x="0" y="0" width="16" height="17">
<rect y="0.5" width="16" height="16" fill="#D9D9D9"/>
</mask>
<g mask="url(#mask0_3442_35541)">
<path d="M3.33333 14.4998C2.96667 14.4998 2.65278 14.3693 2.39167 14.1082C2.13056 13.8471 2 13.5332 2 13.1665V3.83317C2 3.4665 2.13056 3.15261 2.39167 2.8915C2.65278 2.63039 2.96667 2.49984 3.33333 2.49984H6.13333C6.27778 2.09984 6.51944 1.77762 6.85833 1.53317C7.19722 1.28873 7.57778 1.1665 8 1.1665C8.42222 1.1665 8.80278 1.28873 9.14167 1.53317C9.48056 1.77762 9.72222 2.09984 9.86667 2.49984H12.6667C13.0333 2.49984 13.3472 2.63039 13.6083 2.8915C13.8694 3.15261 14 3.4665 14 3.83317V13.1665C14 13.5332 13.8694 13.8471 13.6083 14.1082C13.3472 14.3693 13.0333 14.4998 12.6667 14.4998H3.33333ZM3.33333 13.1665H12.6667V3.83317H3.33333V13.1665ZM4.66667 11.8332H9.33333V10.4998H4.66667V11.8332ZM4.66667 9.1665H11.3333V7.83317H4.66667V9.1665ZM4.66667 6.49984H11.3333V5.1665H4.66667V6.49984ZM8 3.33317C8.14444 3.33317 8.26389 3.28595 8.35833 3.1915C8.45278 3.09706 8.5 2.97761 8.5 2.83317C8.5 2.68873 8.45278 2.56928 8.35833 2.47484C8.26389 2.38039 8.14444 2.33317 8 2.33317C7.85556 2.33317 7.73611 2.38039 7.64167 2.47484C7.54722 2.56928 7.5 2.68873 7.5 2.83317C7.5 2.97761 7.54722 3.09706 7.64167 3.1915C7.73611 3.28595 7.85556 3.33317 8 3.33317Z" fill="#4DA3C7"/>
</g>
</svg>
