<svg width="16" height="16" viewBox="0 0 16 16" fill="none" xmlns="http://www.w3.org/2000/svg">
<mask id="mask0_6918_72245" style="mask-type:alpha" maskUnits="userSpaceOnUse" x="0" y="0" width="16" height="16">
<rect width="16" height="16" fill="#D9D9D9"/>
</mask>
<g mask="url(#mask0_6918_72245)">
<path d="M7.9987 10.3335C8.36536 10.3335 8.67925 10.2029 8.94036 9.94183C9.20148 9.68072 9.33203 9.36683 9.33203 9.00016C9.33203 8.6335 9.20148 8.31961 8.94036 8.0585C8.67925 7.79739 8.36536 7.66683 7.9987 7.66683C7.63203 7.66683 7.31814 7.79739 7.05703 8.0585C6.79592 8.31961 6.66536 8.6335 6.66536 9.00016C6.66536 9.36683 6.79592 9.68072 7.05703 9.94183C7.31814 10.2029 7.63203 10.3335 7.9987 10.3335ZM2.66536 14.0002C2.2987 14.0002 1.98481 13.8696 1.7237 13.6085C1.46259 13.3474 1.33203 13.0335 1.33203 12.6668V5.3335C1.33203 4.96683 1.46259 4.65294 1.7237 4.39183C1.98481 4.13072 2.2987 4.00016 2.66536 4.00016H5.33203V2.66683C5.33203 2.30016 5.46259 1.98627 5.7237 1.72516C5.98481 1.46405 6.2987 1.3335 6.66536 1.3335H9.33203C9.6987 1.3335 10.0126 1.46405 10.2737 1.72516C10.5348 1.98627 10.6654 2.30016 10.6654 2.66683V4.00016H13.332C13.6987 4.00016 14.0126 4.13072 14.2737 4.39183C14.5348 4.65294 14.6654 4.96683 14.6654 5.3335V12.6668C14.6654 13.0335 14.5348 13.3474 14.2737 13.6085C14.0126 13.8696 13.6987 14.0002 13.332 14.0002H2.66536ZM2.66536 12.6668H13.332V5.3335H2.66536V12.6668ZM6.66536 4.00016H9.33203V2.66683H6.66536V4.00016Z" fill="#999999"/>
</g>
</svg>
