<svg xmlns="http://www.w3.org/2000/svg" width="18" height="18" viewBox="0 0 18 18" fill="none">
  <mask id="mask0_4928_96177" style="mask-type:alpha" maskUnits="userSpaceOnUse" x="0" y="0" width="18" height="18">
    <rect width="18" height="18" fill="#D9D9D9"/>
  </mask>
  <g mask="url(#mask0_4928_96177)">
    <path d="M3.75 15.7502C3.3375 15.7502 2.98438 15.6033 2.69063 15.3096C2.39688 15.0158 2.25 14.6627 2.25 14.2502V3.7502C2.25 3.3377 2.39688 2.98457 2.69063 2.69082C2.98438 2.39707 3.3375 2.2502 3.75 2.2502H10.4438L8.94375 3.7502H3.75V14.2502H14.25V9.03769L15.75 7.53769V14.2502C15.75 14.6627 15.6031 15.0158 15.3094 15.3096C15.0156 15.6033 14.6625 15.7502 14.25 15.7502H3.75ZM6.75 11.2502V8.0627L13.6313 1.18145C13.7812 1.03145 13.95 0.918945 14.1375 0.843945C14.325 0.768945 14.5125 0.731445 14.7 0.731445C14.9 0.731445 15.0906 0.768945 15.2719 0.843945C15.4531 0.918945 15.6187 1.03145 15.7687 1.18145L16.8188 2.2502C16.9563 2.4002 17.0625 2.56582 17.1375 2.74707C17.2125 2.92832 17.25 3.1127 17.25 3.3002C17.25 3.4877 17.2156 3.67207 17.1469 3.85332C17.0781 4.03457 16.9688 4.2002 16.8188 4.3502L9.9375 11.2502H6.75ZM8.25 9.7502H9.3L13.65 5.4002L13.125 4.8752L12.5813 4.3502L8.25 8.68145V9.7502Z" fill="#5C5C5C"/>
  </g>
</svg>