<svg width="16" height="16" viewBox="0 0 16 16" fill="none" xmlns="http://www.w3.org/2000/svg">
<mask id="mask0_2687_33419" style="mask-type:alpha" maskUnits="userSpaceOnUse" x="0" y="0" width="16" height="16">
<rect width="16" height="16" fill="#D9D9D9"/>
</mask>
<g mask="url(#mask0_2687_33419)">
<path d="M3.33333 14C2.96667 14 2.65278 13.8694 2.39167 13.6083C2.13056 13.3472 2 13.0333 2 12.6667V3.33333C2 2.96666 2.13056 2.65277 2.39167 2.39166C2.65278 2.13055 2.96667 1.99999 3.33333 1.99999H9.28333L7.95 3.33333H3.33333V12.6667H12.6667V8.03333L14 6.69999V12.6667C14 13.0333 13.8694 13.3472 13.6083 13.6083C13.3472 13.8694 13.0333 14 12.6667 14H3.33333ZM6 9.99999V7.16666L12.1167 1.04999C12.25 0.916661 12.4 0.816661 12.5667 0.749994C12.7333 0.683327 12.9 0.649994 13.0667 0.649994C13.2444 0.649994 13.4139 0.683327 13.575 0.749994C13.7361 0.816661 13.8833 0.916661 14.0167 1.04999L14.95 1.99999C15.0722 2.13333 15.1667 2.28055 15.2333 2.44166C15.3 2.60277 15.3333 2.76666 15.3333 2.93333C15.3333 3.09999 15.3028 3.26388 15.2417 3.42499C15.1806 3.58611 15.0833 3.73333 14.95 3.86666L8.83333 9.99999H6ZM7.33333 8.66666H8.26667L12.1333 4.79999L11.6667 4.33333L11.1833 3.86666L7.33333 7.71666V8.66666Z" fill="white"/>
</g>
</svg>
