<svg width="16" height="16" viewBox="0 0 16 16" fill="none" xmlns="http://www.w3.org/2000/svg">
<mask id="mask0_6918_72255" style="mask-type:alpha" maskUnits="userSpaceOnUse" x="0" y="0" width="16" height="16">
<rect width="16" height="16" fill="#D9D9D9"/>
</mask>
<g mask="url(#mask0_6918_72255)">
<path d="M8.0026 0.666992L14.0359 4.26699C14.2359 4.38921 14.3915 4.55588 14.5026 4.76699C14.6137 4.9781 14.6693 5.20033 14.6693 5.43366V12.667C14.6693 13.0337 14.5387 13.3475 14.2776 13.6087C14.0165 13.8698 13.7026 14.0003 13.3359 14.0003H2.66927C2.3026 14.0003 1.98872 13.8698 1.7276 13.6087C1.46649 13.3475 1.33594 13.0337 1.33594 12.667V5.43366C1.33594 5.20033 1.39149 4.9781 1.5026 4.76699C1.61372 4.55588 1.76927 4.38921 1.96927 4.26699L8.0026 0.666992ZM8.0026 8.43366L13.2026 5.33366L8.0026 2.23366L2.8026 5.33366L8.0026 8.43366ZM8.0026 10.0003L2.66927 6.80033V12.667H13.3359V6.80033L8.0026 10.0003Z" fill="#999999"/>
</g>
</svg>
