<svg width="127" height="103" viewBox="0 0 127 103" fill="none" xmlns="http://www.w3.org/2000/svg">
<g clip-path="url(#clip0_5901_93824)">
<g opacity="0.5">
<path d="M0.900414 35.6784C0.921061 35.6371 0.941708 35.6009 0.962355 35.5648C0.977841 35.539 0.993326 35.5132 1.00881 35.4822C1.0243 35.4564 1.03978 35.4254 1.05527 35.3996C1.62306 34.3828 2.4283 33.5569 3.35226 33.1543L3.61551 33.0407L35.3088 19.2226L67.0021 5.40455L67.2654 5.29099C68.1893 4.88838 69.0565 4.98645 69.7379 5.45617C69.7585 5.4665 69.774 5.48198 69.7947 5.4923C69.8153 5.50779 69.8308 5.51811 69.8514 5.5336L73.5215 8.24353L71.147 8.95069L74.2957 51.4941C74.3783 52.5935 74.0634 53.7549 73.4905 54.7718C73.475 54.8028 73.4595 54.8286 73.444 54.8595C73.4286 54.8853 73.4131 54.9112 73.3976 54.937C72.8298 55.9538 72.0246 56.7797 71.1006 57.1823L7.88946 84.7411L8.14239 87.4149L4.66335 84.8391C4.66335 84.8391 4.62722 84.8133 4.60657 84.7978C3.92522 84.3281 3.46582 83.5022 3.38323 82.4028L0.157118 38.8425C0.0796915 37.7844 0.363589 36.6694 0.895252 35.6784H0.900414Z" fill="white"/>
<path d="M10.7986 87.7141L74.7066 59.8456C76.6371 59.0043 78.0566 56.315 77.8759 53.8425L74.6963 10.9017C74.5156 8.42918 72.7967 7.10776 70.8662 7.9543L6.95827 35.8227C5.02776 36.6641 3.60828 39.3534 3.78894 41.8259L6.96859 84.7667C7.14925 87.2392 8.86813 88.5606 10.7986 87.7141Z" fill="url(#paint0_linear_5901_93824)"/>
<path d="M7.21998 35.7092L38.9133 21.8911L42.6504 72.3733L11.0603 87.6057C8.98531 88.509 7.1632 87.3786 6.99286 85.0816L3.76675 41.5162C3.59641 39.214 5.13979 36.6177 7.21998 35.7144V35.7092Z" fill="url(#paint1_linear_5901_93824)"/>
<path d="M70.6074 8.06763L38.9141 21.8857L42.6254 72.0479L74.4477 59.9538C76.5228 59.0505 78.0713 56.449 77.901 54.152L74.6749 10.5866C74.5045 8.28443 72.6824 7.154 70.6074 8.06247V8.06763Z" fill="url(#paint2_linear_5901_93824)"/>
<path d="M77.1588 57.3216C76.5342 58.4882 75.5689 59.4689 74.4488 59.9593L11.0622 87.6006C9.94209 88.091 8.89424 87.9826 8.14062 87.4199L40.3501 41.3149L77.1588 57.3216Z" fill="url(#paint3_linear_5901_93824)"/>
<path d="M4.51172 38.3468C5.13629 37.1802 6.10155 36.1995 7.22165 35.7091L70.6083 8.0678C71.7284 7.57743 72.7762 7.68583 73.5299 8.24846L41.3204 54.3535L4.51172 38.3468Z" fill="url(#paint4_linear_5901_93824)"/>
<path d="M18.1256 43.9632C18.1462 43.9219 18.1617 43.8754 18.1823 43.8341C18.1978 43.8032 18.2081 43.7722 18.2236 43.7412C18.2391 43.7102 18.2546 43.6793 18.2701 43.6483C18.8018 42.5075 19.5967 41.5526 20.5568 41.0468L20.8303 40.9022L53.8038 23.4503L86.7772 5.9983L87.0508 5.85377C88.0109 5.34791 88.9555 5.37888 89.7246 5.83312C89.7452 5.84344 89.7659 5.85893 89.7865 5.86925C89.8072 5.88474 89.8278 5.89506 89.8484 5.90538L94.0192 8.52241L91.5209 9.47217L98.3757 54.9887C98.5512 56.1604 98.3086 57.4406 97.7769 58.5813C97.7615 58.6123 97.746 58.6433 97.7356 58.6794C97.7202 58.7104 97.7098 58.7413 97.6944 58.7671C97.1627 59.9079 96.3678 60.8628 95.4077 61.3687L29.6415 96.1746L30.1319 99.0342L26.1831 96.5462C26.1831 96.5462 26.1418 96.5204 26.1212 96.5101C25.3469 96.061 24.7842 95.2093 24.6087 94.0324L17.5887 47.4267C17.4184 46.2963 17.6352 45.0678 18.1256 43.9632Z" fill="white"/>
<path d="M33.0138 99.1425L99.5026 63.9495C101.516 62.8861 102.822 59.8768 102.424 57.234L95.5074 11.289C95.11 8.64618 93.1588 7.36606 91.1457 8.42939L24.6569 43.6275C22.6438 44.6909 21.3378 47.7002 21.7353 50.343L28.6521 96.288C29.0495 98.9308 31.0007 100.211 33.0138 99.1476V99.1425Z" fill="url(#paint5_linear_5901_93824)"/>
<path d="M24.9247 43.483L57.8981 26.031L66.0331 80.0387L33.2868 98.9979C31.124 100.144 29.0748 99.0753 28.7031 96.6132L21.6831 50.0075C21.3114 47.5453 22.7619 44.6237 24.9247 43.483Z" fill="url(#paint6_linear_5901_93824)"/>
<path d="M90.8719 8.57923L57.8984 26.0312L65.9818 79.6982L99.2339 64.0941C101.397 62.9482 102.847 60.0267 102.476 57.5697L95.4555 10.964C95.0839 8.50181 93.0346 7.43332 90.8719 8.57923Z" fill="url(#paint7_linear_5901_93824)"/>
<path d="M101.932 61.033C101.354 62.3337 100.399 63.4745 99.227 64.0939L33.2801 98.9978C32.1135 99.6172 30.9779 99.5811 30.1211 99.0391L61.0195 46.8123L101.927 61.033H101.932Z" fill="url(#paint8_linear_5901_93824)"/>
<path d="M22.2266 46.5441C22.8047 45.2433 23.7596 44.1026 24.9313 43.4832L90.8731 8.57922C92.0396 7.95981 93.1752 7.99594 94.0321 8.53793L63.1337 60.7648L22.2266 46.5441Z" fill="url(#paint9_linear_5901_93824)"/>
</g>
<path d="M36.358 43.7667C36.3787 43.7203 36.3942 43.6738 36.4148 43.6274C36.4303 43.5964 36.4406 43.5603 36.4561 43.5293C36.4716 43.4932 36.4871 43.4622 36.5026 43.4261C37.0239 42.1872 37.8343 41.1446 38.8357 40.5613L39.1196 40.3961L73.559 20.5026L107.993 0.619448L108.277 0.454272C109.278 -0.123847 110.285 -0.129009 111.126 0.325227C111.152 0.335551 111.173 0.351036 111.193 0.36136C111.214 0.376845 111.24 0.387168 111.261 0.397492L115.808 3.01967L113.186 4.12946L122.281 52.3508C122.513 53.5948 122.307 54.9678 121.785 56.2015C121.77 56.2376 121.754 56.2686 121.744 56.3047C121.729 56.3357 121.718 56.3718 121.703 56.4028C121.182 57.6416 120.371 58.6894 119.37 59.2676L50.682 98.941L51.3169 101.966L47.0119 99.4726C47.0119 99.4726 46.9655 99.4468 46.9448 99.4365C46.1035 98.9874 45.4737 98.0996 45.2363 96.8556L35.9244 47.4781C35.6973 46.2805 35.8831 44.9643 36.3632 43.7667H36.358Z" fill="white"/>
<path d="M54.3934 101.966L123.84 61.8537C125.941 60.6406 127.216 57.3887 126.684 54.5859L117.506 5.91547C116.98 3.11263 114.848 1.82735 112.747 3.04036L43.3008 43.1474C41.1999 44.3604 39.9249 47.6123 40.4566 50.4152L49.6343 99.0856C50.1608 101.888 52.2926 103.174 54.3934 101.961V101.966Z" fill="url(#paint10_linear_5901_93824)"/>
<path d="M43.5844 42.9821L78.0238 23.0886L88.8171 80.3069L54.6771 101.795C52.4214 103.101 50.1915 102.043 49.7011 99.4365L40.3893 50.0589C39.8989 47.4522 41.3287 44.2829 43.5844 42.977V42.9821Z" fill="url(#paint11_linear_5901_93824)"/>
<path d="M112.463 3.20022L78.0234 23.0937L88.7496 79.9507L123.561 62.0187C125.816 60.7127 127.246 57.5434 126.756 54.9367L117.444 5.55915C116.954 2.95245 114.724 1.89429 112.468 3.20022H112.463Z" fill="url(#paint12_linear_5901_93824)"/>
<path d="M126.312 58.6482C125.749 60.0574 124.774 61.3117 123.555 62.0137L54.6767 101.796C53.4585 102.498 52.2507 102.508 51.3164 101.966L82.1787 45.1089L126.317 58.6482H126.312Z" fill="url(#paint13_linear_5901_93824)"/>
<path d="M40.8242 46.3531C41.3869 44.9439 42.3624 43.6896 43.5806 42.9876L112.465 3.20062C113.683 2.49861 114.891 2.48829 115.825 3.03028L84.9626 59.8873L40.8242 46.3479V46.3531Z" fill="url(#paint14_linear_5901_93824)"/>
</g>
<defs>
<linearGradient id="paint0_linear_5901_93824" x1="44.9889" y1="46.0629" x2="-25.7722" y2="76.9189" gradientUnits="userSpaceOnUse">
<stop stop-color="#7BDAFF"/>
<stop offset="1" stop-color="#59BDEF"/>
</linearGradient>
<linearGradient id="paint1_linear_5901_93824" x1="-24.0649" y1="125.875" x2="0.593739" y2="65.2554" gradientUnits="userSpaceOnUse">
<stop offset="0.77" stop-color="#59BDEF"/>
<stop offset="0.85" stop-color="#54B8EB"/>
<stop offset="0.93" stop-color="#48AAE1"/>
<stop offset="1" stop-color="#3A9BD5"/>
</linearGradient>
<linearGradient id="paint2_linear_5901_93824" x1="86.8006" y1="77.4113" x2="25.5941" y2="54.2294" gradientUnits="userSpaceOnUse">
<stop offset="0.77" stop-color="#59BDEF"/>
<stop offset="0.85" stop-color="#54B8EB"/>
<stop offset="0.93" stop-color="#48AAE1"/>
<stop offset="1" stop-color="#3A9BD5"/>
</linearGradient>
<linearGradient id="paint3_linear_5901_93824" x1="38.8979" y1="128.665" x2="9.99649" y2="62.3862" gradientUnits="userSpaceOnUse">
<stop offset="0.77" stop-color="#3A9BD5"/>
<stop offset="0.84" stop-color="#3796D1"/>
<stop offset="0.92" stop-color="#3088C8"/>
<stop offset="1" stop-color="#2573BA"/>
</linearGradient>
<linearGradient id="paint4_linear_5901_93824" x1="19.3054" y1="19.2182" x2="-30.9872" y2="77.2027" gradientUnits="userSpaceOnUse">
<stop stop-color="#7BDAFF"/>
<stop offset="1" stop-color="#59BDEF"/>
</linearGradient>
<linearGradient id="paint5_linear_5901_93824" x1="53.2666" y1="58.5455" x2="-20.3539" y2="97.5091" gradientUnits="userSpaceOnUse">
<stop stop-color="#7BDAFF"/>
<stop offset="1" stop-color="#59BDEF"/>
</linearGradient>
<linearGradient id="paint6_linear_5901_93824" x1="-14.5279" y1="150.041" x2="7.06605" y2="82.81" gradientUnits="userSpaceOnUse">
<stop offset="0.77" stop-color="#59BDEF"/>
<stop offset="0.85" stop-color="#54B8EB"/>
<stop offset="0.93" stop-color="#48AAE1"/>
<stop offset="1" stop-color="#3A9BD5"/>
</linearGradient>
<linearGradient id="paint7_linear_5901_93824" x1="100.179" y1="89.1061" x2="32.4434" y2="69.1531" gradientUnits="userSpaceOnUse">
<stop offset="0.77" stop-color="#59BDEF"/>
<stop offset="0.85" stop-color="#54B8EB"/>
<stop offset="0.93" stop-color="#48AAE1"/>
<stop offset="1" stop-color="#3A9BD5"/>
</linearGradient>
<linearGradient id="paint8_linear_5901_93824" x1="53.4404" y1="147.911" x2="16.9468" y2="78.9579" gradientUnits="userSpaceOnUse">
<stop offset="0.77" stop-color="#3A9BD5"/>
<stop offset="0.84" stop-color="#3796D1"/>
<stop offset="0.92" stop-color="#3088C8"/>
<stop offset="1" stop-color="#2573BA"/>
</linearGradient>
<linearGradient id="paint9_linear_5901_93824" x1="23.4484" y1="31.7587" x2="-25.9395" y2="98.2407" gradientUnits="userSpaceOnUse">
<stop stop-color="#7BDAFF"/>
<stop offset="1" stop-color="#59BDEF"/>
</linearGradient>
<linearGradient id="paint10_linear_5901_93824" x1="71.2774" y1="59.6718" x2="-5.61041" y2="104.081" gradientUnits="userSpaceOnUse">
<stop stop-color="#7BDAFF"/>
<stop offset="1" stop-color="#59BDEF"/>
</linearGradient>
<linearGradient id="paint11_linear_5901_93824" x1="2.66627" y1="159.809" x2="23.0188" y2="87.3421" gradientUnits="userSpaceOnUse">
<stop offset="0.77" stop-color="#59BDEF"/>
<stop offset="0.85" stop-color="#54B8EB"/>
<stop offset="0.93" stop-color="#48AAE1"/>
<stop offset="1" stop-color="#3A9BD5"/>
</linearGradient>
<linearGradient id="paint12_linear_5901_93824" x1="122.247" y1="90.6189" x2="49.3056" y2="72.0366" gradientUnits="userSpaceOnUse">
<stop offset="0.77" stop-color="#59BDEF"/>
<stop offset="0.85" stop-color="#54B8EB"/>
<stop offset="0.93" stop-color="#48AAE1"/>
<stop offset="1" stop-color="#3A9BD5"/>
</linearGradient>
<linearGradient id="paint13_linear_5901_93824" x1="74.987" y1="154.865" x2="33.3911" y2="82.8475" gradientUnits="userSpaceOnUse">
<stop offset="0.77" stop-color="#3A9BD5"/>
<stop offset="0.84" stop-color="#3796D1"/>
<stop offset="0.92" stop-color="#3088C8"/>
<stop offset="1" stop-color="#2573BA"/>
</linearGradient>
<linearGradient id="paint14_linear_5901_93824" x1="38.456" y1="32.3075" x2="-11.5338" y2="105.08" gradientUnits="userSpaceOnUse">
<stop stop-color="#7BDAFF"/>
<stop offset="1" stop-color="#59BDEF"/>
</linearGradient>
<clipPath id="clip0_5901_93824">
<rect width="126.701" height="102.42" fill="white" transform="translate(0.148438)"/>
</clipPath>
</defs>
</svg>