<svg width="24" height="24" viewBox="0 0 24 24" fill="none" xmlns="http://www.w3.org/2000/svg">
<mask id="mask0_1953_37632" style="mask-type:alpha" maskUnits="userSpaceOnUse" x="0" y="0" width="24" height="24">
<rect width="24" height="24" fill="#D9D9D9"/>
</mask>
<g mask="url(#mask0_1953_37632)">
<path d="M12.0016 22.025C11.7349 22.025 11.4807 21.975 11.2391 21.875C10.9974 21.775 10.7766 21.6333 10.5766 21.45L2.55156 13.425C2.36823 13.225 2.22656 13.0042 2.12656 12.7625C2.02656 12.5208 1.97656 12.2667 1.97656 12C1.97656 11.7333 2.02656 11.475 2.12656 11.225C2.22656 10.975 2.36823 10.7583 2.55156 10.575L10.5766 2.55001C10.7766 2.35001 10.9974 2.20417 11.2391 2.11251C11.4807 2.02084 11.7349 1.97501 12.0016 1.97501C12.2682 1.97501 12.5266 2.02084 12.7766 2.11251C13.0266 2.20417 13.2432 2.35001 13.4266 2.55001L21.4516 10.575C21.6516 10.7583 21.7974 10.975 21.8891 11.225C21.9807 11.475 22.0266 11.7333 22.0266 12C22.0266 12.2667 21.9807 12.5208 21.8891 12.7625C21.7974 13.0042 21.6516 13.225 21.4516 13.425L13.4266 21.45C13.2432 21.6333 13.0266 21.775 12.7766 21.875C12.5266 21.975 12.2682 22.025 12.0016 22.025ZM12.0016 20.025L20.0266 12L12.0016 3.97501L3.97656 12L12.0016 20.025ZM11.0016 13H13.0016V7.00001H11.0016V13ZM12.0016 16C12.2849 16 12.5224 15.9042 12.7141 15.7125C12.9057 15.5208 13.0016 15.2833 13.0016 15C13.0016 14.7167 12.9057 14.4792 12.7141 14.2875C12.5224 14.0958 12.2849 14 12.0016 14C11.7182 14 11.4807 14.0958 11.2891 14.2875C11.0974 14.4792 11.0016 14.7167 11.0016 15C11.0016 15.2833 11.0974 15.5208 11.2891 15.7125C11.4807 15.9042 11.7182 16 12.0016 16Z" fill="#DC6E6E"/>
</g>
</svg>
