<svg width="16" height="16" viewBox="0 0 16 16" fill="none" xmlns="http://www.w3.org/2000/svg">
<mask id="mask0_2687_36875" style="mask-type:alpha" maskUnits="userSpaceOnUse" x="0" y="0" width="16" height="16">
<rect width="16" height="16" fill="#D9D9D9"/>
</mask>
<g mask="url(#mask0_2687_36875)">
<path d="M7.9974 10.6667C8.83073 10.6667 9.53906 10.375 10.1224 9.79167C10.7057 9.20834 10.9974 8.50001 10.9974 7.66667C10.9974 6.83334 10.7057 6.12501 10.1224 5.54167C9.53906 4.95834 8.83073 4.66667 7.9974 4.66667C7.16406 4.66667 6.45573 4.95834 5.8724 5.54167C5.28906 6.12501 4.9974 6.83334 4.9974 7.66667C4.9974 8.50001 5.28906 9.20834 5.8724 9.79167C6.45573 10.375 7.16406 10.6667 7.9974 10.6667ZM7.9974 9.46667C7.4974 9.46667 7.0724 9.29167 6.7224 8.94167C6.3724 8.59167 6.1974 8.16667 6.1974 7.66667C6.1974 7.16667 6.3724 6.74167 6.7224 6.39167C7.0724 6.04167 7.4974 5.86667 7.9974 5.86667C8.4974 5.86667 8.9224 6.04167 9.2724 6.39167C9.6224 6.74167 9.79739 7.16667 9.79739 7.66667C9.79739 8.16667 9.6224 8.59167 9.2724 8.94167C8.9224 9.29167 8.4974 9.46667 7.9974 9.46667ZM7.9974 12.6667C6.37517 12.6667 4.8974 12.2139 3.56406 11.3083C2.23073 10.4028 1.26406 9.18889 0.664062 7.66667C1.26406 6.14445 2.23073 4.93056 3.56406 4.02501C4.8974 3.11945 6.37517 2.66667 7.9974 2.66667C9.61962 2.66667 11.0974 3.11945 12.4307 4.02501C13.7641 4.93056 14.7307 6.14445 15.3307 7.66667C14.7307 9.18889 13.7641 10.4028 12.4307 11.3083C11.0974 12.2139 9.61962 12.6667 7.9974 12.6667ZM7.9974 11.3333C9.25295 11.3333 10.4057 11.0028 11.4557 10.3417C12.5057 9.68056 13.3085 8.78889 13.8641 7.66667C13.3085 6.54445 12.5057 5.65278 11.4557 4.99167C10.4057 4.33056 9.25295 4.00001 7.9974 4.00001C6.74184 4.00001 5.58906 4.33056 4.53906 4.99167C3.48906 5.65278 2.68628 6.54445 2.13073 7.66667C2.68628 8.78889 3.48906 9.68056 4.53906 10.3417C5.58906 11.0028 6.74184 11.3333 7.9974 11.3333Z" fill="white"/>
</g>
</svg>
