<svg width="24" height="25" viewBox="0 0 24 25" fill="none" xmlns="http://www.w3.org/2000/svg">
<mask id="mask0_5901_73250" style="mask-type:alpha" maskUnits="userSpaceOnUse" x="0" y="0" width="24" height="25">
<rect y="0.5" width="24" height="24" fill="#D9D9D9"/>
</mask>
<g mask="url(#mask0_5901_73250)">
<path d="M16.1 13.8L14.65 12.35C14.8 11.5667 14.575 10.8334 13.975 10.15C13.375 9.46672 12.6 9.20005 11.65 9.35005L10.2 7.90005C10.4833 7.76672 10.7708 7.66672 11.0625 7.60005C11.3542 7.53338 11.6667 7.50005 12 7.50005C13.25 7.50005 14.3125 7.93755 15.1875 8.81255C16.0625 9.68755 16.5 10.75 16.5 12C16.5 12.3334 16.4667 12.6459 16.4 12.9375C16.3333 13.2292 16.2333 13.5167 16.1 13.8ZM19.3 16.9501L17.85 15.55C18.4833 15.0667 19.0458 14.5375 19.5375 13.9626C20.0292 13.3876 20.45 12.7334 20.8 12C19.9667 10.3167 18.7708 8.97922 17.2125 7.98755C15.6542 6.99588 13.9167 6.50005 12 6.50005C11.5167 6.50005 11.0417 6.53338 10.575 6.60005C10.1083 6.66672 9.65 6.76672 9.2 6.90005L7.65 5.35005C8.33333 5.06672 9.03333 4.85422 9.75 4.71255C10.4667 4.57088 11.2167 4.50005 12 4.50005C14.5167 4.50005 16.7583 5.19588 18.725 6.58755C20.6917 7.97922 22.1167 9.78338 23 12C22.6167 12.9834 22.1125 13.8959 21.4875 14.7375C20.8625 15.5792 20.1333 16.3167 19.3 16.9501ZM19.8 23.1L15.6 18.9501C15.0167 19.1334 14.4292 19.2709 13.8375 19.3626C13.2458 19.4542 12.6333 19.5 12 19.5C9.48333 19.5 7.24167 18.8042 5.275 17.4125C3.30833 16.0209 1.88333 14.2167 1 12C1.35 11.1167 1.79167 10.2959 2.325 9.53755C2.85833 8.77922 3.46667 8.10005 4.15 7.50005L1.4 4.70005L2.8 3.30005L21.2 21.7001L19.8 23.1ZM5.55 8.90005C5.06667 9.33338 4.625 9.80838 4.225 10.325C3.825 10.8417 3.48333 11.4 3.2 12C4.03333 13.6834 5.22917 15.0209 6.7875 16.0126C8.34583 17.0042 10.0833 17.5001 12 17.5001C12.3333 17.5001 12.6583 17.4792 12.975 17.4376C13.2917 17.3959 13.6167 17.35 13.95 17.3L13.05 16.35C12.8667 16.4001 12.6917 16.4376 12.525 16.4626C12.3583 16.4875 12.1833 16.5 12 16.5C10.75 16.5 9.6875 16.0625 8.8125 15.1875C7.9375 14.3125 7.5 13.25 7.5 12C7.5 11.8167 7.5125 11.6417 7.5375 11.475C7.5625 11.3084 7.6 11.1334 7.65 10.95L5.55 8.90005Z" fill="#C2C2C2"/>
</g>
</svg>
