<svg xmlns="http://www.w3.org/2000/svg" width="16" height="16" viewBox="0 0 16 16" fill="none">
  <path d="M3.5 9.5H9.5V8H3.5V9.5ZM3.5 7.25H12.5V5.75H3.5V7.25ZM3.5 5H12.5V3.5H3.5V5ZM0.5 15.5V2C0.5 1.5875 0.646875 1.23438 0.940625 0.940625C1.23438 0.646875 1.5875 0.5 2 0.5H14C14.4125 0.5 14.7656 0.646875 15.0594 0.940625C15.3531 1.23438 15.5 1.5875 15.5 2V11C15.5 11.4125 15.3531 11.7656 15.0594 12.0594C14.7656 12.3531 14.4125 12.5 14 12.5H3.5L0.5 15.5ZM2.8625 11H14V2H2V11.8438L2.8625 11Z" fill="#007BFF"/>
</svg>