<svg width="20" height="21" viewBox="0 0 20 21" fill="none" xmlns="http://www.w3.org/2000/svg">
<mask id="mask0_568_62" style="mask-type:alpha" maskUnits="userSpaceOnUse" x="0" y="0" width="20" height="21">
<rect y="0.5" width="20" height="20" fill="#D9D9D9"/>
</mask>
<g mask="url(#mask0_568_62)">
<path d="M4.16667 17.9997C3.70833 17.9997 3.31597 17.8365 2.98958 17.5101C2.66319 17.1837 2.5 16.7913 2.5 16.333V4.66634C2.5 4.20801 2.66319 3.81565 2.98958 3.48926C3.31597 3.16287 3.70833 2.99967 4.16667 2.99967H7.66667C7.84722 2.49967 8.14931 2.0969 8.57292 1.79134C8.99653 1.48579 9.47222 1.33301 10 1.33301C10.5278 1.33301 11.0035 1.48579 11.4271 1.79134C11.8507 2.0969 12.1528 2.49967 12.3333 2.99967H15.8333C16.2917 2.99967 16.684 3.16287 17.0104 3.48926C17.3368 3.81565 17.5 4.20801 17.5 4.66634V16.333C17.5 16.7913 17.3368 17.1837 17.0104 17.5101C16.684 17.8365 16.2917 17.9997 15.8333 17.9997H4.16667ZM4.16667 16.333H15.8333V4.66634H4.16667V16.333ZM5.83333 14.6663H11.6667V12.9997H5.83333V14.6663ZM5.83333 11.333H14.1667V9.66634H5.83333V11.333ZM5.83333 7.99967H14.1667V6.33301H5.83333V7.99967ZM10 4.04134C10.1806 4.04134 10.3299 3.98231 10.4479 3.86426C10.566 3.7462 10.625 3.5969 10.625 3.41634C10.625 3.23579 10.566 3.08648 10.4479 2.96842C10.3299 2.85037 10.1806 2.79134 10 2.79134C9.81944 2.79134 9.67014 2.85037 9.55208 2.96842C9.43403 3.08648 9.375 3.23579 9.375 3.41634C9.375 3.5969 9.43403 3.7462 9.55208 3.86426C9.67014 3.98231 9.81944 4.04134 10 4.04134Z" fill="#5C5C5C"/>
</g>
</svg>
