<svg width="60" height="60" viewBox="0 0 60 60" fill="none" xmlns="http://www.w3.org/2000/svg">
<circle cx="30" cy="30" r="30" fill="#5CB6DB"/>
<path d="M42.5883 32.15L41.3495 30.9125C41.1601 30.7216 40.9345 30.5702 40.686 30.4672C40.4375 30.3642 40.171 30.3116 39.902 30.3125C39.6326 30.312 39.3657 30.3651 39.1169 30.4687C38.8682 30.5724 38.6426 30.7245 38.4533 30.9163L31.5895 37.8113C31.5025 37.898 31.4336 38.0011 31.3866 38.1146C31.3396 38.2281 31.3155 38.3497 31.3158 38.4725V41.25C31.3158 41.4987 31.4145 41.7371 31.5904 41.913C31.7662 42.0888 32.0046 42.1875 32.2533 42.1875H35.032C35.2799 42.1872 35.5177 42.0888 35.6933 41.9138L42.5883 35.0513C42.779 34.8609 42.9302 34.6348 43.0334 34.3859C43.1366 34.1369 43.1898 33.8701 43.1898 33.6007C43.1898 33.3312 43.1366 33.0644 43.0334 32.8155C42.9302 32.5666 42.779 32.3404 42.5883 32.15ZM39.902 32.1875C39.9253 32.1869 39.9484 32.1912 39.9699 32.2C39.9914 32.2088 40.0109 32.222 40.027 32.2388L41.2645 33.4763C41.281 33.4926 41.2941 33.5121 41.3029 33.5336C41.3117 33.555 41.3161 33.5781 41.3158 33.6013C41.3162 33.6245 41.3119 33.6476 41.3031 33.6691C41.2943 33.6906 41.2812 33.7101 41.2645 33.7263L40.4695 34.5175L38.9895 33.0375L39.7808 32.2425C39.7964 32.2259 39.8151 32.2124 39.8359 32.203C39.8567 32.1935 39.8792 32.1883 39.902 32.1875ZM34.642 40.3125H33.1883V38.8588L37.6645 34.3588L39.1383 35.8325L34.642 40.3125ZM28.5008 39.0625H23.5008C21.5295 39.0625 20.6883 38.2213 20.6883 36.25V21.25C20.6883 19.2788 21.5295 18.4375 23.5008 18.4375H30.0633V21.25C29.9899 21.8834 30.0606 22.5251 30.2702 23.1272C30.4799 23.7293 30.8229 24.2763 31.2737 24.7271C31.7246 25.1779 32.2715 25.521 32.8736 25.7306C33.4757 25.9402 34.1175 26.011 34.7508 25.9375H37.5633V27.5C37.5633 27.7487 37.662 27.9871 37.8379 28.163C38.0137 28.3388 38.2521 28.4375 38.5008 28.4375C38.7494 28.4375 38.9879 28.3388 39.1637 28.163C39.3395 27.9871 39.4383 27.7487 39.4383 27.5V25C39.4384 24.8769 39.4141 24.755 39.3669 24.6413C39.3197 24.5276 39.2505 24.4244 39.1633 24.3375L31.6633 16.8375C31.5764 16.7503 31.4732 16.6811 31.3595 16.6339C31.2458 16.5867 31.1239 16.5624 31.0008 16.5625H23.5008C22.8675 16.4891 22.2257 16.5599 21.6236 16.7695C21.0215 16.9791 20.4746 17.3222 20.0237 17.773C19.5729 18.2238 19.2299 18.7708 19.0202 19.3729C18.8106 19.975 18.7399 20.6167 18.8133 21.25V36.25C18.7399 36.8834 18.8106 37.5251 19.0202 38.1272C19.2299 38.7293 19.5729 39.2763 20.0237 39.7271C20.4746 40.1779 21.0215 40.521 21.6236 40.7306C22.2257 40.9402 22.8675 41.011 23.5008 40.9375H28.5008C28.7494 40.9375 28.9879 40.8388 29.1637 40.663C29.3395 40.4871 29.4383 40.2487 29.4383 40C29.4383 39.7514 29.3395 39.5129 29.1637 39.3371C28.9879 39.1613 28.7494 39.0625 28.5008 39.0625ZM31.9383 21.25V19.7638L36.237 24.0625H34.7508C32.7795 24.0625 31.9383 23.2213 31.9383 21.25ZM24.7508 27.8125C24.5021 27.8125 24.2637 27.9113 24.0879 28.0871C23.912 28.2629 23.8133 28.5014 23.8133 28.75C23.8133 28.9987 23.912 29.2371 24.0879 29.413C24.2637 29.5888 24.5021 29.6875 24.7508 29.6875H33.5008C33.7494 29.6875 33.9879 29.5888 34.1637 29.413C34.3395 29.2371 34.4383 28.9987 34.4383 28.75C34.4383 28.5014 34.3395 28.2629 34.1637 28.0871C33.9879 27.9113 33.7494 27.8125 33.5008 27.8125H24.7508ZM29.7508 32.8125H24.7508C24.5021 32.8125 24.2637 32.9113 24.0879 33.0871C23.912 33.2629 23.8133 33.5014 23.8133 33.75C23.8133 33.9987 23.912 34.2371 24.0879 34.413C24.2637 34.5888 24.5021 34.6875 24.7508 34.6875H29.7508C29.9994 34.6875 30.2379 34.5888 30.4137 34.413C30.5895 34.2371 30.6883 33.9987 30.6883 33.75C30.6883 33.5014 30.5895 33.2629 30.4137 33.0871C30.2379 32.9113 29.9994 32.8125 29.7508 32.8125Z" fill="white"/>
</svg>
