<svg width="15" height="18" viewBox="0 0 15 18" fill="none" xmlns="http://www.w3.org/2000/svg">
<path d="M6.51302 14.9909H8.17969V11.5117L9.51302 12.845L10.6797 11.6575L7.34635 8.3242L4.01302 11.6575L5.20052 12.8242L6.51302 11.5117V14.9909ZM2.34635 17.4909C1.88802 17.4909 1.49566 17.3277 1.16927 17.0013C0.842882 16.6749 0.679688 16.2825 0.679688 15.8242V2.49087C0.679688 2.03254 0.842882 1.64018 1.16927 1.31379C1.49566 0.987398 1.88802 0.824203 2.34635 0.824203H9.01302L14.013 5.8242V15.8242C14.013 16.2825 13.8498 16.6749 13.5234 17.0013C13.197 17.3277 12.8047 17.4909 12.3464 17.4909H2.34635ZM8.17969 6.65754H12.3464L8.17969 2.49087V6.65754Z" fill="#5C5C5C"/>
</svg>
