<?xml version="1.0" encoding="UTF-8"?>
<!DOCTYPE svg PUBLIC "-//W3C//DTD SVG 1.1//EN" "http://www.w3.org/Graphics/SVG/1.1/DTD/svg11.dtd">
<!-- Creator: CorelDRAW -->
<svg xmlns="http://www.w3.org/2000/svg" xml:space="preserve" width="6.82666in" height="6.82666in" style="shape-rendering:geometricPrecision; text-rendering:geometricPrecision; image-rendering:optimizeQuality; fill-rule:evenodd; clip-rule:evenodd"
viewBox="0 0 6.82666 6.82666"
 xmlns:xlink="http://www.w3.org/1999/xlink"
 version="1.1">
 <defs>
  <style type="text/css">
   <![CDATA[
    .fil3 {fill:none}
    .fil2 {fill:#465B65}
    .fil1 {fill:#DDE3E7}
    .fil0 {fill:#EDEFF0}
   ]]>
  </style>
 </defs>
 <g id="Layer_x0020_1">
  <metadata id="CorelCorpID_0Corel-Layer"/>
  <g id="_625055736">
   <g id="Guides">
   </g>
   <g id="Layer_2">
   </g>
   <g id="Layer_3">
   </g>
   <g id="Layer_4">
   </g>
   <g id="Layer_5">
   </g>
   <g id="Layer_6">
   </g>
   <g id="Layer_7">
   </g>
   <g id="Layer_8">
   </g>
   <g id="Layer_9">
   </g>
   <g id="Layer_10">
   </g>
   <g id="Layer_11">
   </g>
   <g id="Layer_12">
   </g>
   <g id="Layer_13">
   </g>
   <g id="Layer_14">
   </g>
   <g id="Layer_15">
   </g>
   <g id="Layer_16">
   </g>
   <g id="Layer_17">
   </g>
   <g id="Layer_18">
   </g>
   <g id="Layer_19">
   </g>
   <g id="Layer_20">
   </g>
   <g id="Layer_21">
   </g>
   <g id="Layer_22">
   </g>
   <g id="Layer_23">
   </g>
   <g id="Layer_24">
   </g>
   <g id="Layer_25">
    <g>
     <g>
      <g>
       <polygon id="_625057704" class="fil0" points="2.20673,1.01333 1.636,1.58046 1.636,5.28093 1.636,5.5055 1.636,5.81333 5.19066,5.81333 5.19066,5.5055 5.19066,5.28093 5.19066,1.01333 "/>
      </g>
      <g>
       <rect id="_625057896" class="fil1" x="1.19093" y="4.22013" width="4.4448" height="1.0608"/>
      </g>
      <g>
       <g>
        <g>
         <rect id="_625057368" class="fil2" x="2.72093" y="2.16233" width="1.58423" height="0.079"/>
        </g>
       </g>
       <g>
        <g>
         <rect id="_625057992" class="fil2" x="2.72093" y="3.00513" width="1.58423" height="0.079"/>
        </g>
       </g>
       <g>
        <g>
         <rect id="_625056576" class="fil2" x="2.72093" y="1.74093" width="1.58423" height="0.079"/>
        </g>
       </g>
       <g>
        <g>
         <rect id="_625056888" class="fil2" x="2.72093" y="2.58373" width="1.58423" height="0.079"/>
        </g>
       </g>
       <g>
        <g>
         <rect id="_625057176" class="fil2" x="2.72093" y="3.42656" width="1.58423" height="0.079"/>
        </g>
       </g>
      </g>
     </g>
     <g>
      <polygon id="_625057056" class="fil2" points="2.39763,5.0072 2.39763,4.5247 2.4951,4.5247 2.4951,4.7146 2.68606,4.71459 2.68606,4.52469 2.78353,4.5247 2.78353,5.0072 2.68606,5.0072 2.68606,4.79623 2.4951,4.79623 2.4951,5.00719 "/>
      <polygon id="_625057032" class="fil2" points="3.0604,5.0072 3.0604,4.60633 2.91717,4.60633 2.91717,4.5247 3.30076,4.5247 3.30076,4.60633 3.15787,4.60633 3.15787,5.0072 "/>
      <polygon id="_625056288" class="fil2" points="3.4298,5.0072 3.4298,4.5247 3.57567,4.5247 3.66326,4.85383 3.74986,4.5247 3.89606,4.5247 3.89606,5.0072 3.8055,5.0072 3.8055,4.6274 3.70966,5.0072 3.61583,5.0072 3.52033,4.6274 3.52033,5.0072 "/>
      <polygon id="_625056192" class="fil2" points="4.06293,5.0072 4.06293,4.52866 4.1604,4.52866 4.1604,4.92593 4.40276,4.92593 4.40276,5.00723 4.06293,5.00723 "/>
     </g>
    </g>
   </g>
   <g id="Layer_26">
   </g>
  </g>
 </g>
 <rect class="fil3" width="6.82666" height="6.82666"/>
</svg>
