<svg width="36" height="36" viewBox="0 0 36 36" fill="none" xmlns="http://www.w3.org/2000/svg">
<circle cx="18" cy="18" r="18" fill="#87CEEB"/>
<circle cx="17.9991" cy="18" r="13.0909" fill="#003366"/>
<mask id="mask0_452_5872" style="mask-type:alpha" maskUnits="userSpaceOnUse" x="8" y="9" width="19" height="18">
<rect x="8.99805" y="9" width="18" height="18" fill="#D9D9D9"/>
</mask>
<g mask="url(#mask0_452_5872)">
<path d="M17.998 25.5C17.673 25.5 17.3793 25.4219 17.1168 25.2656C16.8543 25.1094 16.648 24.9 16.498 24.6375C16.0855 24.6375 15.7324 24.4906 15.4387 24.1969C15.1449 23.9031 14.998 23.55 14.998 23.1375V20.475C14.2605 19.9875 13.6699 19.3438 13.2262 18.5438C12.7824 17.7438 12.5605 16.875 12.5605 15.9375C12.5605 14.425 13.0887 13.1406 14.1449 12.0844C15.2012 11.0281 16.4855 10.5 17.998 10.5C19.5105 10.5 20.7949 11.0281 21.8512 12.0844C22.9074 13.1406 23.4355 14.425 23.4355 15.9375C23.4355 16.9 23.2137 17.775 22.7699 18.5625C22.3262 19.35 21.7355 19.9875 20.998 20.475V23.1375C20.998 23.55 20.8512 23.9031 20.5574 24.1969C20.2637 24.4906 19.9105 24.6375 19.498 24.6375C19.348 24.9 19.1418 25.1094 18.8793 25.2656C18.6168 25.4219 18.323 25.5 17.998 25.5ZM16.498 23.1375H19.498V22.4625H16.498V23.1375ZM16.498 21.7125H19.498V21H16.498V21.7125ZM18.5605 19.5V17.475L20.2105 15.825L19.423 15.0375L17.998 16.4625L16.573 15.0375L15.7855 15.825L17.4355 17.475V19.5H18.5605Z" fill="#F3F3F3"/>
</g>
</svg>
