<svg xmlns="http://www.w3.org/2000/svg" width="16" height="16" viewBox="0 0 16 16" fill="none">
  <mask id="mask0_2529_45542" style="mask-type:alpha" maskUnits="userSpaceOnUse" x="0" y="0" width="16" height="16">
    <rect width="16" height="16" fill="#D9D9D9"/>
  </mask>
  <g mask="url(#mask0_2529_45542)">
    <path d="M7.96927 12C8.2026 12 8.39983 11.9194 8.56094 11.7583C8.72205 11.5972 8.8026 11.4 8.8026 11.1667C8.8026 10.9333 8.72205 10.7361 8.56094 10.575C8.39983 10.4139 8.2026 10.3333 7.96927 10.3333C7.73594 10.3333 7.53872 10.4139 7.3776 10.575C7.21649 10.7361 7.13594 10.9333 7.13594 11.1667C7.13594 11.4 7.21649 11.5972 7.3776 11.7583C7.53872 11.9194 7.73594 12 7.96927 12ZM7.36927 9.43333H8.6026C8.6026 9.06666 8.64427 8.77777 8.7276 8.56666C8.81094 8.35555 9.04705 8.06666 9.43594 7.7C9.72483 7.41111 9.9526 7.13611 10.1193 6.875C10.2859 6.61388 10.3693 6.29999 10.3693 5.93333C10.3693 5.31111 10.1415 4.83333 9.68594 4.49999C9.23038 4.16666 8.69149 3.99999 8.06927 3.99999C7.43594 3.99999 6.92205 4.16666 6.5276 4.49999C6.13316 4.83333 5.85816 5.23333 5.7026 5.7L6.8026 6.13333C6.85816 5.93333 6.98316 5.71666 7.1776 5.48333C7.37205 5.24999 7.66927 5.13333 8.06927 5.13333C8.42483 5.13333 8.69149 5.23055 8.86927 5.425C9.04705 5.61944 9.13594 5.83333 9.13594 6.06666C9.13594 6.28888 9.06927 6.49722 8.93594 6.69166C8.8026 6.88611 8.63594 7.06666 8.43594 7.23333C7.94705 7.66666 7.64705 7.99444 7.53594 8.21666C7.42483 8.43888 7.36927 8.84444 7.36927 9.43333ZM8.0026 14.6667C7.08038 14.6667 6.21372 14.4917 5.4026 14.1417C4.59149 13.7917 3.88594 13.3167 3.28594 12.7167C2.68594 12.1167 2.21094 11.4111 1.86094 10.6C1.51094 9.78888 1.33594 8.92222 1.33594 8C1.33594 7.07777 1.51094 6.21111 1.86094 5.39999C2.21094 4.58888 2.68594 3.88333 3.28594 3.28333C3.88594 2.68333 4.59149 2.20833 5.4026 1.85833C6.21372 1.50833 7.08038 1.33333 8.0026 1.33333C8.92483 1.33333 9.79149 1.50833 10.6026 1.85833C11.4137 2.20833 12.1193 2.68333 12.7193 3.28333C13.3193 3.88333 13.7943 4.58888 14.1443 5.39999C14.4943 6.21111 14.6693 7.07777 14.6693 8C14.6693 8.92222 14.4943 9.78888 14.1443 10.6C13.7943 11.4111 13.3193 12.1167 12.7193 12.7167C12.1193 13.3167 11.4137 13.7917 10.6026 14.1417C9.79149 14.4917 8.92483 14.6667 8.0026 14.6667ZM8.0026 13.3333C9.49149 13.3333 10.7526 12.8167 11.7859 11.7833C12.8193 10.75 13.3359 9.48888 13.3359 8C13.3359 6.51111 12.8193 5.25 11.7859 4.21666C10.7526 3.18333 9.49149 2.66666 8.0026 2.66666C6.51372 2.66666 5.2526 3.18333 4.21927 4.21666C3.18594 5.25 2.66927 6.51111 2.66927 8C2.66927 9.48888 3.18594 10.75 4.21927 11.7833C5.2526 12.8167 6.51372 13.3333 8.0026 13.3333Z" fill="#4DA3C7"/>
  </g>
</svg>