<svg width="24" height="24" viewBox="0 0 24 24" fill="none" xmlns="http://www.w3.org/2000/svg">
<path d="M18.0007 6.66667H16.6674V6C16.6674 4.89733 15.77 4 14.6674 4H6.0007C4.89803 4 4.0007 4.89733 4.0007 6V15.9033C3.9647 17.012 5.32337 17.74 6.2267 17.0947L8.0007 15.912V18H15.132L17.774 19.7613C18.678 20.406 20.036 19.6787 20.0007 18.57V8.66667C20.0007 7.564 19.1034 6.66667 18.0007 6.66667ZM5.4867 15.9853C5.45337 16.038 5.30803 15.9593 5.33403 15.9033V6C5.33403 5.63267 5.63337 5.33333 6.0007 5.33333H14.6674C15.0354 5.33333 15.334 5.63267 15.334 6V14H8.46537L5.4867 15.9853ZM18.6674 18.57C18.6934 18.6273 18.5454 18.7053 18.514 18.652L15.536 16.6667H9.33403V15.3333H16.6674V8H18.0007C18.3687 8 18.6674 8.29933 18.6674 8.66667V18.57ZM9.66737 12H7.33403V7.33333H9.66737V8.4H8.4007V9.134H9.66737V10.2007H8.4007V10.9347H9.66737V12.0013V12ZM11.3294 12H10.334V7.33333H11.3294V7.33867L12.4494 9.70333V7.33333H13.4447V12H12.4494L11.3294 9.63533V12Z" fill="#999999"/>
</svg>
