<svg xmlns="http://www.w3.org/2000/svg" width="30" height="31" viewBox="0 0 30 31" fill="none">
  <path d="M21.25 29.25H8.75C7.42435 29.2486 6.1534 28.7213 5.21603 27.784C4.27865 26.8466 3.75141 25.5756 3.75 24.25V16.75C3.75141 15.4244 4.27865 14.1534 5.21603 13.216C6.1534 12.2787 7.42435 11.7514 8.75 11.75H21.25C22.5756 11.7514 23.8466 12.2787 24.784 13.216C25.7213 14.1534 26.2486 15.4244 26.25 16.75V24.25C26.2486 25.5756 25.7213 26.8466 24.784 27.784C23.8466 28.7213 22.5756 29.2486 21.25 29.25ZM8.75 14.25C8.08719 14.2508 7.45175 14.5144 6.98307 14.9831C6.51439 15.4517 6.25076 16.0872 6.25 16.75V24.25C6.25076 24.9128 6.51439 25.5483 6.98307 26.0169C7.45175 26.4856 8.08719 26.7492 8.75 26.75H21.25C21.9128 26.7492 22.5483 26.4856 23.0169 26.0169C23.4856 25.5483 23.7492 24.9128 23.75 24.25V16.75C23.7492 16.0872 23.4856 15.4517 23.0169 14.9831C22.5483 14.5144 21.9128 14.2508 21.25 14.25H8.75Z" fill="#1C1B1F"/>
  <path d="M20.625 14.25H9.375C9.21084 14.25 9.04827 14.2177 8.8966 14.1549C8.74492 14.0921 8.6071 14.0001 8.49102 13.884C8.37494 13.7679 8.28287 13.6301 8.22006 13.4784C8.15726 13.3267 8.12496 13.1642 8.125 13V8.625C8.125 6.80164 8.84933 5.05295 10.1386 3.76364C11.428 2.47433 13.1766 1.75 15 1.75C16.8234 1.75 18.572 2.47433 19.8614 3.76364C21.1507 5.05295 21.875 6.80164 21.875 8.625V13C21.875 13.1642 21.8427 13.3267 21.7799 13.4784C21.7171 13.6301 21.6251 13.7679 21.509 13.884C21.3929 14.0001 21.2551 14.0921 21.1034 14.1549C20.9517 14.2177 20.7892 14.25 20.625 14.25ZM10.625 11.75H19.375V8.625C19.375 7.46468 18.9141 6.35188 18.0936 5.53141C17.2731 4.71094 16.1603 4.25 15 4.25C13.8397 4.25 12.7269 4.71094 11.9064 5.53141C11.0859 6.35188 10.625 7.46468 10.625 8.625V11.75Z" fill="#1C1B1F"/>
  <path d="M15 21.125C16.0355 21.125 16.875 20.2855 16.875 19.25C16.875 18.2145 16.0355 17.375 15 17.375C13.9645 17.375 13.125 18.2145 13.125 19.25C13.125 20.2855 13.9645 21.125 15 21.125Z" fill="#1C1B1F"/>
</svg>