<svg width="60" height="61" viewBox="0 0 60 61" fill="none" xmlns="http://www.w3.org/2000/svg">
<circle cx="30" cy="30.5" r="30" fill="#5CB6DB"/>
<path d="M36.25 44.25H23.75C22.4244 44.2486 21.1534 43.7213 20.216 42.784C19.2787 41.8466 18.7514 40.5756 18.75 39.25V31.75C18.7514 30.4244 19.2787 29.1534 20.216 28.216C21.1534 27.2787 22.4244 26.7514 23.75 26.75H36.25C37.5756 26.7514 38.8466 27.2787 39.784 28.216C40.7213 29.1534 41.2486 30.4244 41.25 31.75V39.25C41.2486 40.5756 40.7213 41.8466 39.784 42.784C38.8466 43.7213 37.5756 44.2486 36.25 44.25ZM23.75 29.25C23.0872 29.2508 22.4517 29.5144 21.9831 29.9831C21.5144 30.4517 21.2508 31.0872 21.25 31.75V39.25C21.2508 39.9128 21.5144 40.5483 21.9831 41.0169C22.4517 41.4856 23.0872 41.7492 23.75 41.75H36.25C36.9128 41.7492 37.5483 41.4856 38.0169 41.0169C38.4856 40.5483 38.7492 39.9128 38.75 39.25V31.75C38.7492 31.0872 38.4856 30.4517 38.0169 29.9831C37.5483 29.5144 36.9128 29.2508 36.25 29.25H23.75Z" fill="white"/>
<path d="M35.625 29.25H24.375C24.2108 29.25 24.0483 29.2177 23.8966 29.1549C23.7449 29.0921 23.6071 29.0001 23.491 28.884C23.3749 28.7679 23.2829 28.6301 23.2201 28.4784C23.1573 28.3267 23.125 28.1642 23.125 28V23.625C23.125 21.8016 23.8493 20.053 25.1386 18.7636C26.428 17.4743 28.1766 16.75 30 16.75C31.8234 16.75 33.572 17.4743 34.8614 18.7636C36.1507 20.053 36.875 21.8016 36.875 23.625V28C36.875 28.1642 36.8427 28.3267 36.7799 28.4784C36.7171 28.6301 36.6251 28.7679 36.509 28.884C36.3929 29.0001 36.2551 29.0921 36.1034 29.1549C35.9517 29.2177 35.7892 29.25 35.625 29.25ZM25.625 26.75H34.375V23.625C34.375 22.4647 33.9141 21.3519 33.0936 20.5314C32.2731 19.7109 31.1603 19.25 30 19.25C28.8397 19.25 27.7269 19.7109 26.9064 20.5314C26.0859 21.3519 25.625 22.4647 25.625 23.625V26.75Z" fill="white"/>
<path d="M30 36.125C31.0355 36.125 31.875 35.2855 31.875 34.25C31.875 33.2145 31.0355 32.375 30 32.375C28.9645 32.375 28.125 33.2145 28.125 34.25C28.125 35.2855 28.9645 36.125 30 36.125Z" fill="white"/>
</svg>
