<svg width="261" height="307" viewBox="0 0 261 307" fill="none" xmlns="http://www.w3.org/2000/svg">
<path d="M259.183 169.212L165.616 115.201C163.201 113.808 163.201 111.549 165.616 110.156L167.168 109.255C169.584 107.867 169.58 105.607 167.168 104.214L126.065 80.4883C123.65 79.0955 119.736 79.0955 117.325 80.4845L115.769 81.389C113.354 82.778 109.443 82.778 107.028 81.3815C104.613 79.9887 100.702 79.9887 98.2909 81.3815L92.3628 84.799L42.1063 113.699C39.6949 115.095 39.6987 117.351 42.1139 118.744L194.273 206.574C196.688 207.967 200.598 207.967 203.013 206.574L253.266 177.674L259.194 174.257C261.606 172.864 261.602 170.605 259.183 169.212Z" fill="#CEE7FD"/>
<path d="M38.8318 19.3207V113.543C38.8318 116.329 40.7852 119.716 43.2041 121.109L195.363 208.94C196.571 209.636 197.665 209.7 198.456 209.246L205.436 205.219C206.239 204.765 206.735 203.785 206.731 202.381V108.158L199.739 112.196L38.8318 19.3207Z" fill="white"/>
<path d="M140.397 87.558V117.139C140.397 118.812 139.224 119.485 137.778 118.649L86.5369 89.0719C85.0908 88.2355 83.9173 86.2031 83.9173 84.5341V54.9532C83.9173 53.2804 85.0908 52.6067 86.5407 53.4431L137.781 83.0202C139.228 83.8529 140.401 85.8852 140.401 87.558H140.397ZM171.719 148.877L141.696 131.543C140.25 130.707 139.072 131.384 139.072 133.053V176.452L174.342 196.81V153.415C174.342 151.746 173.168 149.713 171.719 148.881V148.877ZM81.9564 103.427C81.9564 101.758 80.7829 99.7257 79.3331 98.8893L38.8318 75.5115V113.543C38.8318 116.329 40.7889 119.716 43.2041 121.109L81.6347 143.291C81.8315 142.981 81.9564 142.572 81.9564 142.053V103.423V103.427Z" fill="#CEE7FD"/>
<path d="M199.739 112.196V206.419C199.735 207.804 199.251 208.777 198.471 209.235L205.436 205.215C206.239 204.761 206.735 203.781 206.731 202.377V108.154L199.739 112.192V112.196Z" fill="#CEE7FD"/>
<path d="M197.316 210.045C196.627 210.045 195.878 209.821 195.109 209.379L42.9505 121.548C40.399 120.08 38.3246 116.492 38.3246 113.547V19.3207C38.3246 19.139 38.423 18.9725 38.5782 18.8816C38.7334 18.7908 38.9265 18.7908 39.0817 18.8816L199.735 111.613L206.477 107.719C206.632 107.628 206.826 107.628 206.981 107.719C207.136 107.81 207.234 107.976 207.234 108.158V202.381C207.234 203.898 206.701 205.049 205.731 205.624C205.716 205.636 205.701 205.647 205.682 205.654L198.702 209.681C198.285 209.924 197.816 210.041 197.312 210.041L197.316 210.045ZM39.3391 20.1949V113.543C39.3391 116.166 41.1864 119.364 43.4577 120.67L195.617 208.501C196.624 209.08 197.543 209.189 198.202 208.807L205.133 204.807C205.133 204.807 205.167 204.784 205.183 204.773C205.853 204.394 206.224 203.543 206.22 202.377V109.028L199.985 112.628C199.83 112.718 199.637 112.718 199.482 112.628L39.3391 20.1949Z" fill="#4DA3C7"/>
<path d="M40.1568 9.63195C40.1303 9.64709 40.1038 9.66222 40.0735 9.67736L39.9978 9.72278L40.0053 9.73792C39.2823 10.2186 38.8318 11.1496 38.8318 12.4742V19.3207L199.735 112.196L206.731 108.158V101.311C206.727 98.526 204.774 95.1425 202.355 93.7497L50.1997 5.9192C48.9694 5.21147 47.8641 5.15848 47.0691 5.64292L40.153 9.63195H40.1568Z" fill="#4DA3C7"/>
<g style="mix-blend-mode:overlay" opacity="0.3">
<path d="M206.731 101.315C206.731 98.5298 204.774 95.1463 202.359 93.7535L50.1997 5.9192C48.9694 5.21147 47.8641 5.15848 47.0691 5.64292L40.1795 9.61681C40.9631 9.20428 42.0268 9.27997 43.2003 9.95743L195.359 97.7917C197.778 99.1807 199.731 102.568 199.735 105.353V112.2L206.731 108.162V101.315Z" fill="black"/>
</g>
<path d="M199.739 112.703C199.652 112.703 199.565 112.681 199.485 112.635L38.5782 19.7559C38.423 19.6651 38.3246 19.4985 38.3246 19.3169V12.4704C38.3246 11.0928 38.7826 10.0028 39.6192 9.38973C39.6533 9.3481 39.6949 9.31404 39.7404 9.28754L39.9031 9.19293L46.8193 5.2039C47.8073 4.60214 49.0982 4.70054 50.4534 5.48018L202.612 93.3145C205.201 94.8056 207.234 98.3216 207.238 101.311V108.158C207.238 108.34 207.143 108.506 206.988 108.597L199.993 112.635C199.913 112.681 199.826 112.703 199.739 112.703ZM39.3391 19.0292L199.739 111.613L206.231 107.867V101.311C206.231 98.6887 204.38 95.4945 202.109 94.1888L49.9499 6.35822C48.9316 5.7716 48.0004 5.66941 47.3341 6.07437L40.4104 10.071L40.3612 10.0975C40.3385 10.1202 40.3158 10.1391 40.2855 10.158C39.6722 10.563 39.3391 11.388 39.3391 12.4742V19.0292Z" fill="#4DA3C7"/>
<path d="M127.22 64.3959C127.22 66.0309 126.073 66.6894 124.653 65.872L48.0231 21.6407C46.6035 20.8232 45.4565 18.8362 45.4565 17.2013C45.4565 15.5625 46.6073 14.904 48.0231 15.7215L124.649 59.9565C126.069 60.774 127.216 62.761 127.216 64.3959H127.22ZM182.806 95.5058C182.337 95.2333 181.955 95.4528 181.958 95.994C181.958 96.5352 182.337 97.1976 182.81 97.4663C183.276 97.7388 183.662 97.5192 183.658 96.978C183.658 96.4406 183.276 95.7783 182.806 95.5096V95.5058ZM188.386 99.6992C188.386 100.24 188.004 100.46 187.538 100.187C187.065 99.9187 186.683 99.2564 186.687 98.7152C186.687 98.174 187.065 97.9583 187.535 98.2308C188.004 98.4995 188.386 99.158 188.386 99.6992ZM193.107 102.432C193.107 102.973 192.728 103.192 192.259 102.92C191.786 102.651 191.407 101.993 191.407 101.448C191.407 100.91 191.789 100.691 192.259 100.96C192.724 101.232 193.107 101.891 193.107 102.432Z" fill="white"/>
<path d="M102.22 29.5695C101.418 30.0237 100.926 31.0039 100.926 32.4004V34.2019C100.926 34.5123 100.892 34.7961 100.846 35.0686C100.589 34.974 100.324 34.8567 100.051 34.7015L100.839 35.1557C100.434 37.2259 98.6695 37.9412 96.5534 36.7225L100.926 39.2469L150.77 68.0178L155.142 70.5384L158.64 68.5212C156.224 67.1285 154.267 63.7374 154.267 60.9557V59.1542C154.267 56.3725 152.31 52.9852 149.895 51.5924L108.796 27.8664C107.588 27.17 106.494 27.1057 105.703 27.5636L102.22 29.5733V29.5695Z" fill="white"/>
<path d="M154.271 60.9519V59.1504C154.271 56.3687 152.314 52.9814 149.899 51.5887L108.8 27.8626C107.592 27.1663 106.498 27.1019 105.707 27.5599L102.224 29.5695C103.011 29.1229 104.102 29.1911 105.302 29.8836L146.401 53.6059C148.816 54.9986 150.773 58.3897 150.773 61.1714V62.9691C150.773 65.7508 152.734 69.1419 155.149 70.5346L158.647 68.5174C156.232 67.1247 154.275 63.7336 154.275 60.9519H154.271Z" fill="#CEE7FD"/>
<path d="M155.146 71.0418C155.059 71.0418 154.971 71.0191 154.892 70.9737L150.52 68.4531L96.3073 37.1615C96.3073 37.1615 96.3035 37.1615 96.2998 37.1615C96.0575 37.0215 95.9742 36.715 96.1143 36.4727C96.2543 36.2305 96.561 36.1473 96.8032 36.2873C97.7345 36.8247 98.6051 36.9572 99.2563 36.662C99.7257 36.4462 100.066 36.0186 100.256 35.4055L99.7976 35.1405C99.5553 35.0005 99.472 34.6939 99.6121 34.4517C99.7522 34.2095 100.059 34.1262 100.301 34.2625C100.343 34.2852 100.381 34.3079 100.422 34.3268C100.422 34.2852 100.422 34.2436 100.422 34.2019V32.4004C100.422 30.879 100.952 29.7323 101.921 29.1608C101.936 29.1494 101.952 29.1419 101.967 29.1305L105.449 27.1208C106.437 26.5494 107.717 26.6591 109.046 27.4236L150.145 51.1496C152.696 52.6181 154.771 56.2097 154.771 59.1504V60.9519C154.771 63.5709 156.618 66.7689 158.889 68.0784C159.045 68.1692 159.143 68.3358 159.143 68.5136C159.143 68.6915 159.048 68.8618 158.889 68.9527L155.392 70.9699C155.312 71.0153 155.225 71.038 155.138 71.038L155.146 71.0418ZM99.2903 37.7179L155.142 69.9556L157.682 68.4909C155.464 66.8181 153.76 63.6201 153.76 60.9557V59.1542C153.76 56.5352 151.913 53.3372 149.641 52.0277L108.542 28.3017C107.535 27.7226 106.619 27.6129 105.953 27.9951L102.516 29.9783C102.516 29.9783 102.482 30.001 102.466 30.0123C101.796 30.387 101.429 31.2348 101.429 32.4004V34.2019C101.429 34.5047 101.403 34.8075 101.342 35.1557C101.342 35.1557 101.342 35.1557 101.342 35.1595C101.342 35.1897 101.342 35.22 101.331 35.2503C101.115 36.363 100.524 37.188 99.6726 37.5741C99.5477 37.6308 99.419 37.6763 99.2865 37.7141L99.2903 37.7179Z" fill="#4DA3C7"/>
<path d="M132.917 50.3132C132.917 50.7106 132.633 50.8771 132.285 50.6766L106.725 35.9202C106.381 35.7196 106.097 35.2352 106.097 34.834C106.097 34.4328 106.377 34.2701 106.725 34.4744L132.285 49.227C132.633 49.4276 132.917 49.9121 132.917 50.3132ZM124.173 48.1673C124.173 47.7662 123.889 47.2779 123.54 47.0773L106.729 37.3697C106.381 37.1691 106.1 37.3319 106.1 37.733C106.1 38.1342 106.381 38.6186 106.729 38.823L123.544 48.5269C123.892 48.7312 124.173 48.5685 124.176 48.1673H124.173ZM144.558 58.4881L145.417 57.9923C145.667 57.8485 145.663 57.3868 145.421 56.9667C145.171 56.539 144.773 56.3119 144.527 56.4519L143.664 56.944L142.805 55.4566C142.559 55.0327 142.158 54.8056 141.919 54.9494C141.669 55.0857 141.669 55.5512 141.919 55.9713L142.775 57.4587L141.915 57.9545C141.673 58.0983 141.669 58.5524 141.915 58.9801C142.161 59.404 142.559 59.6348 142.805 59.491L143.664 58.999L144.523 60.4864C144.773 60.9103 145.167 61.1373 145.413 60.9973C145.659 60.8573 145.659 60.3956 145.413 59.9717L144.554 58.4881H144.558Z" fill="#4DA3C7"/>
<path d="M100.918 34.1944V32.3967C100.918 29.6112 98.961 26.2239 96.5458 24.8311L55.4465 1.10512C54.2351 0.408744 53.1411 0.34062 52.3499 0.798563L48.871 2.80443C49.6622 2.35784 47.5726 2.85742 47.5764 5.64292V7.44064C47.5764 10.2261 45.6193 11.3502 43.2041 9.95743L47.5764 12.4818L97.4203 41.2565L101.796 43.7809L105.294 41.7637C102.879 40.3709 100.922 36.9799 100.922 34.1982L100.918 34.1944Z" fill="#4DA3C7"/>
<g style="mix-blend-mode:overlay" opacity="0.3">
<path d="M100.918 34.1944V32.3967C100.918 29.6112 98.961 26.2239 96.5458 24.8311L55.4465 1.10512C54.2351 0.408744 53.1411 0.34062 52.3499 0.798563L48.871 2.80443C49.6622 2.35784 50.7486 2.42975 51.9486 3.12234L93.048 26.8484C95.4632 28.2411 97.4203 31.6322 97.4203 34.4139V36.2154C97.4203 38.9971 99.3812 42.3882 101.796 43.7771L105.294 41.7599C102.879 40.3671 100.922 36.9761 100.922 34.1944H100.918Z" fill="black"/>
</g>
<path d="M105.29 42.267C105.203 42.267 105.116 42.2443 105.037 42.1989C102.485 40.7267 100.411 37.1351 100.411 34.1944V32.3967C100.411 29.7777 98.5635 26.5796 96.2922 25.2664L55.1928 1.54035C54.1859 0.9613 53.266 0.851545 52.6035 1.2338L49.1474 3.22831C49.1474 3.22831 49.1284 3.23966 49.1209 3.24345C49.0679 3.27373 49.0111 3.29265 48.9543 3.30022C48.6363 3.58028 48.0798 4.26531 48.0836 5.63914V7.43685C48.0836 8.96963 47.5385 10.1277 46.5543 10.6992C45.5663 11.2707 44.2868 11.1609 42.9543 10.3927C42.712 10.2526 42.6287 9.94607 42.7688 9.70386C42.9088 9.46164 43.2155 9.37838 43.4577 9.51841C44.4647 10.0975 45.3808 10.2072 46.047 9.82497C46.7095 9.44272 47.0729 8.59495 47.0729 7.43685V5.63914C47.0729 3.26237 48.4622 2.2443 48.9392 2.16104C48.9543 2.16104 48.9657 2.15725 48.977 2.15725L52.0963 0.35954C53.0843 -0.211944 54.3638 -0.105973 55.6963 0.666097L96.7957 24.3921C99.3471 25.8681 101.422 29.456 101.422 32.3967V34.1944C101.422 36.8134 103.269 40.0114 105.544 41.3247C105.786 41.4647 105.87 41.7713 105.729 42.0135C105.635 42.1762 105.465 42.267 105.29 42.267Z" fill="#4DA3C7"/>
<path d="M79.564 23.5557C79.564 23.9569 79.2801 24.1158 78.9356 23.919L53.3796 9.16265C53.0313 8.96207 52.7474 8.47385 52.7512 8.07646C52.7512 7.67528 53.0313 7.50876 53.3796 7.71313L78.9356 22.4657C79.2839 22.6663 79.564 23.1545 79.564 23.5557ZM70.8194 21.4098C70.8194 21.0086 70.5355 20.5204 70.1873 20.3198L53.3758 10.6122C53.0275 10.4116 52.7474 10.5743 52.7474 10.9755C52.7474 11.3767 53.0275 11.8649 53.3758 12.0655L70.1873 21.7731C70.5393 21.9775 70.8194 21.811 70.8194 21.4098ZM91.2044 31.7306L92.0638 31.2348C92.3098 31.0947 92.3098 30.633 92.0638 30.2091C91.8139 29.7815 91.4164 29.5544 91.1704 29.6982L90.3111 30.1902L89.4518 28.7028C89.2057 28.279 88.8082 28.0481 88.5622 28.1881C88.3161 28.3282 88.3161 28.7899 88.5622 29.2138L89.4215 30.7011L88.5622 31.1969C88.3161 31.337 88.3161 31.7949 88.5622 32.2226C88.8082 32.6502 89.2057 32.8773 89.4518 32.7373L90.3111 32.2415L91.1704 33.7289C91.4164 34.1565 91.8177 34.3874 92.06 34.2436C92.306 34.0998 92.3098 33.638 92.06 33.2179L91.2007 31.7306H91.2044Z" fill="white"/>
<path d="M130.142 125.783L60.0951 85.3478C58.2932 84.307 56.8357 85.151 56.8357 87.2288V108.529C56.8357 110.607 58.2932 113.135 60.0951 114.172L117.9 147.537C122.927 150.436 125.357 153.797 127.545 156.783L129.957 160.193C130.335 160.727 130.786 161.143 131.229 161.404C131.566 161.601 131.91 161.707 132.217 161.699C132.947 161.699 133.405 161.098 133.405 160.155V141.928V131.426C133.405 129.348 131.94 126.824 130.142 125.787V125.783Z" fill="white"/>
<path d="M132.171 162.324C131.774 162.324 131.335 162.191 130.907 161.938C130.369 161.624 129.862 161.143 129.442 160.549L126.978 157.067C124.858 154.168 122.454 150.879 117.586 148.075L59.7809 114.709C57.7783 113.551 56.2074 110.834 56.2111 108.521V87.2212C56.2111 85.9836 56.6616 85.0412 57.4793 84.5681C58.297 84.0951 59.338 84.1783 60.4131 84.799L130.46 125.234C132.463 126.392 134.034 129.11 134.034 131.418V141.925V160.152C134.034 161.446 133.303 162.32 132.221 162.324C132.205 162.324 132.19 162.324 132.179 162.324H132.171ZM58.6377 85.5295C58.437 85.5295 58.2553 85.5711 58.1039 85.6619C57.6989 85.8966 57.4641 86.468 57.4641 87.2288V108.529C57.4641 110.372 58.8118 112.707 60.4093 113.631L118.214 146.996C123.309 149.933 125.797 153.335 127.992 156.337L128.049 156.416L130.464 159.834C130.778 160.276 131.161 160.644 131.543 160.863C131.781 161.003 132.009 161.083 132.198 161.075C132.72 161.075 132.777 160.432 132.777 160.159V131.43C132.777 129.59 131.426 127.255 129.828 126.332L59.7809 85.8966C59.3683 85.6581 58.9746 85.537 58.6339 85.537L58.6377 85.5295Z" fill="#4DA3C7"/>
<path d="M64.4825 106.584C63.6724 104.926 63.1878 103.143 63.1841 101.508C63.1841 97.6139 65.9248 96.0394 69.3015 97.9848C72.6781 99.9339 75.4151 104.672 75.4113 108.57C75.4113 110.202 74.9305 111.424 74.1204 112.151C73.5526 110.062 72.2844 107.961 70.7059 106.531C71.304 106.372 71.6977 105.793 71.6977 104.873C71.6977 103.348 70.6226 101.489 69.3015 100.725C67.9803 99.9641 66.9052 100.581 66.909 102.106C66.909 103.022 67.3027 104.055 67.897 104.899C66.3185 104.506 65.0503 105.149 64.4825 106.58V106.584Z" fill="#DAE8FF"/>
<path d="M69.3015 112.086C71.2586 113.218 72.9999 113.154 74.1204 112.147C73.5526 110.058 72.2844 107.957 70.7021 106.527C71.3002 106.372 71.6977 105.789 71.6977 104.869C71.6977 103.344 70.6226 101.489 69.2977 100.725C67.9765 99.9641 66.9014 100.577 66.9014 102.106C66.9014 103.022 67.2951 104.059 67.8932 104.903C66.3109 104.506 65.0427 105.145 64.4787 106.58C65.5954 108.877 67.3406 110.951 69.3015 112.083V112.086ZM126.962 134.749C126.962 135.245 126.614 135.449 126.186 135.199L81.4908 109.399C81.0555 109.153 80.7034 108.548 80.7034 108.048C80.7034 107.552 81.0517 107.348 81.4908 107.598L126.183 133.398C126.614 133.644 126.966 134.249 126.962 134.749ZM121.534 138.829C121.534 139.325 121.186 139.529 120.75 139.283L81.487 116.62C81.0555 116.371 80.7034 115.765 80.7034 115.262C80.7034 114.77 81.0593 114.565 81.4908 114.815L120.75 137.474C121.182 137.727 121.53 138.333 121.534 138.825V138.829ZM116.098 132.081C116.102 131.585 115.746 130.979 115.318 130.73L81.487 111.205C81.0555 110.955 80.7072 111.155 80.7072 111.651C80.7072 112.155 81.0555 112.76 81.4908 113.01L115.318 132.535C115.746 132.785 116.098 132.58 116.098 132.081Z" fill="#4DA3C7"/>
<path d="M46.4029 42.4449L116.454 82.8764C118.252 83.9172 119.713 86.4378 119.713 88.5193V109.819C119.713 111.893 118.252 112.737 116.454 111.697L58.649 78.331C53.6218 75.4358 51.1953 75.9808 49.0111 76.4463L46.5997 77.0707C46.2212 77.1691 45.7745 77.0707 45.324 76.8096C44.9871 76.6166 44.6464 76.3327 44.336 75.9656C43.6092 75.1179 43.1473 73.99 43.1473 73.0477V65.6222V54.8283V44.3221C43.1473 42.2481 44.6047 41.4079 46.4029 42.4411V42.4449Z" fill="white"/>
<path d="M117.911 112.775C117.355 112.775 116.753 112.597 116.14 112.242L58.3348 78.876C53.5575 76.1208 51.3354 76.5939 49.189 77.0518L49.1398 77.0632L46.7549 77.6801C46.2174 77.8201 45.6155 77.7066 45.0098 77.3546C44.601 77.1199 44.2148 76.7907 43.859 76.3744C43.0337 75.4131 42.5227 74.1414 42.5227 73.0477V44.3221C42.5227 43.0845 42.9732 42.1459 43.7909 41.6729C44.6085 41.1998 45.6495 41.283 46.7208 41.8999L116.772 82.3314C118.774 83.4895 120.345 86.2069 120.345 88.5193V109.819C120.345 111.057 119.895 111.996 119.077 112.469C118.725 112.673 118.335 112.771 117.915 112.771L117.911 112.775ZM51.8048 75.4433C53.5537 75.4433 55.7607 75.9429 58.9594 77.7898L116.768 111.155C117.427 111.538 118.04 111.621 118.449 111.386C118.854 111.152 119.089 110.584 119.085 109.823V88.5193C119.085 86.6762 117.737 84.3411 116.143 83.4176L46.0924 42.9861C45.4338 42.6077 44.8243 42.5244 44.4155 42.7591C44.0104 42.9937 43.7757 43.5652 43.7757 44.3221V73.0514C43.7757 73.8424 44.1808 74.8264 44.8092 75.5607C45.0666 75.8634 45.3505 76.1057 45.6306 76.2684C45.9448 76.4501 46.2287 76.5182 46.4369 76.4652L48.924 75.8256C49.7947 75.6402 50.7108 75.4433 51.8048 75.4433Z" fill="#4DA3C7"/>
<path d="M50.7903 63.6768C49.984 62.0192 49.4956 60.2366 49.4994 58.6054C49.4994 54.7148 52.2401 53.1328 55.6168 55.0857C58.9935 57.0348 61.7304 61.7694 61.7304 65.66C61.7304 67.295 61.2459 68.5136 60.4358 69.2441C59.8679 67.155 58.6036 65.0582 57.0212 63.6239C57.6193 63.4649 58.013 62.8896 58.0093 61.9738C58.0093 60.4485 56.938 58.5903 55.6168 57.8258C54.2957 57.0613 53.2206 57.682 53.2206 59.2072C53.2206 60.1268 53.6105 61.1563 54.2086 62.004C52.63 61.6104 51.3581 62.25 50.7903 63.6806V63.6768Z" fill="#DAE8FF"/>
<path d="M80.1015 75.1519C80.0258 74.834 79.8025 74.5237 79.5564 74.3761L77.1678 73.0022L76.4296 69.9594C76.3577 69.6415 76.1343 69.3311 75.8845 69.1835C75.6346 69.0397 75.4113 69.0965 75.3318 69.3273L74.6012 71.5187L72.2163 70.1373C71.9702 69.9934 71.7469 70.0502 71.6674 70.2811C71.5917 70.5119 71.6788 70.8601 71.8756 71.1478L73.8062 73.8727L73.068 76.064C72.9923 76.2873 73.0756 76.6393 73.2762 76.9231C73.4769 77.207 73.7494 77.366 73.9501 77.3168L75.8769 76.8134L77.8037 79.5383C77.9059 79.6822 78.0233 79.7919 78.1444 79.8638C78.2618 79.932 78.3829 79.9584 78.4851 79.9319C78.6857 79.8752 78.769 79.6292 78.6933 79.3113L77.9551 76.2684L79.8858 75.7688C80.0864 75.7158 80.1697 75.4661 80.094 75.1481L80.1015 75.1519ZM94.9332 83.7128C94.8537 83.3949 94.6303 83.0808 94.3881 82.937L92.0032 81.5631L91.265 78.5278C91.1893 78.2099 90.9697 77.8996 90.7199 77.752C90.4701 77.6082 90.2543 77.6649 90.1748 77.8958L89.4404 80.0833L87.0555 78.7095C86.8095 78.5619 86.5861 78.6225 86.5104 78.8533C86.4347 79.0804 86.518 79.4324 86.7186 79.7162L88.6454 82.4374L87.911 84.6287C87.8353 84.8558 87.9186 85.204 88.1193 85.4878C88.3237 85.7755 88.5924 85.9344 88.7969 85.8814L90.7275 85.3781L92.6467 88.1068C92.7527 88.2506 92.8739 88.3604 92.995 88.4323C93.1124 88.5004 93.2297 88.5269 93.3281 88.5004C93.5288 88.4436 93.612 88.1976 93.5401 87.8797L92.8019 84.8406L94.725 84.3411C94.9294 84.2881 95.0127 84.0383 94.937 83.7204L94.9332 83.7128ZM109.765 92.2775C109.689 91.9558 109.47 91.6417 109.22 91.5016L106.835 90.1202L106.1 87.085C106.025 86.767 105.801 86.4529 105.555 86.3091C105.306 86.1653 105.086 86.2296 105.006 86.4529L104.272 88.6442L101.891 87.2628C101.641 87.119 101.418 87.1758 101.346 87.4066C101.266 87.6337 101.353 87.9857 101.55 88.2695L103.481 90.9945L102.743 93.1858C102.667 93.4129 102.75 93.7573 102.951 94.0487C103.152 94.3326 103.428 94.4915 103.629 94.4348L105.555 93.939L107.482 96.6677C107.584 96.8115 107.702 96.9213 107.823 96.9894C107.94 97.0575 108.058 97.0802 108.16 97.0537C108.36 97.0008 108.447 96.7548 108.372 96.4406L107.634 93.3978L109.56 92.8982C109.761 92.8452 109.848 92.5916 109.769 92.2775H109.765ZM55.613 69.1835C57.5739 70.3151 59.3115 70.2508 60.432 69.2441C59.8642 67.155 58.596 65.0582 57.0174 63.6239C57.6156 63.4687 58.0055 62.8821 58.0055 61.9662C58.0055 60.441 56.9304 58.5827 55.6092 57.822C54.2843 57.0537 53.2168 57.6782 53.213 59.1996C53.213 60.1193 53.6105 61.1487 54.2086 61.9965C52.6225 61.6029 51.3581 62.2387 50.7903 63.6731C51.9108 65.9741 53.6483 68.0481 55.613 69.1797V69.1835Z" fill="#4DA3C7"/>
<path d="M112.233 209.11C112.233 211.188 110.772 212.024 108.97 210.987L71.6598 189.449C69.8617 188.415 68.4005 185.887 68.4005 183.809V131.483C68.4005 129.409 69.8617 128.569 71.6598 129.606L108.974 151.14C110.772 152.181 112.229 154.709 112.229 156.783V209.106L112.233 209.11Z" fill="white"/>
<path d="M110.431 212.062C109.875 212.062 109.269 211.884 108.656 211.528L71.3418 189.99C69.3393 188.839 67.7721 186.122 67.7721 183.809V131.483C67.7721 130.245 68.2226 129.307 69.0403 128.834C69.8579 128.36 70.8989 128.444 71.974 129.061L109.288 150.595C111.29 151.753 112.858 154.471 112.858 156.783V209.106C112.858 210.34 112.411 211.282 111.593 211.755C111.241 211.96 110.847 212.062 110.427 212.062H110.431ZM70.2024 129.791C70.0018 129.791 69.8201 129.833 69.6686 129.923C69.2598 130.158 69.0289 130.726 69.0289 131.487V183.813C69.0289 185.656 70.3765 187.991 71.9702 188.907L109.284 210.446C109.947 210.828 110.56 210.911 110.969 210.673C111.374 210.438 111.605 209.871 111.605 209.114V156.791C111.605 154.948 110.257 152.613 108.659 151.693L71.3456 130.158C70.933 129.92 70.5393 129.799 70.2024 129.799V129.791Z" fill="#4DA3C7"/>
<path d="M76.8157 142.273C79.564 140.691 84.0158 143.261 86.764 148.018C89.5085 152.775 89.5085 157.911 86.764 159.497C84.0195 161.079 79.5678 158.513 76.8195 153.755C74.075 148.998 74.0712 143.862 76.8195 142.273H76.8157Z" fill="#DAE8FF"/>
<path d="M76.2403 152.669C76.8952 151.019 78.3488 150.285 80.1735 150.743C79.4845 149.766 79.034 148.578 79.034 147.522C79.034 145.762 80.2681 145.055 81.7899 145.933C83.3079 146.811 84.5457 148.949 84.5457 150.705C84.5457 151.761 84.0915 152.427 83.4063 152.609C85.2233 154.259 86.6845 156.677 87.3357 159.077C86.0448 160.239 84.046 160.31 81.7861 159.012C79.5261 157.71 77.5236 155.319 76.2365 152.669H76.2403ZM104.794 161.817C104.794 161.321 104.446 160.712 104.015 160.458L94.8802 155.186C94.4486 154.936 94.0966 155.137 94.0966 155.636C94.0966 156.132 94.4449 156.742 94.8802 156.991L104.015 162.263C104.45 162.513 104.798 162.309 104.794 161.813V161.817ZM102.114 156.662C102.114 157.162 101.762 157.362 101.331 157.112L94.8726 153.385C94.4411 153.131 94.089 152.529 94.089 152.03C94.089 151.534 94.4411 151.333 94.8726 151.583L101.331 155.307C101.762 155.557 102.111 156.162 102.111 156.662H102.114ZM104.794 165.424C104.794 164.928 104.446 164.318 104.011 164.069L94.8726 158.797C94.4411 158.551 94.0928 158.751 94.0928 159.247C94.0928 159.747 94.4411 160.352 94.8764 160.602L104.011 165.874C104.442 166.127 104.791 165.927 104.794 165.424ZM104.794 172.637C104.794 172.141 104.442 171.536 104.011 171.286L94.8726 166.01C94.4411 165.76 94.0928 165.961 94.0928 166.457C94.0928 166.956 94.4411 167.566 94.8764 167.815L104.011 173.087C104.442 173.341 104.791 173.137 104.794 172.637ZM100.418 166.506C100.418 167.006 100.07 167.206 99.6348 166.956L94.8764 164.209C94.4449 163.959 94.0966 163.35 94.0928 162.854C94.0928 162.358 94.4411 162.15 94.8764 162.407L99.6348 165.151C100.066 165.405 100.418 166.01 100.418 166.506ZM104.794 181.713C104.794 181.217 104.442 180.608 104.015 180.362L74.4498 163.297C74.0182 163.047 73.6662 163.251 73.6662 163.743C73.6662 164.243 74.0182 164.848 74.446 165.102L104.015 182.163C104.446 182.417 104.794 182.216 104.798 181.717L104.794 181.713ZM99.3622 185.789C99.3622 185.293 99.0102 184.687 98.5786 184.438L74.446 170.51C74.0106 170.26 73.6662 170.461 73.6662 170.957C73.6662 171.46 74.0182 172.066 74.4498 172.315L98.5786 186.247C99.014 186.493 99.3622 186.292 99.3622 185.793V185.789ZM93.9262 179.045C93.9262 179.548 93.5742 179.745 93.1426 179.499L74.4422 168.705C74.0106 168.455 73.6624 167.85 73.6624 167.35C73.6624 166.854 74.0144 166.654 74.4422 166.903L93.1426 177.697C93.5704 177.943 93.9262 178.553 93.9262 179.048V179.045ZM104.794 194.335C104.794 193.839 104.446 193.229 104.015 192.983L74.4498 175.915C74.0182 175.669 73.6662 175.869 73.6662 176.365C73.6662 176.865 74.0182 177.47 74.4498 177.72L104.015 194.785C104.446 195.035 104.798 194.834 104.798 194.335H104.794ZM99.3622 198.418C99.3622 197.922 99.0102 197.313 98.5786 197.063L74.446 183.136C74.0144 182.886 73.6662 183.087 73.6624 183.586C73.6624 184.086 74.0106 184.691 74.4422 184.941L98.5749 198.872C99.0064 199.118 99.3585 198.918 99.3585 198.422L99.3622 198.418ZM93.9262 191.67C93.9262 192.17 93.5742 192.374 93.1426 192.124L74.4422 181.33C74.0106 181.081 73.6624 180.471 73.6586 179.972C73.6586 179.476 74.0106 179.275 74.4422 179.525L93.1464 190.319C93.5742 190.569 93.9225 191.174 93.9262 191.67Z" fill="#4DA3C7"/>
<path d="M127.803 298.503C128.511 300.029 127.958 301.565 126.516 302.769C127.602 303.609 128.889 304.351 130.332 304.968C132.414 304.135 135.082 303.817 137.717 304.226C140.352 304.635 142.388 305.683 143.475 307.004C144.361 306.943 145.243 306.86 146.132 306.72C147.018 306.584 147.858 306.398 148.68 306.198C148.476 304.741 149.331 303.253 151.254 302.141C153.185 301.024 155.774 300.532 158.299 300.649C159.007 299.703 159.476 298.693 159.688 297.652C158.087 297.213 156.728 296.501 155.808 295.593C155.414 295.203 155.089 294.783 154.877 294.325C154.169 292.804 154.722 291.263 156.16 290.06C155.074 289.22 153.794 288.482 152.352 287.865C150.27 288.694 147.601 289.015 144.966 288.607C142.335 288.198 140.295 287.149 139.209 285.832C138.327 285.893 137.437 285.976 136.547 286.112C135.662 286.249 134.821 286.43 134.007 286.635C134.212 288.088 133.356 289.583 131.429 290.696C129.503 291.805 126.917 292.3 124.392 292.179C123.68 293.129 123.207 294.14 122.999 295.181C125.285 295.805 127.106 296.982 127.814 298.507L127.803 298.503ZM139.023 291.434C143.785 290.699 148.68 292.334 149.959 295.082C150.603 296.467 150.198 297.871 149.032 299.018C149.032 299.018 149.032 299.018 149.036 299.022C149.024 299.033 149.006 299.045 148.994 299.056C148.843 299.2 148.672 299.34 148.498 299.476C148.426 299.529 148.366 299.59 148.294 299.643C148.237 299.684 148.173 299.718 148.12 299.756C148.044 299.809 147.964 299.851 147.889 299.9C147.745 299.987 147.612 300.085 147.457 300.169C147.601 300.089 147.722 300.002 147.855 299.919C146.753 300.604 145.334 301.13 143.657 301.387C141.132 301.777 138.573 301.497 136.528 300.736C136.275 300.642 136.033 300.54 135.794 300.434C135.741 300.407 135.692 300.384 135.639 300.362C135.627 300.358 135.62 300.35 135.609 300.347C135.544 300.316 135.48 300.286 135.419 300.252C135.283 300.184 135.151 300.108 135.022 300.032C134.98 300.01 134.942 299.987 134.901 299.964C134.772 299.885 134.647 299.805 134.53 299.726C134.499 299.703 134.469 299.68 134.435 299.662C133.659 299.117 133.057 298.469 132.716 297.743C131.437 294.995 134.265 292.168 139.027 291.434H139.023Z" fill="url(#paint0_linear_2655_64177)"/>
<path d="M122.991 280.943C124.589 281.382 125.948 282.093 126.872 282.998C126.758 283.107 126.644 283.221 126.52 283.327V288.531C127.606 289.375 128.893 290.113 130.335 290.73C132.417 289.897 135.086 289.579 137.721 289.988C140.356 290.397 142.392 291.441 143.479 292.762C144.364 292.702 145.246 292.618 146.136 292.482C147.022 292.346 147.862 292.164 148.684 291.96C148.479 290.503 149.335 289.012 151.258 287.899C153.189 286.786 155.778 286.294 158.303 286.411C159.011 285.465 159.48 284.455 159.692 283.414V278.21C158.091 277.771 156.732 277.06 155.812 276.151C155.925 276.038 156.035 275.928 156.164 275.822V270.618C155.077 269.778 153.798 269.04 152.356 268.423C150.274 269.252 147.605 269.574 144.97 269.165C142.339 268.756 140.299 267.708 139.212 266.391C138.33 266.451 137.441 266.534 136.551 266.671C135.665 266.807 134.825 266.989 134.011 267.193C134.215 268.646 133.36 270.141 131.433 271.254C129.506 272.363 126.921 272.859 124.396 272.738C123.684 273.687 123.211 274.698 123.003 275.739V280.943H122.991ZM143.653 281.953C139.678 282.57 135.62 281.529 133.64 279.569C134.783 278.441 136.669 277.563 139.023 277.203C142.998 276.59 147.056 277.627 149.036 279.588C147.893 280.712 146.011 281.59 143.653 281.953Z" fill="#CEE7FD"/>
<g style="mix-blend-mode:overlay">
<path d="M132.713 278.305C131.433 275.553 134.261 272.73 139.023 271.996C143.785 271.261 148.68 272.896 149.959 275.644C150.841 277.544 149.766 279.474 147.453 280.734C148.078 280.398 148.608 280.008 149.036 279.588C147.056 277.627 142.998 276.59 139.023 277.203C136.665 277.567 134.783 278.445 133.64 279.569C134.374 280.295 135.4 280.893 136.597 281.329C134.757 280.663 133.326 279.61 132.713 278.301V278.305ZM130.332 285.53C128.893 284.913 127.606 284.171 126.516 283.331V288.535C127.602 289.379 128.889 290.117 130.332 290.734C132.414 289.901 135.082 289.583 137.717 289.992C140.352 290.4 142.388 291.445 143.475 292.766C144.361 292.705 145.243 292.622 146.132 292.486C147.018 292.35 147.858 292.168 148.68 291.964C148.476 290.506 149.331 289.015 151.254 287.903C153.185 286.79 155.774 286.298 158.299 286.415C159.007 285.469 159.476 284.459 159.688 283.418V278.214C159.476 279.255 159.007 280.265 158.299 281.211C155.778 281.094 153.185 281.586 151.254 282.702C149.331 283.815 148.476 285.306 148.68 286.76C147.858 286.964 147.018 287.146 146.132 287.282C145.246 287.418 144.361 287.501 143.475 287.562C142.388 286.241 140.352 285.197 137.717 284.784C135.079 284.375 132.41 284.697 130.332 285.526V285.53ZM122.991 280.943C124.589 281.382 125.948 282.093 126.872 282.998C126.758 283.107 126.644 283.221 126.52 283.327C127.962 282.123 128.515 280.583 127.807 279.062C127.099 277.536 125.278 276.363 122.991 275.735V280.939V280.943ZM155.804 276.155C155.918 276.041 156.028 275.932 156.156 275.826V270.622C154.722 271.825 154.165 273.366 154.873 274.887C155.085 275.345 155.411 275.765 155.804 276.155Z" fill="black"/>
</g>
<path d="M143.475 293.394C143.289 293.394 143.111 293.311 142.99 293.163C141.961 291.911 140.004 290.98 137.622 290.612C135.204 290.234 132.629 290.491 130.566 291.316C130.411 291.377 130.241 291.377 130.086 291.309C128.583 290.665 127.254 289.897 126.133 289.03C125.978 288.913 125.891 288.728 125.891 288.535V283.331C125.891 283.229 125.918 283.126 125.963 283.036C125.157 282.404 124.085 281.893 122.825 281.548C122.552 281.472 122.363 281.227 122.363 280.943V275.739C122.363 275.697 122.367 275.655 122.374 275.618C122.598 274.494 123.105 273.4 123.881 272.363C124.006 272.196 124.207 272.098 124.415 272.113C126.921 272.23 129.359 271.719 131.111 270.713C132.732 269.778 133.557 268.529 133.383 267.284C133.337 266.966 133.538 266.667 133.852 266.587C134.78 266.353 135.631 266.179 136.453 266.054C137.267 265.929 138.152 265.834 139.163 265.766C139.368 265.747 139.561 265.838 139.689 265.993C140.719 267.246 142.676 268.177 145.057 268.544C147.476 268.919 150.05 268.665 152.117 267.84C152.272 267.78 152.443 267.78 152.598 267.848C154.093 268.487 155.418 269.252 156.542 270.122C156.698 270.24 156.785 270.425 156.785 270.618V275.822C156.785 275.924 156.758 276.026 156.713 276.113C157.523 276.749 158.594 277.26 159.855 277.605C160.127 277.68 160.317 277.926 160.317 278.21V283.414C160.317 283.456 160.313 283.497 160.305 283.539C160.078 284.671 159.571 285.764 158.802 286.79C158.678 286.956 158.477 287.059 158.272 287.04C155.763 286.926 153.321 287.433 151.572 288.444C149.956 289.379 149.13 290.628 149.308 291.873C149.354 292.191 149.149 292.493 148.839 292.569C147.885 292.804 147.06 292.974 146.238 293.103C145.44 293.228 144.58 293.318 143.528 293.39C143.513 293.39 143.498 293.39 143.486 293.39L143.475 293.394ZM135.408 289.189C136.214 289.189 137.021 289.25 137.812 289.375C140.34 289.768 142.479 290.764 143.736 292.119C144.611 292.054 145.349 291.971 146.03 291.865C146.666 291.767 147.306 291.642 148.014 291.475C148.04 289.909 149.074 288.432 150.932 287.358C152.806 286.279 155.358 285.708 157.977 285.776C158.515 284.996 158.874 284.182 159.052 283.35V278.679C157.53 278.203 156.259 277.487 155.358 276.598C155.24 276.481 155.172 276.322 155.172 276.151C155.172 275.985 155.236 275.822 155.358 275.705C155.414 275.648 155.467 275.595 155.524 275.542V270.928C154.597 270.243 153.522 269.63 152.329 269.1C150.107 269.929 147.4 270.179 144.86 269.782C142.332 269.388 140.197 268.397 138.932 267.038C138.084 267.102 137.331 267.185 136.634 267.291C136.002 267.386 135.351 267.515 134.655 267.677C134.632 269.244 133.595 270.72 131.732 271.795C129.858 272.874 127.307 273.445 124.691 273.377C124.15 274.161 123.786 274.978 123.612 275.803V280.473C125.134 280.95 126.402 281.666 127.303 282.551C127.424 282.668 127.492 282.831 127.492 282.998C127.492 283.168 127.424 283.327 127.303 283.444C127.246 283.501 127.19 283.554 127.137 283.603V288.217C128.06 288.902 129.135 289.515 130.339 290.049C131.868 289.477 133.629 289.182 135.404 289.182L135.408 289.189ZM141.378 282.752C138.096 282.752 134.935 281.734 133.193 280.015C133.072 279.898 133.008 279.735 133.008 279.569C133.008 279.402 133.076 279.24 133.193 279.122C134.48 277.854 136.513 276.954 138.925 276.583C142.979 275.954 147.321 277.007 149.475 279.141C149.596 279.258 149.66 279.421 149.66 279.588C149.66 279.754 149.592 279.917 149.471 280.034C148.184 281.298 146.151 282.203 143.744 282.574C142.96 282.695 142.165 282.755 141.374 282.755L141.378 282.752ZM134.59 279.569C136.619 281.136 140.174 281.855 143.554 281.332C145.394 281.049 146.973 280.435 148.082 279.584C146.057 278.017 142.498 277.298 139.118 277.82C137.274 278.104 135.696 278.717 134.59 279.569Z" fill="#4DA3C7"/>
<path d="M3.4524 240.25C3.53568 240.072 3.77795 239.932 4.08458 239.887C4.39499 239.838 4.72433 239.887 4.95146 240.019L16.5654 246.726L23.9775 245.575L25.9724 241.295L14.3585 234.592C14.1313 234.463 14.0443 234.27 14.1276 234.092C14.2108 233.915 14.4493 233.774 14.7597 233.725L24.7384 232.181C25.045 232.132 25.3781 232.181 25.6015 232.317L39.059 240.08C39.2104 240.171 39.271 240.288 39.2899 240.409C39.2975 240.466 39.3126 240.519 39.2899 240.576L36.905 245.7L77.3949 269.066L86.2719 267.693C86.5786 267.647 86.9079 267.693 87.135 267.825L100.593 275.591C100.744 275.682 100.808 275.803 100.823 275.924C100.827 275.977 100.846 276.034 100.823 276.091L98.1433 281.847C98.06 282.025 97.8177 282.161 97.5073 282.211C97.1969 282.256 96.8676 282.207 96.6442 282.078L85.0265 275.372L77.6107 276.522L75.6157 280.803L87.2335 287.505C87.3962 287.6 87.4568 287.725 87.4644 287.857C87.4644 287.906 87.4871 287.959 87.4644 288.005C87.3849 288.183 87.1426 288.323 86.8322 288.368L76.8574 289.912C76.5507 289.958 76.2176 289.912 75.9943 289.78L62.5405 282.014C62.3702 281.919 62.3096 281.787 62.3096 281.65C62.3096 281.605 62.2869 281.56 62.3096 281.514L64.6907 276.39L24.2046 253.019L15.3238 254.397C15.0171 254.442 14.6878 254.393 14.4607 254.261L1.00695 246.498C0.84039 246.4 0.776036 246.268 0.776036 246.135C0.776036 246.086 0.757109 246.044 0.776036 246.003L3.4524 240.242V240.25Z" fill="url(#paint1_linear_2655_64177)"/>
<path d="M0.745743 220.07H0.779812C0.779812 220.025 0.760885 219.983 0.779812 219.938L3.45617 214.178C3.53945 214 3.78173 213.86 4.08835 213.814C4.39877 213.765 4.72811 213.814 4.95524 213.947L16.5692 220.649L21.426 219.896L14.3622 215.82C14.1919 215.722 14.1313 215.589 14.1313 215.453H14.101V208.145H14.1313C14.1313 208.099 14.1086 208.058 14.1313 208.016C14.2146 207.838 14.4531 207.698 14.7635 207.649L24.7421 206.105C25.0488 206.056 25.3819 206.109 25.6052 206.241L39.0627 214.003C39.2142 214.094 39.2747 214.212 39.2937 214.333H39.3202V221.637H39.2937C39.2937 221.694 39.3164 221.751 39.2937 221.807L34.3536 232.423C34.3119 232.514 34.2286 232.59 34.1226 232.654C34.0166 232.719 33.8766 232.764 33.7214 232.787L15.3276 235.64C15.0209 235.686 14.6916 235.637 14.4645 235.504L1.01073 227.742C0.829024 227.636 0.768456 227.492 0.779812 227.344H0.745743V220.066V220.07Z" fill="#4DA3C7"/>
<g style="mix-blend-mode:overlay" opacity="0.3">
<path d="M0.776028 220.07C0.776028 220.206 0.836597 220.339 1.00694 220.437L14.4607 228.203C14.6878 228.332 15.0171 228.385 15.3238 228.336L33.7176 225.486C33.869 225.463 34.0091 225.418 34.1189 225.354C34.2248 225.289 34.3081 225.21 34.3498 225.119L39.2899 214.503C39.3126 214.446 39.2974 214.393 39.2899 214.333H39.3164V221.637H39.2899C39.2899 221.694 39.3126 221.751 39.2899 221.807L34.3498 232.423C34.3081 232.514 34.2248 232.59 34.1189 232.654C34.0129 232.719 33.8728 232.764 33.7176 232.787L15.3238 235.64C15.0171 235.686 14.6878 235.637 14.4607 235.504L1.00694 227.742C0.82524 227.636 0.764672 227.492 0.776028 227.344H0.741959V220.066H0.776028V220.07ZM14.1313 208.02C14.1086 208.062 14.1313 208.107 14.1313 208.149H14.101V215.457H14.1313C14.1313 215.593 14.1919 215.725 14.3622 215.824L21.426 219.9L16.5692 220.653L23.9812 219.503L25.9762 215.222L14.3622 208.519C14.1351 208.391 14.048 208.198 14.1313 208.02Z" fill="black"/>
</g>
<path d="M15.1042 236.287C14.7559 236.287 14.4115 236.204 14.1465 236.053L0.692754 228.291C0.40884 228.124 0.22335 227.87 0.166567 227.587C0.132497 227.515 0.117355 227.435 0.117355 227.352V220.074C0.117355 220.006 0.128712 219.938 0.147639 219.873C0.155211 219.809 0.177924 219.741 0.211993 219.669L2.88457 213.916C3.06249 213.542 3.47511 213.273 3.99372 213.197C4.44042 213.125 4.91739 213.205 5.26566 213.409L16.6866 220.002L19.5673 219.556L14.0481 216.369C13.7869 216.217 13.6089 215.99 13.5408 215.725C13.4992 215.646 13.4764 215.555 13.4764 215.457V208.149C13.4764 208.084 13.4878 208.02 13.5029 207.963C13.5105 207.895 13.5332 207.819 13.5711 207.74C13.7376 207.38 14.1389 207.115 14.6651 207.032L24.6475 205.488C25.098 205.42 25.5712 205.499 25.9232 205.704L39.3769 213.466C39.6079 213.602 39.7706 213.795 39.8577 214.026C39.9145 214.117 39.9486 214.227 39.9486 214.34V221.645C39.9486 221.694 39.941 221.743 39.9334 221.788C39.9334 221.868 39.9145 221.963 39.8691 222.061L34.9214 232.692C34.823 232.896 34.664 233.063 34.4444 233.195C34.2703 233.301 34.0583 233.373 33.8198 233.411L15.426 236.265C15.32 236.28 15.214 236.287 15.108 236.287H15.1042ZM1.39307 227.242L14.7749 234.967C14.8619 235.016 15.0474 235.054 15.2329 235.027L33.6192 232.174C33.7138 232.158 33.7706 232.136 33.7933 232.121L33.8009 232.117L38.6615 221.671C38.6615 221.599 38.6691 221.527 38.688 221.459V214.522L25.2873 206.79C25.2002 206.737 25.0147 206.703 24.8368 206.729L14.8582 208.273C14.8089 208.281 14.7711 208.292 14.7408 208.304C14.7408 208.319 14.7332 208.33 14.7294 208.345V215.275C14.7294 215.275 14.7408 215.305 14.7446 215.32L21.7402 219.359C21.9711 219.491 22.0923 219.756 22.0431 220.017C21.9939 220.278 21.7857 220.483 21.5245 220.521L16.6676 221.274C16.5276 221.296 16.3837 221.27 16.2588 221.198L4.64483 214.495C4.55777 214.446 4.37606 214.412 4.19057 214.439C4.09593 214.454 4.03536 214.477 4.00508 214.495L1.40822 220.082C1.40822 220.15 1.39686 220.214 1.37415 220.275V227.17C1.38172 227.193 1.38929 227.219 1.39307 227.242Z" fill="#4DA3C7"/>
<g style="mix-blend-mode:overlay" opacity="0.1">
<path d="M23.898 208.909L34.4331 214.991L30.5643 223.302L16.1642 225.535L5.62907 219.453L6.16282 218.303L15.2291 223.533L27.6305 221.607L30.9617 214.446L21.903 209.216L23.898 208.909Z" fill="black"/>
</g>
<path d="M24.2046 228.419L33.7176 226.947C33.869 226.924 34.0091 226.875 34.1189 226.811C34.2249 226.746 34.3081 226.667 34.3498 226.58L36.905 221.085L77.3949 244.459V248.841L67.8819 250.313C67.7267 250.34 67.5904 250.385 67.4806 250.45C67.3708 250.514 67.2913 250.593 67.2497 250.684L64.6945 256.176L24.2084 232.806V228.423L24.2046 228.419Z" fill="white"/>
<path d="M64.6907 251.789L67.2459 246.298C67.2876 246.211 67.3708 246.128 67.4768 246.067C67.5866 246.003 67.7229 245.957 67.8781 245.931L77.3911 244.459V248.841L67.8781 250.313C67.7229 250.34 67.5866 250.385 67.4768 250.45C67.3671 250.514 67.2876 250.593 67.2459 250.684L64.6907 256.176L24.2046 232.806V228.423L64.6907 251.793V251.789Z" fill="#CEE7FD"/>
<path d="M33.7176 228.408C33.869 228.385 34.0091 228.336 34.1189 228.275C34.2249 228.211 34.3081 228.132 34.3498 228.045L36.0987 224.279L72.4018 245.234L74.3968 244.924L67.8781 245.935C67.7229 245.957 67.5866 246.006 67.4768 246.071C67.3671 246.131 67.2876 246.215 67.2459 246.302L65.497 250.067L29.1939 229.116L33.7214 228.415L33.7176 228.408Z" fill="#CEE7FD"/>
<g style="mix-blend-mode:overlay" opacity="0.5">
<path d="M36.0987 224.279L34.3498 228.045C34.3081 228.132 34.2249 228.211 34.1189 228.275C34.0129 228.336 33.8728 228.385 33.7176 228.408L29.1901 229.108L27.1952 227.957L33.7138 226.947C33.8652 226.924 34.0053 226.875 34.1151 226.811C34.2211 226.746 34.3044 226.667 34.346 226.58L36.0949 222.814L74.393 244.92L72.398 245.231L36.0949 224.275L36.0987 224.279Z" fill="black"/>
</g>
<path d="M64.6907 256.8C64.5809 256.8 64.4749 256.77 64.3765 256.717L23.8904 233.347C23.6973 233.233 23.5762 233.029 23.5762 232.802V228.419C23.5762 228.109 23.8033 227.848 24.1062 227.799L33.6192 226.326C33.7025 226.311 33.763 226.288 33.7933 226.273C33.7971 226.273 33.8009 226.269 33.8009 226.269L36.3334 220.823C36.4091 220.664 36.5454 220.543 36.7119 220.49C36.8785 220.437 37.064 220.456 37.2154 220.543L77.7053 243.917C77.8984 244.031 78.0195 244.235 78.0195 244.462V248.845C78.0195 249.155 77.7924 249.416 77.4895 249.466L67.9765 250.938C67.8819 250.953 67.8213 250.98 67.7948 250.995L65.2623 256.441C65.1866 256.6 65.0503 256.721 64.8838 256.774C64.8232 256.793 64.7588 256.804 64.6945 256.804L64.6907 256.8ZM24.8292 232.442L64.4068 255.29L66.6743 250.419C66.7689 250.215 66.9355 250.041 67.1588 249.908C67.3443 249.802 67.5488 249.731 67.7759 249.697L76.7627 248.308V244.826L37.1813 221.978L34.9176 226.849C34.8192 227.057 34.6526 227.227 34.4331 227.356C34.2627 227.458 34.0469 227.534 33.816 227.571L24.833 228.96V232.442H24.8292Z" fill="#4DA3C7"/>
<path d="M62.2717 255.585H62.3058C62.3058 255.54 62.2831 255.498 62.3058 255.453L67.2421 244.837C67.2838 244.75 67.3671 244.67 67.473 244.606C67.5828 244.542 67.7191 244.496 67.8743 244.47L86.2681 241.62C86.5748 241.575 86.9041 241.62 87.1312 241.753L100.589 249.515C100.74 249.606 100.805 249.727 100.82 249.852H100.839V257.137H100.82C100.831 257.198 100.85 257.258 100.82 257.323L98.1395 263.083C98.0562 263.261 97.814 263.401 97.5036 263.446C97.1931 263.495 96.8638 263.446 96.6404 263.314L85.0227 256.611L80.1659 257.364L87.2297 261.44C87.3924 261.535 87.453 261.664 87.4606 261.792H87.4909V269.123H87.4606C87.4606 269.161 87.4795 269.203 87.4606 269.244C87.3811 269.422 87.1388 269.558 86.8284 269.608L76.8536 271.156C76.5469 271.205 76.2138 271.156 75.9905 271.023L62.5367 263.257C62.3777 263.162 62.3172 263.041 62.3058 262.913H62.2717V255.585Z" fill="#4DA3C7"/>
<g style="mix-blend-mode:overlay" opacity="0.3">
<path d="M80.1659 257.364L87.2297 261.44L75.6119 254.738L77.6069 250.457L85.0227 249.307L96.6404 256.013C96.8638 256.142 97.1931 256.191 97.5036 256.146C97.814 256.096 98.0562 255.956 98.1395 255.782L100.82 250.022C100.842 249.969 100.823 249.912 100.82 249.855H100.839V257.141H100.82C100.831 257.202 100.85 257.262 100.82 257.326L98.1395 263.087C98.0562 263.265 97.814 263.405 97.5036 263.45C97.1931 263.499 96.8638 263.45 96.6404 263.318L85.0227 256.615L80.1659 257.368V257.364ZM62.2717 255.585V262.913H62.3058C62.3134 263.041 62.374 263.162 62.5367 263.257L75.9905 271.023C76.2138 271.156 76.5469 271.205 76.8536 271.156L86.8284 269.608C87.1388 269.562 87.3811 269.422 87.4606 269.244C87.4795 269.203 87.4606 269.161 87.4606 269.123H87.4909V261.792H87.4606C87.4606 261.841 87.4833 261.891 87.4606 261.94C87.3811 262.118 87.1388 262.258 86.8284 262.307L76.8536 263.851C76.5469 263.9 76.2138 263.851 75.9905 263.719L62.5367 255.953C62.3664 255.858 62.3058 255.722 62.3058 255.589H62.2717V255.585Z" fill="black"/>
</g>
<path d="M76.6151 271.803C76.2706 271.803 75.9337 271.719 75.6687 271.564L62.2225 263.802C61.9803 263.658 61.8099 263.458 61.7304 263.215C61.6774 263.124 61.6471 263.022 61.6471 262.913V255.585C61.6471 255.517 61.6585 255.449 61.6774 255.389C61.6888 255.321 61.7077 255.249 61.7456 255.173L66.6743 244.572C66.7727 244.368 66.9393 244.194 67.1589 244.065C67.3368 243.963 67.545 243.891 67.7759 243.853L86.1697 241.003C86.624 240.935 87.0972 241.015 87.4416 241.211L100.899 248.974C101.141 249.117 101.308 249.322 101.391 249.568C101.437 249.655 101.463 249.75 101.463 249.852V257.137C101.463 257.167 101.463 257.194 101.456 257.224C101.456 257.33 101.444 257.455 101.38 257.591L98.7036 263.348C98.5332 263.719 98.1168 263.991 97.5944 264.067C97.1477 264.139 96.6707 264.059 96.3225 263.855L84.8978 257.262L82.0208 257.709L87.5401 260.892C87.7937 261.039 87.9641 261.251 88.0398 261.505C88.0852 261.588 88.1117 261.686 88.1117 261.785V269.116C88.1117 269.184 88.1003 269.248 88.0814 269.312C88.0738 269.373 88.0549 269.437 88.0208 269.505C87.8581 269.869 87.4416 270.141 86.9155 270.221L76.9406 271.765C76.8308 271.784 76.7173 271.791 76.6075 271.791L76.6151 271.803ZM62.9115 262.75L76.3047 270.478C76.3917 270.527 76.5734 270.565 76.7551 270.535L86.7338 268.987C86.783 268.979 86.8246 268.968 86.8549 268.957C86.8549 268.949 86.8587 268.938 86.8625 268.93V261.974C86.8625 261.974 86.8549 261.955 86.8511 261.944L79.8517 257.905C79.6208 257.773 79.4996 257.508 79.5488 257.247C79.5981 256.986 79.8063 256.781 80.0675 256.744L84.9243 255.99C85.0681 255.968 85.212 255.994 85.3331 256.066L96.9509 262.769C97.0379 262.818 97.2196 262.852 97.4013 262.826C97.496 262.81 97.5565 262.788 97.5868 262.769L100.195 257.16C100.195 257.122 100.199 257.088 100.206 257.05V250.022L86.8133 242.294C86.73 242.245 86.5445 242.21 86.359 242.237L67.969 245.087C67.8705 245.102 67.8137 245.128 67.791 245.144L62.9342 255.585C62.9342 255.654 62.9229 255.722 62.9001 255.782V262.712C62.9001 262.712 62.9077 262.731 62.9115 262.742V262.75Z" fill="#4DA3C7"/>
<g style="mix-blend-mode:overlay" opacity="0.1">
<path d="M77.6939 261.05L67.1626 254.969L71.0277 246.657L85.4278 244.424L95.9628 250.503L95.4253 251.657L86.3628 246.427L73.9614 248.349L70.6302 255.514L79.6889 260.74L77.6939 261.05Z" fill="black"/>
</g>
<g style="mix-blend-mode:overlay" opacity="0.2">
<path d="M79.6889 260.74L77.6939 261.05L74.3816 259.135L70.6302 256.971V255.514L71.1639 255.824L79.6889 260.744V260.74ZM67.1626 254.969L67.6964 255.279L71.0277 248.118L85.4278 245.885L95.4253 251.653L95.9628 250.503L85.4278 244.424L71.0277 246.654L67.1626 254.965V254.969Z" fill="black"/>
</g>
<g style="mix-blend-mode:overlay" opacity="0.2">
<path d="M6.16282 218.303L15.2254 223.533L27.6305 221.607L30.428 215.597L30.9617 214.442V215.903L27.6305 223.064L15.2254 224.983L13.6544 224.074L5.62907 219.442L6.16282 218.291V218.303ZM23.898 210.37L33.8993 216.142L34.4331 214.991L23.898 208.909L21.903 209.22L23.898 210.374V210.37Z" fill="black"/>
</g>
<path d="M184.457 175.479L176.859 179.866C176.583 180.029 176.409 180.369 176.409 180.85V219.378C176.409 237.249 202.805 266.319 203.933 267.553C204.126 267.757 204.335 267.931 204.539 268.048C204.747 268.169 204.952 268.234 205.145 268.245C205.875 268.291 217.277 268.896 225.174 264.411H225.178L232.874 259.972C237.087 257.55 240.282 253.67 240.282 247.46V208.928C240.282 207.986 239.517 206.786 238.703 206.313C228.164 200.235 218.341 191.625 213.06 183.843C212.526 183.056 211.781 182.629 211.243 182.799C205.966 184.479 196.15 181.751 185.528 175.616C185.119 175.343 184.745 175.32 184.468 175.479H184.457Z" fill="white"/>
<path d="M238.696 206.309C228.157 200.231 218.333 191.621 213.053 183.84C212.519 183.052 211.773 182.625 211.236 182.795C205.959 184.476 196.143 181.747 185.521 175.612C185.112 175.339 184.737 175.317 184.461 175.476L176.863 179.858C177.139 179.699 177.514 179.726 177.915 179.998C188.541 186.129 198.357 188.858 203.634 187.182C204.172 187.011 204.918 187.443 205.455 188.226C210.736 196.007 220.559 204.614 231.098 210.696C231.912 211.165 232.673 212.365 232.677 213.311V251.842C232.677 258.102 229.433 261.993 225.17 264.407C225.17 264.407 225.178 264.404 225.181 264.404H225.185L232.881 259.964C237.094 257.542 240.289 253.663 240.289 247.452V208.921C240.289 207.978 239.525 206.778 238.711 206.305L238.696 206.309Z" fill="#CEE7FD"/>
<path d="M207.109 268.923C205.951 268.923 205.22 268.881 205.103 268.873C204.808 268.854 204.513 268.76 204.221 268.59C203.964 268.438 203.706 268.23 203.472 267.976C202.336 266.735 175.777 237.491 175.777 219.374V180.846C175.777 180.161 176.053 179.608 176.538 179.321L184.139 174.931C184.158 174.919 184.177 174.912 184.196 174.9C184.684 174.647 185.278 174.711 185.839 175.078C196.268 181.096 205.925 183.825 211.035 182.197C211.849 181.94 212.863 182.462 213.564 183.488C218.799 191.197 228.547 199.731 239.002 205.764C240.043 206.37 240.891 207.785 240.895 208.921V247.456C240.895 253.152 238.317 257.535 233.229 260.479C233.214 260.49 233.195 260.502 233.176 260.513L225.481 264.956C225.45 264.971 225.424 264.987 225.393 264.998C219.197 268.48 210.884 268.915 207.102 268.915L207.109 268.923ZM184.726 176.047L177.174 180.407C177.105 180.445 177.037 180.596 177.037 180.846V219.378C177.037 237.014 203.278 265.906 204.395 267.129C204.543 267.288 204.702 267.42 204.853 267.507C205.001 267.594 205.114 267.617 205.183 267.621C205.663 267.651 217.084 268.283 224.86 263.866C224.886 263.851 224.913 263.84 224.935 263.828L232.499 259.461C232.499 259.461 232.533 259.438 232.552 259.427C237.257 256.721 239.642 252.694 239.642 247.46V208.928C239.642 208.239 239.025 207.233 238.374 206.854C227.767 200.734 217.86 192.052 212.526 184.195C212.114 183.586 211.607 183.34 211.417 183.397C205.978 185.13 195.931 182.356 185.199 176.161C185.187 176.153 185.176 176.145 185.165 176.138C184.975 176.009 184.832 175.99 184.771 176.024C184.756 176.032 184.741 176.043 184.722 176.051L184.726 176.047Z" fill="#4DA3C7"/>
<path d="M204.539 234.123L196.173 219.646L198.478 218.318L204.535 228.805L213.632 223.563L215.941 227.552L204.539 234.123Z" fill="#4DA3C7"/>
<path d="M204.539 234.123L196.173 219.65L198.478 218.322L204.535 228.805L212.273 224.351C210.388 220.778 207.62 217.606 204.535 215.824C198.846 212.543 194.235 215.196 194.235 221.754C194.235 228.313 198.846 236.291 204.535 239.573C210.225 242.854 214.836 240.205 214.836 233.642C214.836 232.034 214.552 230.33 214.048 228.642L204.535 234.123H204.539Z" fill="#CEE7FD"/>
<path d="M0.647316 155.727V155.716C0.632174 156.647 1.05615 157.586 2.01767 158.342C9.27072 163.743 17.6784 168.599 27.0437 172.788C29.9586 174.022 34.4141 173.799 36.8596 172.38C37.0223 172.289 37.1738 172.198 37.3365 172.103C38.7031 171.316 39.3996 170.166 39.4034 169.011C39.4034 169.011 39.4034 169.015 39.4034 169.023H39.4299V174.31H39.3997C39.3883 175.46 38.6993 176.607 37.3328 177.394C37.1776 177.485 37.0186 177.576 36.8596 177.671C34.4141 179.082 29.9586 179.309 27.0437 178.076C17.6821 173.886 9.26694 169.034 2.01767 163.63C1.06751 162.888 0.647316 161.964 0.647316 161.056H0.624603V155.727H0.643531H0.647316Z" fill="#4DA3C7"/>
<g style="mix-blend-mode:overlay" opacity="0.3">
<path d="M0.647316 155.727V155.716C0.632174 156.647 1.05615 157.586 2.01767 158.342C9.27072 163.743 17.6784 168.599 27.0437 172.788C29.9586 174.022 34.4141 173.799 36.8596 172.38C37.0223 172.289 37.1738 172.198 37.3365 172.103C38.7031 171.316 39.3996 170.166 39.4034 169.011C39.4034 169.011 39.4034 169.015 39.4034 169.023H39.4299V174.31H39.3997C39.3883 175.46 38.6993 176.607 37.3328 177.394C37.1776 177.485 37.0186 177.576 36.8596 177.671C34.4141 179.082 29.9586 179.309 27.0437 178.076C17.6821 173.886 9.26694 169.034 2.01767 163.63C1.06751 162.888 0.647316 161.964 0.647316 161.056H0.624603V155.727H0.643531H0.647316Z" fill="black"/>
</g>
<g style="mix-blend-mode:overlay" opacity="0.2">
<path d="M36.8596 172.38C37.0224 172.289 37.1738 172.198 37.3365 172.103C38.7031 171.316 39.3997 170.166 39.4034 169.011C39.4034 169.011 39.4034 169.015 39.4034 169.023H39.4299V174.31H39.3997C39.3883 175.46 38.6993 176.607 37.3328 177.394C37.1776 177.485 37.0186 177.576 36.8596 177.671C36.5302 177.856 36.1668 178.026 35.7731 178.166V172.883C36.1668 172.739 36.5302 172.573 36.8596 172.384V172.38Z" fill="black"/>
</g>
<path d="M31.4993 179.506C29.8261 179.506 28.1567 179.226 26.7977 178.651C17.3717 174.435 8.91111 169.553 1.63913 164.133C0.635967 163.35 0.0719248 162.324 0.0227131 161.223C0.00757103 161.17 0 161.113 0 161.052V155.723C0 155.53 0.0870669 155.349 0.242273 155.228C0.302841 155.182 0.370981 155.144 0.442905 155.122C0.465618 155.114 0.484546 155.107 0.507259 155.103C0.787387 155.038 1.07887 155.175 1.20758 155.436C1.25301 155.53 1.27572 155.636 1.27193 155.746C1.26436 156.537 1.65806 157.264 2.4038 157.85C9.60007 163.21 17.9812 168.046 27.3011 172.217C29.9851 173.356 34.2249 173.182 36.5454 171.839L36.7687 171.71C36.8558 171.661 36.9391 171.611 37.0299 171.558C38.1126 170.934 38.7485 170.026 38.7788 169.068C38.7788 169.045 38.7788 169.023 38.7788 169C38.7826 168.811 38.8773 168.629 39.0287 168.516C39.2179 168.368 39.4754 168.345 39.6911 168.451C39.7366 168.474 39.7782 168.5 39.8161 168.531C39.9675 168.644 40.0697 168.822 40.0697 169.023V174.31C40.0697 174.386 40.0583 174.458 40.0318 174.522C39.941 175.877 39.0855 177.111 37.6583 177.936C37.5031 178.026 37.3441 178.117 37.1889 178.208C35.705 179.063 33.6078 179.506 31.5106 179.506H31.4993ZM1.25301 160.901C1.26815 160.95 1.27572 161.003 1.27572 161.056C1.27572 161.836 1.66184 162.555 2.4038 163.134C9.5925 168.489 17.9736 173.326 27.3011 177.5C29.9813 178.636 34.2211 178.465 36.5492 177.126C36.7044 177.035 36.8671 176.94 37.0261 176.849C38.1315 176.214 38.7713 175.286 38.7788 174.306C38.7788 174.242 38.7902 174.177 38.8091 174.121V171.778C38.4836 172.103 38.0974 172.395 37.6545 172.648C37.5637 172.698 37.4842 172.747 37.4047 172.792L37.1738 172.925C34.5201 174.461 29.8639 174.662 26.8015 173.364C17.3869 169.155 8.92625 164.269 1.64291 158.846C1.50664 158.736 1.37793 158.626 1.25679 158.509V160.901H1.25301Z" fill="#4DA3C7"/>
<path d="M0.651102 129.401C0.624603 128.228 1.32492 127.051 2.71421 126.241C2.86941 126.154 3.03219 126.063 3.1874 125.969C5.63284 124.553 10.096 124.33 13.0032 125.56C22.3686 129.746 30.78 134.601 38.0369 140.01C38.9946 140.767 39.4186 141.701 39.4034 142.629H39.4299V168.822H39.3997C39.4716 170.041 38.7675 171.271 37.3328 172.1C37.17 172.194 37.0186 172.285 36.8558 172.376C34.4103 173.795 29.9548 174.019 27.0399 172.785C17.6746 168.595 9.26315 163.743 2.01389 158.339C1.05237 157.582 0.628389 156.647 0.643531 155.712H0.624603V129.401H0.647316H0.651102Z" fill="white"/>
<path d="M38.0407 140.013C38.9984 140.77 39.4224 141.705 39.4072 142.632H39.4337V168.826H39.4034C39.4754 170.045 38.7713 171.275 37.3365 172.103C37.1738 172.198 37.0224 172.289 36.8596 172.38C36.5302 172.569 36.1668 172.739 35.7769 172.879V138.431C36.5227 138.965 37.3138 139.472 38.0407 140.013Z" fill="#CEE7FD"/>
<path d="M31.5031 174.223C29.8299 174.223 28.1605 173.943 26.8015 173.368C17.3869 169.159 8.92625 164.273 1.64291 158.85C0.620823 158.047 0.0529959 156.995 0.0227118 155.871C0.0075697 155.822 0.00378418 155.773 0.00378418 155.72V129.409C0.0075697 129.356 0.0151407 129.303 0.0264973 129.25C0.0605669 127.853 0.919879 126.566 2.40002 125.704C2.55901 125.617 2.71421 125.526 2.86563 125.435C5.53442 123.891 10.1906 123.694 13.2493 124.988C22.6525 129.189 31.1132 134.075 38.4154 139.514C39.4262 140.312 39.994 141.349 40.0318 142.458C40.0508 142.515 40.0621 142.576 40.0621 142.636V168.83C40.0583 168.883 40.0508 168.936 40.0356 168.985C40.0394 170.419 39.1612 171.778 37.6507 172.648C37.5599 172.698 37.4804 172.747 37.4009 172.792L37.17 172.925C35.6936 173.78 33.5965 174.223 31.5031 174.223ZM1.253 155.572C1.26436 155.621 1.27193 155.674 1.27193 155.727C1.26058 156.522 1.65048 157.256 2.4038 157.85C9.60007 163.21 17.9812 168.046 27.3011 172.217C29.9851 173.356 34.2248 173.182 36.5454 171.839L36.7687 171.71C36.8558 171.661 36.9391 171.611 37.0299 171.558C38.1996 170.885 38.8394 169.901 38.7788 168.864C38.775 168.792 38.7788 168.72 38.8015 168.656V142.803C38.7864 142.746 38.7788 142.685 38.7788 142.625C38.7902 141.834 38.4003 141.1 37.6507 140.509C30.4393 135.135 22.0544 130.298 12.7496 126.139C10.0657 125.003 5.82969 125.174 3.50539 126.517C3.35018 126.608 3.18362 126.707 3.02463 126.794C1.90033 127.448 1.26058 128.394 1.28329 129.39C1.28329 129.45 1.2795 129.507 1.26436 129.56V155.572H1.253Z" fill="#4DA3C7"/>
<path d="M39.4299 137.307H39.4034C39.4034 137.307 39.4034 137.307 39.4034 137.304V137.296C39.4034 136.384 38.9795 135.472 38.0369 134.73C30.7762 129.325 22.3686 124.47 13.007 120.28C10.0922 119.05 5.63284 119.273 3.1874 120.689C3.02462 120.784 2.86941 120.874 2.71042 120.961C1.35521 121.749 0.658673 122.892 0.643531 124.038C0.643531 124.031 0.643531 124.023 0.643531 124.016H0.624603V129.341H0.643531C0.639745 130.253 1.06372 131.176 2.0101 131.914C9.26694 137.322 17.6746 142.174 27.0475 146.36C29.9586 147.594 34.4066 147.371 36.8596 145.955C37.0186 145.864 37.1738 145.77 37.3328 145.679C38.6993 144.892 39.3959 143.749 39.3997 142.587L39.4299 142.594V137.307Z" fill="#4DA3C7"/>
<g style="mix-blend-mode:overlay" opacity="0.3">
<path d="M39.4299 137.307H39.4034C39.3959 138.465 38.6956 139.612 37.3328 140.396C37.1738 140.486 37.0148 140.577 36.8596 140.672C34.4066 142.087 29.9586 142.311 27.0437 141.081C17.6784 136.891 9.26695 132.035 2.01769 126.635C1.06374 125.885 0.639759 124.958 0.64733 124.038C0.64733 124.038 0.64733 124.027 0.64733 124.019H0.628403V129.344H0.64733C0.643545 130.257 1.06752 131.18 2.0139 131.918C9.27074 137.326 17.6784 142.178 27.0513 146.364C29.9624 147.598 34.4104 147.375 36.8634 145.959C37.0224 145.868 37.1776 145.774 37.3366 145.683C38.7031 144.896 39.3997 143.753 39.4034 142.591L39.4337 142.598V137.311L39.4299 137.307Z" fill="black"/>
</g>
<g style="mix-blend-mode:overlay" opacity="0.2">
<path d="M31.1359 138.397L31.2305 134.003C31.0374 133.894 31.5598 132.433 32.2602 130.699C34.2589 132.005 36.1933 133.349 38.0407 134.726C38.2224 134.866 38.3549 135.021 38.5025 135.177L32.9188 138.405C32.4267 138.685 31.628 138.685 31.1359 138.401V138.397ZM11.595 125.946L17.6405 122.453C16.1225 121.711 14.5856 120.98 13.0108 120.276C12.231 119.947 11.3414 119.731 10.4102 119.606C10.0089 120.678 9.7742 121.465 9.91048 121.544L9.81584 125.942C10.3117 126.226 11.1067 126.226 11.5988 125.942L11.595 125.946Z" fill="black"/>
</g>
<g style="mix-blend-mode:overlay" opacity="0.2">
<path d="M35.7731 141.168C35.7731 141.168 35.7618 141.175 35.758 141.171C36.1517 141.024 36.5264 140.857 36.8596 140.668C37.0148 140.573 37.1738 140.483 37.3328 140.392C38.7069 139.601 39.3997 138.454 39.4034 137.292C39.4034 137.307 39.4034 137.304 39.4034 137.311H39.4299V142.595L39.3997 142.587C39.3959 143.749 38.6956 144.892 37.3328 145.679C37.17 145.77 37.0186 145.864 36.8596 145.955C36.534 146.145 36.1593 146.307 35.7769 146.451V141.168H35.7731Z" fill="black"/>
</g>
<path d="M31.5069 147.791C29.8337 147.791 28.1605 147.511 26.8052 146.936C17.3907 142.731 8.92625 137.849 1.63913 132.418C0.635967 131.63 0.0719248 130.605 0.0227131 129.5C0.00757103 129.447 0 129.394 0 129.337V124.012C0 123.948 0.0113565 123.883 0.0302841 123.823C0.121137 122.475 0.976663 121.241 2.40002 120.416C2.54387 120.337 2.68015 120.257 2.81642 120.178L2.87699 120.144C5.53442 118.607 10.1868 118.407 13.2531 119.701C22.6525 123.902 31.1132 128.788 38.4154 134.223C39.411 135.006 39.9751 136.028 40.028 137.122C40.047 137.179 40.0583 137.243 40.0583 137.304V142.591C40.0583 142.663 40.047 142.735 40.0243 142.803C39.9372 144.158 39.0817 145.391 37.647 146.216C37.5561 146.266 37.4766 146.315 37.4009 146.36C37.3252 146.406 37.2457 146.451 37.1662 146.496C35.6898 147.348 33.5965 147.787 31.5031 147.787L31.5069 147.791ZM1.25301 129.193C1.26436 129.242 1.27193 129.291 1.27193 129.341C1.27193 130.12 1.65806 130.839 2.39623 131.418C9.60007 136.785 17.9812 141.622 27.3011 145.785C29.9813 146.92 34.2173 146.75 36.5416 145.41C36.6173 145.369 36.6854 145.327 36.7574 145.285C36.8444 145.232 36.9353 145.179 37.0261 145.13C38.1277 144.494 38.7675 143.567 38.7713 142.587C38.7713 142.523 38.7826 142.458 38.8015 142.398V137.493C38.7826 137.436 38.7713 137.372 38.7713 137.311C38.7713 136.516 38.3813 135.801 37.647 135.222C30.4318 129.852 22.0506 125.015 12.7496 120.855C10.0619 119.72 5.82212 119.89 3.5016 121.234L3.44103 121.268C3.29718 121.351 3.16091 121.431 3.02084 121.51C1.92304 122.146 1.28329 123.073 1.27193 124.046C1.27193 124.099 1.26436 124.152 1.24922 124.201V129.197L1.25301 129.193Z" fill="#4DA3C7"/>
<path d="M5.92433 124.53C5.92433 124.504 5.92433 124.481 5.92433 124.455V110.917C5.92433 106.421 7.6846 102.825 10.7584 101.054C13.8285 99.2829 17.8336 99.5554 21.7364 101.807C28.6904 105.819 34.1416 115.25 34.1416 123.278V136.846C34.1529 137.357 33.8198 137.867 33.146 138.257C31.821 139.026 29.6633 139.026 28.3346 138.257C27.6608 137.867 27.3314 137.357 27.339 136.849V123.281C27.339 117.65 23.2128 110.512 18.3333 107.696C16.6184 106.705 15.0588 106.425 14.1578 106.947C13.2607 107.465 12.7231 108.949 12.7231 110.921V124.557H12.7193C12.6928 125.041 12.3673 125.518 11.7275 125.889C10.4026 126.657 8.24485 126.657 6.91235 125.889C6.27638 125.522 5.95083 125.045 5.92433 124.561V124.538V124.53Z" fill="white"/>
<path d="M19.6923 102.178C16.6373 100.415 13.5143 99.9982 10.9288 100.971C13.9761 99.298 17.9017 99.5894 21.7327 101.803C28.6866 105.815 34.1378 115.247 34.1378 123.274V136.842C34.1491 137.353 33.816 137.864 33.1422 138.253C32.5176 138.617 31.7037 138.791 30.8822 138.814V121.556C30.8822 114.316 25.9649 105.808 19.6885 102.182L19.6923 102.178ZM9.57357 115.247V126.43C10.3534 126.392 11.1256 126.23 11.7275 125.881C12.3673 125.514 12.6891 125.034 12.7193 124.549H12.7269V110.913C12.7269 108.941 13.2607 107.458 14.1578 106.939C14.737 106.606 15.6001 106.636 16.5881 106.939C16.5351 106.92 16.4973 106.89 16.4443 106.867C8.65369 103.874 9.57357 113.051 9.57357 115.247Z" fill="#CEE7FD"/>
<path d="M30.7422 139.461C29.7617 139.461 28.7813 139.241 28.0204 138.798C27.18 138.314 26.703 137.599 26.7106 136.838V123.281C26.7106 117.847 22.7282 110.959 18.0191 108.237C16.5465 107.386 15.1534 107.091 14.472 107.488C13.7906 107.882 13.3515 109.229 13.3515 110.917V124.553C13.3515 124.606 13.3515 124.655 13.3364 124.704C13.2569 125.382 12.7988 125.991 12.0417 126.426C10.5162 127.308 8.1275 127.308 6.59815 126.423C5.82591 125.98 5.36786 125.352 5.30351 124.655C5.29594 124.621 5.29594 124.587 5.29594 124.549C5.29594 124.508 5.29594 124.47 5.29594 124.428V110.913C5.29594 106.186 7.17355 102.394 10.4442 100.505C13.7187 98.6168 17.9471 98.8931 22.0506 101.262C29.1825 105.376 34.77 115.046 34.77 123.278V136.846C34.7851 137.595 34.3081 138.314 33.4602 138.802C32.6993 139.241 31.7226 139.465 30.746 139.465L30.7422 139.461ZM15.2518 106.054C16.2247 106.054 17.3944 106.425 18.6437 107.147C23.6973 110.062 27.9636 117.449 27.9636 123.278V136.846C27.9598 137.145 28.2097 137.459 28.645 137.712C29.7807 138.371 31.6923 138.371 32.828 137.712C33.2671 137.459 33.517 137.148 33.5094 136.857V123.278C33.5094 115.455 28.1983 106.262 21.4185 102.348C17.7162 100.21 13.9421 99.9339 11.0688 101.595C8.19564 103.253 6.54894 106.652 6.54894 110.917V124.455C6.54894 124.455 6.54894 124.477 6.54894 124.489C6.54894 124.5 6.54894 124.508 6.54894 124.519C6.56408 124.803 6.81014 125.102 7.22276 125.34C8.35842 125.999 10.2739 125.999 11.4095 125.344C11.8297 125.102 12.072 124.81 12.0872 124.519C12.0872 124.5 12.0872 124.477 12.0947 124.458V110.917C12.0947 108.688 12.7307 107.041 13.8398 106.398C14.2373 106.167 14.7143 106.057 15.2481 106.057L15.2518 106.054Z" fill="#4DA3C7"/>
<path d="M14.7332 148.665C13.2455 147.802 12.0379 148.502 12.0379 150.221C12.0379 151.193 12.4316 152.321 13.1206 153.32C13.4007 153.729 13.5673 154.206 13.5673 154.611V157.048C13.5673 157.79 14.0935 158.698 14.737 159.069C15.3806 159.44 15.9067 159.137 15.9067 158.399V155.962C15.9067 155.553 16.0695 155.269 16.3534 155.186C17.0424 154.982 17.4399 154.308 17.4399 153.335C17.4399 151.621 16.2285 149.524 14.737 148.665H14.7332Z" fill="#CEE7FD"/>
<g style="mix-blend-mode:overlay" opacity="0.3">
<path d="M15.9067 157.703C15.5055 157.256 15.2291 156.632 15.2216 156.094V153.661C15.2253 153.256 15.0588 152.775 14.7749 152.366C14.0821 151.367 13.6884 150.24 13.6884 149.267C13.6884 148.907 13.7528 148.608 13.8512 148.343C13.7225 148.321 13.6014 148.313 13.484 148.317C13.8588 148.306 14.2828 148.404 14.7332 148.669C16.2247 149.528 17.4361 151.625 17.4361 153.339C17.4361 154.312 17.0386 154.985 16.3496 155.19C16.0657 155.273 15.903 155.557 15.903 155.966V157.707L15.9067 157.703Z" fill="black"/>
</g>
<path d="M15.2594 159.856C14.9869 159.856 14.7029 159.777 14.4228 159.614C13.5786 159.126 12.9389 158.025 12.9389 157.048V154.611C12.9389 154.335 12.8102 153.979 12.602 153.676C11.8449 152.571 11.4095 151.311 11.4095 150.221C11.4095 149.131 11.8032 148.343 12.5149 147.931C13.2266 147.522 14.1275 147.59 15.0474 148.124C16.7396 149.1 18.0645 151.39 18.0645 153.335C18.0645 154.573 17.5042 155.481 16.5616 155.776C16.5503 155.803 16.5351 155.86 16.5351 155.962V158.399C16.5351 158.982 16.2966 159.455 15.8802 159.694C15.6948 159.803 15.4828 159.856 15.2632 159.856H15.2594ZM13.5294 148.926C13.3818 148.926 13.2531 148.957 13.1433 149.021C12.8405 149.195 12.6663 149.634 12.6663 150.221C12.6663 151.068 13.0184 152.067 13.6354 152.968C13.9913 153.483 14.1957 154.081 14.1957 154.615V157.052C14.1957 157.567 14.6045 158.271 15.0512 158.532C15.1648 158.596 15.2329 158.607 15.2556 158.607C15.2556 158.596 15.2783 158.532 15.2783 158.403V155.966C15.2783 155.281 15.6228 154.751 16.1755 154.588C16.7282 154.425 16.8115 153.737 16.8115 153.339C16.8115 151.848 15.7175 149.959 14.4228 149.214C14.0973 149.025 13.7906 148.93 13.5332 148.93L13.5294 148.926Z" fill="#4DA3C7"/>
<defs>
<linearGradient id="paint0_linear_2655_64177" x1="147.862" y1="285.113" x2="134.818" y2="307.718" gradientUnits="userSpaceOnUse">
<stop stop-color="white"/>
<stop offset="1" stop-color="#DAE8FF"/>
</linearGradient>
<linearGradient id="paint1_linear_2655_64177" x1="56.9455" y1="250.4" x2="44.6506" y2="271.703" gradientUnits="userSpaceOnUse">
<stop stop-color="white"/>
<stop offset="1" stop-color="#DAE8FF"/>
</linearGradient>
</defs>
</svg>
