<svg width="21" height="20" viewBox="0 0 21 20" fill="none" xmlns="http://www.w3.org/2000/svg">
<mask id="mask0_656_13250" style="mask-type:alpha" maskUnits="userSpaceOnUse" x="0" y="0" width="21" height="20">
<rect x="0.5" width="20" height="20" fill="#D9D9D9"/>
</mask>
<g mask="url(#mask0_656_13250)">
<path d="M5.50065 11.6667C5.04232 11.6667 4.64996 11.5035 4.32357 11.1771C3.99718 10.8507 3.83398 10.4583 3.83398 10C3.83398 9.54167 3.99718 9.14931 4.32357 8.82292C4.64996 8.49653 5.04232 8.33334 5.50065 8.33334C5.95898 8.33334 6.35135 8.49653 6.67773 8.82292C7.00412 9.14931 7.16732 9.54167 7.16732 10C7.16732 10.4583 7.00412 10.8507 6.67773 11.1771C6.35135 11.5035 5.95898 11.6667 5.50065 11.6667ZM10.5007 11.6667C10.0423 11.6667 9.64996 11.5035 9.32357 11.1771C8.99718 10.8507 8.83398 10.4583 8.83398 10C8.83398 9.54167 8.99718 9.14931 9.32357 8.82292C9.64996 8.49653 10.0423 8.33334 10.5007 8.33334C10.959 8.33334 11.3513 8.49653 11.6777 8.82292C12.0041 9.14931 12.1673 9.54167 12.1673 10C12.1673 10.4583 12.0041 10.8507 11.6777 11.1771C11.3513 11.5035 10.959 11.6667 10.5007 11.6667ZM15.5007 11.6667C15.0423 11.6667 14.65 11.5035 14.3236 11.1771C13.9972 10.8507 13.834 10.4583 13.834 10C13.834 9.54167 13.9972 9.14931 14.3236 8.82292C14.65 8.49653 15.0423 8.33334 15.5007 8.33334C15.959 8.33334 16.3513 8.49653 16.6777 8.82292C17.0041 9.14931 17.1673 9.54167 17.1673 10C17.1673 10.4583 17.0041 10.8507 16.6777 11.1771C16.3513 11.5035 15.959 11.6667 15.5007 11.6667Z" fill="#1C1B1F"/>
</g>
</svg>
