<svg width="62" height="62" viewBox="0 0 62 62" fill="none" xmlns="http://www.w3.org/2000/svg">
<circle cx="31" cy="31" r="31" fill="#D9F0F9"/>
<g clip-path="url(#clip0_2378_39221)">
<path d="M22 21H30V23H22V21ZM22 38H26V36H22V38ZM22 28H31V26H22V28ZM22 33H27V31H22V33ZM31 44V46H18C16.35 46 15 44.65 15 43V21C15 19.35 16.35 18 18 18V17C18 15.9 18.9 15 20 15H33.17C33.7 15 34.21 15.21 34.58 15.59L41.41 22.42C41.78 22.8 42 23.3 42 23.83V27H40V25H35C33.35 25 32 23.65 32 22V17H20V41H28V43H20C18.9 43 18 42.1 18 41V20C17.45 20 17 20.45 17 21V43C17 43.55 17.45 44 18 44H31ZM34 17.83V22C34 22.55 34.45 23 35 23H39.17L34 17.83ZM33 36C33 34.35 34.35 33 36 33C36.55 33 37 32.55 37 32C37 31.45 36.55 31 36 31C33.24 31 31 33.24 31 36C31 36.55 31.45 37 32 37C32.55 37 33 36.55 33 36ZM46.71 45.29C47.1 45.68 47.1 46.31 46.71 46.7C46.51 46.9 46.26 46.99 46 46.99C45.74 46.99 45.49 46.89 45.29 46.7L40.89 42.3C39.53 43.35 37.84 43.99 35.99 43.99C31.58 43.99 27.99 40.4 27.99 35.99C27.99 31.58 31.58 27.99 35.99 27.99C40.4 27.99 43.99 31.58 43.99 35.99C43.99 37.84 43.36 39.53 42.3 40.89L46.7 45.29H46.71ZM42 36C42 32.69 39.31 30 36 30C32.69 30 30 32.69 30 36C30 39.31 32.69 42 36 42C39.31 42 42 39.31 42 36Z" fill="#5EA7C4"/>
</g>
<defs>
<clipPath id="clip0_2378_39221">
<rect width="32" height="32" fill="white" transform="translate(15 15)"/>
</clipPath>
</defs>
</svg>
