<svg width="295" height="221" viewBox="0 0 295 221" fill="none" xmlns="http://www.w3.org/2000/svg">
<path d="M162.194 84.1014C145.082 84.2034 127.704 83.407 111.449 78.894C95.1945 74.3811 80.8186 65.8656 67.7495 55.921C59.1934 49.4478 51.413 44.3018 40.3042 45.0776C29.4425 45.6485 19.0532 49.7008 10.674 56.6354C-3.45685 69.0104 -1.31294 91.881 4.32314 107.972C12.8179 132.212 38.6703 149.038 60.6226 160.004C86.0052 172.685 113.879 180.057 141.835 184.284C166.339 188 197.808 190.716 219.024 174.707C238.526 160.024 243.876 126.453 239.098 103.786C237.934 97.0916 234.37 91.0507 229.071 86.7963C215.369 76.7904 194.949 83.4679 179.552 83.8149C173.936 83.9381 168.034 84.0811 162.194 84.1014Z" fill="#F2F2F2"/>
<path d="M81.7935 24.3304H184.647C187.206 24.3304 189.661 25.7322 191.471 28.2273C193.279 30.7225 194.295 34.1065 194.295 37.6353V206.365C194.295 209.894 193.279 213.279 191.471 215.774C189.66 218.267 187.206 219.67 184.647 219.67H68.6135C66.0544 219.67 63.6004 218.267 61.7909 215.774C59.9814 213.278 58.9648 209.894 58.9648 206.365V56.1287L81.7935 24.3304Z" fill="white"/>
<path fill-rule="evenodd" clip-rule="evenodd" d="M95.8691 23.3944C96.0764 23.142 96.3588 23 96.6534 23H202.861C206.08 23 209.168 24.5419 211.446 27.2865C213.72 30.0309 215 33.7535 215 37.6353V206.365C215 210.246 213.721 213.97 211.446 216.714L211.445 216.716C209.168 219.457 206.08 221 202.861 221H70.1399C66.92 221 63.8325 219.458 61.556 216.715C59.2795 213.97 58 210.246 58 206.365V56.1287C58 55.7782 58.1147 55.4418 58.3193 55.1927L95.8691 23.3944ZM97.1138 25.6609L60.2072 56.6759V206.365C60.2072 209.54 61.2535 212.586 63.1161 214.833C64.9791 217.077 67.5055 218.339 70.1399 218.339H202.861C205.494 218.339 208.021 217.077 209.885 214.833C211.746 212.587 212.793 209.54 212.793 206.365V37.6353C212.793 34.4594 211.746 31.4136 209.885 29.1677C208.021 26.9224 205.494 25.6609 202.861 25.6609H97.1138Z" fill="#BABABA"/>
<path fill-rule="evenodd" clip-rule="evenodd" d="M93.1307 23.0987C93.6567 23.3011 94 23.7806 94 24.3128V50.0427C94 51.8827 93.2212 53.6468 91.8342 54.951L91.8339 54.9512C90.4468 56.2548 88.5649 56.9918 86.5984 57L86.5921 57H59.403C58.8368 57 58.3262 56.6816 58.1082 56.1927C57.8902 55.7038 58.0077 55.1402 58.406 54.7637L91.6001 23.3892C92.0002 23.011 92.6047 22.8963 93.1307 23.0987ZM62.766 54.3745H86.5885C87.8114 54.3688 88.982 53.9103 89.8453 53.099C90.7095 52.2865 91.1941 51.1881 91.1941 50.0427V27.5047L62.766 54.3745Z" fill="#BABABA"/>
<path d="M250.848 113H139.843C135.523 113 132.021 116.502 132.021 120.821V144.57C132.021 148.89 135.523 152.391 139.843 152.391H250.848C255.167 152.391 258.669 148.89 258.669 144.57V120.821C258.67 116.502 255.167 113 250.848 113Z" fill="white"/>
<rect x="141" y="124" width="10" height="17" rx="5" fill="#62A3C6"/>
<path d="M168.104 139.6L164.248 133.536H166.088L169.976 139.6H168.104ZM165.224 138.192C164.147 138.192 163.197 137.952 162.376 137.472C161.555 136.981 160.909 136.304 160.44 135.44C159.981 134.565 159.752 133.552 159.752 132.4C159.752 131.259 159.981 130.256 160.44 129.392C160.909 128.517 161.555 127.835 162.376 127.344C163.197 126.853 164.147 126.608 165.224 126.608C166.323 126.608 167.283 126.853 168.104 127.344C168.936 127.835 169.576 128.517 170.024 129.392C170.483 130.256 170.712 131.259 170.712 132.4C170.712 133.552 170.483 134.565 170.024 135.44C169.576 136.304 168.936 136.981 168.104 137.472C167.283 137.952 166.323 138.192 165.224 138.192ZM165.24 136.768C166.008 136.768 166.68 136.592 167.256 136.24C167.843 135.888 168.291 135.387 168.6 134.736C168.92 134.085 169.08 133.307 169.08 132.4C169.08 131.493 168.92 130.715 168.6 130.064C168.291 129.413 167.843 128.917 167.256 128.576C166.68 128.224 166.008 128.048 165.24 128.048C164.472 128.048 163.795 128.224 163.208 128.576C162.632 128.917 162.184 129.413 161.864 130.064C161.544 130.715 161.384 131.493 161.384 132.4C161.384 133.307 161.544 134.085 161.864 134.736C162.184 135.387 162.632 135.888 163.208 136.24C163.795 136.592 164.472 136.768 165.24 136.768ZM175.501 138.192C174.871 138.192 174.327 138.064 173.869 137.808C173.41 137.552 173.053 137.168 172.797 136.656C172.551 136.133 172.429 135.483 172.429 134.704V129.968H174.029V134.544C174.029 135.301 174.189 135.872 174.509 136.256C174.839 136.64 175.314 136.832 175.933 136.832C176.359 136.832 176.738 136.731 177.069 136.528C177.41 136.325 177.677 136.032 177.869 135.648C178.061 135.264 178.157 134.795 178.157 134.24V129.968H179.757V138H178.333L178.221 136.624C177.975 137.104 177.613 137.488 177.133 137.776C176.663 138.053 176.119 138.192 175.501 138.192ZM185.596 138.192C184.817 138.192 184.129 138.021 183.532 137.68C182.934 137.328 182.465 136.837 182.124 136.208C181.793 135.579 181.628 134.843 181.628 134C181.628 133.157 181.793 132.421 182.124 131.792C182.465 131.163 182.934 130.672 183.532 130.32C184.129 129.957 184.822 129.776 185.612 129.776C186.401 129.776 187.078 129.952 187.644 130.304C188.209 130.645 188.646 131.109 188.956 131.696C189.265 132.272 189.42 132.912 189.42 133.616C189.42 133.723 189.42 133.84 189.42 133.968C189.42 134.085 189.409 134.213 189.388 134.352H182.796V133.232H187.82C187.788 132.571 187.564 132.053 187.148 131.68C186.732 131.296 186.214 131.104 185.596 131.104C185.169 131.104 184.769 131.2 184.396 131.392C184.033 131.584 183.74 131.872 183.516 132.256C183.302 132.629 183.196 133.104 183.196 133.68V134.128C183.196 134.725 183.302 135.227 183.516 135.632C183.74 136.037 184.033 136.347 184.396 136.56C184.758 136.763 185.153 136.864 185.58 136.864C186.092 136.864 186.513 136.752 186.844 136.528C187.185 136.293 187.436 135.984 187.596 135.6H189.196C189.046 136.101 188.806 136.549 188.476 136.944C188.156 137.328 187.75 137.632 187.26 137.856C186.78 138.08 186.225 138.192 185.596 138.192ZM194.141 138.192C193.512 138.192 192.968 138.064 192.509 137.808C192.051 137.552 191.693 137.168 191.437 136.656C191.192 136.133 191.069 135.483 191.069 134.704V129.968H192.669V134.544C192.669 135.301 192.829 135.872 193.149 136.256C193.48 136.64 193.955 136.832 194.573 136.832C195 136.832 195.379 136.731 195.709 136.528C196.051 136.325 196.317 136.032 196.509 135.648C196.701 135.264 196.797 134.795 196.797 134.24V129.968H198.397V138H196.973L196.861 136.624C196.616 137.104 196.253 137.488 195.773 137.776C195.304 138.053 194.76 138.192 194.141 138.192ZM204.236 138.192C203.458 138.192 202.77 138.021 202.172 137.68C201.575 137.328 201.106 136.837 200.764 136.208C200.434 135.579 200.268 134.843 200.268 134C200.268 133.157 200.434 132.421 200.764 131.792C201.106 131.163 201.575 130.672 202.172 130.32C202.77 129.957 203.463 129.776 204.252 129.776C205.042 129.776 205.719 129.952 206.284 130.304C206.85 130.645 207.287 131.109 207.596 131.696C207.906 132.272 208.06 132.912 208.06 133.616C208.06 133.723 208.06 133.84 208.06 133.968C208.06 134.085 208.05 134.213 208.028 134.352H201.436V133.232H206.46C206.428 132.571 206.204 132.053 205.788 131.68C205.372 131.296 204.855 131.104 204.236 131.104C203.81 131.104 203.41 131.2 203.036 131.392C202.674 131.584 202.38 131.872 202.156 132.256C201.943 132.629 201.836 133.104 201.836 133.68V134.128C201.836 134.725 201.943 135.227 202.156 135.632C202.38 136.037 202.674 136.347 203.036 136.56C203.399 136.763 203.794 136.864 204.22 136.864C204.732 136.864 205.154 136.752 205.484 136.528C205.826 136.293 206.076 135.984 206.236 135.6H207.836C207.687 136.101 207.447 136.549 207.116 136.944C206.796 137.328 206.391 137.632 205.9 137.856C205.42 138.08 204.866 138.192 204.236 138.192Z" fill="#A6A6A6"/>
<path fill-rule="evenodd" clip-rule="evenodd" d="M131 120.842C131 115.959 134.959 112 139.842 112H250.848C255.731 112 259.69 115.959 259.69 120.842V144.591C259.69 149.475 255.73 153.433 250.848 153.433H139.842C134.959 153.433 131 149.475 131 144.591V120.842ZM139.842 114.042C136.087 114.042 133.042 117.087 133.042 120.842V144.591C133.042 148.347 136.087 151.391 139.842 151.391H250.848C254.603 151.391 257.648 148.347 257.648 144.591V120.842C257.648 117.087 254.603 114.042 250.848 114.042H139.842Z" fill="#BABABA"/>
<path d="M250.848 170H139.843C135.523 170 132.021 173.502 132.021 177.821V201.57C132.021 205.89 135.523 209.391 139.843 209.391H250.848C255.167 209.391 258.669 205.89 258.669 201.57V177.821C258.67 173.502 255.167 170 250.848 170Z" fill="white"/>
<rect x="141" y="181" width="10" height="17" rx="5" fill="#62A3C6"/>
<path d="M168.104 196.6L164.248 190.536H166.088L169.976 196.6H168.104ZM165.224 195.192C164.147 195.192 163.197 194.952 162.376 194.472C161.555 193.981 160.909 193.304 160.44 192.44C159.981 191.565 159.752 190.552 159.752 189.4C159.752 188.259 159.981 187.256 160.44 186.392C160.909 185.517 161.555 184.835 162.376 184.344C163.197 183.853 164.147 183.608 165.224 183.608C166.323 183.608 167.283 183.853 168.104 184.344C168.936 184.835 169.576 185.517 170.024 186.392C170.483 187.256 170.712 188.259 170.712 189.4C170.712 190.552 170.483 191.565 170.024 192.44C169.576 193.304 168.936 193.981 168.104 194.472C167.283 194.952 166.323 195.192 165.224 195.192ZM165.24 193.768C166.008 193.768 166.68 193.592 167.256 193.24C167.843 192.888 168.291 192.387 168.6 191.736C168.92 191.085 169.08 190.307 169.08 189.4C169.08 188.493 168.92 187.715 168.6 187.064C168.291 186.413 167.843 185.917 167.256 185.576C166.68 185.224 166.008 185.048 165.24 185.048C164.472 185.048 163.795 185.224 163.208 185.576C162.632 185.917 162.184 186.413 161.864 187.064C161.544 187.715 161.384 188.493 161.384 189.4C161.384 190.307 161.544 191.085 161.864 191.736C162.184 192.387 162.632 192.888 163.208 193.24C163.795 193.592 164.472 193.768 165.24 193.768ZM175.501 195.192C174.871 195.192 174.327 195.064 173.869 194.808C173.41 194.552 173.053 194.168 172.797 193.656C172.551 193.133 172.429 192.483 172.429 191.704V186.968H174.029V191.544C174.029 192.301 174.189 192.872 174.509 193.256C174.839 193.64 175.314 193.832 175.933 193.832C176.359 193.832 176.738 193.731 177.069 193.528C177.41 193.325 177.677 193.032 177.869 192.648C178.061 192.264 178.157 191.795 178.157 191.24V186.968H179.757V195H178.333L178.221 193.624C177.975 194.104 177.613 194.488 177.133 194.776C176.663 195.053 176.119 195.192 175.501 195.192ZM185.596 195.192C184.817 195.192 184.129 195.021 183.532 194.68C182.934 194.328 182.465 193.837 182.124 193.208C181.793 192.579 181.628 191.843 181.628 191C181.628 190.157 181.793 189.421 182.124 188.792C182.465 188.163 182.934 187.672 183.532 187.32C184.129 186.957 184.822 186.776 185.612 186.776C186.401 186.776 187.078 186.952 187.644 187.304C188.209 187.645 188.646 188.109 188.956 188.696C189.265 189.272 189.42 189.912 189.42 190.616C189.42 190.723 189.42 190.84 189.42 190.968C189.42 191.085 189.409 191.213 189.388 191.352H182.796V190.232H187.82C187.788 189.571 187.564 189.053 187.148 188.68C186.732 188.296 186.214 188.104 185.596 188.104C185.169 188.104 184.769 188.2 184.396 188.392C184.033 188.584 183.74 188.872 183.516 189.256C183.302 189.629 183.196 190.104 183.196 190.68V191.128C183.196 191.725 183.302 192.227 183.516 192.632C183.74 193.037 184.033 193.347 184.396 193.56C184.758 193.763 185.153 193.864 185.58 193.864C186.092 193.864 186.513 193.752 186.844 193.528C187.185 193.293 187.436 192.984 187.596 192.6H189.196C189.046 193.101 188.806 193.549 188.476 193.944C188.156 194.328 187.75 194.632 187.26 194.856C186.78 195.08 186.225 195.192 185.596 195.192ZM194.141 195.192C193.512 195.192 192.968 195.064 192.509 194.808C192.051 194.552 191.693 194.168 191.437 193.656C191.192 193.133 191.069 192.483 191.069 191.704V186.968H192.669V191.544C192.669 192.301 192.829 192.872 193.149 193.256C193.48 193.64 193.955 193.832 194.573 193.832C195 193.832 195.379 193.731 195.709 193.528C196.051 193.325 196.317 193.032 196.509 192.648C196.701 192.264 196.797 191.795 196.797 191.24V186.968H198.397V195H196.973L196.861 193.624C196.616 194.104 196.253 194.488 195.773 194.776C195.304 195.053 194.76 195.192 194.141 195.192ZM204.236 195.192C203.458 195.192 202.77 195.021 202.172 194.68C201.575 194.328 201.106 193.837 200.764 193.208C200.434 192.579 200.268 191.843 200.268 191C200.268 190.157 200.434 189.421 200.764 188.792C201.106 188.163 201.575 187.672 202.172 187.32C202.77 186.957 203.463 186.776 204.252 186.776C205.042 186.776 205.719 186.952 206.284 187.304C206.85 187.645 207.287 188.109 207.596 188.696C207.906 189.272 208.06 189.912 208.06 190.616C208.06 190.723 208.06 190.84 208.06 190.968C208.06 191.085 208.05 191.213 208.028 191.352H201.436V190.232H206.46C206.428 189.571 206.204 189.053 205.788 188.68C205.372 188.296 204.855 188.104 204.236 188.104C203.81 188.104 203.41 188.2 203.036 188.392C202.674 188.584 202.38 188.872 202.156 189.256C201.943 189.629 201.836 190.104 201.836 190.68V191.128C201.836 191.725 201.943 192.227 202.156 192.632C202.38 193.037 202.674 193.347 203.036 193.56C203.399 193.763 203.794 193.864 204.22 193.864C204.732 193.864 205.154 193.752 205.484 193.528C205.826 193.293 206.076 192.984 206.236 192.6H207.836C207.687 193.101 207.447 193.549 207.116 193.944C206.796 194.328 206.391 194.632 205.9 194.856C205.42 195.08 204.866 195.192 204.236 195.192Z" fill="#A6A6A6"/>
<path fill-rule="evenodd" clip-rule="evenodd" d="M131 177.842C131 172.959 134.959 169 139.842 169H250.848C255.731 169 259.69 172.959 259.69 177.842V201.591C259.69 206.475 255.73 210.433 250.848 210.433H139.842C134.959 210.433 131 206.475 131 201.591V177.842ZM139.842 171.042C136.087 171.042 133.042 174.087 133.042 177.842V201.591C133.042 205.347 136.087 208.391 139.842 208.391H250.848C254.603 208.391 257.648 205.347 257.648 201.591V177.842C257.648 174.087 254.603 171.042 250.848 171.042H139.842Z" fill="#BABABA"/>
<path d="M250.827 57H139.821C135.502 57 132 60.5017 132 64.821V88.5702C132 92.8899 135.502 96.3912 139.821 96.3912H250.827C255.146 96.3912 258.648 92.8899 258.648 88.5702V64.821C258.648 60.5017 255.146 57 250.827 57Z" fill="white"/>
<path fill-rule="evenodd" clip-rule="evenodd" d="M131 64.842C131 59.9588 134.959 56 139.842 56H250.848C255.731 56 259.69 59.9588 259.69 64.8421V88.5912C259.69 93.4748 255.73 97.4332 250.848 97.4332H139.842C134.959 97.4332 131 93.4748 131 88.5912V64.842ZM139.842 58.042C136.087 58.042 133.042 61.0866 133.042 64.842V88.5912C133.042 92.3469 136.087 95.3912 139.842 95.3912H250.848C254.603 95.3912 257.648 92.3469 257.648 88.5912V64.8419C257.648 61.0867 254.603 58.042 250.848 58.042H139.842Z" fill="#BABABA"/>
<rect x="141" y="68" width="10" height="17" rx="5" fill="#62A3C6"/>
<path d="M168.104 83.6L164.248 77.536H166.088L169.976 83.6H168.104ZM165.224 82.192C164.147 82.192 163.197 81.952 162.376 81.472C161.555 80.9813 160.909 80.304 160.44 79.44C159.981 78.5653 159.752 77.552 159.752 76.4C159.752 75.2587 159.981 74.256 160.44 73.392C160.909 72.5173 161.555 71.8347 162.376 71.344C163.197 70.8533 164.147 70.608 165.224 70.608C166.323 70.608 167.283 70.8533 168.104 71.344C168.936 71.8347 169.576 72.5173 170.024 73.392C170.483 74.256 170.712 75.2587 170.712 76.4C170.712 77.552 170.483 78.5653 170.024 79.44C169.576 80.304 168.936 80.9813 168.104 81.472C167.283 81.952 166.323 82.192 165.224 82.192ZM165.24 80.768C166.008 80.768 166.68 80.592 167.256 80.24C167.843 79.888 168.291 79.3867 168.6 78.736C168.92 78.0853 169.08 77.3067 169.08 76.4C169.08 75.4933 168.92 74.7147 168.6 74.064C168.291 73.4133 167.843 72.9173 167.256 72.576C166.68 72.224 166.008 72.048 165.24 72.048C164.472 72.048 163.795 72.224 163.208 72.576C162.632 72.9173 162.184 73.4133 161.864 74.064C161.544 74.7147 161.384 75.4933 161.384 76.4C161.384 77.3067 161.544 78.0853 161.864 78.736C162.184 79.3867 162.632 79.888 163.208 80.24C163.795 80.592 164.472 80.768 165.24 80.768ZM175.501 82.192C174.871 82.192 174.327 82.064 173.869 81.808C173.41 81.552 173.053 81.168 172.797 80.656C172.551 80.1333 172.429 79.4827 172.429 78.704V73.968H174.029V78.544C174.029 79.3013 174.189 79.872 174.509 80.256C174.839 80.64 175.314 80.832 175.933 80.832C176.359 80.832 176.738 80.7307 177.069 80.528C177.41 80.3253 177.677 80.032 177.869 79.648C178.061 79.264 178.157 78.7947 178.157 78.24V73.968H179.757V82H178.333L178.221 80.624C177.975 81.104 177.613 81.488 177.133 81.776C176.663 82.0533 176.119 82.192 175.501 82.192ZM185.596 82.192C184.817 82.192 184.129 82.0213 183.532 81.68C182.934 81.328 182.465 80.8373 182.124 80.208C181.793 79.5787 181.628 78.8427 181.628 78C181.628 77.1573 181.793 76.4213 182.124 75.792C182.465 75.1627 182.934 74.672 183.532 74.32C184.129 73.9573 184.822 73.776 185.612 73.776C186.401 73.776 187.078 73.952 187.644 74.304C188.209 74.6453 188.646 75.1093 188.956 75.696C189.265 76.272 189.42 76.912 189.42 77.616C189.42 77.7227 189.42 77.84 189.42 77.968C189.42 78.0853 189.409 78.2133 189.388 78.352H182.796V77.232H187.82C187.788 76.5707 187.564 76.0533 187.148 75.68C186.732 75.296 186.214 75.104 185.596 75.104C185.169 75.104 184.769 75.2 184.396 75.392C184.033 75.584 183.74 75.872 183.516 76.256C183.302 76.6293 183.196 77.104 183.196 77.68V78.128C183.196 78.7253 183.302 79.2267 183.516 79.632C183.74 80.0373 184.033 80.3467 184.396 80.56C184.758 80.7627 185.153 80.864 185.58 80.864C186.092 80.864 186.513 80.752 186.844 80.528C187.185 80.2933 187.436 79.984 187.596 79.6H189.196C189.046 80.1013 188.806 80.5493 188.476 80.944C188.156 81.328 187.75 81.632 187.26 81.856C186.78 82.08 186.225 82.192 185.596 82.192ZM194.141 82.192C193.512 82.192 192.968 82.064 192.509 81.808C192.051 81.552 191.693 81.168 191.437 80.656C191.192 80.1333 191.069 79.4827 191.069 78.704V73.968H192.669V78.544C192.669 79.3013 192.829 79.872 193.149 80.256C193.48 80.64 193.955 80.832 194.573 80.832C195 80.832 195.379 80.7307 195.709 80.528C196.051 80.3253 196.317 80.032 196.509 79.648C196.701 79.264 196.797 78.7947 196.797 78.24V73.968H198.397V82H196.973L196.861 80.624C196.616 81.104 196.253 81.488 195.773 81.776C195.304 82.0533 194.76 82.192 194.141 82.192ZM204.236 82.192C203.458 82.192 202.77 82.0213 202.172 81.68C201.575 81.328 201.106 80.8373 200.764 80.208C200.434 79.5787 200.268 78.8427 200.268 78C200.268 77.1573 200.434 76.4213 200.764 75.792C201.106 75.1627 201.575 74.672 202.172 74.32C202.77 73.9573 203.463 73.776 204.252 73.776C205.042 73.776 205.719 73.952 206.284 74.304C206.85 74.6453 207.287 75.1093 207.596 75.696C207.906 76.272 208.06 76.912 208.06 77.616C208.06 77.7227 208.06 77.84 208.06 77.968C208.06 78.0853 208.05 78.2133 208.028 78.352H201.436V77.232H206.46C206.428 76.5707 206.204 76.0533 205.788 75.68C205.372 75.296 204.855 75.104 204.236 75.104C203.81 75.104 203.41 75.2 203.036 75.392C202.674 75.584 202.38 75.872 202.156 76.256C201.943 76.6293 201.836 77.104 201.836 77.68V78.128C201.836 78.7253 201.943 79.2267 202.156 79.632C202.38 80.0373 202.674 80.3467 203.036 80.56C203.399 80.7627 203.794 80.864 204.22 80.864C204.732 80.864 205.154 80.752 205.484 80.528C205.826 80.2933 206.076 79.984 206.236 79.6H207.836C207.687 80.1013 207.447 80.5493 207.116 80.944C206.796 81.328 206.391 81.632 205.9 81.856C205.42 82.08 204.866 82.192 204.236 82.192Z" fill="#A6A6A6"/>
<path fill-rule="evenodd" clip-rule="evenodd" d="M23.2585 0C23.7378 0 24.1264 0.388555 24.1264 0.867863V9.64869C24.1264 10.128 23.7378 10.5166 23.2585 10.5166C22.7792 10.5166 22.3906 10.128 22.3906 9.64869V0.867863C22.3906 0.388555 22.7792 0 23.2585 0Z" fill="#36719B"/>
<path fill-rule="evenodd" clip-rule="evenodd" d="M18 5.25806C18 4.77875 18.3886 4.3902 18.8679 4.3902H27.6487C28.128 4.3902 28.5166 4.77875 28.5166 5.25806C28.5166 5.73737 28.128 6.12592 27.6487 6.12592H18.8679C18.3886 6.12592 18 5.73737 18 5.25806Z" fill="#36719B"/>
<path fill-rule="evenodd" clip-rule="evenodd" d="M289.258 209C289.738 209 290.126 209.389 290.126 209.868V218.649C290.126 219.128 289.738 219.517 289.258 219.517C288.779 219.517 288.391 219.128 288.391 218.649V209.868C288.391 209.389 288.779 209 289.258 209Z" fill="#37729C"/>
<path fill-rule="evenodd" clip-rule="evenodd" d="M284 214.258C284 213.779 284.389 213.39 284.868 213.39H293.649C294.128 213.39 294.517 213.779 294.517 214.258C294.517 214.737 294.128 215.126 293.649 215.126H284.868C284.389 215.126 284 214.737 284 214.258Z" fill="#37729C"/>
<path fill-rule="evenodd" clip-rule="evenodd" d="M284.258 105C284.738 105 285.126 105.389 285.126 105.868V114.649C285.126 115.128 284.738 115.517 284.258 115.517C283.779 115.517 283.391 115.128 283.391 114.649V105.868C283.391 105.389 283.779 105 284.258 105Z" fill="#37729C"/>
<path fill-rule="evenodd" clip-rule="evenodd" d="M279 110.258C279 109.779 279.389 109.39 279.868 109.39H288.649C289.128 109.39 289.517 109.779 289.517 110.258C289.517 110.737 289.128 111.126 288.649 111.126H279.868C279.389 111.126 279 110.737 279 110.258Z" fill="#37729C"/>
<path fill-rule="evenodd" clip-rule="evenodd" d="M12.2585 165C12.7378 165 13.1264 165.389 13.1264 165.868V174.649C13.1264 175.128 12.7378 175.517 12.2585 175.517C11.7792 175.517 11.3906 175.128 11.3906 174.649V165.868C11.3906 165.389 11.7792 165 12.2585 165Z" fill="#2C6691"/>
<path fill-rule="evenodd" clip-rule="evenodd" d="M7 170.258C7 169.779 7.38856 169.39 7.86786 169.39H16.6487C17.128 169.39 17.5166 169.779 17.5166 170.258C17.5166 170.737 17.128 171.126 16.6487 171.126H7.86786C7.38856 171.126 7 170.737 7 170.258Z" fill="#2C6691"/>
<circle cx="105" cy="77" r="17" fill="url(#paint0_linear_505_9413)"/>
<path d="M98.85 82.1C99.7 81.45 100.65 80.9375 101.7 80.5625C102.75 80.1875 103.85 80 105 80C106.15 80 107.25 80.1875 108.3 80.5625C109.35 80.9375 110.3 81.45 111.15 82.1C111.733 81.4167 112.188 80.6417 112.513 79.775C112.838 78.9083 113 77.9833 113 77C113 74.7833 112.221 72.8958 110.663 71.3375C109.104 69.7792 107.217 69 105 69C102.783 69 100.896 69.7792 99.3375 71.3375C97.7792 72.8958 97 74.7833 97 77C97 77.9833 97.1625 78.9083 97.4875 79.775C97.8125 80.6417 98.2667 81.4167 98.85 82.1ZM105 78C104.017 78 103.188 77.6625 102.513 76.9875C101.838 76.3125 101.5 75.4833 101.5 74.5C101.5 73.5167 101.838 72.6875 102.513 72.0125C103.188 71.3375 104.017 71 105 71C105.983 71 106.812 71.3375 107.488 72.0125C108.163 72.6875 108.5 73.5167 108.5 74.5C108.5 75.4833 108.163 76.3125 107.488 76.9875C106.812 77.6625 105.983 78 105 78ZM105 87C103.617 87 102.317 86.7375 101.1 86.2125C99.8833 85.6875 98.825 84.975 97.925 84.075C97.025 83.175 96.3125 82.1167 95.7875 80.9C95.2625 79.6833 95 78.3833 95 77C95 75.6167 95.2625 74.3167 95.7875 73.1C96.3125 71.8833 97.025 70.825 97.925 69.925C98.825 69.025 99.8833 68.3125 101.1 67.7875C102.317 67.2625 103.617 67 105 67C106.383 67 107.683 67.2625 108.9 67.7875C110.117 68.3125 111.175 69.025 112.075 69.925C112.975 70.825 113.688 71.8833 114.212 73.1C114.737 74.3167 115 75.6167 115 77C115 78.3833 114.737 79.6833 114.212 80.9C113.688 82.1167 112.975 83.175 112.075 84.075C111.175 84.975 110.117 85.6875 108.9 86.2125C107.683 86.7375 106.383 87 105 87ZM105 85C105.883 85 106.717 84.8708 107.5 84.6125C108.283 84.3542 109 83.9833 109.65 83.5C109 83.0167 108.283 82.6458 107.5 82.3875C106.717 82.1292 105.883 82 105 82C104.117 82 103.283 82.1292 102.5 82.3875C101.717 82.6458 101 83.0167 100.35 83.5C101 83.9833 101.717 84.3542 102.5 84.6125C103.283 84.8708 104.117 85 105 85ZM105 76C105.433 76 105.792 75.8583 106.075 75.575C106.358 75.2917 106.5 74.9333 106.5 74.5C106.5 74.0667 106.358 73.7083 106.075 73.425C105.792 73.1417 105.433 73 105 73C104.567 73 104.208 73.1417 103.925 73.425C103.642 73.7083 103.5 74.0667 103.5 74.5C103.5 74.9333 103.642 75.2917 103.925 75.575C104.208 75.8583 104.567 76 105 76Z" fill="white"/>
<circle cx="105" cy="133" r="17" fill="url(#paint1_linear_505_9413)"/>
<path d="M98.85 138.1C99.7 137.45 100.65 136.938 101.7 136.562C102.75 136.188 103.85 136 105 136C106.15 136 107.25 136.188 108.3 136.562C109.35 136.938 110.3 137.45 111.15 138.1C111.733 137.417 112.188 136.642 112.513 135.775C112.838 134.908 113 133.983 113 133C113 130.783 112.221 128.896 110.663 127.338C109.104 125.779 107.217 125 105 125C102.783 125 100.896 125.779 99.3375 127.338C97.7792 128.896 97 130.783 97 133C97 133.983 97.1625 134.908 97.4875 135.775C97.8125 136.642 98.2667 137.417 98.85 138.1ZM105 134C104.017 134 103.188 133.663 102.513 132.988C101.838 132.312 101.5 131.483 101.5 130.5C101.5 129.517 101.838 128.688 102.513 128.013C103.188 127.338 104.017 127 105 127C105.983 127 106.812 127.338 107.488 128.013C108.163 128.688 108.5 129.517 108.5 130.5C108.5 131.483 108.163 132.312 107.488 132.988C106.812 133.663 105.983 134 105 134ZM105 143C103.617 143 102.317 142.737 101.1 142.212C99.8833 141.688 98.825 140.975 97.925 140.075C97.025 139.175 96.3125 138.117 95.7875 136.9C95.2625 135.683 95 134.383 95 133C95 131.617 95.2625 130.317 95.7875 129.1C96.3125 127.883 97.025 126.825 97.925 125.925C98.825 125.025 99.8833 124.312 101.1 123.788C102.317 123.262 103.617 123 105 123C106.383 123 107.683 123.262 108.9 123.788C110.117 124.312 111.175 125.025 112.075 125.925C112.975 126.825 113.688 127.883 114.212 129.1C114.737 130.317 115 131.617 115 133C115 134.383 114.737 135.683 114.212 136.9C113.688 138.117 112.975 139.175 112.075 140.075C111.175 140.975 110.117 141.688 108.9 142.212C107.683 142.737 106.383 143 105 143ZM105 141C105.883 141 106.717 140.871 107.5 140.613C108.283 140.354 109 139.983 109.65 139.5C109 139.017 108.283 138.646 107.5 138.387C106.717 138.129 105.883 138 105 138C104.117 138 103.283 138.129 102.5 138.387C101.717 138.646 101 139.017 100.35 139.5C101 139.983 101.717 140.354 102.5 140.613C103.283 140.871 104.117 141 105 141ZM105 132C105.433 132 105.792 131.858 106.075 131.575C106.358 131.292 106.5 130.933 106.5 130.5C106.5 130.067 106.358 129.708 106.075 129.425C105.792 129.142 105.433 129 105 129C104.567 129 104.208 129.142 103.925 129.425C103.642 129.708 103.5 130.067 103.5 130.5C103.5 130.933 103.642 131.292 103.925 131.575C104.208 131.858 104.567 132 105 132Z" fill="white"/>
<circle cx="105" cy="190" r="17" fill="url(#paint2_linear_505_9413)"/>
<path d="M98.85 195.1C99.7 194.45 100.65 193.938 101.7 193.562C102.75 193.188 103.85 193 105 193C106.15 193 107.25 193.188 108.3 193.562C109.35 193.938 110.3 194.45 111.15 195.1C111.733 194.417 112.188 193.642 112.513 192.775C112.838 191.908 113 190.983 113 190C113 187.783 112.221 185.896 110.663 184.338C109.104 182.779 107.217 182 105 182C102.783 182 100.896 182.779 99.3375 184.338C97.7792 185.896 97 187.783 97 190C97 190.983 97.1625 191.908 97.4875 192.775C97.8125 193.642 98.2667 194.417 98.85 195.1ZM105 191C104.017 191 103.188 190.663 102.513 189.988C101.838 189.312 101.5 188.483 101.5 187.5C101.5 186.517 101.838 185.688 102.513 185.013C103.188 184.338 104.017 184 105 184C105.983 184 106.812 184.338 107.488 185.013C108.163 185.688 108.5 186.517 108.5 187.5C108.5 188.483 108.163 189.312 107.488 189.988C106.812 190.663 105.983 191 105 191ZM105 200C103.617 200 102.317 199.737 101.1 199.212C99.8833 198.688 98.825 197.975 97.925 197.075C97.025 196.175 96.3125 195.117 95.7875 193.9C95.2625 192.683 95 191.383 95 190C95 188.617 95.2625 187.317 95.7875 186.1C96.3125 184.883 97.025 183.825 97.925 182.925C98.825 182.025 99.8833 181.312 101.1 180.788C102.317 180.262 103.617 180 105 180C106.383 180 107.683 180.262 108.9 180.788C110.117 181.312 111.175 182.025 112.075 182.925C112.975 183.825 113.688 184.883 114.212 186.1C114.737 187.317 115 188.617 115 190C115 191.383 114.737 192.683 114.212 193.9C113.688 195.117 112.975 196.175 112.075 197.075C111.175 197.975 110.117 198.688 108.9 199.212C107.683 199.737 106.383 200 105 200ZM105 198C105.883 198 106.717 197.871 107.5 197.613C108.283 197.354 109 196.983 109.65 196.5C109 196.017 108.283 195.646 107.5 195.387C106.717 195.129 105.883 195 105 195C104.117 195 103.283 195.129 102.5 195.387C101.717 195.646 101 196.017 100.35 196.5C101 196.983 101.717 197.354 102.5 197.613C103.283 197.871 104.117 198 105 198ZM105 189C105.433 189 105.792 188.858 106.075 188.575C106.358 188.292 106.5 187.933 106.5 187.5C106.5 187.067 106.358 186.708 106.075 186.425C105.792 186.142 105.433 186 105 186C104.567 186 104.208 186.142 103.925 186.425C103.642 186.708 103.5 187.067 103.5 187.5C103.5 187.933 103.642 188.292 103.925 188.575C104.208 188.858 104.567 189 105 189Z" fill="white"/>
<defs>
<linearGradient id="paint0_linear_505_9413" x1="-30.0249" y1="71.0919" x2="168" y2="74" gradientUnits="userSpaceOnUse">
<stop stop-color="#003366"/>
<stop offset="1" stop-color="#87CEEB"/>
</linearGradient>
<linearGradient id="paint1_linear_505_9413" x1="-30.0249" y1="127.092" x2="168" y2="130" gradientUnits="userSpaceOnUse">
<stop stop-color="#003366"/>
<stop offset="1" stop-color="#87CEEB"/>
</linearGradient>
<linearGradient id="paint2_linear_505_9413" x1="-30.0249" y1="184.092" x2="168" y2="187" gradientUnits="userSpaceOnUse">
<stop stop-color="#003366"/>
<stop offset="1" stop-color="#87CEEB"/>
</linearGradient>
</defs>
</svg>
