<svg width="278" height="220" viewBox="0 0 278 220" fill="none" xmlns="http://www.w3.org/2000/svg">
<path d="M163.06 80.1196C145.947 80.2216 128.569 79.4251 112.315 74.9122C96.0597 70.3993 81.6838 61.8838 68.6148 51.9392C60.0587 45.466 52.2783 40.32 41.1695 41.0957C30.3077 41.6667 19.9184 45.719 11.5392 52.6536C-2.59161 65.0286 -0.447704 87.8992 5.18837 103.991C13.6831 128.23 39.5355 145.056 61.4878 156.022C86.8705 168.703 114.744 176.075 142.7 180.302C167.205 184.019 198.673 186.735 219.89 170.725C239.391 156.043 244.741 122.471 239.963 99.8044C238.799 93.1098 235.236 87.0689 229.937 82.8145C216.235 72.8086 195.814 79.4861 180.417 79.8331C174.801 79.9562 168.9 80.0993 163.06 80.1196Z" fill="#F2F2F2"/>
<path fill-rule="evenodd" clip-rule="evenodd" d="M79.6218 0C80.1011 0 80.4896 0.388555 80.4896 0.867863V9.64869C80.4896 10.128 80.1011 10.5166 79.6218 10.5166C79.1425 10.5166 78.7539 10.128 78.7539 9.64869V0.867863C78.7539 0.388555 79.1425 0 79.6218 0Z" fill="#CFCFCF"/>
<path fill-rule="evenodd" clip-rule="evenodd" d="M74.3633 5.25806C74.3633 4.77875 74.7518 4.3902 75.2311 4.3902H84.012C84.4913 4.3902 84.8798 4.77875 84.8798 5.25806C84.8798 5.73737 84.4913 6.12592 84.012 6.12592H75.2311C74.7518 6.12592 74.3633 5.73737 74.3633 5.25806Z" fill="#CFCFCF"/>
<path fill-rule="evenodd" clip-rule="evenodd" d="M246.212 175.024C246.691 175.024 247.079 175.413 247.079 175.892V184.673C247.079 185.152 246.691 185.541 246.212 185.541C245.732 185.541 245.344 185.152 245.344 184.673V175.892C245.344 175.413 245.732 175.024 246.212 175.024Z" fill="#CFCFCF"/>
<path fill-rule="evenodd" clip-rule="evenodd" d="M240.953 180.282C240.953 179.803 241.342 179.414 241.821 179.414H250.602C251.081 179.414 251.47 179.803 251.47 180.282C251.47 180.761 251.081 181.15 250.602 181.15H241.821C241.342 181.15 240.953 180.761 240.953 180.282Z" fill="#CFCFCF"/>
<path d="M13.2767 137.971C14.3819 137.971 15.2779 137.075 15.2779 135.97C15.2779 134.864 14.3819 133.968 13.2767 133.968C12.1714 133.968 11.2754 134.864 11.2754 135.97C11.2754 137.075 12.171 137.971 13.2767 137.971Z" fill="#CFCFCF"/>
<path d="M183.663 9.93474C184.768 9.93474 185.665 9.03868 185.665 7.93346C185.665 6.82824 184.768 5.93219 183.663 5.93219C182.559 5.93219 181.662 6.82824 181.662 7.93346C181.662 9.03829 182.559 9.93474 183.663 9.93474Z" fill="#CFCFCF"/>
<path d="M128.203 220C169.593 220 203.146 217.915 203.146 215.344C203.146 212.773 169.593 210.688 128.203 210.688C86.8129 210.688 53.2598 212.773 53.2598 215.344C53.2598 217.915 86.8129 220 128.203 220Z" fill="#F2F2F2"/>
<path d="M189.035 87.8183H76.8047V175.872H189.035V87.8183Z" fill="#D2D2D2"/>
<path d="M46.3164 49.1216H66.104C67.265 49.1164 68.3762 48.6514 69.1954 47.8287C70.0146 47.0056 70.4743 45.8924 70.4743 44.7314V24.7194L46.3164 49.1216Z" fill="white"/>
<path d="M70.4739 24.719H179.315C182.023 24.719 184.62 25.7947 186.535 27.7095C188.449 29.6244 189.525 32.2213 189.525 34.9294V164.416C189.525 167.123 188.449 169.721 186.535 171.636C184.62 173.55 182.023 174.626 179.315 174.626H56.5268C53.8187 174.626 51.2218 173.55 49.307 171.636C47.3922 169.721 46.3164 167.123 46.3164 164.416V49.1216L70.4739 24.719Z" fill="white"/>
<path fill-rule="evenodd" clip-rule="evenodd" d="M69.7479 24.0007C69.9396 23.807 70.2009 23.698 70.4735 23.698H179.314C182.293 23.698 185.15 24.8813 187.257 26.9875L187.257 26.9879C189.362 29.094 190.545 31.9504 190.545 34.9294V164.416C190.545 167.394 189.362 170.251 187.257 172.358L187.257 172.359C185.15 174.463 182.293 175.647 179.314 175.647H56.5263C53.5474 175.647 50.691 174.463 48.5848 172.359L48.5844 172.358C46.4783 170.251 45.2949 167.394 45.2949 164.416V49.1216C45.2949 48.8525 45.4011 48.5944 45.5903 48.4032L69.7479 24.0007ZM70.8994 25.74L47.337 49.5415V164.416C47.337 166.852 48.3049 169.19 50.0282 170.914C51.7517 172.636 54.0891 173.605 56.5263 173.605H179.314C181.751 173.605 184.089 172.636 185.813 170.914C187.535 169.19 188.503 166.852 188.503 164.416V34.9294C188.503 32.4921 187.535 30.1547 185.813 28.4312C184.089 26.7081 181.751 25.74 179.314 25.74H70.8994Z" fill="#BABABA"/>
<path fill-rule="evenodd" clip-rule="evenodd" d="M70.8622 23.7751C71.245 23.9326 71.4949 24.3055 71.4949 24.7194V44.7314C71.4949 46.1625 70.9281 47.5346 69.9187 48.5489L69.9185 48.5491C68.909 49.563 67.5393 50.1362 66.1082 50.1426L66.1036 50.1426H46.316C45.9039 50.1426 45.5323 49.8949 45.3737 49.5147C45.215 49.1344 45.3005 48.696 45.5904 48.4032L69.7483 24.0011C70.0395 23.7069 70.4795 23.6177 70.8622 23.7751ZM48.7635 48.1006H66.101C66.991 48.0961 67.8429 47.7395 68.4712 47.1085C69.1001 46.4765 69.4529 45.6222 69.4529 44.7314V27.202L48.7635 48.1006Z" fill="#BABABA"/>
<path d="M188.483 59.6992H77.4773C73.158 59.6992 69.6562 63.201 69.6562 67.5203V91.2694C69.6562 95.5891 73.158 99.0904 77.4773 99.0904H188.483C192.802 99.0904 196.304 95.5891 196.304 91.2694V67.5203C196.304 63.201 192.802 59.6992 188.483 59.6992Z" fill="white"/>
<rect x="79" y="73" width="53" height="13" rx="6.5" fill="#D9D9D9"/>
<path fill-rule="evenodd" clip-rule="evenodd" d="M68.6348 67.5203C68.6348 62.6371 72.5936 58.6783 77.4768 58.6783H188.482C193.365 58.6783 197.325 62.637 197.324 67.5204V91.2694C197.324 96.1531 193.365 100.111 188.482 100.111H77.4768C72.5937 100.111 68.6348 96.1531 68.6348 91.2694V67.5203ZM77.4768 60.7203C73.7214 60.7203 70.6768 63.7649 70.6768 67.5203V91.2694C70.6768 95.0252 73.7214 98.0694 77.4768 98.0694H188.482C192.237 98.0694 195.282 95.0252 195.282 91.2694V67.5202C195.283 63.765 192.238 60.7203 188.482 60.7203H77.4768Z" fill="#BABABA"/>
<path d="M188.483 103.358H77.4773C73.158 103.358 69.6562 106.86 69.6562 111.179V134.929C69.6562 139.248 73.158 142.75 77.4773 142.75H188.483C192.802 142.75 196.304 139.248 196.304 134.929V111.179C196.304 106.86 192.802 103.358 188.483 103.358Z" fill="white"/>
<path fill-rule="evenodd" clip-rule="evenodd" d="M68.6348 111.179C68.6348 106.296 72.5937 102.337 77.4768 102.337H188.482C193.365 102.337 197.325 106.296 197.324 111.179V134.929C197.324 139.812 193.365 143.771 188.482 143.771H77.4768C72.5936 143.771 68.6348 139.812 68.6348 134.929V111.179ZM77.4768 104.379C73.7214 104.379 70.6768 107.424 70.6768 111.179V134.929C70.6768 138.684 73.7214 141.729 77.4768 141.729H188.482C192.237 141.729 195.282 138.684 195.282 134.929V111.179C195.283 107.424 192.238 104.379 188.482 104.379H77.4768Z" fill="#BABABA"/>
<rect x="86" y="117" width="53" height="13" rx="6.5" fill="#D9D9D9"/>
<path d="M188.483 147.038H77.4773C73.158 147.038 69.6562 150.539 69.6562 154.859V178.608C69.6562 182.927 73.158 186.429 77.4773 186.429H188.483C192.802 186.429 196.304 182.927 196.304 178.608V154.859C196.304 150.539 192.802 147.038 188.483 147.038Z" fill="white"/>
<path fill-rule="evenodd" clip-rule="evenodd" d="M68.6348 154.859C68.6348 149.975 72.5937 146.017 77.4768 146.017H188.482C193.365 146.017 197.325 149.975 197.324 154.859V178.608C197.324 183.491 193.365 187.45 188.482 187.45H77.4768C72.5936 187.45 68.6348 183.491 68.6348 178.608V154.859ZM77.4768 148.059C73.7214 148.059 70.6768 151.103 70.6768 154.859V178.608C70.6768 182.363 73.7214 185.408 77.4768 185.408H188.482C192.237 185.408 195.282 182.363 195.282 178.608V154.859C195.283 151.103 192.238 148.059 188.482 148.059H77.4768Z" fill="#BABABA"/>
<rect x="80" y="160" width="53" height="13" rx="6.5" fill="#D9D9D9"/>
<path d="M198.531 109.443C221.91 109.443 240.862 90.4909 240.862 67.1119C240.862 43.7329 221.91 24.7803 198.531 24.7803C175.151 24.7803 156.199 43.7329 156.199 67.1119C156.199 90.4909 175.151 109.443 198.531 109.443Z" fill="white"/>
<path fill-rule="evenodd" clip-rule="evenodd" d="M155.178 67.1119C155.178 43.169 174.587 23.7594 198.53 23.7594C222.474 23.7594 241.883 43.169 241.883 67.1119C241.883 91.0548 222.474 110.464 198.53 110.464C174.587 110.464 155.178 91.0548 155.178 67.1119ZM198.53 25.8014C175.715 25.8014 157.22 44.2968 157.22 67.1119C157.22 89.927 175.715 108.422 198.53 108.422C221.346 108.422 239.841 89.927 239.841 67.1119C239.841 44.2968 221.346 25.8014 198.53 25.8014Z" fill="#BABABA"/>
<path fill-rule="evenodd" clip-rule="evenodd" d="M227.867 97.1023C228.266 96.7036 228.913 96.7036 229.311 97.1023L240.583 108.374C240.982 108.773 240.982 109.42 240.583 109.818C240.185 110.217 239.538 110.217 239.14 109.818L227.867 98.5462C227.469 98.1475 227.469 97.501 227.867 97.1023Z" fill="#BABABA"/>
<path d="M238.603 103.624L235.105 107.285C233.53 108.931 233.588 111.543 235.236 113.117L265.644 142.185C267.29 143.759 269.901 143.7 271.474 142.053L274.974 138.393C276.549 136.746 276.489 134.135 274.843 132.561L244.435 103.493C242.789 101.918 240.177 101.977 238.603 103.624Z" fill="white"/>
<path fill-rule="evenodd" clip-rule="evenodd" d="M245.138 102.755C245.138 102.755 245.139 102.755 245.138 102.755L275.546 131.823C277.599 133.786 277.674 137.044 275.709 139.098L272.21 142.759C272.21 142.759 272.209 142.759 272.209 142.759C270.247 144.813 266.989 144.887 264.935 142.923L234.528 113.855C234.528 113.855 234.528 113.855 234.528 113.855C232.472 111.891 232.401 108.633 234.364 106.579C234.364 106.579 234.364 106.579 234.364 106.579L237.862 102.919C239.826 100.865 243.085 100.791 245.138 102.755ZM239.339 104.33C239.339 104.33 239.339 104.33 239.339 104.33L235.841 107.99C234.655 109.23 234.699 111.195 235.938 112.379L266.347 141.447C267.585 142.631 269.55 142.587 270.733 141.348L270.733 141.348L274.233 137.687C275.418 136.448 275.374 134.483 274.135 133.299L243.727 104.231C242.489 103.047 240.523 103.091 239.339 104.33Z" fill="#BABABA"/>
</svg>
