<svg width="283" height="209" viewBox="0 0 283 209" fill="none" xmlns="http://www.w3.org/2000/svg">
<g clip-path="url(#clip0_1886_20055)">
<path d="M221.517 18H47.2905C45.7356 18 44.4648 19.2763 44.4648 20.838V38.2146H224.343V20.838C224.343 19.2763 223.072 18 221.517 18Z" fill="#62A3C6"/>
<path d="M53.8657 151.971L41.7344 148.158C46.7542 132.058 44.6311 107.856 44.6153 107.61L57.2754 106.445C57.378 107.539 59.659 133.413 53.8736 151.979L53.8657 151.971Z" fill="url(#paint0_linear_1886_20055)"/>
<path d="M69.1227 173.494L56.4941 172.043C58.1043 157.869 58.1516 148.515 58.2779 120.753C58.3016 116.6 58.3174 112.041 58.349 107L71.0643 107.071C71.0328 112.113 71.017 116.663 70.9933 120.817C70.8591 149.101 70.8197 158.63 69.1227 173.502V173.494Z" fill="url(#paint1_linear_1886_20055)"/>
<path d="M74.2458 183.49C70.2441 164.504 72.0437 109.164 72.1147 106.817L84.8222 107.245C84.8064 107.808 82.999 163.371 86.6849 180.85L74.2458 183.49Z" fill="url(#paint2_linear_1886_20055)"/>
<path d="M98.5706 167.818L85.9026 166.724C87.3233 150.1 85.9026 107.673 85.8789 107.245L98.5864 106.809C98.6495 108.585 100.054 150.433 98.5627 167.818H98.5706Z" fill="url(#paint3_linear_1886_20055)"/>
<path d="M103.656 182.57C98.3437 162.522 99.5907 109.132 99.646 106.873L112.353 107.19C112.338 107.729 111.083 161 115.937 179.289L103.648 182.578L103.656 182.57Z" fill="url(#paint4_linear_1886_20055)"/>
<path d="M114.784 173.66C112.266 155.784 113.371 108.863 113.418 106.873L126.126 107.182C126.118 107.658 125.005 155.039 127.373 171.869L114.784 173.652V173.66Z" fill="url(#paint5_linear_1886_20055)"/>
<path d="M136.576 182.586L124.303 179.257C128.012 165.455 127.641 122.569 127.184 107.214L139.891 106.833C139.962 109.164 141.533 164.147 136.576 182.586Z" fill="url(#paint6_linear_1886_20055)"/>
<path d="M142.171 175.373C139.109 156.173 140.877 108.791 140.956 106.778L153.663 107.269C153.648 107.753 151.864 155.388 154.729 173.351L142.171 175.373Z" fill="url(#paint7_linear_1886_20055)"/>
<path d="M167.43 107.031H154.715V161.539H167.43V107.031Z" fill="url(#paint8_linear_1886_20055)"/>
<path d="M179.001 175.856L166.641 172.875C170.619 156.22 168.511 107.8 168.495 107.317L181.195 106.746C181.29 108.807 183.405 157.457 179.009 175.856H179.001Z" fill="url(#paint9_linear_1886_20055)"/>
<path d="M189.189 184.996C180.428 167.215 182.038 112.937 182.251 106.801L194.959 107.245C194.414 123.013 194.367 166.7 200.586 179.328L189.189 184.988V184.996Z" fill="url(#paint10_linear_1886_20055)"/>
<path d="M199.773 174.001C196.055 154.991 196.008 108.981 196.008 107.031H208.723C208.723 107.499 208.763 153.739 212.243 171.536L199.765 174.001H199.773Z" fill="url(#paint11_linear_1886_20055)"/>
<path d="M214.02 154.627C209.829 139.589 209.781 108.355 209.781 107.031H222.497C222.497 107.341 222.544 137.837 226.262 151.186L214.02 154.627Z" fill="url(#paint12_linear_1886_20055)"/>
<path d="M113.837 32.3088C112.282 32.3088 110.546 31.1198 109.977 29.6691L107.57 23.5333C107.002 22.0826 105.265 20.8936 103.71 20.8936H59.2816C57.7267 20.8936 55.9903 22.0826 55.422 23.5333L53.0147 29.6691C52.4464 31.1198 50.71 32.3088 49.1551 32.3088H47.3003C45.7454 32.3088 44.4746 33.5851 44.4746 35.1468V115.078C44.4746 116.639 45.7454 117.916 47.3003 117.916H221.527C223.082 117.916 224.353 116.639 224.353 115.078V35.1468C224.353 33.5851 223.082 32.3088 221.527 32.3088H113.837Z" fill="#F2F2F2"/>
<path d="M101.848 27.4328C101.742 27.5395 101.566 27.5395 101.455 27.4328C101.348 27.3261 101.348 27.15 101.455 27.038L103.696 24.7866C103.803 24.6799 103.978 24.6799 104.089 24.7866C104.196 24.8933 104.196 25.0693 104.089 25.1814L101.848 27.4328Z" fill="#5E5E5E"/>
<path d="M101.455 25.1814C101.348 25.0747 101.348 24.8986 101.455 24.7866C101.561 24.6799 101.736 24.6799 101.848 24.7866L104.089 27.038C104.196 27.1447 104.196 27.3208 104.089 27.4328C103.983 27.5395 103.808 27.5395 103.696 27.4328L101.455 25.1814Z" fill="#5E5E5E"/>
<path d="M215.726 28.0755C215.568 28.234 215.308 28.234 215.142 28.0755C214.984 27.917 214.984 27.6554 215.142 27.4889L218.473 24.1436C218.63 23.985 218.891 23.985 219.057 24.1436C219.215 24.3021 219.215 24.5637 219.057 24.7302L215.726 28.0755Z" fill="white"/>
<path d="M215.142 24.7302C214.984 24.5716 214.984 24.31 215.142 24.1436C215.3 23.985 215.56 23.985 215.726 24.1436L219.057 27.4889C219.222 27.6474 219.215 27.909 219.057 28.0755C218.899 28.234 218.638 28.234 218.473 28.0755L215.142 24.7302Z" fill="white"/>
<path d="M211.692 24.3735H208.227V27.8536H211.692V24.3735Z" stroke="white" stroke-linecap="round" stroke-linejoin="round"/>
<path d="M204.557 27.8535H201.092" stroke="white" stroke-linecap="round" stroke-linejoin="round"/>
<path d="M102.629 66.1424C101.801 65.31 101.801 63.9624 102.629 63.13C103.458 62.2976 104.8 62.2976 105.629 63.13L116.971 74.5136C117.799 75.346 117.799 76.6936 116.971 77.5339C116.142 78.3663 114.8 78.3663 113.971 77.5339L102.637 66.1503L102.629 66.1424Z" fill="#62A3C6"/>
<path d="M116.97 66.1424C117.798 65.31 117.798 63.9624 116.97 63.13C116.133 62.2976 114.799 62.2976 113.963 63.13L102.628 74.5136C101.8 75.346 101.808 76.6936 102.628 77.5339C103.457 78.3663 104.799 78.3663 105.628 77.5339L116.97 66.1503V66.1424Z" fill="#62A3C6"/>
<path d="M151.84 66.1424C151.012 65.31 151.012 63.9624 151.84 63.13C152.677 62.2976 154.011 62.2976 154.847 63.13L166.182 74.5136C167.01 75.346 167.002 76.6936 166.182 77.5339C165.353 78.3663 164.011 78.3663 163.182 77.5339L151.84 66.1503V66.1424Z" fill="#6DB8E0"/>
<path d="M166.174 66.1424C167.003 65.31 167.003 63.9624 166.174 63.13C165.345 62.2976 164.003 62.2976 163.175 63.13L151.832 74.5136C151.004 75.346 151.004 76.6936 151.832 77.5339C152.661 78.3663 154.003 78.3663 154.832 77.5339L166.166 66.1503L166.174 66.1424Z" fill="#6DB8E0"/>
<path d="M142.417 88.6876C143.593 88.6876 144.54 87.7363 144.54 86.5552C144.54 85.374 143.593 84.4227 142.425 84.4227H126.395C125.219 84.4227 124.271 85.3819 124.271 86.5631C124.271 87.7363 125.219 88.6876 126.395 88.6955H142.425L142.417 88.6876Z" fill="#62A3C6"/>
<path d="M57.8452 45.0624C57.6991 44.9308 57.4737 44.9371 57.3458 45.0875L57.0048 45.4698C56.8708 43.853 55.5491 42.5746 53.9412 42.5746C52.2419 42.5746 50.8594 43.9971 50.8594 45.7455C50.8594 47.4939 52.2419 48.9164 53.9412 48.9164C54.1361 48.9164 54.2945 48.7535 54.2945 48.5529C54.2945 48.3524 54.1361 48.1895 53.9412 48.1895C52.6317 48.1895 51.572 47.0928 51.572 45.7518C51.572 44.4107 52.6378 43.314 53.9412 43.314C55.1654 43.314 56.1703 44.2791 56.2861 45.5136L55.9145 45.169C55.7684 45.0311 55.543 45.0436 55.4151 45.194C55.2811 45.3444 55.2933 45.57 55.4395 45.7079L56.4505 46.6542C56.5175 46.7168 56.6028 46.7482 56.688 46.7482C56.688 46.7482 56.7002 46.7482 56.7063 46.7482C56.7977 46.7482 56.889 46.698 56.9499 46.6291L57.8696 45.5888C58.0036 45.4384 57.9914 45.2066 57.8452 45.075V45.0624Z" fill="#8F8F8F"/>
<path opacity="0.5" d="M45.602 201.306L30.9059 116.002C30.9058 116.002 30.9058 116.002 30.9058 116.002C30.8244 115.527 30.926 115.17 31.0672 114.961C31.1983 114.766 31.3772 114.667 31.6093 114.667H235.584C235.816 114.667 235.995 114.766 236.126 114.961C236.268 115.17 236.369 115.527 236.288 116.002L236.288 116.002L221.92 199.406L221.915 199.401L221.584 201.306C221.49 201.843 220.952 202.284 220.462 202.284H46.7241C46.2394 202.284 45.6956 201.841 45.6021 201.307C45.6021 201.306 45.602 201.306 45.602 201.306Z" fill="url(#paint13_linear_1886_20055)" stroke="#737373" stroke-width="2"/>
<g style="mix-blend-mode:multiply">
<path d="M235.576 113.667H31.6015C30.4334 113.667 29.6757 114.792 29.9125 116.172L32.5408 131.439H234.629L237.258 116.172C237.494 114.792 236.737 113.667 235.568 113.667H235.576Z" fill="#D9D9D9"/>
</g>
<path d="M28.9883 96.9252H239.009C239.621 96.9252 240.124 97.4245 240.124 98.0497V120.048C240.124 120.673 239.621 121.172 239.009 121.172H28.9883C28.3765 121.172 27.873 120.673 27.873 120.048V98.0497C27.873 97.4245 28.3765 96.9252 28.9883 96.9252Z" fill="url(#paint14_linear_1886_20055)" stroke="#194C67" stroke-width="2"/>
<path d="M38.5 113.976C38.5 114.543 37.8304 115 37 115C36.1696 115 35.5 114.543 35.5 113.976V104.024C35.5 103.457 36.1696 103 37 103C37.8304 103 38.5 103.457 38.5 104.024V113.976Z" fill="#409ED0"/>
<path d="M49.5 113.976C49.5 114.543 48.8304 115 48 115C47.1696 115 46.5 114.543 46.5 113.976V104.024C46.5 103.457 47.1696 103 48 103C48.8304 103 49.5 103.457 49.5 104.024V113.976Z" fill="#409ED0"/>
<path d="M61.5 113.976C61.5 114.543 60.6071 115 59.5 115C58.3929 115 57.5 114.543 57.5 113.976V104.024C57.5 103.457 58.3929 103 59.5 103C60.6071 103 61.5 103.457 61.5 104.024V113.976Z" fill="#409ED0"/>
<path d="M73.5 113.976C73.5 114.543 72.6071 115 71.5 115C70.3929 115 69.5 114.543 69.5 113.976V104.024C69.5 103.457 70.3929 103 71.5 103C72.6071 103 73.5 103.457 73.5 104.024V113.976Z" fill="#409ED0"/>
<path d="M84.5 113.976C84.5 114.543 83.8304 115 83 115C82.1696 115 81.5 114.543 81.5 113.976V104.024C81.5 103.457 82.1696 103 83 103C83.8304 103 84.5 103.457 84.5 104.024V113.976Z" fill="#409ED0"/>
<path d="M95.5 113.976C95.5 114.543 94.8304 115 94 115C93.1696 115 92.5 114.543 92.5 113.976V104.024C92.5 103.457 93.1696 103 94 103C94.8304 103 95.5 103.457 95.5 104.024V113.976Z" fill="#409ED0"/>
<path d="M107.5 113.976C107.5 114.543 106.607 115 105.5 115C104.393 115 103.5 114.543 103.5 113.976V104.024C103.5 103.457 104.393 103 105.5 103C106.607 103 107.5 103.457 107.5 104.024V113.976Z" fill="#409ED0"/>
<path d="M119.5 113.976C119.5 114.543 118.607 115 117.5 115C116.393 115 115.5 114.543 115.5 113.976V104.024C115.5 103.457 116.393 103 117.5 103C118.607 103 119.5 103.457 119.5 104.024V113.976Z" fill="#409ED0"/>
<path d="M130.5 113.976C130.5 114.543 129.83 115 129 115C128.17 115 127.5 114.543 127.5 113.976V104.024C127.5 103.457 128.17 103 129 103C129.83 103 130.5 103.457 130.5 104.024V113.976Z" fill="#409ED0"/>
<path d="M141.5 113.976C141.5 114.543 140.83 115 140 115C139.17 115 138.5 114.543 138.5 113.976V104.024C138.5 103.457 139.17 103 140 103C140.83 103 141.5 103.457 141.5 104.024V113.976Z" fill="#409ED0"/>
<path d="M153.5 113.976C153.5 114.543 152.607 115 151.5 115C150.393 115 149.5 114.543 149.5 113.976V104.024C149.5 103.457 150.393 103 151.5 103C152.607 103 153.5 103.457 153.5 104.024V113.976Z" fill="#409ED0"/>
<path d="M165.5 113.976C165.5 114.543 164.607 115 163.5 115C162.393 115 161.5 114.543 161.5 113.976V104.024C161.5 103.457 162.393 103 163.5 103C164.607 103 165.5 103.457 165.5 104.024V113.976Z" fill="#409ED0"/>
<path d="M176.5 113.976C176.5 114.543 175.83 115 175 115C174.17 115 173.5 114.543 173.5 113.976V104.024C173.5 103.457 174.17 103 175 103C175.83 103 176.5 103.457 176.5 104.024V113.976Z" fill="#409ED0"/>
<path d="M187.5 113.976C187.5 114.543 186.83 115 186 115C185.17 115 184.5 114.543 184.5 113.976V104.024C184.5 103.457 185.17 103 186 103C186.83 103 187.5 103.457 187.5 104.024V113.976Z" fill="#409ED0"/>
<path d="M199.5 113.976C199.5 114.543 198.607 115 197.5 115C196.393 115 195.5 114.543 195.5 113.976V104.024C195.5 103.457 196.393 103 197.5 103C198.607 103 199.5 103.457 199.5 104.024V113.976Z" fill="#409ED0"/>
<path d="M211.5 113.976C211.5 114.543 210.607 115 209.5 115C208.393 115 207.5 114.543 207.5 113.976V104.024C207.5 103.457 208.393 103 209.5 103C210.607 103 211.5 103.457 211.5 104.024V113.976Z" fill="#409ED0"/>
<path d="M222.5 113.976C222.5 114.543 221.83 115 221 115C220.17 115 219.5 114.543 219.5 113.976V104.024C219.5 103.457 220.17 103 221 103C221.83 103 222.5 103.457 222.5 104.024V113.976Z" fill="#409ED0"/>
<path d="M233.5 113.976C233.5 114.543 232.83 115 232 115C231.17 115 230.5 114.543 230.5 113.976V104.024C230.5 103.457 231.17 103 232 103C232.83 103 233.5 103.457 233.5 104.024V113.976Z" fill="#409ED0"/>
<rect x="62.6992" y="40.9891" width="143.65" height="8.72001" rx="4.36001" fill="#D1D1D1"/>
<rect x="62.5" y="24" width="32" height="4" rx="2" fill="#D1D1D1"/>
</g>
<path fill-rule="evenodd" clip-rule="evenodd" d="M257.758 1C258.238 1 258.626 1.38856 258.626 1.86786V10.6487C258.626 11.128 258.238 11.5166 257.758 11.5166C257.279 11.5166 256.891 11.128 256.891 10.6487V1.86786C256.891 1.38856 257.279 1 257.758 1Z" fill="#36719B"/>
<path fill-rule="evenodd" clip-rule="evenodd" d="M252.5 6.258C252.5 5.77869 252.889 5.39014 253.368 5.39014H262.149C262.628 5.39014 263.017 5.77869 263.017 6.258C263.017 6.73731 262.628 7.12586 262.149 7.12586H253.368C252.889 7.12586 252.5 6.73731 252.5 6.258Z" fill="#36719B"/>
<path fill-rule="evenodd" clip-rule="evenodd" d="M276.758 93C277.238 93 277.626 93.3886 277.626 93.8679V102.649C277.626 103.128 277.238 103.517 276.758 103.517C276.279 103.517 275.891 103.128 275.891 102.649V93.8679C275.891 93.3886 276.279 93 276.758 93Z" fill="#36719B"/>
<path fill-rule="evenodd" clip-rule="evenodd" d="M271.5 98.258C271.5 97.7787 271.889 97.3901 272.368 97.3901H281.149C281.628 97.3901 282.017 97.7787 282.017 98.258C282.017 98.7373 281.628 99.1259 281.149 99.1259H272.368C271.889 99.1259 271.5 98.7373 271.5 98.258Z" fill="#36719B"/>
<path fill-rule="evenodd" clip-rule="evenodd" d="M12.7585 177C13.2378 177 13.6264 177.389 13.6264 177.868V186.649C13.6264 187.128 13.2378 187.517 12.7585 187.517C12.2792 187.517 11.8906 187.128 11.8906 186.649V177.868C11.8906 177.389 12.2792 177 12.7585 177Z" fill="#36719B"/>
<path fill-rule="evenodd" clip-rule="evenodd" d="M7.5 182.258C7.5 181.779 7.88856 181.39 8.36786 181.39H17.1487C17.628 181.39 18.0166 181.779 18.0166 182.258C18.0166 182.737 17.628 183.126 17.1487 183.126H8.36786C7.88856 183.126 7.5 182.737 7.5 182.258Z" fill="#36719B"/>
<path fill-rule="evenodd" clip-rule="evenodd" d="M5.75849 0C6.2378 0 6.62635 0.388555 6.62635 0.867863V9.64869C6.62635 10.128 6.2378 10.5166 5.75849 10.5166C5.27918 10.5166 4.89062 10.128 4.89062 9.64869V0.867863C4.89062 0.388555 5.27918 0 5.75849 0Z" fill="#36719B"/>
<path fill-rule="evenodd" clip-rule="evenodd" d="M0.5 5.258C0.5 4.77869 0.888555 4.39014 1.36786 4.39014H10.1487C10.628 4.39014 11.0166 4.77869 11.0166 5.258C11.0166 5.73731 10.628 6.12586 10.1487 6.12586H1.36786C0.888555 6.12586 0.5 5.73731 0.5 5.258Z" fill="#36719B"/>
<defs>
<linearGradient id="paint0_linear_1886_20055" x1="49.7691" y1="158.275" x2="49.7691" y2="117.708" gradientUnits="userSpaceOnUse">
<stop stop-color="white"/>
<stop offset="1" stop-color="#BFBFBF"/>
</linearGradient>
<linearGradient id="paint1_linear_1886_20055" x1="63.7792" y1="182.697" x2="63.7792" y2="123.449" gradientUnits="userSpaceOnUse">
<stop stop-color="white"/>
<stop offset="1" stop-color="#BFBFBF"/>
</linearGradient>
<linearGradient id="paint2_linear_1886_20055" x1="79.1677" y1="194.092" x2="79.1677" y2="125.782" gradientUnits="userSpaceOnUse">
<stop stop-color="white"/>
<stop offset="1" stop-color="#BFBFBF"/>
</linearGradient>
<linearGradient id="paint3_linear_1886_20055" x1="92.5626" y1="176.254" x2="92.5626" y2="121.9" gradientUnits="userSpaceOnUse">
<stop stop-color="white"/>
<stop offset="1" stop-color="#BFBFBF"/>
</linearGradient>
<linearGradient id="paint4_linear_1886_20055" x1="107.709" y1="193.047" x2="107.709" y2="125.598" gradientUnits="userSpaceOnUse">
<stop stop-color="white"/>
<stop offset="1" stop-color="#BFBFBF"/>
</linearGradient>
<linearGradient id="paint5_linear_1886_20055" x1="120.255" y1="182.895" x2="120.255" y2="123.393" gradientUnits="userSpaceOnUse">
<stop stop-color="white"/>
<stop offset="1" stop-color="#BFBFBF"/>
</linearGradient>
<linearGradient id="paint6_linear_1886_20055" x1="132.243" y1="193.061" x2="132.243" y2="125.57" gradientUnits="userSpaceOnUse">
<stop stop-color="white"/>
<stop offset="1" stop-color="#BFBFBF"/>
</linearGradient>
<linearGradient id="paint7_linear_1886_20055" x1="147.553" y1="184.858" x2="147.553" y2="123.744" gradientUnits="userSpaceOnUse">
<stop stop-color="white"/>
<stop offset="1" stop-color="#BFBFBF"/>
</linearGradient>
<linearGradient id="paint8_linear_1886_20055" x1="161.073" y1="169.077" x2="161.073" y2="120.514" gradientUnits="userSpaceOnUse">
<stop stop-color="white"/>
<stop offset="1" stop-color="#BFBFBF"/>
</linearGradient>
<linearGradient id="paint9_linear_1886_20055" x1="174.213" y1="185.412" x2="174.213" y2="123.84" gradientUnits="userSpaceOnUse">
<stop stop-color="white"/>
<stop offset="1" stop-color="#BFBFBF"/>
</linearGradient>
<linearGradient id="paint10_linear_1886_20055" x1="191.293" y1="195.809" x2="191.293" y2="126.143" gradientUnits="userSpaceOnUse">
<stop stop-color="white"/>
<stop offset="1" stop-color="#BFBFBF"/>
</linearGradient>
<linearGradient id="paint11_linear_1886_20055" x1="204.126" y1="183.261" x2="204.126" y2="123.596" gradientUnits="userSpaceOnUse">
<stop stop-color="white"/>
<stop offset="1" stop-color="#BFBFBF"/>
</linearGradient>
<linearGradient id="paint12_linear_1886_20055" x1="218.021" y1="161.208" x2="218.021" y2="118.804" gradientUnits="userSpaceOnUse">
<stop stop-color="white"/>
<stop offset="1" stop-color="#BFBFBF"/>
</linearGradient>
<linearGradient id="paint13_linear_1886_20055" x1="133.597" y1="113.667" x2="133.597" y2="203.284" gradientUnits="userSpaceOnUse">
<stop stop-color="white" stop-opacity="0"/>
<stop offset="1" stop-color="#3C3C3C"/>
</linearGradient>
<linearGradient id="paint14_linear_1886_20055" x1="149.521" y1="60.4109" x2="151.113" y2="148.404" gradientUnits="userSpaceOnUse">
<stop stop-color="#195F85"/>
<stop offset="1" stop-color="#459CCB"/>
</linearGradient>
<clipPath id="clip0_1886_20055">
<rect width="231" height="191" fill="white" transform="translate(18.5 18)"/>
</clipPath>
</defs>
</svg>
