<svg xmlns="http://www.w3.org/2000/svg" width="20" height="20" viewBox="0 0 20 20" fill="none">
  <mask id="mask0_6551_48402" style="mask-type:alpha" maskUnits="userSpaceOnUse" x="0" y="0" width="20" height="20">
    <rect width="20" height="20" fill="#D9D9D9"/>
  </mask>
  <g mask="url(#mask0_6551_48402)">
    <path d="M6.66797 9.16699C6.90408 9.16699 7.102 9.08713 7.26172 8.92741C7.42144 8.76769 7.5013 8.56977 7.5013 8.33366C7.5013 8.09755 7.42144 7.89963 7.26172 7.73991C7.102 7.58019 6.90408 7.50033 6.66797 7.50033C6.43186 7.50033 6.23394 7.58019 6.07422 7.73991C5.9145 7.89963 5.83464 8.09755 5.83464 8.33366C5.83464 8.56977 5.9145 8.76769 6.07422 8.92741C6.23394 9.08713 6.43186 9.16699 6.66797 9.16699ZM10.0013 9.16699C10.2374 9.16699 10.4353 9.08713 10.5951 8.92741C10.7548 8.76769 10.8346 8.56977 10.8346 8.33366C10.8346 8.09755 10.7548 7.89963 10.5951 7.73991C10.4353 7.58019 10.2374 7.50033 10.0013 7.50033C9.76519 7.50033 9.56727 7.58019 9.40755 7.73991C9.24783 7.89963 9.16797 8.09755 9.16797 8.33366C9.16797 8.56977 9.24783 8.76769 9.40755 8.92741C9.56727 9.08713 9.76519 9.16699 10.0013 9.16699ZM13.3346 9.16699C13.5707 9.16699 13.7687 9.08713 13.9284 8.92741C14.0881 8.76769 14.168 8.56977 14.168 8.33366C14.168 8.09755 14.0881 7.89963 13.9284 7.73991C13.7687 7.58019 13.5707 7.50033 13.3346 7.50033C13.0985 7.50033 12.9006 7.58019 12.7409 7.73991C12.5812 7.89963 12.5013 8.09755 12.5013 8.33366C12.5013 8.56977 12.5812 8.76769 12.7409 8.92741C12.9006 9.08713 13.0985 9.16699 13.3346 9.16699ZM1.66797 18.3337V3.33366C1.66797 2.87533 1.83116 2.48296 2.15755 2.15658C2.48394 1.83019 2.8763 1.66699 3.33464 1.66699H16.668C17.1263 1.66699 17.5187 1.83019 17.8451 2.15658C18.1714 2.48296 18.3346 2.87533 18.3346 3.33366V13.3337C18.3346 13.792 18.1714 14.1844 17.8451 14.5107C17.5187 14.8371 17.1263 15.0003 16.668 15.0003H5.0013L1.66797 18.3337ZM4.29297 13.3337H16.668V3.33366H3.33464V14.2712L4.29297 13.3337Z" fill="#000"/>
  </g>
</svg>