<svg width="24" height="24" viewBox="0 0 24 24" fill="none" xmlns="http://www.w3.org/2000/svg">
<mask id="mask0_345_1606" style="mask-type:alpha" maskUnits="userSpaceOnUse" x="0" y="0" width="24" height="24">
<rect width="24" height="24" fill="#D9D9D9"/>
</mask>
<g mask="url(#mask0_345_1606)">
<path d="M4 12.8678C4 11.6844 4.39583 10.6678 5.1875 9.81777C5.97917 8.96777 6.96667 8.49277 8.15 8.39277L6.6 9.94277L8 11.3428L12 7.34277L8 3.34277L6.6 4.74277L8.2 6.34277C6.45 6.44277 4.97917 7.11777 3.7875 8.36777C2.59583 9.61777 2 11.1094 2 12.8428C2 14.6594 2.62917 16.1969 3.8875 17.4553C5.14583 18.7136 6.68333 19.3428 8.5 19.3428H12V17.3428H8.5C7.25 17.3428 6.1875 16.9094 5.3125 16.0428C4.4375 15.1761 4 14.1178 4 12.8678ZM14 19.3428V17.3428H22V19.3428H14ZM14 13.8428V11.8428H22V13.8428H14ZM14 8.34277V6.34277H22V8.34277H14Z" fill="#999999"/>
</g>
</svg>
