<svg xmlns="http://www.w3.org/2000/svg" width="20" height="20" viewBox="0 0 20 20" fill="none">
  <mask id="mask0_6592_30732" style="mask-type:alpha" maskUnits="userSpaceOnUse" x="0" y="0" width="20" height="20">
    <rect width="20" height="20" fill="#D9D9D9"/>
  </mask>
  <g mask="url(#mask0_6592_30732)">
    <path d="M4.16667 17.5C3.70833 17.5 3.31597 17.3368 2.98958 17.0104C2.66319 16.684 2.5 16.2917 2.5 15.8333V12.5H4.16667V15.8333H7.5V17.5H4.16667ZM15.8333 17.5H12.5V15.8333H15.8333V12.5H17.5V15.8333C17.5 16.2917 17.3368 16.684 17.0104 17.0104C16.684 17.3368 16.2917 17.5 15.8333 17.5ZM2.5 4.16667C2.5 3.70833 2.66319 3.31597 2.98958 2.98958C3.31597 2.66319 3.70833 2.5 4.16667 2.5H7.5V4.16667H4.16667V7.5H2.5V4.16667ZM17.5 4.16667V7.5H15.8333V4.16667H12.5V2.5H15.8333C16.2917 2.5 16.684 2.66319 17.0104 2.98958C17.3368 3.31597 17.5 3.70833 17.5 4.16667ZM10 15C10.2917 15 10.5382 14.8993 10.7396 14.6979C10.941 14.4965 11.0417 14.25 11.0417 13.9583C11.0417 13.6667 10.941 13.4201 10.7396 13.2187C10.5382 13.0174 10.2917 12.9167 10 12.9167C9.70833 12.9167 9.46181 13.0174 9.26042 13.2187C9.05903 13.4201 8.95833 13.6667 8.95833 13.9583C8.95833 14.25 9.05903 14.4965 9.26042 14.6979C9.46181 14.8993 9.70833 15 10 15ZM9.25 11.8125H10.7708C10.7708 11.3403 10.8264 10.9792 10.9375 10.7292C11.0486 10.4792 11.2917 10.1667 11.6667 9.79167C12.1528 9.30556 12.4757 8.91319 12.6354 8.61458C12.7951 8.31597 12.875 7.95833 12.875 7.54167C12.875 6.79167 12.6042 6.18056 12.0625 5.70833C11.5208 5.23611 10.8333 5 10 5C9.30556 5 8.70833 5.18056 8.20833 5.54167C7.70833 5.90278 7.34722 6.41667 7.125 7.08333L8.5 7.64583C8.59722 7.28472 8.78125 6.98958 9.05208 6.76042C9.32292 6.53125 9.63889 6.41667 10 6.41667C10.4028 6.41667 10.7257 6.52431 10.9688 6.73958C11.2118 6.95486 11.3333 7.24306 11.3333 7.60417C11.3333 7.88194 11.2674 8.14236 11.1354 8.38542C11.0035 8.62847 10.7778 8.88194 10.4583 9.14583C10 9.54861 9.68403 9.9375 9.51042 10.3125C9.33681 10.6875 9.25 11.1875 9.25 11.8125Z" fill="#003366"/>
  </g>
</svg>