<svg xmlns="http://www.w3.org/2000/svg" width="24" height="24" viewBox="0 0 24 24" fill="none">
  <mask id="mask0_656_13154" style="mask-type:alpha" maskUnits="userSpaceOnUse" x="0" y="0" width="24" height="24">
    <rect width="24" height="24" fill="#D9D9D9"/>
  </mask>
  <g mask="url(#mask0_656_13154)">
    <path d="M11.0008 22.95V20.95C8.91745 20.7167 7.12995 19.8542 5.63828 18.3625C4.14661 16.8708 3.28411 15.0833 3.05078 13H1.05078V11H3.05078C3.28411 8.91665 4.14661 7.12915 5.63828 5.63749C7.12995 4.14582 8.91745 3.28332 11.0008 3.04999V1.04999H13.0008V3.04999C15.0841 3.28332 16.8716 4.14582 18.3633 5.63749C19.8549 7.12915 20.7174 8.91665 20.9508 11H22.9508V13H20.9508C20.7174 15.0833 19.8549 16.8708 18.3633 18.3625C16.8716 19.8542 15.0841 20.7167 13.0008 20.95V22.95H11.0008ZM12.0008 19C13.9341 19 15.5841 18.3167 16.9508 16.95C18.3174 15.5833 19.0008 13.9333 19.0008 12C19.0008 10.0667 18.3174 8.41665 16.9508 7.04999C15.5841 5.68332 13.9341 4.99999 12.0008 4.99999C10.0674 4.99999 8.41745 5.68332 7.05078 7.04999C5.68411 8.41665 5.00078 10.0667 5.00078 12C5.00078 13.9333 5.68411 15.5833 7.05078 16.95C8.41745 18.3167 10.0674 19 12.0008 19ZM12.0008 16C10.9008 16 9.95912 15.6083 9.17578 14.825C8.39245 14.0417 8.00078 13.1 8.00078 12C8.00078 10.9 8.39245 9.95832 9.17578 9.17499C9.95912 8.39165 10.9008 7.99999 12.0008 7.99999C13.1008 7.99999 14.0424 8.39165 14.8258 9.17499C15.6091 9.95832 16.0008 10.9 16.0008 12C16.0008 13.1 15.6091 14.0417 14.8258 14.825C14.0424 15.6083 13.1008 16 12.0008 16ZM12.0008 14C12.5508 14 13.0216 13.8042 13.4133 13.4125C13.8049 13.0208 14.0008 12.55 14.0008 12C14.0008 11.45 13.8049 10.9792 13.4133 10.5875C13.0216 10.1958 12.5508 9.99999 12.0008 9.99999C11.4508 9.99999 10.9799 10.1958 10.5883 10.5875C10.1966 10.9792 10.0008 11.45 10.0008 12C10.0008 12.55 10.1966 13.0208 10.5883 13.4125C10.9799 13.8042 11.4508 14 12.0008 14Z" fill="#999999"/>
  </g>
</svg>