<svg width="111" height="110" viewBox="0 0 111 110" fill="none" xmlns="http://www.w3.org/2000/svg">
<path d="M92.9682 81.2312C92.923 81.2312 92.8768 81.2196 92.8344 81.1953L90.9857 80.128C90.8574 80.0537 90.8136 79.8898 90.8875 79.7614C90.9607 79.6331 91.124 79.5886 91.2537 79.6632L93.1024 80.7304C93.2307 80.8047 93.2746 80.9687 93.2006 81.097C93.1513 81.1833 93.0613 81.2312 92.9682 81.2312Z" fill="#0B2F54"/>
<path d="M93.6437 83.4024C93.5985 83.4024 93.5523 83.3908 93.5099 83.3665L89.4467 81.0208C89.3183 80.9466 89.2745 80.7826 89.3484 80.6542C89.4217 80.5259 89.5849 80.4814 89.7147 80.556L93.7779 82.902C93.9062 82.9763 93.9501 83.1403 93.8761 83.2686C93.8268 83.3545 93.7368 83.4024 93.6437 83.4024Z" fill="#0B2F54"/>
<path d="M89.8979 83.0163C89.8527 83.0163 89.8065 83.0046 89.7641 82.9803L87.9154 81.9131C87.787 81.8388 87.7432 81.6748 87.8172 81.5465C87.8904 81.4185 88.0537 81.3736 88.1834 81.4483L90.0321 82.5155C90.1604 82.5898 90.2042 82.7537 90.1303 82.8821C90.0814 82.9684 89.991 83.0163 89.8979 83.0163Z" fill="#0B2F54"/>
<path d="M90.5734 85.1877C90.5282 85.1877 90.482 85.1761 90.4396 85.1518L86.3763 82.8057C86.248 82.7315 86.2042 82.5675 86.2781 82.4392C86.3514 82.3108 86.515 82.2663 86.6444 82.3409L90.7076 84.6869C90.8359 84.7612 90.8797 84.9252 90.8058 85.0535C90.7565 85.1398 90.6665 85.1877 90.5734 85.1877Z" fill="#0B2F54"/>
<path d="M86.8197 84.8016C86.7745 84.8016 86.7283 84.7899 86.6858 84.7656L84.8372 83.6987C84.7088 83.6245 84.665 83.4605 84.7393 83.3321C84.8125 83.2041 84.9758 83.1593 85.1055 83.2339L86.9542 84.3008C87.0825 84.3751 87.1264 84.539 87.0524 84.6674C87.0031 84.7533 86.9128 84.8016 86.8197 84.8016Z" fill="#0B2F54"/>
<path d="M87.507 86.9729C87.4618 86.9729 87.4156 86.9613 87.3732 86.937L83.3099 84.591C83.1816 84.5167 83.1378 84.3527 83.2117 84.2244C83.2849 84.0964 83.4486 84.0512 83.5779 84.1261L87.6412 86.4718C87.7695 86.5461 87.8133 86.7101 87.7394 86.8384C87.6901 86.9247 87.6001 86.9729 87.507 86.9729Z" fill="#0B2F54"/>
<path d="M83.753 86.5861C83.7078 86.5861 83.6616 86.5745 83.6192 86.5502L81.7709 85.483C81.6425 85.409 81.5987 85.2447 81.6726 85.1167C81.7455 84.9887 81.9095 84.9435 82.0389 85.0185L83.8872 86.0857C84.0156 86.1597 84.0594 86.324 83.9854 86.452C83.9361 86.5382 83.8461 86.5861 83.753 86.5861Z" fill="#0B2F54"/>
<path d="M84.4328 88.7577C84.3876 88.7577 84.3414 88.746 84.2989 88.7217L80.2357 86.376C80.1074 86.3018 80.0636 86.1378 80.1375 86.0095C80.2107 85.8811 80.3743 85.8366 80.5037 85.9112L84.567 88.2573C84.6953 88.3315 84.7391 88.4955 84.6652 88.6238C84.6159 88.7098 84.5259 88.7577 84.4328 88.7577Z" fill="#0B2F54"/>
<path d="M80.6749 88.3715C80.6297 88.3715 80.5835 88.3599 80.5411 88.3356L78.6928 87.2684C78.5644 87.1944 78.5206 87.0301 78.5945 86.9021C78.6678 86.7741 78.8314 86.7289 78.9608 86.8039L80.8091 87.8711C80.9374 87.9451 80.9812 88.1094 80.9073 88.2374C80.8584 88.3236 80.768 88.3715 80.6749 88.3715Z" fill="#0B2F54"/>
<path d="M81.3624 90.5429C81.3172 90.5429 81.271 90.5312 81.2285 90.5069L77.1653 88.1609C77.0369 88.0866 76.9931 87.9227 77.0674 87.7943C77.1403 87.6663 77.3043 87.6214 77.4337 87.6961L81.4969 90.0421C81.6252 90.1164 81.669 90.2803 81.5951 90.4087C81.5455 90.4949 81.4555 90.5429 81.3624 90.5429Z" fill="#0B2F54"/>
<path d="M77.6085 90.1563C77.5633 90.1563 77.5171 90.1447 77.4747 90.1204L75.6263 89.0535C75.498 88.9792 75.4542 88.8152 75.5281 88.6869C75.6014 88.5589 75.765 88.514 75.8943 88.5886L77.7427 89.6555C77.871 89.7298 77.9148 89.8938 77.8406 90.0221C77.7916 90.1084 77.7013 90.1563 77.6085 90.1563Z" fill="#0B2F54"/>
<path d="M78.2843 92.3281C78.2392 92.3281 78.1929 92.3165 78.1505 92.2922L74.0873 89.9462C73.9589 89.8719 73.9151 89.7079 73.989 89.5796C74.0623 89.4512 74.2259 89.4064 74.3553 89.4817L78.4185 91.8274C78.5469 91.9016 78.5907 92.0656 78.5164 92.194C78.4678 92.2802 78.3774 92.3281 78.2843 92.3281Z" fill="#0B2F54"/>
<path d="M74.5385 91.9419C74.4933 91.9419 74.4471 91.9303 74.4047 91.9059L72.556 90.8387C72.4277 90.7644 72.3839 90.6005 72.4578 90.4721C72.531 90.3438 72.6947 90.2993 72.824 90.3739L74.6727 91.4411C74.8011 91.5154 74.8449 91.6793 74.7709 91.8077C74.7216 91.8936 74.6313 91.9419 74.5385 91.9419Z" fill="#0B2F54"/>
<path d="M75.214 94.1131C75.1688 94.1131 75.1226 94.1014 75.0802 94.0771L71.017 91.7314C70.8886 91.6572 70.8448 91.4932 70.9187 91.3649C70.992 91.2368 71.1552 91.192 71.285 91.2666L75.3482 93.6123C75.4766 93.6866 75.5204 93.8505 75.4464 93.9789C75.3975 94.0652 75.3071 94.1131 75.214 94.1131Z" fill="#0B2F54"/>
<path d="M71.4643 93.727C71.4191 93.727 71.3729 93.7154 71.3305 93.6911L69.4818 92.6239C69.3535 92.5496 69.3096 92.3856 69.3836 92.2573C69.4568 92.1289 69.6204 92.0844 69.7498 92.159L71.5985 93.2263C71.7268 93.3006 71.7706 93.4645 71.6967 93.5929C71.6474 93.6791 71.5574 93.727 71.4643 93.727Z" fill="#0B2F54"/>
<path d="M72.1437 95.8981C72.0985 95.8981 72.0523 95.8864 72.0099 95.8621L67.9467 93.5164C67.8183 93.4422 67.7745 93.2782 67.8484 93.1498C67.9217 93.0215 68.0849 92.977 68.2147 93.0516L72.2779 95.3973C72.4062 95.4716 72.4501 95.6355 72.3761 95.7639C72.3268 95.8501 72.2368 95.8981 72.1437 95.8981Z" fill="#0B2F54"/>
<path d="M68.3896 95.5119C68.3445 95.5119 68.2983 95.5002 68.2558 95.4759L66.4075 94.4087C66.2791 94.3344 66.2353 94.1705 66.3096 94.0421C66.3828 93.9141 66.5461 93.8692 66.6758 93.9439L68.5242 95.0108C68.6525 95.085 68.6963 95.249 68.6224 95.3774C68.5728 95.464 68.4824 95.5119 68.3896 95.5119Z" fill="#0B2F54"/>
<path d="M69.0695 97.6835C69.0243 97.6835 68.9781 97.6718 68.9357 97.6475L64.8724 95.3015C64.7441 95.2272 64.7003 95.0633 64.7742 94.9349C64.8474 94.8066 65.0107 94.7617 65.1404 94.8367L69.2037 97.1824C69.332 97.2566 69.3758 97.4206 69.3019 97.549C69.253 97.6355 69.1626 97.6835 69.0695 97.6835Z" fill="#0B2F54"/>
<path d="M65.3194 97.2969C65.2743 97.2969 65.228 97.2853 65.1856 97.261L63.3373 96.1941C63.2089 96.1198 63.1651 95.9559 63.239 95.8275C63.3123 95.6995 63.4756 95.6546 63.6053 95.7293L65.4536 96.7962C65.582 96.8704 65.6258 97.0344 65.5518 97.1628C65.5026 97.249 65.4125 97.2969 65.3194 97.2969Z" fill="#0B2F54"/>
<path d="M65.9992 99.4685C65.954 99.4685 65.9078 99.4569 65.8653 99.4326L61.8021 97.0869C61.6738 97.0126 61.63 96.8487 61.7039 96.7203C61.7771 96.5923 61.9404 96.5475 62.0701 96.6221L66.1334 98.9681C66.2617 99.0424 66.3055 99.2064 66.2316 99.3347C66.1823 99.4206 66.0923 99.4685 65.9992 99.4685Z" fill="#0B2F54"/>
<path d="M62.2452 99.0825C62.2 99.0825 62.1538 99.0709 62.1114 99.0466L60.2631 97.9793C60.1347 97.9054 60.0909 97.7411 60.1648 97.6131C60.2381 97.485 60.4013 97.4399 60.5311 97.5148L62.3794 98.5821C62.5077 98.656 62.5516 98.8203 62.4776 98.9483C62.4283 99.0346 62.3383 99.0825 62.2452 99.0825Z" fill="#0B2F54"/>
<g opacity="0.1">
<path d="M66.8487 47.4626C65.038 48.5079 65.0284 50.2009 66.8274 51.2462L92.7738 66.325C94.569 67.3683 97.4952 67.3703 99.3059 66.325L107.777 61.434C109.588 60.3887 109.593 58.6933 107.798 57.6504L81.8519 42.572C80.0529 41.5266 77.1305 41.5263 75.3198 42.572L66.8487 47.4626Z" fill="black"/>
</g>
<path d="M66.7656 44.1436L66.7851 47.4377C66.7851 48.1168 67.2315 48.7911 68.1241 49.3152L94.0753 64.3891C94.5798 64.6852 95.1716 64.8937 95.8024 65.02C96.729 65.214 97.7432 65.2236 98.6793 65.0586C99.3827 64.9375 100.047 64.714 100.605 64.3891L109.076 59.5002C109.988 58.9762 110.439 58.2824 110.439 57.5982L110.425 54.3184C110.425 54.9978 109.969 55.6865 109.061 56.2057L100.591 61.0994C100.037 61.4198 99.3827 61.643 98.6789 61.7641C97.7377 61.9291 96.7286 61.9192 95.8021 61.7302C95.1617 61.6039 94.5651 61.3955 94.0602 61.0994L68.1091 46.0207C67.2215 45.5021 66.7752 44.8227 66.7656 44.1436Z" fill="#BEC4CD"/>
<path d="M97.3366 65.2798C96.1345 65.2798 94.9345 65.0145 94.0237 64.4843L68.0739 49.4066C67.1765 48.8802 66.6822 48.1802 66.6822 47.435L66.6641 44.145C66.6641 44.1446 66.6641 44.1446 66.6641 44.1443V44.144C66.6637 44.0847 66.7113 44.0365 66.7705 44.0361C66.7709 44.0361 66.7709 44.0361 66.7712 44.0361C66.8301 44.0361 66.878 44.0834 66.8787 44.1426C66.8845 44.81 67.3431 45.445 68.1698 45.9293L94.1192 61.0067C95.8805 62.0325 98.7632 62.0325 100.543 61.0064L109.011 56.1147C109.855 55.6294 110.32 54.991 110.32 54.3167C110.32 54.2575 110.368 54.2096 110.427 54.2092C110.427 54.2092 110.427 54.2092 110.427 54.2092C110.486 54.2092 110.534 54.2568 110.534 54.316V54.3167L110.553 57.5958C110.553 58.3588 110.05 59.068 109.136 59.5927L100.663 64.4847C99.7435 65.0149 98.539 65.2798 97.3366 65.2798ZM66.8835 44.9771L66.8968 47.4347C66.8968 48.1011 67.3534 48.7354 68.1821 49.2214L94.1318 64.2992C95.8932 65.325 98.7752 65.3253 100.556 64.2988L109.029 59.4069C109.873 58.9215 110.339 58.2787 110.339 57.5965L110.325 55.143C110.097 55.5777 109.687 55.9744 109.118 56.301L100.651 61.1926C98.8115 62.2526 95.833 62.253 94.0113 61.1922L68.0619 46.1148C67.5109 45.7921 67.1111 45.4029 66.8835 44.9771Z" fill="#373B42"/>
<path d="M68.1338 42.2372C66.3231 43.2829 66.3135 44.9755 68.1126 46.0208L94.0589 61.0993C95.8542 62.1425 98.7803 62.1446 100.591 61.0993L109.062 56.2083C110.873 55.163 110.879 53.468 109.083 52.4247L83.137 37.3463C81.338 36.3009 78.4156 36.3009 76.6049 37.3463L68.1338 42.2372Z" fill="white"/>
<g opacity="0.1">
<path d="M105.462 52.2295C106.233 52.6745 106.67 53.28 106.674 53.9094L106.679 54.7179C106.682 55.3474 106.251 55.9525 105.486 56.3979L103.524 57.5377C102.755 57.9847 101.715 58.2342 100.625 58.2359L99.2329 58.2342C98.1431 58.2359 97.0967 57.9847 96.3255 57.5397L77.4391 46.6355C76.6683 46.1905 76.2309 45.585 76.2305 44.9538L76.2227 44.1474C76.2223 43.5159 76.6498 42.9128 77.4189 42.4658L79.3802 41.3259C80.1462 40.881 81.1895 40.6294 82.2763 40.6294H83.6717C84.7585 40.6294 85.8048 40.8806 86.5756 41.3259L105.462 52.2295Z" fill="black"/>
</g>
<path d="M97.3219 61.9879C96.1195 61.9879 94.9187 61.7226 94.0062 61.1928L68.0602 46.1144C67.159 45.5903 66.6627 44.8879 66.6641 44.1359C66.6651 43.3791 67.1689 42.672 68.0821 42.1449L76.5533 37.2539C78.3896 36.1928 81.3681 36.1939 83.1929 37.2539L109.14 52.3327C110.04 52.856 110.535 53.5587 110.534 54.3114C110.534 55.0686 110.03 55.7754 109.118 56.3022L100.647 61.1931C99.7278 61.7226 98.524 61.9879 97.3219 61.9879ZM68.1889 42.33C67.3445 42.8178 66.879 43.4589 66.878 44.1359C66.877 44.8078 67.3349 45.4442 68.1677 45.9282L94.1137 61.0066C95.8785 62.0324 98.7609 62.0321 100.538 61.0066L109.009 56.1156C109.853 55.6286 110.318 54.9875 110.319 54.3101C110.32 53.6375 109.862 53.0008 109.03 52.5175L83.0843 37.4394C81.3192 36.4129 78.4372 36.4136 76.6601 37.4394L68.1889 42.33Z" fill="#373B42"/>
<path d="M73.2305 43.3302L73.2428 44.1332C73.2428 44.7647 73.684 45.3716 74.4504 45.8132L93.3323 56.7194C94.111 57.1606 95.1533 57.4122 96.2445 57.4122H97.6362C98.7274 57.4122 99.7696 57.161 100.536 56.7194L102.498 55.5731C103.264 55.1316 103.693 54.5247 103.693 53.8993L103.761 27.4704C103.761 28.0957 103.331 28.6964 102.565 29.138L100.603 30.2781C99.8371 30.7255 98.7948 30.9771 97.7036 30.9771H96.3181C95.2269 30.9771 94.1785 30.7255 93.4059 30.2781L74.5178 19.378C73.7453 18.9307 73.3102 18.3234 73.3102 17.6919L73.3041 16.8889L73.2305 43.3302Z" fill="#F0F2F5"/>
<path d="M96.8086 30.9772H97.7033C98.7945 30.9772 99.8368 30.7256 100.603 30.2782L102.565 29.1381C103.331 28.6965 103.76 28.0958 103.76 27.4705L103.693 53.8994C103.693 54.5248 103.264 55.1317 102.497 55.5732L100.536 56.7195C99.7693 57.1607 98.7271 57.4123 97.6359 57.4123H96.8086V30.9772Z" fill="#4DA3C7"/>
<path d="M97.6378 57.5199H96.2461C95.1382 57.5199 94.0853 57.269 93.2813 56.8131L74.3986 45.9065C73.597 45.4447 73.1373 44.7988 73.1373 44.1338L73.125 43.3321C73.125 43.3314 73.125 43.3304 73.125 43.3304L73.1982 16.8891C73.1982 16.8299 73.2462 16.7823 73.305 16.782H73.3054C73.3646 16.782 73.4122 16.8296 73.4129 16.8884L73.419 17.6914C73.419 18.2798 73.84 18.8607 74.5732 19.2855L93.4613 30.1856C94.2119 30.6206 95.2542 30.8698 96.3197 30.8698H97.7053C98.7691 30.8698 99.8062 30.6203 100.551 30.1856L102.513 29.0451C103.236 28.6285 103.652 28.0572 103.655 27.4767V27.4699C103.655 27.4107 103.703 27.3627 103.762 27.3627C103.822 27.3627 103.87 27.4107 103.87 27.4702V27.4706C103.87 27.473 103.87 27.4754 103.87 27.4774L103.802 53.8995C103.802 54.5649 103.347 55.2088 102.553 55.6661L100.592 56.8121C99.7997 57.2687 98.7506 57.5199 97.6378 57.5199ZM73.3396 43.3297L73.3516 44.1317C73.3516 44.7194 73.7719 45.2979 74.5058 45.7199L93.3874 56.6265C94.1592 57.0636 95.1744 57.305 96.2458 57.305H97.6375C98.6975 57.305 99.735 57.0575 100.484 56.6265L102.445 55.4806C103.171 55.0623 103.587 54.4859 103.587 53.8995L103.652 28.2544C103.445 28.622 103.092 28.9592 102.62 29.2313L100.659 30.3714C99.8712 30.8315 98.8218 31.0848 97.7053 31.0848H96.3197C95.2015 31.0848 94.1479 30.8315 93.3539 30.3714L74.4657 19.471C73.9776 19.1886 73.6165 18.8378 73.4084 18.4558L73.3396 43.3297Z" fill="#373B42"/>
<path d="M102.544 24.9721C103.315 25.4171 103.752 26.0226 103.756 26.6521L103.761 27.4602C103.764 28.0897 103.334 28.6948 102.568 29.1401L100.606 30.28C99.8373 30.727 98.7971 30.9765 97.707 30.9782L96.3149 30.9762C95.2251 30.9782 94.1787 30.7266 93.4076 30.2817L74.5212 19.3774C73.7503 18.9325 73.3129 18.327 73.3126 17.6958L73.3047 16.8894C73.3043 16.2582 73.7319 15.6547 74.501 15.2077L76.4622 14.0679C77.2283 13.6229 78.2715 13.3713 79.3583 13.3713H80.7538C81.8405 13.3713 82.8869 13.6226 83.6577 14.0679L102.544 24.9721Z" fill="white"/>
<path d="M97.7047 31.0857L96.3127 31.0839C96.3086 31.0839 96.3038 31.0839 96.2997 31.0839C95.1903 31.0839 94.1436 30.8324 93.3519 30.3747L74.4655 19.4705C73.6632 19.0074 73.2032 18.3608 73.2032 17.6961L73.1953 16.8907C73.195 16.214 73.6389 15.5835 74.445 15.1149L76.4059 13.9751C77.1839 13.5233 78.259 13.2642 79.3564 13.2642H80.7519C81.8492 13.2642 82.9274 13.5233 83.7099 13.9751L102.596 24.8793C103.397 25.3414 103.858 25.9873 103.861 26.6513L103.866 27.4595C103.87 28.1235 103.416 28.7701 102.62 29.2329L100.659 30.3727C99.87 30.8306 98.8213 31.0839 97.7047 31.0857ZM96.3123 30.869L97.7044 30.871C98.7833 30.869 99.794 30.6263 100.55 30.1872L102.511 29.0473C103.238 28.6243 103.654 28.0462 103.651 27.4608L103.646 26.6527C103.643 26.0667 103.221 25.4882 102.488 25.0652L83.6017 14.1609C82.8507 13.7276 81.8122 13.4788 80.7512 13.4788H79.3557C78.2956 13.4788 77.2592 13.7273 76.5137 14.1609L74.5528 15.3008C73.8152 15.7293 73.4092 16.2937 73.4096 16.8897L73.4174 17.6951C73.4174 18.2821 73.8385 18.8612 74.5723 19.285L93.4587 30.1892C94.208 30.6215 95.2427 30.8693 96.3004 30.8693C96.3045 30.869 96.3082 30.869 96.3123 30.869Z" fill="#373B42"/>
<path d="M78.2011 18.6008C78.2339 18.6282 78.2719 18.6498 78.3102 18.6717C79.46 19.3309 81.3131 19.3364 82.4577 18.6717C82.4957 18.6498 82.5285 18.6282 82.5614 18.6008C83.5643 17.9631 83.5588 16.9821 82.5669 16.3445C82.5289 16.3171 82.4905 16.29 82.4471 16.2681C81.297 15.6034 79.4388 15.5979 78.2942 16.2627C78.2613 16.2791 78.2343 16.301 78.2069 16.3171C77.1872 16.9606 77.1872 17.9577 78.2011 18.6008Z" fill="#373B42"/>
<path d="M80.3876 19.2722C79.6171 19.2722 78.8449 19.1031 78.2548 18.7646C78.2117 18.7399 78.1713 18.7163 78.1357 18.6875C77.6171 18.3565 77.3317 17.9205 77.332 17.4594C77.3324 16.9956 77.6223 16.5578 78.147 16.2265L78.1764 16.2077C78.1973 16.1933 78.2192 16.1789 78.2439 16.1669C79.4066 15.4902 81.3182 15.4926 82.4984 16.1755C82.5416 16.1967 82.5843 16.2265 82.6271 16.257C83.1361 16.5842 83.4185 17.0179 83.4175 17.4755C83.4161 17.9321 83.132 18.3641 82.6169 18.6913C82.5908 18.7146 82.5532 18.7396 82.509 18.7649C81.9265 19.1031 81.1577 19.2722 80.3876 19.2722ZM80.3554 15.8739C79.6257 15.8739 78.8983 16.0345 78.3459 16.3559C78.324 16.3672 78.3099 16.3768 78.2959 16.386L78.2589 16.4096C77.8013 16.6985 77.547 17.0723 77.5466 17.4598C77.5463 17.8465 77.7982 18.2196 78.2562 18.5102C78.2603 18.5126 78.2641 18.5154 78.2678 18.5188C78.2945 18.5417 78.3264 18.5592 78.3582 18.577C79.4816 19.2218 81.295 19.2219 82.4009 18.5787C82.4341 18.5599 82.4618 18.5417 82.4892 18.5185C82.952 18.2234 83.2004 17.8554 83.2018 17.4748C83.2028 17.0932 82.9554 16.7238 82.506 16.4346C82.468 16.4076 82.4344 16.3836 82.3961 16.3641C81.831 16.0372 81.0916 15.8739 80.3554 15.8739Z" fill="#373B42"/>
<path d="M94.4768 27.9965C94.5203 28.0293 94.5641 28.0563 94.6131 28.0837C95.7686 28.7485 97.6269 28.7485 98.7714 28.0837C98.7934 28.0728 98.8149 28.0564 98.8368 28.0399C99.8832 27.3968 99.8777 26.3884 98.8423 25.7401C98.8098 25.7182 98.7824 25.6966 98.7495 25.6802C97.605 25.0151 95.7467 25.0151 94.6021 25.6802C94.5586 25.7021 94.5203 25.7291 94.4823 25.7565C93.5068 26.3942 93.5068 27.3533 94.4768 27.9965Z" fill="#373B42"/>
<path d="M96.7001 28.687C95.9276 28.687 95.153 28.5169 94.5612 28.177C94.5102 28.1486 94.4636 28.1195 94.4167 28.0842C93.9173 27.7522 93.6432 27.3219 93.6445 26.8728C93.6462 26.4234 93.9232 25.9952 94.4256 25.6666C94.4646 25.6389 94.5074 25.6088 94.5564 25.5845C95.7229 24.9061 97.6321 24.9057 98.8055 25.5876C98.8274 25.5982 98.8524 25.6153 98.8784 25.6338L98.9034 25.6509C99.437 25.985 99.7313 26.4282 99.7293 26.8968C99.7276 27.3637 99.4311 27.8022 98.8948 28.1314C98.876 28.1462 98.8483 28.166 98.8209 28.1797C98.2393 28.5179 97.4709 28.687 96.7001 28.687ZM96.6751 25.2884C95.944 25.2884 95.2139 25.4503 94.658 25.7734C94.6135 25.796 94.58 25.82 94.5465 25.8439C94.1029 26.1339 93.8602 26.4984 93.8588 26.8735C93.8574 27.249 94.0987 27.6163 94.5376 27.9072C94.5396 27.9086 94.5413 27.9096 94.543 27.911C94.5827 27.9411 94.6221 27.9654 94.6666 27.9901C95.79 28.6363 97.6068 28.637 98.7185 27.9911C98.7411 27.9798 98.7572 27.9668 98.7733 27.9545C99.2525 27.6598 99.5126 27.286 99.514 26.8961C99.5157 26.5045 99.2573 26.1263 98.7863 25.8313L98.7548 25.8094C98.7377 25.7974 98.7216 25.7857 98.7031 25.7765C98.1428 25.451 97.4083 25.2884 96.6751 25.2884Z" fill="#373B42"/>
<path d="M78.1992 18.6008C78.2321 18.6281 78.2701 18.6497 78.3084 18.6716C79.4581 19.3309 81.3112 19.3363 82.4558 18.6716C82.4938 18.6497 82.5267 18.6281 82.5595 18.6008L82.565 16.3444L82.5869 8.07168C82.5924 6.40954 83.0665 5.1886 83.8838 4.72001C84.7176 4.25142 86.0255 4.45851 87.4809 5.29779C91.2956 7.5052 94.5168 13.0694 94.5004 17.4568L94.4785 25.7569L94.473 27.9969C94.5165 28.0297 94.5603 28.0568 94.6092 28.0842C95.7648 28.7489 97.623 28.7489 98.7676 28.0842C98.7895 28.0732 98.8111 28.0568 98.833 28.0403L98.8385 25.7405L98.8604 17.4678C98.8768 11.5165 94.8382 4.51327 89.6609 1.521C86.7943 -0.130532 83.9766 -0.34275 81.7312 0.932268C79.4804 2.2131 78.2379 4.74739 78.2269 8.06073L78.205 16.317L78.1992 18.6008Z" fill="#F0F2F5"/>
<path d="M96.6957 28.687C95.9232 28.687 95.1486 28.5169 94.5568 28.177C94.5048 28.1479 94.4572 28.1185 94.4096 28.0825C94.3829 28.0623 94.3668 28.0305 94.3668 27.9966L94.3942 17.4566C94.4107 13.1102 91.2206 7.58503 87.4284 5.39063C86.0107 4.57359 84.7385 4.36342 83.9375 4.81353C83.1537 5.2633 82.7009 6.45103 82.6954 8.0721L82.668 18.6008C82.668 18.6323 82.6536 18.6624 82.63 18.6826C82.5924 18.7141 82.5544 18.7395 82.5106 18.7645C81.3458 19.4412 79.4365 19.4412 78.2567 18.7641C78.2108 18.7381 78.1687 18.7131 78.1317 18.6823C78.1074 18.6621 78.0938 18.6316 78.0938 18.5998L78.1211 8.05978C78.1321 4.70229 79.3958 2.13788 81.6798 0.838214C83.9577 -0.455288 86.8117 -0.24615 89.7163 1.42695C94.921 4.43496 98.9856 11.4806 98.9695 17.4668L98.9418 28.0394C98.9418 28.0733 98.926 28.1048 98.899 28.1253C98.8716 28.1455 98.8442 28.1654 98.8168 28.179C98.235 28.5179 97.4665 28.687 96.6957 28.687ZM94.5815 27.9415C94.6075 27.9586 94.6338 27.9744 94.6622 27.9901C95.7856 28.6363 97.6024 28.637 98.7142 27.9911C98.719 27.9891 98.7227 27.9867 98.7265 27.9846L98.7542 17.4675C98.7703 11.5508 94.7526 4.58694 89.6081 1.61383C86.7713 -0.0202418 83.994 -0.22835 81.7852 1.02579C79.5714 2.28575 78.346 4.78443 78.3354 8.06149L78.308 18.5464C78.3251 18.557 78.3429 18.567 78.3604 18.5769C79.4838 19.2217 81.2972 19.2217 82.4031 18.5786C82.4212 18.5683 82.438 18.5584 82.4534 18.5474L82.4808 8.07142C82.4862 6.37128 82.9788 5.11577 83.8318 4.62664C84.7015 4.13752 86.0515 4.34836 87.5356 5.20442C91.3859 7.43236 94.6249 13.0435 94.6088 17.4569L94.5815 27.9415Z" fill="#373B42"/>
<path d="M84.2583 32.8099C85.3416 33.4352 86.2213 34.9591 86.2178 36.2095C86.2154 37.0867 85.7766 37.5995 85.1338 37.5991L86.0563 42.6735C86.1292 43.0836 85.8872 43.2982 85.5555 43.1065L82.9025 41.5748C82.5708 41.3835 82.3309 40.8906 82.4059 40.5661L83.354 36.5716C82.7132 35.8309 82.2789 34.8139 82.2813 33.9367C82.2847 32.6866 83.1705 32.1818 84.2583 32.8099Z" fill="#373B42"/>
<path d="M85.7886 43.2849C85.6992 43.2849 85.6017 43.2565 85.5038 43.2L82.8508 41.6683C82.4777 41.4527 82.2169 40.9163 82.3035 40.5425L83.2389 36.6004C82.5797 35.819 82.1734 34.8034 82.1758 33.9371C82.1778 33.2943 82.402 32.8123 82.8083 32.5785C83.2167 32.3434 83.751 32.3927 84.314 32.7179C85.4275 33.3607 86.3304 34.9273 86.327 36.2105C86.3246 37.0656 85.9115 37.6358 85.2632 37.7009L86.1637 42.6548C86.2089 42.9098 86.1493 43.1158 86.0008 43.2202C85.9385 43.2634 85.8663 43.2849 85.7886 43.2849ZM83.3769 32.647C83.2074 32.647 83.0517 32.686 82.9155 32.7644C82.579 32.9581 82.3925 33.3747 82.3907 33.9374C82.3883 34.7699 82.7895 35.7522 83.4374 36.5018C83.4597 36.5282 83.4686 36.5631 83.4604 36.5966L82.5123 40.5911C82.4472 40.8728 82.6683 41.3147 82.9583 41.4824L85.6113 43.0142C85.7191 43.0761 85.816 43.0874 85.8776 43.0443C85.9529 42.9912 85.982 42.8564 85.9525 42.6928L85.0304 37.6191C85.0249 37.5876 85.0335 37.5554 85.054 37.5311C85.0742 37.5064 85.1044 37.4924 85.1362 37.4924C85.1362 37.4924 85.1365 37.4924 85.1372 37.4924C85.7372 37.4924 86.111 37.0012 86.1131 36.2099C86.1165 34.9954 85.2611 33.512 84.2072 32.9034C83.9118 32.7333 83.6291 32.647 83.3769 32.647Z" fill="#373B42"/>
<g opacity="0.1">
<path d="M9.81071 99.4514L1.09896 94.3886C0.371953 93.9662 0.373665 92.9158 1.1017 92.4954L48.6022 65.0707C48.9417 64.8746 49.36 64.8753 49.6989 65.0721L59.2862 70.6438C60.0132 71.0662 60.0115 72.1167 59.2834 72.537L12.6599 99.4555C11.7781 99.9645 10.6914 99.9628 9.81071 99.4514Z" fill="black"/>
</g>
<path d="M0.65625 44.7742L46.0586 18.3887L50.0893 20.7159L4.68696 47.1014L0.65625 44.7742Z" fill="#F0F2F5"/>
<path d="M4.68931 47.2087C4.67083 47.2087 4.65235 47.2039 4.63557 47.1943L0.604521 44.8675C0.57132 44.8483 0.550781 44.8131 0.550781 44.7747C0.550781 44.7364 0.570978 44.7008 0.604179 44.6816L46.0068 18.2961C46.0404 18.2769 46.0811 18.2769 46.1146 18.2961L50.1453 20.6233C50.1786 20.6425 50.1991 20.6777 50.1991 20.7161C50.1991 20.7544 50.1789 20.7897 50.1457 20.8092L4.74339 47.1943C4.72662 47.2039 4.70779 47.2087 4.68931 47.2087ZM0.872527 44.774L4.68931 46.977L49.8773 20.7161L46.0609 18.5128L0.872527 44.774Z" fill="#373B42"/>
<path d="M53.7717 64.0869L8.37144 90.4728C7.9696 90.7076 7.40895 90.6737 6.79489 90.3211C5.57466 89.6164 4.57828 87.8957 4.58204 86.4937L4.68815 47.1026L50.0922 20.7168L49.9861 60.1078C49.9823 61.5098 50.9753 63.2302 52.1989 63.9353C52.813 64.2916 53.3702 64.3221 53.7717 64.0869Z" fill="#BEC4CD"/>
<path d="M7.78595 90.7312C7.46318 90.7312 7.10687 90.6248 6.7396 90.4139C5.48548 89.6897 4.4689 87.931 4.47267 86.493L4.57877 47.102C4.57877 47.064 4.59931 47.0288 4.63217 47.0093L50.0365 20.6238C50.0701 20.6046 50.1108 20.6046 50.1443 20.6238C50.1775 20.6429 50.1981 20.6785 50.1981 20.7168L50.0916 60.1079C50.0882 61.4794 51.0569 63.1546 52.2514 63.8419C52.808 64.165 53.3265 64.2194 53.7133 63.9956L53.7147 63.9949C53.715 63.9946 53.7157 63.9942 53.7164 63.9939C53.7681 63.9641 53.8335 63.9809 53.8632 64.0322C53.893 64.0832 53.8759 64.1489 53.8245 64.179C53.8245 64.179 53.8245 64.179 53.8245 64.1794L53.8225 64.1804C53.8222 64.1808 53.8222 64.1807 53.8215 64.1811L8.42328 90.5656C8.23366 90.6765 8.01802 90.7312 7.78595 90.7312ZM4.79338 47.1643L4.68728 86.4937C4.68351 87.8629 5.65217 89.538 6.84673 90.2281C7.40876 90.5509 7.93108 90.6046 8.31546 90.3797L53.1119 64.3447C52.8097 64.33 52.4811 64.2239 52.1436 64.0281C50.8902 63.3065 49.8732 61.5475 49.8767 60.1079L49.9828 20.9037L4.79338 47.1643Z" fill="#373B42"/>
<path d="M10.8915 89.8109L7.10685 87.6117L6.92578 24.1018L10.7104 26.301L10.8915 89.8109Z" fill="#F0F2F5"/>
<path d="M10.8935 89.9184C10.875 89.9184 10.8562 89.9137 10.8394 89.9041L7.05478 87.7045C7.02226 87.6854 7.00138 87.6501 7.00138 87.6118L6.82031 24.1019C6.82031 24.0635 6.84085 24.0279 6.87405 24.0088C6.9076 23.9896 6.94833 23.9896 6.98187 24.0088L10.7665 26.2083C10.7993 26.2275 10.8199 26.2627 10.8199 26.3011L11.0009 89.811C11.0009 89.8493 10.9804 89.8849 10.9472 89.9041C10.9304 89.9137 10.9119 89.9184 10.8935 89.9184ZM7.21633 87.5498L10.7856 89.6244L10.6049 26.363L7.03561 24.2884L7.21633 87.5498Z" fill="#373B42"/>
<path d="M10.7104 26.3008L6.92578 24.1016L48.4822 0.108643L52.2665 2.30783L10.7104 26.3008Z" fill="#DBDEE4"/>
<path d="M10.7124 26.4085C10.6939 26.4085 10.6751 26.4037 10.6583 26.3942L6.87371 24.1946C6.84051 24.1755 6.82031 24.1399 6.82031 24.1015C6.82031 24.0635 6.84085 24.0279 6.87405 24.0088L48.4301 0.0158409C48.4637 -0.00332717 48.5044 -0.00332717 48.5379 0.0158409L52.3229 2.21503C52.3561 2.2342 52.3763 2.2698 52.3763 2.30813C52.3763 2.34613 52.3558 2.38173 52.3226 2.40089L10.7661 26.3938C10.7494 26.4037 10.7309 26.4085 10.7124 26.4085ZM7.14206 24.1019L10.7124 26.1771L52.0546 2.30813L48.4839 0.233194L7.14206 24.1019Z" fill="#373B42"/>
<path d="M52.2631 2.30811L52.4445 65.8184L10.8881 89.8109L10.707 26.301L52.2631 2.30811Z" fill="white"/>
<path d="M10.894 89.9184C10.8755 89.9184 10.857 89.9136 10.8403 89.9041C10.8071 89.8849 10.7865 89.8496 10.7865 89.8113L10.6055 26.3014C10.6055 26.263 10.626 26.2274 10.6592 26.2083L52.2156 2.21535C52.2492 2.19618 52.2896 2.19618 52.3231 2.215C52.3563 2.23417 52.3768 2.26943 52.3768 2.30776L52.5579 65.8177C52.5579 65.856 52.5374 65.8916 52.5042 65.9108L10.9478 89.9037C10.931 89.9136 10.9125 89.9184 10.894 89.9184ZM10.8201 26.363L11.0008 89.6258L52.343 65.7564L52.1622 2.49362L10.8201 26.363Z" fill="#373B42"/>
<path d="M9.125 59.3088L54.5273 32.9233L58.5604 35.2519L13.1581 61.6371L9.125 59.3088Z" fill="#F0F2F5"/>
<path d="M13.1523 61.7441C13.1338 61.7441 13.1153 61.7393 13.0986 61.7298L9.06546 59.4012C9.03225 59.382 9.01172 59.3468 9.01172 59.3084C9.01172 59.2701 9.03191 59.2348 9.06477 59.2153L54.4671 32.8298C54.5006 32.8106 54.5414 32.8106 54.5749 32.8298L58.608 35.1584C58.6412 35.1776 58.6617 35.2128 58.6617 35.2511C58.6617 35.2895 58.6415 35.3251 58.6087 35.3442L13.2064 61.7294C13.1896 61.7393 13.1708 61.7441 13.1523 61.7441ZM9.33346 59.3081L13.1523 61.5127L58.3403 35.2518L54.5215 33.0472L9.33346 59.3081Z" fill="#373B42"/>
<path d="M13.1589 61.637L13.0531 91.3821C13.0418 95.341 10.2286 96.9442 6.78356 94.9548C3.3361 92.9645 0.543426 88.1245 0.554722 84.1656L0.660486 44.7739L4.6912 47.1011L4.58543 86.4928C4.58132 87.8969 5.57497 89.6148 6.79691 90.3203C8.01852 91.0257 9.01627 90.4572 9.02038 89.0532L9.12614 59.3081L13.1589 61.637Z" fill="#373B42"/>
<path d="M9.57913 95.9192C8.70118 95.9192 7.73081 95.6269 6.72793 95.0474C3.2524 93.0409 0.434051 88.1592 0.445346 84.1654L0.551111 44.7737C0.551111 44.7354 0.571649 44.7001 0.604851 44.681C0.638394 44.6621 0.67844 44.6618 0.711984 44.6813L4.74304 47.0082C4.77624 47.0273 4.79677 47.0629 4.79677 47.1013L4.69067 86.4933C4.6869 87.8631 5.65487 89.5383 6.84841 90.2277C7.40633 90.5501 7.9266 90.6052 8.31406 90.3827C8.69707 90.1623 8.90929 89.6899 8.911 89.0533L9.01711 59.3079C9.01711 59.2699 9.03765 59.2343 9.07085 59.2151C9.10439 59.1963 9.14478 59.196 9.17832 59.2155L13.2114 61.544C13.2446 61.5632 13.2652 61.5988 13.2652 61.6375L13.1591 91.3822C13.1536 93.3302 12.4824 94.7873 11.2693 95.4852C10.7651 95.7755 10.1949 95.9192 9.57913 95.9192ZM0.765379 44.9596L0.659957 84.1661C0.648661 88.0915 3.41909 92.8896 6.83506 94.8619C8.47254 95.8073 10.0087 95.9627 11.1615 95.2997C12.3054 94.6415 12.9386 93.2497 12.9434 91.3819L13.0492 61.6991L9.23035 59.4941L9.12527 89.054C9.12322 89.77 8.87301 90.3081 8.42051 90.5686C7.96528 90.8304 7.36902 90.776 6.74093 90.4132C5.48818 89.6896 4.47229 87.9309 4.47606 86.4926L4.58216 47.1629L0.765379 44.9596Z" fill="#373B42"/>
<path d="M58.4531 64.9967C58.4455 66.9635 57.7483 68.3501 56.6267 69.0021L11.2227 95.388C12.3481 94.7325 13.0453 93.3493 13.0491 91.3826L13.1552 61.6375L42.4887 44.5927L42.4737 38.1392C42.4699 36.9607 43.3034 35.5132 44.3343 34.9183L56.6688 27.798C57.6994 27.2031 58.5369 27.6844 58.5407 28.8629L58.4531 64.9967Z" fill="#4DA3C7"/>
<path d="M11.2285 95.4947C11.1915 95.4947 11.1556 95.4756 11.1357 95.4413C11.1059 95.3904 11.123 95.3246 11.1744 95.2948C12.3142 94.6308 12.9433 93.2411 12.9471 91.3818L13.0535 61.6368C13.0535 61.5988 13.0741 61.5635 13.1066 61.5444L42.3864 44.5307L42.3713 38.1391C42.3675 36.9237 43.226 35.4368 44.2854 34.8251L56.6198 27.7049C57.1534 27.3965 57.6624 27.3503 58.0509 27.5738C58.437 27.7963 58.6509 28.2536 58.653 28.8621L58.5657 64.997C58.5582 66.9395 57.8907 68.3952 56.6859 69.0949L11.2819 95.4807C11.2654 95.4903 11.247 95.4947 11.2285 95.4947ZM13.2678 61.6991L13.1617 91.3825C13.1593 92.7777 12.8125 93.9226 12.168 94.7174L56.5781 68.909C57.7144 68.2491 58.3442 66.8594 58.3514 64.9963L58.4387 28.8625C58.437 28.334 58.2614 27.9424 57.9444 27.76C57.6241 27.5758 57.1925 27.6227 56.7276 27.8907L44.3932 35.011C43.3934 35.5884 42.5828 36.9915 42.5866 38.1388L42.6017 44.5923C42.6017 44.6306 42.5815 44.6662 42.5483 44.6854L13.2678 61.6991Z" fill="#373B42"/>
<path d="M57.9929 27.6708C57.6572 27.4712 57.1852 27.5003 56.6646 27.7974L44.3342 34.9163C43.8475 35.1987 43.4097 35.6707 43.0787 36.2108C42.709 36.8191 42.4705 37.5149 42.4705 38.1427L42.49 44.527L38.5195 42.2255L38.5 35.8316C38.5 35.209 38.7386 34.5127 39.1082 33.9045C39.4392 33.3644 39.877 32.8924 40.3637 32.6151L52.6941 25.4911C53.2147 25.1943 53.6867 25.1601 54.0225 25.36L57.9929 27.6708Z" fill="#F0F2F5"/>
<path d="M42.4923 44.6338C42.4738 44.6338 42.455 44.629 42.4386 44.6194L38.4681 42.3179C38.4349 42.2987 38.4144 42.2635 38.4144 42.2255L38.3945 35.8316C38.3945 35.2144 38.6163 34.5103 39.0182 33.8483C39.3765 33.2641 39.8359 32.7931 40.3123 32.5213L52.642 25.398C53.1879 25.0868 53.6979 25.0406 54.0789 25.2672L58.0336 27.5694C58.0391 27.5725 58.0442 27.5756 58.0497 27.5787C58.1004 27.6088 58.1172 27.6745 58.0874 27.7255C58.0569 27.7765 57.9919 27.7936 57.9405 27.7635L57.9268 27.7556C57.6136 27.5773 57.1858 27.6249 56.7196 27.8905L44.3899 35.009C43.9429 35.2685 43.5103 35.7148 43.1721 36.2669C42.7901 36.8954 42.58 37.5615 42.58 38.1423L42.5995 44.526C42.5995 44.5647 42.5793 44.5999 42.5457 44.6191C42.5296 44.629 42.5108 44.6338 42.4923 44.6338ZM38.629 42.1628L42.3845 44.3401L42.3653 38.143C42.3653 37.5228 42.5871 36.817 42.989 36.1554C43.3456 35.5735 43.805 35.1008 44.2825 34.8239L56.6128 27.705C56.8825 27.5513 57.1434 27.463 57.3853 27.4407L53.9701 25.4524C53.6579 25.2672 53.2239 25.3134 52.7488 25.5842L40.4191 32.7078C39.9731 32.9622 39.5408 33.4068 39.2013 33.9606C38.8248 34.5798 38.6088 35.2616 38.6088 35.8316L38.629 42.1628Z" fill="#373B42"/>
<path d="M43.0787 36.2106C42.709 36.8189 42.4705 37.5147 42.4705 38.1425L42.49 44.5268L38.5195 42.2253L38.5 35.8314C38.5 35.2088 38.7386 34.5125 39.1082 33.9043" fill="#DBDEE4"/>
<path d="M42.4923 44.6339C42.4738 44.6339 42.455 44.6291 42.4386 44.6196L38.4681 42.318C38.4349 42.2989 38.4144 42.2636 38.4144 42.2256L38.3945 35.8317C38.3945 35.2145 38.6163 34.5105 39.0182 33.8485C39.0493 33.7975 39.1147 33.7824 39.1657 33.8125C39.2164 33.8433 39.2324 33.9094 39.2016 33.9601C38.8248 34.5796 38.6088 35.2618 38.6088 35.8313L38.6287 42.1633L42.3842 44.3406L42.365 38.1435C42.365 37.5233 42.5868 36.8175 42.9886 36.1558C43.0191 36.1048 43.0855 36.0894 43.1362 36.1199C43.1868 36.1507 43.2029 36.2168 43.1721 36.2674C42.7898 36.8962 42.5793 37.5623 42.5793 38.1435L42.5988 44.5271C42.5988 44.5658 42.5786 44.6011 42.545 44.6202C42.5296 44.6291 42.5108 44.6339 42.4923 44.6339Z" fill="#373B42"/>
<path d="M19.946 34.2056C22.0715 32.9785 23.9733 33.0049 25.2209 34.0492C23.9832 36.5222 22.0876 38.7412 19.9624 39.9683C17.8368 41.1954 15.9351 41.1691 14.6875 40.1309C15.9252 37.6514 17.8204 35.4327 19.946 34.2056Z" fill="#4DA3C7"/>
<path d="M19.9302 27.5652C21.2504 26.8029 22.3248 27.4122 22.3292 28.9323C22.3337 30.4493 21.2661 32.2983 19.9459 33.0606C18.6258 33.8229 17.5513 33.2105 17.5469 31.6935C17.5424 30.1734 18.61 28.3275 19.9302 27.5652Z" fill="#DBDEE4"/>
<path d="M16.9162 41.0099C16.0454 41.0099 15.2637 40.7453 14.6267 40.2144C13.6146 39.3741 13.0549 37.9084 13.0508 36.0871C13.0382 31.7496 16.0971 26.4493 19.8694 24.2714C21.7253 23.1993 23.4754 23.0282 24.7986 23.7891C26.1123 24.5448 26.8393 26.1279 26.8455 28.2463C26.8492 30.0557 26.3081 32.134 25.3216 34.0977C24.0227 36.6912 22.0912 38.8654 20.0221 40.0621C18.9281 40.6932 17.8684 41.0099 16.9162 41.0099ZM22.9719 23.5358C22.0559 23.5358 21.0359 23.8452 19.9766 24.4569C16.2635 26.6006 13.2528 31.8178 13.2651 36.0864C13.2689 37.843 13.8011 39.2502 14.7636 40.0491C16.0252 41.0995 17.9016 41.0369 19.9146 39.8762C21.9481 38.7001 23.8488 36.5588 25.1293 34.0015C26.101 32.0669 26.6339 30.0231 26.6305 28.2467C26.6247 26.208 25.936 24.6907 24.6908 23.9749C24.1811 23.6816 23.601 23.5358 22.9719 23.5358Z" fill="#373B42"/>
<path d="M28.7439 22.1038C28.3616 22.3245 28.0522 22.1482 28.0508 21.7115C28.0494 21.2723 28.3568 20.7401 28.7391 20.5197L48.8704 8.8624C49.2507 8.64299 49.5622 8.8179 49.5632 9.25705C49.5646 9.69381 49.2551 10.2271 48.8749 10.4468L28.7439 22.1038Z" fill="#BEC4CD"/>
<path d="M28.7439 27.949C28.3616 28.1697 28.0522 27.9935 28.0508 27.5567C28.0494 27.1176 28.3568 26.5853 28.7391 26.3649L48.8704 14.7076C49.2507 14.4882 49.5622 14.6631 49.5632 15.1023C49.5646 15.539 49.2551 16.0723 48.8749 16.2921L28.7439 27.949Z" fill="#BEC4CD"/>
<path d="M28.7439 33.7943C28.3616 34.0151 28.0522 33.8388 28.0508 33.402C28.0494 32.9629 28.3568 32.4306 28.7391 32.2102L48.8704 20.5526C49.2507 20.3332 49.5622 20.5081 49.5632 20.9472C49.5646 21.384 49.2551 21.9173 48.8749 22.137L28.7439 33.7943Z" fill="#BEC4CD"/>
<path d="M52.5464 52.882C53.1029 52.5606 53.5592 52.8177 53.5609 53.4602L53.5756 58.6564C53.5773 59.2989 53.1241 60.081 52.5676 60.4024L20.7402 78.6733C20.1809 78.9961 19.7274 78.7377 19.7257 78.0952L19.7109 72.899C19.7092 72.2565 20.1597 71.4757 20.719 71.153L52.5464 52.882Z" fill="white"/>
<path d="M25.7534 69.969H25.3242V74.3229H25.7534V69.969Z" fill="#1FB6FF"/>
<path d="M27.3364 70.8635L23.5469 73.0508L23.7614 73.4225L27.551 71.2353L27.3364 70.8635Z" fill="#1FB6FF"/>
<path d="M26.692 69.7272L24.0195 74.3521L24.3909 74.5666L27.0633 69.9418L26.692 69.7272Z" fill="#1FB6FF"/>
<path d="M24.31 71.1934L24.0977 71.5664L26.7869 73.0971L26.9992 72.7241L24.31 71.1934Z" fill="#1FB6FF"/>
<path d="M31.3003 66.7927H30.8711V71.1466H31.3003V66.7927Z" fill="#1FB6FF"/>
<path d="M32.8833 67.6945L29.0938 69.8818L29.3083 70.2536L33.0978 68.0663L32.8833 67.6945Z" fill="#1FB6FF"/>
<path d="M32.239 66.5511L29.5664 71.1763L29.9377 71.3908L32.6103 66.7657L32.239 66.5511Z" fill="#1FB6FF"/>
<path d="M29.8451 68.0154L29.6328 68.3884L32.3214 69.919L32.5337 69.546L29.8451 68.0154Z" fill="#1FB6FF"/>
<path d="M36.855 63.6008H36.4258V67.9547H36.855V63.6008Z" fill="#1FB6FF"/>
<path d="M38.4301 64.4992L34.6406 66.6865L34.8552 67.0583L38.6447 64.871L38.4301 64.4992Z" fill="#1FB6FF"/>
<path d="M37.7978 63.3613L35.125 67.9858L35.4963 68.2005L38.1691 63.5759L37.7978 63.3613Z" fill="#1FB6FF"/>
<path d="M35.3998 64.8215L35.1875 65.1946L37.8767 66.725L38.089 66.352L35.3998 64.8215Z" fill="#1FB6FF"/>
<path d="M42.3941 60.4312H41.9648V64.785H42.3941V60.4312Z" fill="#1FB6FF"/>
<path d="M43.9848 61.3299L40.1953 63.5176L40.4099 63.8893L44.1994 61.7016L43.9848 61.3299Z" fill="#1FB6FF"/>
<path d="M43.3324 60.1899L40.6602 64.8145L41.0315 65.029L43.7037 60.4045L43.3324 60.1899Z" fill="#1FB6FF"/>
<path d="M40.9467 61.6516L40.7344 62.0247L43.4236 63.5551L43.6359 63.182L40.9467 61.6516Z" fill="#1FB6FF"/>
<path d="M47.9448 57.2351H47.5156V61.589H47.9448V57.2351Z" fill="#1FB6FF"/>
<path d="M49.5317 58.1336L45.7422 60.3213L45.9568 60.693L49.7463 58.5053L49.5317 58.1336Z" fill="#1FB6FF"/>
<path d="M48.8878 56.9906L46.2148 61.6155L46.5862 61.8301L49.2591 57.2052L48.8878 56.9906Z" fill="#1FB6FF"/>
<path d="M46.4975 58.4664L46.2852 58.8394L48.9737 60.3702L49.1861 59.9972L46.4975 58.4664Z" fill="#1FB6FF"/>
<g opacity="0.1">
<path d="M95.3771 93.9456C91.2146 96.3614 85.0323 96.9067 79.9494 95.5731L55.5488 109.753C55.2805 109.91 54.9098 110 54.5261 110H48.9616C48.7699 110 48.5995 109.957 48.4759 109.885C48.3523 109.812 48.25 109.706 48.25 109.595L48.2541 106.425C48.2541 106.208 48.5608 106.033 48.9359 106.033H51.9737C52.3485 106.033 52.6511 105.854 52.6511 105.637L52.6425 103.647C52.6425 103.541 52.7151 103.439 52.8386 103.366L53.4137 103.034C53.5458 102.957 53.7203 102.919 53.8953 102.919H57.3335C57.7083 102.919 58.0109 102.74 58.0109 102.523L58.0023 100.533C58.0023 100.426 58.0749 100.324 58.1984 100.252L58.7735 99.9191C58.9056 99.8425 59.0801 99.7997 59.2592 99.7997H62.6933C63.0681 99.7997 63.3706 99.6251 63.3751 99.4078L63.3624 97.4181C63.3624 97.3116 63.435 97.2093 63.5585 97.137L73.0767 91.6067C70.7547 88.6624 71.6751 85.0838 75.8376 82.6634C81.1974 79.549 89.9146 79.5445 95.3172 82.6634C100.711 85.7776 100.737 90.8307 95.3771 93.9456Z" fill="black"/>
</g>
<path d="M94.2392 80.61L94.2292 83.4838C94.2309 82.9191 93.8582 82.3536 93.112 81.9227C91.6258 81.0645 89.2288 81.0645 87.7557 81.921C87.0242 82.3461 86.6576 82.9023 86.6562 83.4599L86.6662 80.586C86.6679 80.0284 87.0341 79.4722 87.7656 79.0471C89.2388 78.191 91.6358 78.191 93.1219 79.0488C93.8681 79.4798 94.2409 80.0452 94.2392 80.61Z" fill="#373B42"/>
<path d="M94.227 83.5915C94.227 83.5915 94.227 83.5915 94.2267 83.5915C94.1674 83.5911 94.1199 83.5429 94.1199 83.484C94.1212 82.9343 93.7433 82.4126 93.056 82.0156C91.6034 81.177 89.2485 81.176 87.8078 82.0139C87.1356 82.4041 86.7642 82.9168 86.7615 83.4573V83.4604C86.7615 83.5196 86.7132 83.5672 86.654 83.5672C86.654 83.5672 86.654 83.5672 86.6537 83.5672C86.5945 83.5668 86.5469 83.5189 86.5469 83.4597V83.4594V83.4587C86.5469 83.458 86.5469 83.4576 86.5469 83.4573L86.5565 80.5855C86.5582 79.9646 86.9675 79.3851 87.7093 78.9542C89.2105 78.082 91.6616 78.0827 93.1735 78.9559C93.9302 79.393 94.3458 79.9804 94.3447 80.6102V80.6105L94.3348 83.4843C94.3345 83.5436 94.2862 83.5915 94.227 83.5915ZM90.4249 81.1746C91.4152 81.1746 92.4064 81.393 93.1632 81.8297C93.6034 82.0837 93.9278 82.3887 94.1223 82.7234L94.1298 80.6095C94.1312 80.0598 93.7529 79.5385 93.066 79.1414C91.6127 78.3025 89.2581 78.3018 87.8171 79.1397C87.1438 79.5306 86.7724 80.0444 86.7707 80.5862L86.7635 82.6981C86.9559 82.3726 87.2729 82.0755 87.6993 81.828C88.4493 81.3923 89.4364 81.1746 90.4249 81.1746Z" fill="#373B42"/>
<path d="M76.2691 87.7407C75.4846 87.1917 74.8449 86.5968 74.352 85.9725C73.5168 84.9145 73.1006 83.7736 73.1037 82.6338L73.0938 86.1765C73.0907 87.3163 73.5066 88.4575 74.3421 89.5151C74.837 90.1418 75.4802 90.7395 76.2691 91.2906V87.7407Z" fill="#373B42"/>
<path d="M76.2672 91.398C76.2457 91.398 76.2241 91.3915 76.2056 91.3788C75.4197 90.8301 74.7636 90.2257 74.256 89.5818C73.4208 88.5245 72.9813 87.3467 72.9844 86.1764L72.9943 82.6337C72.9943 82.5745 73.0426 82.5266 73.1018 82.5266H73.1021C73.1613 82.527 73.2089 82.5752 73.2089 82.6341V82.6344C73.2055 83.7558 73.6292 84.887 74.4343 85.9063C74.9265 86.5297 75.5635 87.1174 76.3285 87.653C76.3569 87.6729 76.3743 87.7058 76.3743 87.741V91.2909C76.3743 91.3309 76.3521 91.3675 76.3165 91.386C76.3011 91.3939 76.2843 91.398 76.2672 91.398ZM73.2048 84.0505L73.199 86.1768C73.1956 87.2984 73.6193 88.4297 74.4244 89.4487C74.8827 90.0292 75.4656 90.5782 76.1597 91.0824V87.7965C75.3982 87.2577 74.7608 86.6666 74.2659 86.0392C73.7689 85.4097 73.4119 84.7378 73.2048 84.0505Z" fill="#373B42"/>
<path d="M96.6519 88.312C92.4901 90.7306 86.3085 91.2735 81.2266 89.9399C79.7592 89.5549 78.3836 89.0137 77.175 88.3158C77.1713 88.3137 77.1678 88.3113 77.1641 88.3093V91.8581L77.1648 91.8585C78.3737 92.5564 79.749 93.0975 81.2163 93.4826C86.2982 94.8162 92.4798 94.2733 96.6416 91.8547C99.3052 90.3069 100.639 88.2809 100.645 86.2521L100.655 82.7095C100.649 84.7382 99.3159 86.7639 96.6519 88.312Z" fill="#BEC4CD"/>
<path d="M86.8727 94.2956C84.9453 94.296 83.0059 94.0642 81.1874 93.5871C79.6724 93.1897 78.2999 92.6397 77.1091 91.952C77.0759 91.9328 77.0547 91.8969 77.0547 91.8586V88.3097C77.0547 88.2717 77.0749 88.2365 77.1074 88.2173C77.1399 88.1981 77.181 88.1975 77.2138 88.2159C78.4002 88.9009 79.7546 89.4437 81.2521 89.837C86.4284 91.1949 92.5946 90.5452 96.5959 88.22C99.137 86.7431 100.54 84.7862 100.546 82.7099C100.546 82.6507 100.594 82.6028 100.653 82.6028C100.653 82.6028 100.653 82.6028 100.654 82.6028C100.713 82.6031 100.76 82.6514 100.76 82.7103L100.75 86.2529C100.744 88.409 99.3033 90.4316 96.6938 91.9482C94.0544 93.4817 90.4855 94.2956 86.8727 94.2956ZM77.2693 91.7963C78.4317 92.4599 79.7676 92.9925 81.2422 93.3793C86.4178 94.7372 92.5843 94.0879 96.586 91.7624C99.1271 90.2857 100.53 88.3289 100.536 86.2522L100.542 84.1393C100.047 85.7494 98.7269 87.2291 96.704 88.4052C92.6562 90.7567 86.4253 91.4156 81.1977 90.0441C79.7447 89.6628 78.4242 89.1418 77.2693 88.4942V91.7963Z" fill="#373B42"/>
<path d="M81.2288 89.9385L81.2192 93.4829L56.819 107.666C56.5486 107.82 56.1816 107.912 55.7952 107.912H50.2324C50.0394 107.912 49.8703 107.864 49.7447 107.796C49.6191 107.724 49.5465 107.622 49.5465 107.516L49.5273 104.338V103.972C49.5321 104.054 49.59 104.131 49.6721 104.194C49.6964 104.218 49.7252 104.232 49.7543 104.252C49.8799 104.324 50.049 104.368 50.242 104.368H55.8048C56.1912 104.368 56.5582 104.276 56.8286 104.121L81.2288 89.9385Z" fill="#DBDEE4"/>
<path d="M55.7936 108.019H50.2305C50.0368 108.019 49.8458 107.974 49.6918 107.89C49.5295 107.797 49.4378 107.661 49.4378 107.516L49.418 103.971C49.418 103.913 49.4642 103.866 49.522 103.864C49.5806 103.859 49.6285 103.907 49.6326 103.965C49.635 104.008 49.6723 104.06 49.7353 104.108C49.7551 104.126 49.7685 104.135 49.7852 104.145L49.8119 104.162C49.9198 104.224 50.0734 104.26 50.2398 104.26H55.8029C56.1613 104.26 56.5152 104.175 56.7733 104.028L81.1725 89.8454C81.206 89.8263 81.2467 89.8263 81.2803 89.8454C81.3135 89.8646 81.334 89.9002 81.334 89.9385L81.3244 93.4829C81.3244 93.5209 81.3039 93.5562 81.271 93.5757L56.8711 107.758C56.5768 107.927 56.1938 108.019 55.7936 108.019ZM49.6326 104.302V104.338L49.6524 107.515C49.6524 107.582 49.7048 107.65 49.7965 107.703C49.9167 107.768 50.0721 107.804 50.2305 107.804H55.7936C56.152 107.804 56.5059 107.72 56.764 107.572L81.1102 93.421L81.1194 90.1251L56.8811 104.214C56.5864 104.382 56.2037 104.475 55.8032 104.475H50.2401C50.0337 104.475 49.8465 104.43 49.699 104.344L49.6723 104.328C49.6596 104.32 49.6466 104.311 49.6326 104.302Z" fill="#373B42"/>
<path d="M96.5933 77.0307C96.1699 76.7876 95.7308 76.56 95.2684 76.3564C89.8507 73.9299 82.0536 74.1572 77.1103 77.0307C72.9513 79.4493 72.0336 83.0286 74.3546 85.9726L64.8364 91.5039C64.7112 91.5744 64.6403 91.6764 64.6403 91.7822L64.6482 93.7736C64.6482 93.9893 64.3463 94.1655 63.9701 94.1655H60.536C60.3556 94.1655 60.1794 94.2087 60.0537 94.2829L59.4773 94.6163C59.3517 94.691 59.2812 94.7926 59.2774 94.8987L59.2891 96.8864C59.2891 97.1058 58.9834 97.2824 58.611 97.2824H55.1731C54.9969 97.2824 54.8202 97.3214 54.6909 97.4001L54.1145 97.7332C53.9888 97.8078 53.9183 97.9057 53.9183 98.0115L53.93 100.003C53.9259 100.223 53.6243 100.399 53.2478 100.399H50.2135C49.837 100.399 49.5313 100.575 49.5313 100.791L49.5234 103.958C49.5234 104.068 49.6292 104.178 49.7507 104.249C49.7938 104.276 49.8448 104.296 49.8996 104.315C49.9975 104.347 50.1152 104.366 50.2368 104.366H55.7995C56.1877 104.366 56.556 104.276 56.8226 104.119L81.2252 89.94C86.3095 91.2729 92.4877 90.728 96.6508 88.309C102.011 85.1963 101.988 80.1472 96.5933 77.0307ZM93.1397 82.1465C91.6658 83.0049 89.2706 83.0049 87.7847 82.1465C86.2989 81.2918 86.291 79.9001 87.7652 79.0457C89.2391 78.191 91.6344 78.191 93.1202 79.0457C94.606 79.9042 94.6139 81.2918 93.1397 82.1465Z" fill="#BEC4CD"/>
<path d="M55.8012 104.473H50.2388C50.1114 104.473 49.9834 104.454 49.8688 104.417C49.8089 104.396 49.7493 104.373 49.6952 104.339C49.523 104.24 49.418 104.096 49.418 103.959L49.4255 100.791C49.4255 100.511 49.7722 100.292 50.2148 100.292H53.2495C53.5849 100.292 53.8218 100.138 53.8242 100.001L53.8125 98.0124C53.8125 97.8679 53.9005 97.7362 54.0607 97.6413L54.6384 97.3073C54.7781 97.2227 54.9688 97.1751 55.1741 97.1751H58.612C58.9485 97.1751 59.1829 97.0228 59.1829 96.8866L59.1713 94.8996C59.1771 94.7514 59.2688 94.6166 59.4235 94.5248L60.0013 94.1908C60.142 94.1072 60.3378 94.0586 60.537 94.0586H63.9711C64.3076 94.0586 64.542 93.9087 64.542 93.7739L64.5341 91.7828C64.5341 91.6352 64.6255 91.4997 64.7854 91.4104L74.1957 85.9413C73.1963 84.6283 72.8133 83.1808 73.0861 81.7469C73.4366 79.9082 74.8098 78.245 77.0572 76.9381C81.9631 74.0869 89.8117 73.7942 95.3135 76.2587C95.7526 76.4521 96.1891 76.6742 96.6477 76.9378C96.6481 76.9378 96.6481 76.9378 96.6481 76.9381C99.2994 78.4702 100.761 80.5126 100.763 82.6899C100.766 84.8528 99.325 86.8812 96.7073 88.4024C92.6701 90.7477 86.4614 91.4104 81.2433 90.0556L56.879 104.213C56.5922 104.38 56.2095 104.473 55.8012 104.473ZM50.2148 100.506C49.8859 100.506 49.6401 100.656 49.6401 100.791L49.6326 103.959C49.6326 104.014 49.7055 104.097 49.8065 104.156C49.8455 104.18 49.892 104.198 49.9372 104.214C50.0265 104.242 50.1347 104.259 50.2388 104.259H55.8012C56.1664 104.259 56.5193 104.174 56.7698 104.027L81.1731 89.8471C81.1978 89.8331 81.2272 89.829 81.2546 89.8362C86.4303 91.193 92.5968 90.542 96.5988 88.2161C99.1484 86.7354 100.551 84.7727 100.548 82.6899C100.546 80.5927 99.1227 78.616 96.5409 77.124C96.0884 76.8645 95.6585 76.6455 95.2259 76.4548C89.7802 74.0154 82.0162 74.3036 77.1647 77.1237C74.9724 78.3983 73.6347 80.0112 73.2962 81.787C73.0282 83.1934 73.4236 84.6177 74.4391 85.9061C74.4583 85.9307 74.4658 85.9618 74.46 85.9927C74.4545 86.0231 74.4357 86.0498 74.409 86.0652L64.8912 91.5969C64.7998 91.6479 64.7481 91.7153 64.7481 91.7824L64.756 93.7735C64.756 94.0538 64.4109 94.2732 63.9704 94.2732H60.5363C60.3771 94.2732 60.2173 94.3116 60.1091 94.3756L59.5314 94.7093C59.4417 94.7627 59.3876 94.8336 59.3852 94.9027L59.3969 96.8856C59.3969 97.1683 59.0518 97.3894 58.6113 97.3894H55.1734C55.0091 97.3894 54.8541 97.4264 54.7473 97.4914L54.1688 97.8258C54.1165 97.857 54.0268 97.9234 54.0268 98.0114L54.0384 100.002C54.033 100.286 53.6862 100.506 53.2491 100.506H50.2148ZM90.4671 82.8943C89.4783 82.8943 88.4877 82.6762 87.732 82.2391C86.9765 81.8048 86.5593 81.2191 86.5586 80.5907C86.5572 79.9663 86.967 79.3848 87.7121 78.9528C89.2116 78.0831 91.6614 78.0831 93.1742 78.9525C93.9303 79.3896 94.3472 79.9763 94.3476 80.6044C94.3479 81.227 93.9386 81.8079 93.1941 82.2391C92.4442 82.6759 91.4567 82.8943 90.4671 82.8943ZM90.4391 78.512C89.4889 78.512 88.5401 78.7208 87.8196 79.1384C87.1439 79.5303 86.7719 80.0458 86.7732 80.5903C86.7739 81.139 87.1525 81.6586 87.8391 82.0533C89.2907 82.8926 91.6453 82.8932 93.0863 82.0536C93.0863 82.0533 93.0863 82.0533 93.0866 82.0533C93.7616 81.6617 94.1333 81.1472 94.133 80.6044C94.1326 80.056 93.7541 79.5354 93.0671 79.1384C92.3411 78.7208 91.3892 78.512 90.4391 78.512Z" fill="#373B42"/>
<path d="M97.3554 79.376C96.8221 78.8037 96.1324 78.2666 95.2972 77.7844C90.6285 75.0871 83.0508 75.0834 78.4132 77.7803C73.7718 80.4775 73.7992 84.8639 78.4679 87.5611C79.6245 88.2313 80.9611 88.7334 82.3919 89.0706C86.7159 90.0937 91.8628 89.5881 95.3517 87.5611C99.1626 85.3465 99.8253 81.9948 97.3554 79.376ZM94.4624 87.048C92.2828 88.3141 89.3782 88.9142 86.5085 88.8474C83.9095 88.7926 81.338 88.1967 79.3541 87.048C75.1752 84.6332 75.1519 80.7089 79.3031 78.2944C83.4546 75.8833 90.2325 75.8833 94.4114 78.2985C96.1009 79.2747 97.1086 80.4939 97.4379 81.7638C97.9277 83.6334 96.9361 85.609 94.4624 87.048Z" fill="white"/>
<path d="M41.5697 71.1213C42.0838 70.8245 42.5024 71.0631 42.5042 71.6522C42.5059 72.243 42.09 72.9635 41.5759 73.2602C41.0649 73.5553 40.6459 73.3167 40.6445 72.7259C40.6425 72.1368 41.0587 71.4163 41.5697 71.1213Z" fill="white"/>
<path d="M37.5658 73.434C38.0799 73.1373 38.4985 73.3758 38.5002 73.9649C38.502 74.5557 38.0861 75.2762 37.572 75.573C37.061 75.868 36.6423 75.6295 36.6406 75.0387C36.6386 74.4496 37.0548 73.7291 37.5658 73.434Z" fill="white"/>
<path d="M33.5619 75.7468C34.076 75.45 34.4946 75.6886 34.4963 76.2777C34.4981 76.8685 34.0822 77.589 33.5681 77.8857C33.057 78.1808 32.6384 77.9422 32.6367 77.3514C32.635 76.7623 33.0509 76.0418 33.5619 75.7468Z" fill="white"/>
</svg>

