<svg xmlns="http://www.w3.org/2000/svg" version="1.1" xmlns:xlink="http://www.w3.org/1999/xlink" width="512" height="512" x="0" y="0" viewBox="0 0 681 681.336" style="enable-background:new 0 0 512 512" xml:space="preserve" class=""><g><path d="m498.617 54.973 32.477-7.422c10.36-2.364 16.836-12.68 14.468-23.043-2.363-10.356-12.68-16.84-23.035-14.469l-78.422 17.914c-10.355 2.371-16.84 12.688-14.468 23.043l17.914 78.422c2.035 8.918 9.965 14.953 18.738 14.953 1.418 0 2.86-.156 4.3-.484 10.356-2.367 16.84-12.684 14.47-23.043l-7.723-33.817c85.734 58.22 132.863 159.106 121.226 263.465-8.308 74.563-45.156 141.418-103.757 188.262-50.27 40.187-111.387 61.52-174.825 61.516-10.5 0-21.07-.586-31.66-1.766-10.57-1.18-20.074 6.434-21.254 16.988-1.18 10.563 6.43 20.074 16.989 21.254a324.603 324.603 0 0 0 36 2.008c72.125-.008 141.617-24.254 198.777-69.95 66.621-53.257 108.523-129.277 117.973-214.046 13.246-118.801-40.485-233.64-138.188-299.785zM188.02 505.535c-2.364-10.355-12.684-16.836-23.043-14.469-10.356 2.371-16.832 12.68-14.47 23.043l8.141 35.63C74.742 491.233 28.808 391.44 40.313 288.261 48.62 213.699 85.469 146.844 144.07 100 202.668 53.16 276 31.945 350.56 40.25c10.562 1.195 20.07-6.43 21.25-16.988 1.175-10.563-6.426-20.074-16.989-21.254-84.773-9.453-168.152 14.676-234.78 67.941C53.417 123.207 11.522 199.227 2.073 283.996-10.949 400.77 40.742 513.72 135.304 580.36l-30.827 7.043c-10.356 2.364-16.84 12.68-14.47 23.043 2.036 8.91 9.962 14.953 18.74 14.953 1.417 0 2.858-.156 4.3-.484L191.465 607c10.36-2.371 16.836-12.688 14.469-23.043zm0 0" fill="#1C1B1F" opacity="1" data-original="#000000" class=""></path><path d="M153.797 449.59h333.578c10.625 0 19.238-8.613 19.238-19.238V216.934L333.54 374.48a19.206 19.206 0 0 1-12.953 5.008 19.21 19.21 0 0 1-12.95-5.008L134.564 216.934v213.418c0 10.625 8.613 19.238 19.234 19.238zm0 0" fill="#1C1B1F" opacity="1" data-original="#000000" class=""></path><path d="M479.934 189.195H161.246l159.34 145.04zm0 0" fill="#1C1B1F" opacity="1" data-original="#000000" class=""></path></g></svg>