<svg xmlns="http://www.w3.org/2000/svg" width="20" height="20" viewBox="0 0 20 20" fill="none">
  <mask id="mask0_6592_11171" style="mask-type:alpha" maskUnits="userSpaceOnUse" x="0" y="0" width="20" height="20">
    <rect width="20" height="20" fill="#D9D9D9"/>
  </mask>
  <g mask="url(#mask0_6592_11171)">
    <path d="M18.6165 17.29L14.9064 13.5783C16.0188 12.1286 16.5382 10.3101 16.3591 8.49165C16.1801 6.67318 15.316 4.99089 13.9422 3.78607C12.5684 2.58124 10.7878 1.94408 8.96147 2.00385C7.13517 2.06363 5.4 2.81584 4.10792 4.10792C2.81584 5.4 2.06363 7.13517 2.00385 8.96147C1.94408 10.7878 2.58124 12.5684 3.78607 13.9422C4.99089 15.316 6.67318 16.1801 8.49165 16.3591C10.3101 16.5382 12.1286 16.0188 13.5783 14.9064L17.2915 18.6204C17.3787 18.7077 17.4823 18.7768 17.5962 18.824C17.7102 18.8712 17.8323 18.8955 17.9556 18.8955C18.0789 18.8955 18.2011 18.8712 18.315 18.824C18.4289 18.7768 18.5325 18.7077 18.6197 18.6204C18.7069 18.5332 18.7761 18.4297 18.8232 18.3158C18.8704 18.2018 18.8947 18.0797 18.8947 17.9564C18.8947 17.8331 18.8704 17.7109 18.8232 17.597C18.7761 17.4831 18.7069 17.3795 18.6197 17.2923L18.6165 17.29ZM3.89076 9.20326C3.89076 8.15255 4.20233 7.12543 4.78608 6.2518C5.36982 5.37816 6.19952 4.69724 7.17026 4.29515C8.14099 3.89306 9.20916 3.78786 10.2397 3.99284C11.2702 4.19782 12.2168 4.70379 12.9598 5.44676C13.7027 6.18972 14.2087 7.13632 14.4137 8.16684C14.6187 9.19737 14.5135 10.2655 14.1114 11.2363C13.7093 12.207 13.0284 13.0367 12.1547 13.6204C11.2811 14.2042 10.254 14.5158 9.20326 14.5158C7.79474 14.5143 6.44433 13.9541 5.44836 12.9582C4.45238 11.9622 3.89221 10.6118 3.89076 9.20326Z" fill="#5C5C5C"/>
  </g>
</svg>