<svg xmlns="http://www.w3.org/2000/svg" width="16" height="16" viewBox="0 0 16 16" fill="none">
  <mask id="mask0_5842_106463" style="mask-type:alpha" maskUnits="userSpaceOnUse" x="0" y="0" width="16" height="16">
    <rect width="16" height="16" fill="#D9D9D9"/>
  </mask>
  <g mask="url(#mask0_5842_106463)">
    <path d="M7.9987 11.3335C8.18759 11.3335 8.34592 11.2696 8.4737 11.1418C8.60148 11.0141 8.66536 10.8557 8.66536 10.6668C8.66536 10.4779 8.60148 10.3196 8.4737 10.1918C8.34592 10.0641 8.18759 10.0002 7.9987 10.0002C7.80981 10.0002 7.65148 10.0641 7.5237 10.1918C7.39592 10.3196 7.33203 10.4779 7.33203 10.6668C7.33203 10.8557 7.39592 11.0141 7.5237 11.1418C7.65148 11.2696 7.80981 11.3335 7.9987 11.3335ZM7.33203 8.66683H8.66536V4.66683H7.33203V8.66683ZM7.9987 14.6668C7.07648 14.6668 6.20981 14.4918 5.3987 14.1418C4.58759 13.7918 3.88203 13.3168 3.28203 12.7168C2.68203 12.1168 2.20703 11.4113 1.85703 10.6002C1.50703 9.78905 1.33203 8.92238 1.33203 8.00016C1.33203 7.07794 1.50703 6.21127 1.85703 5.40016C2.20703 4.58905 2.68203 3.8835 3.28203 3.2835C3.88203 2.6835 4.58759 2.2085 5.3987 1.8585C6.20981 1.5085 7.07648 1.3335 7.9987 1.3335C8.92092 1.3335 9.78759 1.5085 10.5987 1.8585C11.4098 2.2085 12.1154 2.6835 12.7154 3.2835C13.3154 3.8835 13.7904 4.58905 14.1404 5.40016C14.4904 6.21127 14.6654 7.07794 14.6654 8.00016C14.6654 8.92238 14.4904 9.78905 14.1404 10.6002C13.7904 11.4113 13.3154 12.1168 12.7154 12.7168C12.1154 13.3168 11.4098 13.7918 10.5987 14.1418C9.78759 14.4918 8.92092 14.6668 7.9987 14.6668ZM7.9987 13.3335C9.48759 13.3335 10.7487 12.8168 11.782 11.7835C12.8154 10.7502 13.332 9.48905 13.332 8.00016C13.332 6.51127 12.8154 5.25016 11.782 4.21683C10.7487 3.1835 9.48759 2.66683 7.9987 2.66683C6.50981 2.66683 5.2487 3.1835 4.21536 4.21683C3.18203 5.25016 2.66536 6.51127 2.66536 8.00016C2.66536 9.48905 3.18203 10.7502 4.21536 11.7835C5.2487 12.8168 6.50981 13.3335 7.9987 13.3335Z" fill="#6F42C1"/>
  </g>
</svg>