<svg width="60" height="61" viewBox="0 0 60 61" fill="none" xmlns="http://www.w3.org/2000/svg">
<path d="M53.3358 22.3182C52.8721 21.9723 52.5102 21.5077 52.2883 20.9734C52.0664 20.4391 51.9928 19.8548 52.0751 19.2822C53.1557 12.4897 51.9208 10.4057 50.9945 9.47942C50.0683 8.55317 48.01 7.34391 41.2175 8.42453C40.6452 8.5014 40.0627 8.42523 39.5294 8.20377C38.9961 7.98231 38.531 7.62348 38.1815 7.16381C33.7046 1.19468 31.3633 0.5 29.9997 0.5C28.636 0.5 26.2947 1.19468 21.8178 7.16381C21.4683 7.62348 21.0032 7.98231 20.4699 8.20377C19.9366 8.42523 19.3541 8.5014 18.7818 8.42453C11.9894 7.34391 9.93105 8.5789 9.00481 9.47942C8.07856 10.3799 6.84357 12.4897 7.92419 19.2822C8.00656 19.8548 7.93292 20.4391 7.71104 20.9734C7.48916 21.5077 7.12726 21.9723 6.66347 22.3182C0.694345 26.795 0.0253906 29.1364 0.0253906 30.5C0.0253906 31.8636 0.694345 34.205 6.66347 38.6818C7.12726 39.0277 7.48916 39.4923 7.71104 40.0266C7.93292 40.5609 8.00656 41.1452 7.92419 41.7178C6.94649 48.5618 8.07856 50.5943 9.00481 51.5206C9.93105 52.4468 11.9379 53.5532 18.7818 52.5755C19.3545 52.4931 19.9388 52.5667 20.4731 52.7886C21.0074 53.0105 21.472 53.3724 21.8178 53.8362C26.2947 59.8053 28.636 60.5 29.9997 60.5C31.3633 60.5 33.7046 59.8053 38.1815 53.8362C38.5273 53.3724 38.9919 53.0105 39.5262 52.7886C40.0606 52.5667 40.6448 52.4931 41.2175 52.5755C48.0871 53.5532 50.0683 52.4211 50.9945 51.5206C51.9208 50.6201 53.0528 48.5618 52.0751 41.7178C51.9928 41.1452 52.0664 40.5609 52.2883 40.0266C52.5102 39.4923 52.8721 39.0277 53.3358 38.6818C59.305 34.205 59.9739 31.8636 59.9739 30.5C59.9739 29.1364 59.305 26.795 53.3358 22.3182Z" fill="#179F36"/>
<path d="M28.7136 39.505C28.375 39.507 28.0393 39.4421 27.7258 39.3141C27.4124 39.186 27.1273 38.9974 26.8868 38.7589L21.741 33.6131C21.2566 33.1286 20.9844 32.4715 20.9844 31.7863C20.9844 31.1012 21.2566 30.4441 21.741 29.9596C22.2255 29.4751 22.8826 29.2029 23.5678 29.2029C24.253 29.2029 24.9101 29.4751 25.3946 29.9596L28.7136 33.3044L37.1784 24.8138C37.4176 24.5726 37.7022 24.3812 38.0157 24.2506C38.3292 24.12 38.6655 24.0527 39.0052 24.0527C39.3448 24.0527 39.6811 24.12 39.9947 24.2506C40.3082 24.3812 40.5928 24.5726 40.8319 24.8138C41.0731 25.053 41.2645 25.3375 41.3951 25.6511C41.5258 25.9646 41.593 26.3009 41.593 26.6406C41.593 26.9802 41.5258 27.3165 41.3951 27.63C41.2645 27.9436 41.0731 28.2281 40.8319 28.4673L30.5404 38.7589C30.2999 38.9974 30.0148 39.186 29.7014 39.3141C29.3879 39.4421 29.0522 39.507 28.7136 39.505Z" fill="white"/>
</svg>
