<svg width="20" height="21" viewBox="0 0 20 21" fill="none" xmlns="http://www.w3.org/2000/svg">
<mask id="mask0_280_2102" style="mask-type:alpha" maskUnits="userSpaceOnUse" x="0" y="0" width="20" height="21">
<rect y="0.5" width="20" height="20" fill="#D9D9D9"/>
</mask>
<g mask="url(#mask0_280_2102)">
<path d="M5.83398 18C5.37565 18 4.98329 17.8368 4.6569 17.5104C4.33051 17.184 4.16732 16.7917 4.16732 16.3333V5.5H3.33398V3.83333H7.50065V3H12.5007V3.83333H16.6673V5.5H15.834V16.3333C15.834 16.7917 15.6708 17.184 15.3444 17.5104C15.018 17.8368 14.6257 18 14.1673 18H5.83398ZM14.1673 5.5H5.83398V16.3333H14.1673V5.5ZM7.50065 14.6667H9.16732V7.16667H7.50065V14.6667ZM10.834 14.6667H12.5007V7.16667H10.834V14.6667Z" fill="#e5484d"/>
</g>
</svg>
