<svg width="247" height="173" viewBox="0 0 247 173" fill="none" xmlns="http://www.w3.org/2000/svg">
<path fill-rule="evenodd" clip-rule="evenodd" d="M50.5007 12C50.98 12 51.3685 12.3886 51.3685 12.8679V21.6487C51.3685 22.128 50.98 22.5166 50.5007 22.5166C50.0214 22.5166 49.6328 22.128 49.6328 21.6487V12.8679C49.6328 12.3886 50.0214 12 50.5007 12Z" fill="#36719B"/>
<path fill-rule="evenodd" clip-rule="evenodd" d="M45.2422 17.258C45.2422 16.7787 45.6307 16.3901 46.1101 16.3901H54.8909C55.3702 16.3901 55.7587 16.7787 55.7587 17.258C55.7587 17.7373 55.3702 18.1259 54.8909 18.1259H46.1101C45.6307 18.1259 45.2422 17.7373 45.2422 17.258Z" fill="#36719B"/>
<path fill-rule="evenodd" clip-rule="evenodd" d="M241.501 143C241.98 143 242.369 143.389 242.369 143.868V152.649C242.369 153.128 241.98 153.517 241.501 153.517C241.021 153.517 240.633 153.128 240.633 152.649V143.868C240.633 143.389 241.021 143 241.501 143Z" fill="#36719B"/>
<path fill-rule="evenodd" clip-rule="evenodd" d="M236.242 148.258C236.242 147.779 236.631 147.39 237.11 147.39H245.891C246.37 147.39 246.759 147.779 246.759 148.258C246.759 148.737 246.37 149.126 245.891 149.126H237.11C236.631 149.126 236.242 148.737 236.242 148.258Z" fill="#36719B"/>
<path fill-rule="evenodd" clip-rule="evenodd" d="M5.50068 136C5.97998 136 6.36854 136.389 6.36854 136.868V145.649C6.36854 146.128 5.97998 146.517 5.50068 146.517C5.02137 146.517 4.63281 146.128 4.63281 145.649V136.868C4.63281 136.389 5.02137 136 5.50068 136Z" fill="#36719B"/>
<path fill-rule="evenodd" clip-rule="evenodd" d="M0.242188 141.258C0.242188 140.779 0.630743 140.39 1.11005 140.39H9.89087C10.3702 140.39 10.7587 140.779 10.7587 141.258C10.7587 141.737 10.3702 142.126 9.89087 142.126H1.11005C0.630743 142.126 0.242188 141.737 0.242188 141.258Z" fill="#36719B"/>
<path fill-rule="evenodd" clip-rule="evenodd" d="M222.501 0C222.98 0 223.369 0.388555 223.369 0.867863V9.64869C223.369 10.128 222.98 10.5166 222.501 10.5166C222.021 10.5166 221.633 10.128 221.633 9.64869V0.867863C221.633 0.388555 222.021 0 222.501 0Z" fill="#36719B"/>
<path fill-rule="evenodd" clip-rule="evenodd" d="M217.242 5.258C217.242 4.77869 217.631 4.39014 218.11 4.39014H226.891C227.37 4.39014 227.759 4.77869 227.759 5.258C227.759 5.73731 227.37 6.12586 226.891 6.12586H218.11C217.631 6.12586 217.242 5.73731 217.242 5.258Z" fill="#36719B"/>
<path d="M22.3594 155.709H221.701V163.855C221.701 168.333 218.034 172 213.555 172H30.5052C26.0262 172 22.3594 168.333 22.3594 163.855V155.709Z" fill="url(#paint0_linear_1892_21016)" stroke="#194C67" stroke-width="2"/>
<path d="M208.934 44.0549V154.533H35.127V44.0549C35.127 39.6106 38.7707 35.9668 43.2155 35.9668H200.845C205.29 35.9668 208.934 39.6106 208.934 44.0549Z" fill="#AEAEAE" stroke="#194C67" stroke-width="2"/>
<path fill-rule="evenodd" clip-rule="evenodd" d="M45.2422 45H198.758V143.264H45.2422V45Z" fill="#F2F2F2"/>
<path d="M181.242 27.8044L201.454 20.0707L221.665 27.8044V50.9506C218.724 61.2492 211.447 67.2336 201.454 70.7068C191.461 67.2341 184.191 61.2498 181.242 50.9503V27.8044Z" fill="url(#paint1_linear_1892_21016)" stroke="#194C67" stroke-width="2"/>
<path d="M208.863 38.8443V34.6161C208.863 30.7992 205.751 27.6938 201.923 27.6938C198.104 27.6938 194.994 30.7992 194.994 34.6161V38.8443C192.327 39.0283 190.215 41.2438 190.215 43.9487V54.0334C190.215 56.8575 192.516 59.1543 195.347 59.1543H208.511C211.341 59.1543 213.643 56.8578 213.643 54.0334V43.9487C213.643 41.2438 211.528 39.0283 208.863 38.8443ZM201.978 50.176H201.88C200.831 50.176 199.98 49.3267 199.98 48.2823C199.98 47.2355 200.831 46.3862 201.88 46.3862H201.978C203.027 46.3862 203.875 47.2355 203.875 48.2823C203.875 49.3267 203.027 50.176 201.978 50.176ZM205.068 38.8253H198.789V34.6161C198.789 32.8876 200.196 31.4809 201.923 31.4809C203.658 31.4809 205.068 32.8876 205.068 34.6161V38.8253Z" fill="#EAF6FF"/>
<g clip-path="url(#clip0_1892_21016)">
<path fill-rule="evenodd" clip-rule="evenodd" d="M109.811 113.454L109.277 104.496L106.369 104.499L105.854 113.497L109.811 113.454Z" fill="#C19100"/>
<path fill-rule="evenodd" clip-rule="evenodd" d="M107.826 122.209C110.422 122.209 110.423 118.264 107.826 118.264C105.23 118.264 105.23 122.209 107.826 122.209Z" fill="#C19100"/>
<path fill-rule="evenodd" clip-rule="evenodd" d="M107.827 116.716C112.459 116.716 112.458 123.756 107.827 123.756C103.195 123.756 103.193 116.716 107.827 116.716ZM123.357 119.697L110.807 97.9772C109.31 95.7791 106.076 95.9451 104.712 98.1952L92.298 119.697C90.9549 122.024 92.5569 125.065 95.4218 125.083L120.238 125.082C121.977 125.071 123.269 123.921 123.69 122.493C123.729 122.334 123.772 122.159 123.804 121.965C123.902 121.256 123.79 120.507 123.42 119.812L123.357 119.697ZM111.345 113.409C111.395 114.285 110.657 115.012 109.787 115.012H105.867C104.998 115.012 104.259 114.284 104.308 113.41L104.811 104.468C104.921 102.5 107.269 102.952 109.286 102.952C110.112 102.952 110.797 103.618 110.844 104.468L111.345 113.409Z" fill="#C19100"/>
<path fill-rule="evenodd" clip-rule="evenodd" d="M119.666 110.213H130.826C134.896 107.624 136.399 104.546 136.413 104.515L140.375 96.8206C140.736 96.2084 141.511 94.4822 141.041 93.3709C140.228 91.446 137.337 95.5148 135.436 97.584C134.94 98.1244 134.036 97.7273 134.096 96.997C134.148 96.3634 134.133 95.6788 134.248 95.1753V91.437L131.044 94.641L131.047 94.7863V94.9344L131.044 95.0283L131.04 95.1122L131.032 95.2021L131.021 95.2861L131.012 95.3423L131 95.402L130.988 95.4511L130.973 95.5035L130.955 95.5562L130.93 95.6165L130.902 95.673L130.873 95.7205L130.837 95.7706L130.797 95.8155L130.756 95.8546L130.716 95.8851L130.677 95.9108L130.626 95.9382L130.537 95.9723L130.495 95.9842L130.455 95.993L130.381 96.004L130.3 96.0096L130.218 96.0093L130.157 96.0052L130.059 95.9903L130.008 95.9779L129.94 95.9546L129.877 95.9259L129.826 95.8953L118.131 107.554L119.666 110.213Z" fill="#C19100"/>
<path fill-rule="evenodd" clip-rule="evenodd" d="M119.975 93.744V82.584C119.975 80.471 116.764 80.4698 116.764 82.584L116.764 96.9555L119.975 93.744Z" fill="#C19100"/>
<path fill-rule="evenodd" clip-rule="evenodd" d="M121.524 79.9661L121.523 92.1968L124.734 88.9866V79.9466C124.714 77.8542 121.524 77.8601 121.524 79.9661Z" fill="#C19100"/>
<path fill-rule="evenodd" clip-rule="evenodd" d="M126.281 78.0984V87.4389L129.491 84.2291V79.9661V78.0984C129.491 75.9856 126.281 75.9856 126.281 78.0984Z" fill="#C19100"/>
<path fill-rule="evenodd" clip-rule="evenodd" d="M131.039 79.9661V82.6818L134.193 79.5279C133.763 77.8391 131.039 78.0369 131.039 79.9661Z" fill="#C19100"/>
<path fill-rule="evenodd" clip-rule="evenodd" d="M130.018 110.729H119.529L121.377 113.931C134.62 116.214 146.777 106.006 146.777 92.5544C146.777 88.2205 145.516 84.0726 143.121 80.5014L134.763 88.8588V93.7165C140.924 86.5904 143.124 92.1613 140.696 96.5394L136.768 104.17C136.709 104.296 135.017 107.764 130.426 110.612C130.304 110.688 130.163 110.729 130.018 110.729ZM114.186 84.8573V81.5525C114.186 78.7413 117.079 77.8354 118.946 78.8332C119.016 76.0602 121.949 75.2036 123.789 76.2628C124.491 73.1858 129.22 73.1875 129.919 76.2674C131.356 75.4323 133.461 75.7601 134.347 77.3096L137.138 74.5188C122.005 64.3693 101.461 76.5478 103.528 94.9842C103.657 94.8781 103.79 94.779 103.928 94.6875L103.967 94.6611L104.028 94.6223C104.064 94.5987 104.102 94.5759 104.139 94.5533C105.857 93.5288 108.272 93.5639 109.858 94.8242C110.402 95.2249 110.879 95.7468 111.25 96.3896L111.337 96.5408C111.797 97.2512 112.206 98.0379 112.652 98.8181L112.72 98.9362L114.186 97.4709L114.186 84.8573ZM120.353 93.4911C120.309 93.5521 120.256 93.6039 120.197 93.6467L113.521 100.323L116.299 105.136L128.596 92.8392L128.62 92.8083L128.682 92.7416L128.754 92.6819L133.354 88.0817C133.398 88.0199 133.451 87.9674 133.511 87.9243L142.679 78.7569C143.013 78.4223 143.571 78.4658 143.85 78.8472C154.992 94.0791 144.119 115.794 125.085 115.794C124.644 115.794 123.473 115.788 122.385 115.677L123.665 117.893C123.811 118.147 123.934 118.409 124.034 118.678L124.053 118.729L124.076 118.797C124.345 119.577 124.411 120.381 124.304 121.151C140.365 121.602 153.692 108.634 153.692 92.5552C153.692 76.7818 140.859 63.9487 125.085 63.9487C104.781 63.9487 91.1134 84.5249 98.4775 103.081L102.204 96.626C99.6893 82.4393 110.61 69.3159 125.085 69.3159C130.054 69.3159 134.795 70.8627 138.794 73.79C139.175 74.0694 139.218 74.6265 138.884 74.9608L134.617 79.228C134.576 79.2822 134.528 79.3294 134.475 79.3693L129.866 83.9783C129.823 84.037 129.772 84.0873 129.715 84.129L125.112 88.7325C125.067 88.7946 125.014 88.8473 124.954 88.8905L120.353 93.4911ZM118.944 81.5525C118.944 79.4396 115.733 79.4383 115.733 81.5525L115.732 95.924L118.944 92.7126L118.944 81.5525ZM123.701 78.9152C123.682 76.8228 120.491 76.8287 120.491 78.9347L120.491 91.1654L123.701 87.9552V78.9152ZM128.459 78.9347V77.067C128.459 74.9542 125.249 74.9542 125.249 77.067V86.4075L128.459 83.1977V78.9347ZM133.217 90.4057L130.013 93.6097L130.016 93.7549V93.903L130.013 93.997L130.009 94.0809L130.001 94.1707L129.99 94.2547L129.981 94.3109L129.969 94.3706L129.957 94.4198L129.942 94.4722L129.924 94.5248L129.899 94.5851L129.871 94.6416L129.842 94.6891L129.806 94.7392L129.766 94.7841L129.725 94.8233L129.685 94.8537L129.646 94.8794L129.595 94.9068C129.577 94.9137 129.525 94.9353 129.506 94.941L129.464 94.9528L129.424 94.9617L129.35 94.9726L129.269 94.9783L129.187 94.9779L129.126 94.9738L129.028 94.9589L128.977 94.9466L128.909 94.9233L128.846 94.8945L128.795 94.8639L117.1 106.522L118.635 109.182H129.795C133.865 106.593 135.368 103.515 135.382 103.484L139.344 95.7893C139.705 95.1771 140.48 93.4508 140.01 92.3396C139.197 90.4146 136.306 94.4834 134.405 96.5527C133.909 97.093 133.005 96.696 133.065 95.9656C133.117 95.3321 133.102 94.6474 133.217 94.1439L133.217 90.4057ZM133.16 78.4965C132.73 76.8077 130.006 77.0055 130.006 78.9347V81.6504L133.16 78.4965ZM119.211 125.598H94.3801C90.3389 125.573 87.9942 121.238 89.926 117.892L97.5086 104.759C88.7678 85.0722 103.153 62.4011 125.084 62.4011C141.711 62.4011 155.238 75.9278 155.238 92.5545C155.238 109.182 141.711 122.708 125.085 122.708C124.582 122.708 124.176 122.696 123.847 122.67C123.048 124.349 121.362 125.598 119.211 125.598ZM109.775 96.9456L122.325 118.666C122.347 118.704 122.368 118.742 122.388 118.78C122.758 119.475 122.87 120.225 122.772 120.934C122.74 121.127 122.697 121.303 122.658 121.462C122.237 122.89 120.945 124.039 119.206 124.051L94.3899 124.051C91.525 124.034 89.923 120.993 91.2661 118.666L103.68 97.1637C105.045 94.9135 108.278 94.7476 109.775 96.9456ZM108.755 113.981H104.835C103.966 113.981 103.227 113.253 103.277 112.378L103.779 103.436C103.889 101.468 106.237 101.921 108.254 101.921C109.08 101.921 109.765 102.587 109.812 103.437L110.313 112.378C110.363 113.253 109.625 113.981 108.755 113.981ZM105.337 103.468L104.821 112.465L108.779 112.422L108.245 103.464L105.337 103.468ZM106.795 122.724C102.163 122.724 102.161 115.685 106.795 115.685C111.427 115.685 111.426 122.724 106.795 122.724ZM106.795 117.233C104.198 117.233 104.198 121.178 106.795 121.178C109.39 121.178 109.391 117.233 106.795 117.233Z" fill="#010103"/>
<path fill-rule="evenodd" clip-rule="evenodd" d="M123.665 117.893C123.812 118.147 123.935 118.409 124.034 118.678L124.053 118.729L124.077 118.797C124.346 119.577 124.412 120.381 124.305 121.151C140.365 121.602 153.692 108.634 153.692 92.5552C153.692 76.7817 140.859 63.9487 125.086 63.9487C104.782 63.9487 91.1139 84.5248 98.478 103.081L102.205 96.626C99.6898 82.4393 110.611 69.3159 125.086 69.3159C130.055 69.3159 134.795 70.8626 138.794 73.79C139.175 74.0694 139.219 74.6265 138.884 74.9608L134.617 79.228C134.577 79.2822 134.529 79.3294 134.476 79.3693L129.867 83.9783C129.824 84.037 129.773 84.0873 129.716 84.129L125.112 88.7325C125.068 88.7946 125.014 88.8473 124.954 88.8905L120.353 93.4911C120.309 93.5522 120.257 93.6039 120.198 93.6467L113.521 100.323L116.3 105.136L128.597 92.8392L128.62 92.8083L128.682 92.7416L128.754 92.6819L133.354 88.0818C133.399 88.02 133.452 87.9674 133.512 87.9244L142.679 78.757C143.014 78.4223 143.572 78.4658 143.85 78.8472C154.993 94.0791 144.12 115.794 125.085 115.794C124.645 115.794 123.474 115.788 122.386 115.677L123.665 117.893Z" fill="white"/>
</g>
<defs>
<linearGradient id="paint0_linear_1892_21016" x1="136.617" y1="129.96" x2="137.44" y2="191.289" gradientUnits="userSpaceOnUse">
<stop stop-color="#195F85"/>
<stop offset="1" stop-color="#459CCB"/>
</linearGradient>
<linearGradient id="paint1_linear_1892_21016" x1="204.527" y1="-52.3936" x2="235.976" y2="118.776" gradientUnits="userSpaceOnUse">
<stop stop-color="#195F85"/>
<stop offset="1" stop-color="#459CCB"/>
</linearGradient>
<clipPath id="clip0_1892_21016">
<rect width="66" height="66" fill="white" transform="translate(89.2422 61)"/>
</clipPath>
</defs>
</svg>
