<svg width="16" height="17" viewBox="0 0 16 17" fill="none" xmlns="http://www.w3.org/2000/svg">
<mask id="mask0_3511_21348" style="mask-type:alpha" maskUnits="userSpaceOnUse" x="0" y="0" width="16" height="17">
<rect y="0.5" width="16" height="16" fill="#D9D9D9"/>
</mask>
<g mask="url(#mask0_3511_21348)">
<path d="M3.90016 11.8997C4.46683 11.4663 5.10016 11.1247 5.80016 10.8747C6.50016 10.6247 7.2335 10.4997 8.00016 10.4997C8.76683 10.4997 9.50016 10.6247 10.2002 10.8747C10.9002 11.1247 11.5335 11.4663 12.1002 11.8997C12.4891 11.4441 12.7918 10.9275 13.0085 10.3497C13.2252 9.7719 13.3335 9.15523 13.3335 8.49967C13.3335 7.0219 12.8141 5.76356 11.7752 4.72467C10.7363 3.68579 9.47794 3.16634 8.00016 3.16634C6.52239 3.16634 5.26405 3.68579 4.22516 4.72467C3.18627 5.76356 2.66683 7.0219 2.66683 8.49967C2.66683 9.15523 2.77516 9.7719 2.99183 10.3497C3.2085 10.9275 3.51127 11.4441 3.90016 11.8997ZM8.00016 9.16634C7.34461 9.16634 6.79183 8.94134 6.34183 8.49134C5.89183 8.04134 5.66683 7.48856 5.66683 6.83301C5.66683 6.17745 5.89183 5.62467 6.34183 5.17467C6.79183 4.72467 7.34461 4.49967 8.00016 4.49967C8.65572 4.49967 9.2085 4.72467 9.6585 5.17467C10.1085 5.62467 10.3335 6.17745 10.3335 6.83301C10.3335 7.48856 10.1085 8.04134 9.6585 8.49134C9.2085 8.94134 8.65572 9.16634 8.00016 9.16634ZM8.00016 15.1663C7.07794 15.1663 6.21127 14.9913 5.40016 14.6413C4.58905 14.2913 3.8835 13.8163 3.2835 13.2163C2.6835 12.6163 2.2085 11.9108 1.8585 11.0997C1.5085 10.2886 1.3335 9.4219 1.3335 8.49967C1.3335 7.57745 1.5085 6.71079 1.8585 5.89967C2.2085 5.08856 2.6835 4.38301 3.2835 3.78301C3.8835 3.18301 4.58905 2.70801 5.40016 2.35801C6.21127 2.00801 7.07794 1.83301 8.00016 1.83301C8.92239 1.83301 9.78905 2.00801 10.6002 2.35801C11.4113 2.70801 12.1168 3.18301 12.7168 3.78301C13.3168 4.38301 13.7918 5.08856 14.1418 5.89967C14.4918 6.71079 14.6668 7.57745 14.6668 8.49967C14.6668 9.4219 14.4918 10.2886 14.1418 11.0997C13.7918 11.9108 13.3168 12.6163 12.7168 13.2163C12.1168 13.8163 11.4113 14.2913 10.6002 14.6413C9.78905 14.9913 8.92239 15.1663 8.00016 15.1663ZM8.00016 13.833C8.58905 13.833 9.14461 13.7469 9.66683 13.5747C10.1891 13.4025 10.6668 13.1552 11.1002 12.833C10.6668 12.5108 10.1891 12.2636 9.66683 12.0913C9.14461 11.9191 8.58905 11.833 8.00016 11.833C7.41127 11.833 6.85572 11.9191 6.3335 12.0913C5.81127 12.2636 5.3335 12.5108 4.90016 12.833C5.3335 13.1552 5.81127 13.4025 6.3335 13.5747C6.85572 13.7469 7.41127 13.833 8.00016 13.833ZM8.00016 7.83301C8.28905 7.83301 8.52794 7.73856 8.71683 7.54967C8.90572 7.36079 9.00016 7.1219 9.00016 6.83301C9.00016 6.54412 8.90572 6.30523 8.71683 6.11634C8.52794 5.92745 8.28905 5.83301 8.00016 5.83301C7.71127 5.83301 7.47239 5.92745 7.2835 6.11634C7.09461 6.30523 7.00016 6.54412 7.00016 6.83301C7.00016 7.1219 7.09461 7.36079 7.2835 7.54967C7.47239 7.73856 7.71127 7.83301 8.00016 7.83301Z" fill="#C19100"/>
</g>
</svg>
