<svg width="24" height="24" viewBox="0 0 24 24" fill="none" xmlns="http://www.w3.org/2000/svg">
<path d="M11.9992 17C12.2826 17 12.5201 16.9042 12.7117 16.7125C12.9034 16.5208 12.9992 16.2833 12.9992 16C12.9992 15.7167 12.9034 15.4792 12.7117 15.2875C12.5201 15.0958 12.2826 15 11.9992 15C11.7159 15 11.4784 15.0958 11.2867 15.2875C11.0951 15.4792 10.9992 15.7167 10.9992 16C10.9992 16.2833 11.0951 16.5208 11.2867 16.7125C11.4784 16.9042 11.7159 17 11.9992 17ZM10.9992 13H12.9992V7H10.9992V13ZM11.9992 23.3L8.64922 20H3.99922V15.35L0.699219 12L3.99922 8.65V4H8.64922L11.9992 0.699997L15.3492 4H19.9992V8.65L23.2992 12L19.9992 15.35V20H15.3492L11.9992 23.3ZM11.9992 20.5L14.4992 18H17.9992V14.5L20.4992 12L17.9992 9.5V6H14.4992L11.9992 3.5L9.49922 6H5.99922V9.5L3.49922 12L5.99922 14.5V18H9.49922L11.9992 20.5Z" fill="#DDB53A"/>
</svg>
