<svg width="40" height="40" viewBox="0 0 40 40" fill="none" xmlns="http://www.w3.org/2000/svg">
  <rect width="40" height="40" rx="20" fill="#B3B3B3" />
  <mask id="mask0_5901_107093" style="mask-type:alpha" maskUnits="userSpaceOnUse" x="8" y="8" width="24" height="24">
    <rect x="8" y="8" width="24" height="24" fill="#D9D9D9" />
  </mask>
  <g mask="url(#mask0_5901_107093)">
    <path d="M12 29C11.45 29 10.9792 28.8042 10.5875 28.4125C10.1958 28.0208 10 27.55 10 27V16C10 15.45 10.1958 14.9792 10.5875 14.5875C10.9792 14.1958 11.45 14 12 14H16V12C16 11.45 16.1958 10.9792 16.5875 10.5875C16.9792 10.1958 17.45 10 18 10H22C22.55 10 23.0208 10.1958 23.4125 10.5875C23.8042 10.9792 24 11.45 24 12V14H28C28.55 14 29.0208 14.1958 29.4125 14.5875C29.8042 14.9792 30 15.45 30 16V27C30 27.55 29.8042 28.0208 29.4125 28.4125C29.0208 28.8042 28.55 29 28 29H12ZM18 14H22V12H18V14ZM28 23H23V25H17V23H12V27H28V23ZM19 23H21V21H19V23ZM12 21H17V19H23V21H28V16H12V21Z" fill="white" />
  </g>
</svg>
