<svg width="41" height="40" viewBox="0 0 41 40" fill="none" xmlns="http://www.w3.org/2000/svg">
  <rect x="0.5" width="40" height="40" rx="20" fill="#B3B3B3" />
  <mask id="mask0_5901_121245" style="mask-type:alpha" maskUnits="userSpaceOnUse" x="8" y="8" width="25" height="24">
    <rect x="8.5" y="8" width="24" height="24" fill="#D9D9D9" />
  </mask>
  <g mask="url(#mask0_5901_121245)">
    <path d="M26.5 22V19H23.5V17H26.5V14H28.5V17H31.5V19H28.5V22H26.5ZM17.5 20C16.4 20 15.4583 19.6083 14.675 18.825C13.8917 18.0417 13.5 17.1 13.5 16C13.5 14.9 13.8917 13.9583 14.675 13.175C15.4583 12.3917 16.4 12 17.5 12C18.6 12 19.5417 12.3917 20.325 13.175C21.1083 13.9583 21.5 14.9 21.5 16C21.5 17.1 21.1083 18.0417 20.325 18.825C19.5417 19.6083 18.6 20 17.5 20ZM9.5 28V25.2C9.5 24.6333 9.64583 24.1125 9.9375 23.6375C10.2292 23.1625 10.6167 22.8 11.1 22.55C12.1333 22.0333 13.1833 21.6458 14.25 21.3875C15.3167 21.1292 16.4 21 17.5 21C18.6 21 19.6833 21.1292 20.75 21.3875C21.8167 21.6458 22.8667 22.0333 23.9 22.55C24.3833 22.8 24.7708 23.1625 25.0625 23.6375C25.3542 24.1125 25.5 24.6333 25.5 25.2V28H9.5ZM11.5 26H23.5V25.2C23.5 25.0167 23.4542 24.85 23.3625 24.7C23.2708 24.55 23.15 24.4333 23 24.35C22.1 23.9 21.1917 23.5625 20.275 23.3375C19.3583 23.1125 18.4333 23 17.5 23C16.5667 23 15.6417 23.1125 14.725 23.3375C13.8083 23.5625 12.9 23.9 12 24.35C11.85 24.4333 11.7292 24.55 11.6375 24.7C11.5458 24.85 11.5 25.0167 11.5 25.2V26ZM17.5 18C18.05 18 18.5208 17.8042 18.9125 17.4125C19.3042 17.0208 19.5 16.55 19.5 16C19.5 15.45 19.3042 14.9792 18.9125 14.5875C18.5208 14.1958 18.05 14 17.5 14C16.95 14 16.4792 14.1958 16.0875 14.5875C15.6958 14.9792 15.5 15.45 15.5 16C15.5 16.55 15.6958 17.0208 16.0875 17.4125C16.4792 17.8042 16.95 18 17.5 18Z" fill="white" />
  </g>
</svg>
