<svg width="40" height="41" viewBox="0 0 40 41" fill="none" xmlns="http://www.w3.org/2000/svg">
  <rect y="0.5" width="40" height="40" rx="20" fill="#4DA3C7" />
  <mask id="mask0_5901_127814" style="mask-type:alpha" maskUnits="userSpaceOnUse" x="8" y="8" width="24" height="25">
    <rect x="8" y="8.5" width="24" height="24" fill="#D9D9D9" />
  </mask>
  <g mask="url(#mask0_5901_127814)">
    <path d="M17.2492 30.5L16.8492 27.3C16.6326 27.2167 16.4284 27.1167 16.2367 27C16.0451 26.8833 15.8576 26.7583 15.6742 26.625L12.6992 27.875L9.94922 23.125L12.5242 21.175C12.5076 21.0583 12.4992 20.9458 12.4992 20.8375V20.1625C12.4992 20.0542 12.5076 19.9417 12.5242 19.825L9.94922 17.875L12.6992 13.125L15.6742 14.375C15.8576 14.2417 16.0492 14.1167 16.2492 14C16.4492 13.8833 16.6492 13.7833 16.8492 13.7L17.2492 10.5H22.7492L23.1492 13.7C23.3659 13.7833 23.5701 13.8833 23.7617 14C23.9534 14.1167 24.1409 14.2417 24.3242 14.375L27.2992 13.125L30.0492 17.875L27.4742 19.825C27.4909 19.9417 27.4992 20.0542 27.4992 20.1625V20.8375C27.4992 20.9458 27.4826 21.0583 27.4492 21.175L30.0242 23.125L27.2742 27.875L24.3242 26.625C24.1409 26.7583 23.9492 26.8833 23.7492 27C23.5492 27.1167 23.3492 27.2167 23.1492 27.3L22.7492 30.5H17.2492ZM18.9992 28.5H20.9742L21.3242 25.85C21.8409 25.7167 22.3201 25.5208 22.7617 25.2625C23.2034 25.0042 23.6076 24.6917 23.9742 24.325L26.4492 25.35L27.4242 23.65L25.2742 22.025C25.3576 21.7917 25.4159 21.5458 25.4492 21.2875C25.4826 21.0292 25.4992 20.7667 25.4992 20.5C25.4992 20.2333 25.4826 19.9708 25.4492 19.7125C25.4159 19.4542 25.3576 19.2083 25.2742 18.975L27.4242 17.35L26.4492 15.65L23.9742 16.7C23.6076 16.3167 23.2034 15.9958 22.7617 15.7375C22.3201 15.4792 21.8409 15.2833 21.3242 15.15L20.9992 12.5H19.0242L18.6742 15.15C18.1576 15.2833 17.6784 15.4792 17.2367 15.7375C16.7951 15.9958 16.3909 16.3083 16.0242 16.675L13.5492 15.65L12.5742 17.35L14.7242 18.95C14.6409 19.2 14.5826 19.45 14.5492 19.7C14.5159 19.95 14.4992 20.2167 14.4992 20.5C14.4992 20.7667 14.5159 21.025 14.5492 21.275C14.5826 21.525 14.6409 21.775 14.7242 22.025L12.5742 23.65L13.5492 25.35L16.0242 24.3C16.3909 24.6833 16.7951 25.0042 17.2367 25.2625C17.6784 25.5208 18.1576 25.7167 18.6742 25.85L18.9992 28.5ZM20.0492 24C21.0159 24 21.8409 23.6583 22.5242 22.975C23.2076 22.2917 23.5492 21.4667 23.5492 20.5C23.5492 19.5333 23.2076 18.7083 22.5242 18.025C21.8409 17.3417 21.0159 17 20.0492 17C19.0659 17 18.2367 17.3417 17.5617 18.025C16.8867 18.7083 16.5492 19.5333 16.5492 20.5C16.5492 21.4667 16.8867 22.2917 17.5617 22.975C18.2367 23.6583 19.0659 24 20.0492 24Z" fill="white" />
  </g>
</svg>
