<svg width="171" height="24" viewBox="0 0 171 24" fill="none" xmlns="http://www.w3.org/2000/svg">
<path d="M162.228 23.712C160.692 23.712 159.305 23.36 158.068 22.656C156.852 21.9306 155.881 20.9386 155.156 19.68C154.452 18.4 154.1 16.9386 154.1 15.296C154.1 13.6106 154.452 12.1386 155.156 10.88C155.881 9.59998 156.863 8.60798 158.1 7.90398C159.337 7.17865 160.724 6.81598 162.26 6.81598C163.817 6.81598 165.204 7.17865 166.42 7.90398C167.657 8.60798 168.628 9.59998 169.332 10.88C170.057 12.1386 170.42 13.6 170.42 15.264C170.42 16.928 170.057 18.4 169.332 19.68C168.628 20.9386 167.657 21.9306 166.42 22.656C165.183 23.36 163.785 23.712 162.228 23.712ZM162.228 19.968C162.953 19.968 163.593 19.7973 164.148 19.456C164.724 19.1146 165.172 18.592 165.492 17.888C165.833 17.184 166.004 16.3093 166.004 15.264C166.004 14.2186 165.833 13.3546 165.492 12.672C165.172 11.968 164.724 11.4453 164.148 11.104C163.593 10.7413 162.964 10.56 162.26 10.56C161.577 10.56 160.948 10.7413 160.372 11.104C159.796 11.4453 159.337 11.968 158.996 12.672C158.676 13.3546 158.516 14.2186 158.516 15.264C158.516 16.3093 158.676 17.184 158.996 17.888C159.337 18.592 159.785 19.1146 160.34 19.456C160.916 19.7973 161.545 19.968 162.228 19.968Z" fill="url(#paint0_linear_33_6879)"/>
<path d="M141.768 23.328V7.19998H145.608L146.024 10.176C146.408 9.47198 146.888 8.87465 147.464 8.38398C148.062 7.89331 148.734 7.50931 149.48 7.23198C150.248 6.95465 151.091 6.81598 152.008 6.81598V11.392H150.536C149.896 11.392 149.299 11.4666 148.744 11.616C148.211 11.7653 147.742 12.0106 147.336 12.352C146.931 12.672 146.622 13.12 146.408 13.696C146.195 14.272 146.088 14.9973 146.088 15.872V23.328H141.768Z" fill="url(#paint1_linear_33_6879)"/>
<path d="M122.208 23.328V0.927979H130.592C132.405 0.927979 133.909 1.23731 135.104 1.85598C136.299 2.47465 137.184 3.30665 137.76 4.35198C138.336 5.39731 138.624 6.59198 138.624 7.93598C138.624 9.17331 138.347 10.3146 137.792 11.36C137.237 12.4053 136.363 13.2586 135.168 13.92C133.973 14.56 132.448 14.88 130.592 14.88H126.528V23.328H122.208ZM126.528 11.392H130.336C131.723 11.392 132.715 11.0826 133.312 10.464C133.931 9.82398 134.24 8.98131 134.24 7.93598C134.24 6.82664 133.931 5.97331 133.312 5.37598C132.715 4.75731 131.723 4.44798 130.336 4.44798H126.528V11.392Z" fill="url(#paint2_linear_33_6879)"/>
<path d="M101.271 23.712C99.9268 23.712 98.8175 23.4986 97.9428 23.072C97.0681 22.624 96.4175 22.0373 95.9908 21.312C95.5855 20.5653 95.3828 19.744 95.3828 18.848C95.3828 17.8666 95.6281 17.0026 96.1188 16.256C96.6308 15.5093 97.3881 14.9226 98.3908 14.496C99.4148 14.0693 100.695 13.856 102.231 13.856H106.231C106.231 13.0666 106.124 12.416 105.911 11.904C105.697 11.3706 105.367 10.976 104.919 10.72C104.471 10.464 103.873 10.336 103.127 10.336C102.316 10.336 101.623 10.5173 101.047 10.88C100.492 11.2213 100.151 11.7546 100.023 12.48H95.8308C95.9375 11.328 96.3108 10.336 96.9508 9.50398C97.6121 8.65065 98.4761 7.98931 99.5428 7.51998C100.631 7.05065 101.836 6.81598 103.159 6.81598C104.673 6.81598 105.985 7.07198 107.095 7.58398C108.204 8.09598 109.057 8.83198 109.655 9.79198C110.252 10.752 110.551 11.936 110.551 13.344V23.328H106.903L106.423 20.864C106.188 21.2906 105.911 21.6746 105.591 22.016C105.271 22.3573 104.897 22.656 104.471 22.912C104.044 23.168 103.564 23.36 103.031 23.488C102.497 23.6373 101.911 23.712 101.271 23.712ZM102.295 20.384C102.849 20.384 103.34 20.288 103.767 20.096C104.215 19.8826 104.599 19.6053 104.919 19.264C105.239 18.9013 105.484 18.496 105.655 18.048C105.847 17.5786 105.975 17.0773 106.039 16.544V16.512H102.743C102.081 16.512 101.537 16.5973 101.111 16.768C100.705 16.9173 100.407 17.1413 100.215 17.44C100.023 17.7386 99.9268 18.08 99.9268 18.464C99.9268 18.8906 100.023 19.2426 100.215 19.52C100.407 19.7973 100.684 20.0106 101.047 20.16C101.409 20.3093 101.825 20.384 102.295 20.384Z" fill="url(#paint3_linear_33_6879)"/>
<path d="M76.0808 23.328V7.19998H79.8888L80.2088 9.82398C80.6995 8.92798 81.3928 8.20265 82.2888 7.64798C83.2061 7.09331 84.2941 6.81598 85.5528 6.81598C86.8968 6.81598 88.0275 7.09331 88.9448 7.64798C89.8621 8.20265 90.5555 9.01331 91.0248 10.08C91.5155 11.1466 91.7608 12.4586 91.7608 14.016V23.328H87.4728V14.432C87.4728 13.152 87.1955 12.1706 86.6408 11.488C86.1075 10.8053 85.2755 10.464 84.1448 10.464C83.4195 10.464 82.7688 10.6346 82.1928 10.976C81.6381 11.3173 81.2008 11.808 80.8808 12.448C80.5608 13.0666 80.4008 13.824 80.4008 14.72V23.328H76.0808Z" fill="url(#paint4_linear_33_6879)"/>
<path d="M64.5749 23.712C62.9535 23.712 61.5135 23.3706 60.2548 22.688C59.0175 21.984 58.0468 21.0133 57.3428 19.776C56.6602 18.5173 56.3188 17.0666 56.3188 15.424C56.3188 13.7386 56.6602 12.256 57.3428 10.976C58.0255 9.67464 58.9855 8.66131 60.2229 7.93598C61.4815 7.18931 62.9322 6.81598 64.5749 6.81598C66.1749 6.81598 67.5722 7.16798 68.7669 7.87198C69.9615 8.57598 70.8895 9.52531 71.5508 10.72C72.2122 11.9146 72.5429 13.2693 72.5429 14.784C72.5429 14.9973 72.5429 15.2426 72.5429 15.52C72.5429 15.776 72.5215 16.0426 72.4789 16.32H59.3909V13.696H68.1908C68.1268 12.6506 67.7535 11.8293 67.0708 11.232C66.4095 10.6346 65.5775 10.336 64.5749 10.336C63.8495 10.336 63.1775 10.5066 62.5588 10.848C61.9402 11.168 61.4495 11.6693 61.0868 12.352C60.7455 13.0346 60.5748 13.8986 60.5748 14.944V15.872C60.5748 16.7466 60.7348 17.5146 61.0548 18.176C61.3962 18.816 61.8655 19.3173 62.4628 19.68C63.0602 20.0213 63.7535 20.192 64.5428 20.192C65.3322 20.192 65.9829 20.0213 66.4949 19.68C67.0282 19.3386 67.4228 18.9013 67.6788 18.368H72.0948C71.7962 19.3706 71.2949 20.2773 70.5909 21.088C69.8869 21.8986 69.0228 22.5386 67.9988 23.008C66.9748 23.4773 65.8335 23.712 64.5749 23.712Z" fill="url(#paint5_linear_33_6879)"/>
<path d="M37.0496 23.328V0.287994H41.3696V9.59999C41.9029 8.76799 42.6069 8.096 43.4816 7.584C44.3776 7.072 45.4122 6.81599 46.5856 6.81599C47.9296 6.81599 49.0602 7.10399 49.9776 7.67999C50.8949 8.23466 51.5882 9.04533 52.0576 10.112C52.5269 11.1787 52.7616 12.5013 52.7616 14.08V23.328H48.4736V14.464C48.4736 13.184 48.2069 12.2027 47.6736 11.52C47.1402 10.816 46.2976 10.464 45.1456 10.464C44.4416 10.464 43.8016 10.6347 43.2256 10.976C42.6496 11.3173 42.1909 11.8187 41.8496 12.48C41.5296 13.12 41.3696 13.888 41.3696 14.784V23.328H37.0496Z" fill="url(#paint6_linear_33_6879)"/>
<path d="M30.4699 23.328C29.3393 23.328 28.3473 23.1573 27.4939 22.816C26.6619 22.4533 26.0113 21.8666 25.5419 21.056C25.0726 20.224 24.8379 19.0933 24.8379 17.664V10.816H22.0859V7.19998H24.8379L25.3179 2.81598H29.1579V7.19998H33.4139V10.816H29.1579V17.728C29.1579 18.4533 29.3179 18.9546 29.6379 19.232C29.9579 19.5093 30.5019 19.648 31.2699 19.648H33.3819V23.328H30.4699Z" fill="url(#paint7_linear_33_6879)"/>
<path d="M0.704102 23.328L8.8961 0.927979H13.7921L21.9521 23.328H17.3761L11.3281 5.85598L5.2481 23.328H0.704102ZM4.3201 18.24L5.4721 14.88H16.8641L17.9841 18.24H4.3201Z" fill="url(#paint8_linear_33_6879)"/>
<defs>
<linearGradient id="paint0_linear_33_6879" x1="8.98858e-05" y1="12.328" x2="173" y2="12.328" gradientUnits="userSpaceOnUse">
<stop stop-color="#003366"/>
<stop offset="1" stop-color="#87CEEB"/>
</linearGradient>
<linearGradient id="paint1_linear_33_6879" x1="6.55157e-05" y1="12.328" x2="173" y2="12.328" gradientUnits="userSpaceOnUse">
<stop stop-color="#003366"/>
<stop offset="1" stop-color="#87CEEB"/>
</linearGradient>
<linearGradient id="paint2_linear_33_6879" x1="-1.41892e-06" y1="12.328" x2="173" y2="12.328" gradientUnits="userSpaceOnUse">
<stop stop-color="#003366"/>
<stop offset="1" stop-color="#87CEEB"/>
</linearGradient>
<linearGradient id="paint3_linear_33_6879" x1="5.4533e-05" y1="12.328" x2="173" y2="12.328" gradientUnits="userSpaceOnUse">
<stop stop-color="#003366"/>
<stop offset="1" stop-color="#87CEEB"/>
</linearGradient>
<linearGradient id="paint4_linear_33_6879" x1="6.51511e-05" y1="12.328" x2="173" y2="12.328" gradientUnits="userSpaceOnUse">
<stop stop-color="#003366"/>
<stop offset="1" stop-color="#87CEEB"/>
</linearGradient>
<linearGradient id="paint5_linear_33_6879" x1="9.55329e-05" y1="12.328" x2="173" y2="12.328" gradientUnits="userSpaceOnUse">
<stop stop-color="#003366"/>
<stop offset="1" stop-color="#87CEEB"/>
</linearGradient>
<linearGradient id="paint6_linear_33_6879" x1="6.15992e-05" y1="12.328" x2="173" y2="12.328" gradientUnits="userSpaceOnUse">
<stop stop-color="#003366"/>
<stop offset="1" stop-color="#87CEEB"/>
</linearGradient>
<linearGradient id="paint7_linear_33_6879" x1="0.000186421" y1="12.328" x2="173" y2="12.328" gradientUnits="userSpaceOnUse">
<stop stop-color="#003366"/>
<stop offset="1" stop-color="#87CEEB"/>
</linearGradient>
<linearGradient id="paint8_linear_33_6879" x1="0.000101086" y1="12.328" x2="173" y2="12.328" gradientUnits="userSpaceOnUse">
<stop stop-color="#003366"/>
<stop offset="1" stop-color="#87CEEB"/>
</linearGradient>
</defs>
</svg>
