<svg xmlns="http://www.w3.org/2000/svg" width="25" height="24" viewBox="0 0 25 24" fill="none">
  <mask id="mask0_5495_68197" style="mask-type:alpha" maskUnits="userSpaceOnUse" x="0" y="0" width="25" height="24">
    <rect x="0.335938" width="24" height="24" fill="#D9D9D9"/>
  </mask>
  <g mask="url(#mask0_5495_68197)">
    <path d="M6.33594 22C5.5026 22 4.79427 21.7083 4.21094 21.125C3.6276 20.5417 3.33594 19.8333 3.33594 19V16H6.33594V2L7.83594 3.5L9.33594 2L10.8359 3.5L12.3359 2L13.8359 3.5L15.3359 2L16.8359 3.5L18.3359 2L19.8359 3.5L21.3359 2V19C21.3359 19.8333 21.0443 20.5417 20.4609 21.125C19.8776 21.7083 19.1693 22 18.3359 22H6.33594ZM18.3359 20C18.6193 20 18.8568 19.9042 19.0484 19.7125C19.2401 19.5208 19.3359 19.2833 19.3359 19V5H8.33594V16H17.3359V19C17.3359 19.2833 17.4318 19.5208 17.6234 19.7125C17.8151 19.9042 18.0526 20 18.3359 20ZM9.33594 9V7H15.3359V9H9.33594ZM9.33594 12V10H15.3359V12H9.33594ZM17.3359 9C17.0526 9 16.8151 8.90417 16.6234 8.7125C16.4318 8.52083 16.3359 8.28333 16.3359 8C16.3359 7.71667 16.4318 7.47917 16.6234 7.2875C16.8151 7.09583 17.0526 7 17.3359 7C17.6193 7 17.8568 7.09583 18.0484 7.2875C18.2401 7.47917 18.3359 7.71667 18.3359 8C18.3359 8.28333 18.2401 8.52083 18.0484 8.7125C17.8568 8.90417 17.6193 9 17.3359 9ZM17.3359 12C17.0526 12 16.8151 11.9042 16.6234 11.7125C16.4318 11.5208 16.3359 11.2833 16.3359 11C16.3359 10.7167 16.4318 10.4792 16.6234 10.2875C16.8151 10.0958 17.0526 10 17.3359 10C17.6193 10 17.8568 10.0958 18.0484 10.2875C18.2401 10.4792 18.3359 10.7167 18.3359 11C18.3359 11.2833 18.2401 11.5208 18.0484 11.7125C17.8568 11.9042 17.6193 12 17.3359 12ZM6.33594 20H15.3359V18H5.33594V19C5.33594 19.2833 5.43177 19.5208 5.62344 19.7125C5.8151 19.9042 6.0526 20 6.33594 20Z" fill="#1C1B1F"/>
  </g>
</svg>