<svg xmlns="http://www.w3.org/2000/svg" width="19" height="19" viewBox="0 0 19 19" fill="none">
  <mask id="mask0_5507_111585" style="mask-type:alpha" maskUnits="userSpaceOnUse" x="0" y="0" width="19" height="19">
    <rect x="0.75" y="0.5" width="18" height="18" fill="#D9D9D9"/>
  </mask>
  <g mask="url(#mask0_5507_111585)">
    <path d="M3 15.5V4.25C3 3.8375 3.14688 3.48438 3.44063 3.19063C3.73438 2.89688 4.0875 2.75 4.5 2.75H13.5C13.9125 2.75 14.2656 2.89688 14.5594 3.19063C14.8531 3.48438 15 3.8375 15 4.25V8.05625C14.875 8.03125 14.75 8.01562 14.625 8.00938C14.5 8.00313 14.375 8 14.25 8C14.125 8 14 8.00313 13.875 8.00938C13.75 8.01562 13.625 8.03125 13.5 8.05625V4.25H4.5V11.75H9.80625C9.78125 11.875 9.76562 12 9.75937 12.125C9.75312 12.25 9.75 12.375 9.75 12.5C9.75 12.625 9.75312 12.75 9.75937 12.875C9.76562 13 9.78125 13.125 9.80625 13.25H5.25L3 15.5ZM6 7.25H12V5.75H6V7.25ZM6 10.25H9.75V8.75H6V10.25ZM13.5 15.5V13.25H11.25V11.75H13.5V9.5H15V11.75H17.25V13.25H15V15.5H13.5Z" fill="#003366"/>
  </g>
</svg>