<svg xmlns="http://www.w3.org/2000/svg" width="25" height="25" viewBox="0 0 25 25" fill="none">
  <mask id="mask0_5507_111547" style="mask-type:alpha" maskUnits="userSpaceOnUse" x="0" y="0" width="25" height="25">
    <rect x="0.75" y="0.5" width="24" height="24" fill="#D9D9D9"/>
  </mask>
  <g mask="url(#mask0_5507_111547)">
    <path d="M22.75 22.5L18.75 18.5H8.75C8.2 18.5 7.72917 18.3042 7.3375 17.9125C6.94583 17.5208 6.75 17.05 6.75 16.5V15.5H17.75C18.3 15.5 18.7708 15.3042 19.1625 14.9125C19.5542 14.5208 19.75 14.05 19.75 13.5V6.5H20.75C21.3 6.5 21.7708 6.69583 22.1625 7.0875C22.5542 7.47917 22.75 7.95 22.75 8.5V22.5ZM4.75 12.675L5.925 11.5H15.75V4.5H4.75V12.675ZM2.75 17.5V4.5C2.75 3.95 2.94583 3.47917 3.3375 3.0875C3.72917 2.69583 4.2 2.5 4.75 2.5H15.75C16.3 2.5 16.7708 2.69583 17.1625 3.0875C17.5542 3.47917 17.75 3.95 17.75 4.5V11.5C17.75 12.05 17.5542 12.5208 17.1625 12.9125C16.7708 13.3042 16.3 13.5 15.75 13.5H6.75L2.75 17.5Z" fill="#4DA3C7"/>
  </g>
</svg>