<svg xmlns="http://www.w3.org/2000/svg" width="30" height="30" viewBox="0 0 30 30" fill="none">
  <mask id="mask0_5495_67867" style="mask-type:alpha" maskUnits="userSpaceOnUse" x="0" y="0" width="30" height="30">
    <rect width="30" height="30" fill="#D9D9D9"/>
  </mask>
  <g mask="url(#mask0_5495_67867)">
    <path d="M12.0938 17.125L13.1875 13.5625L10.3125 11.25H13.875L15 7.75L16.125 11.25H19.6875L16.7812 13.5625L17.875 17.125L15 14.9062L12.0938 17.125ZM7.5 28.75V19.0938C6.70833 18.2188 6.09375 17.2188 5.65625 16.0938C5.21875 14.9688 5 13.7708 5 12.5C5 9.70833 5.96875 7.34375 7.90625 5.40625C9.84375 3.46875 12.2083 2.5 15 2.5C17.7917 2.5 20.1562 3.46875 22.0938 5.40625C24.0312 7.34375 25 9.70833 25 12.5C25 13.7708 24.7812 14.9688 24.3438 16.0938C23.9062 17.2188 23.2917 18.2188 22.5 19.0938V28.75L15 26.25L7.5 28.75ZM15 20C17.0833 20 18.8542 19.2708 20.3125 17.8125C21.7708 16.3542 22.5 14.5833 22.5 12.5C22.5 10.4167 21.7708 8.64583 20.3125 7.1875C18.8542 5.72917 17.0833 5 15 5C12.9167 5 11.1458 5.72917 9.6875 7.1875C8.22917 8.64583 7.5 10.4167 7.5 12.5C7.5 14.5833 8.22917 16.3542 9.6875 17.8125C11.1458 19.2708 12.9167 20 15 20ZM10 25.0312L15 23.75L20 25.0312V21.1562C19.2708 21.5729 18.4844 21.901 17.6406 22.1406C16.7969 22.3802 15.9167 22.5 15 22.5C14.0833 22.5 13.2031 22.3802 12.3594 22.1406C11.5156 21.901 10.7292 21.5729 10 21.1562V25.0312Z" fill="#1C1B1F"/>
  </g>
</svg>