<svg xmlns="http://www.w3.org/2000/svg" width="30" height="31" viewBox="0 0 30 31" fill="none">
  <mask id="mask0_5495_67925" style="mask-type:alpha" maskUnits="userSpaceOnUse" x="0" y="0" width="30" height="31">
    <rect y="0.5" width="30" height="30" fill="#D9D9D9"/>
  </mask>
  <g mask="url(#mask0_5495_67925)">
    <path d="M27.5 8V23C27.5 23.6875 27.2552 24.276 26.7656 24.7656C26.276 25.2552 25.6875 25.5 25 25.5H5C4.3125 25.5 3.72396 25.2552 3.23438 24.7656C2.74479 24.276 2.5 23.6875 2.5 23V8C2.5 7.3125 2.74479 6.72396 3.23438 6.23438C3.72396 5.74479 4.3125 5.5 5 5.5H25C25.6875 5.5 26.276 5.74479 26.7656 6.23438C27.2552 6.72396 27.5 7.3125 27.5 8ZM5 10.5H25V8H5V10.5ZM5 15.5V23H25V15.5H5Z" fill="#1C1B1F"/>
  </g>
</svg>