<svg width="25" height="24" viewBox="0 0 25 24" fill="none" xmlns="http://www.w3.org/2000/svg">
<mask id="mask0_5492_62685" style="mask-type:alpha" maskUnits="userSpaceOnUse" x="0" y="0" width="25" height="24">
<rect x="0.5" width="24" height="24" fill="#D9D9D9"/>
</mask>
<g mask="url(#mask0_5492_62685)">
<path d="M11.5 19.425V12.575L5.5 9.1V15.95L11.5 19.425ZM13.5 19.425L19.5 15.95V9.1L13.5 12.575V19.425ZM12.5 10.85L18.425 7.425L12.5 4L6.575 7.425L12.5 10.85ZM4.5 17.7C4.18333 17.5167 3.9375 17.275 3.7625 16.975C3.5875 16.675 3.5 16.3417 3.5 15.975V8.025C3.5 7.65833 3.5875 7.325 3.7625 7.025C3.9375 6.725 4.18333 6.48333 4.5 6.3L11.5 2.275C11.8167 2.09167 12.15 2 12.5 2C12.85 2 13.1833 2.09167 13.5 2.275L20.5 6.3C20.8167 6.48333 21.0625 6.725 21.2375 7.025C21.4125 7.325 21.5 7.65833 21.5 8.025V15.975C21.5 16.3417 21.4125 16.675 21.2375 16.975C21.0625 17.275 20.8167 17.5167 20.5 17.7L13.5 21.725C13.1833 21.9083 12.85 22 12.5 22C12.15 22 11.8167 21.9083 11.5 21.725L4.5 17.7Z" fill="#1C1B1F"/>
</g>
</svg>
