<svg xmlns="http://www.w3.org/2000/svg" width="25" height="24" viewBox="0 0 25 24" fill="none">
  <mask id="mask0_5517_119625" style="mask-type:alpha" maskUnits="userSpaceOnUse" x="0" y="0" width="25" height="24">
    <rect x="0.75" width="24" height="24" fill="#D9D9D9"/>
  </mask>
  <g mask="url(#mask0_5517_119625)">
    <path d="M6.40078 10.0249L8.35078 10.8499C8.58411 10.3832 8.82578 9.93319 9.07578 9.49986C9.32578 9.06653 9.60078 8.63319 9.90078 8.19986L8.50078 7.92486L6.40078 10.0249ZM9.95078 12.0999L12.8008 14.9249C13.5008 14.6582 14.2508 14.2499 15.0508 13.6999C15.8508 13.1499 16.6008 12.5249 17.3008 11.8249C18.4674 10.6582 19.3799 9.36236 20.0383 7.93736C20.6966 6.51236 20.9841 5.19986 20.9008 3.99986C19.7008 3.91653 18.3841 4.20403 16.9508 4.86236C15.5174 5.52069 14.2174 6.4332 13.0508 7.59986C12.3508 8.29986 11.7258 9.04986 11.1758 9.84986C10.6258 10.6499 10.2174 11.3999 9.95078 12.0999ZM14.4008 10.4749C14.0174 10.0915 13.8258 9.62069 13.8258 9.06236C13.8258 8.50403 14.0174 8.0332 14.4008 7.64986C14.7841 7.26653 15.2591 7.07486 15.8258 7.07486C16.3924 7.07486 16.8674 7.26653 17.2508 7.64986C17.6341 8.0332 17.8258 8.50403 17.8258 9.06236C17.8258 9.62069 17.6341 10.0915 17.2508 10.4749C16.8674 10.8582 16.3924 11.0499 15.8258 11.0499C15.2591 11.0499 14.7841 10.8582 14.4008 10.4749ZM14.8758 18.4999L16.9758 16.3999L16.7008 14.9999C16.2674 15.2999 15.8341 15.5707 15.4008 15.8124C14.9674 16.054 14.5174 16.2915 14.0508 16.5249L14.8758 18.4999ZM22.7008 2.17486C23.0174 4.19153 22.8216 6.15403 22.1133 8.06236C21.4049 9.9707 20.1841 11.7915 18.4508 13.5249L18.9508 15.9999C19.0174 16.3332 19.0008 16.6582 18.9008 16.9749C18.8008 17.2915 18.6341 17.5665 18.4008 17.7999L14.2008 21.9999L12.1008 17.0749L7.82578 12.7999L2.90078 10.6999L7.07578 6.49986C7.30911 6.26653 7.58828 6.09986 7.91328 5.99986C8.23828 5.89986 8.56745 5.88319 8.90078 5.94986L11.3758 6.44986C13.1091 4.71653 14.9258 3.49153 16.8258 2.77486C18.7258 2.05819 20.6841 1.85819 22.7008 2.17486ZM4.67578 15.9749C5.25911 15.3915 5.97161 15.0957 6.81328 15.0874C7.65495 15.079 8.36745 15.3665 8.95078 15.9499C9.53411 16.5332 9.82161 17.2457 9.81328 18.0874C9.80495 18.929 9.50911 19.6415 8.92578 20.2249C8.50911 20.6415 7.81328 20.9999 6.83828 21.2999C5.86328 21.5999 4.51745 21.8665 2.80078 22.0999C3.03411 20.3832 3.30078 19.0374 3.60078 18.0624C3.90078 17.0874 4.25911 16.3915 4.67578 15.9749ZM6.10078 17.3749C5.93411 17.5415 5.76745 17.8457 5.60078 18.2874C5.43411 18.729 5.31745 19.1749 5.25078 19.6249C5.70078 19.5582 6.14661 19.4457 6.58828 19.2874C7.02995 19.129 7.33412 18.9665 7.50078 18.7999C7.70078 18.5999 7.80911 18.3582 7.82578 18.0749C7.84245 17.7915 7.75078 17.5499 7.55078 17.3499C7.35078 17.1499 7.10911 17.054 6.82578 17.0624C6.54245 17.0707 6.30078 17.1749 6.10078 17.3749Z" fill="white"/>
  </g>
</svg>