<svg
                    xmlns="http://www.w3.org/2000/svg"
                    width="20"
                    height="21"
                    viewBox="0 0 20 21"
                    fill="none"
                  >
                    <mask
                      id="mask0_5848_109974"
                      maskUnits="userSpaceOnUse"
                      x="0"
                      y="0"
                      width="20"
                      height="21"
                    >
                      <rect y="0.5" width="20" height="20" fill="#D9D9D9" />
                    </mask>
                    <g mask="url(#mask0_5848_109974)">
                      <path
                        d="M4.70703 8.85413L6.33203 9.54163C6.52648 9.15274 6.72786 8.77774 6.9362 8.41663C7.14453 8.05552 7.3737 7.69441 7.6237 7.3333L6.45703 7.10413L4.70703 8.85413ZM7.66536 10.5833L10.0404 12.9375C10.6237 12.7152 11.2487 12.375 11.9154 11.9166C12.582 11.4583 13.207 10.9375 13.7904 10.3541C14.7626 9.38191 15.523 8.30205 16.0716 7.11455C16.6202 5.92705 16.8598 4.8333 16.7904 3.8333C15.7904 3.76385 14.6931 4.00344 13.4987 4.55205C12.3043 5.10066 11.2209 5.86108 10.2487 6.8333C9.66536 7.41663 9.14453 8.04163 8.6862 8.7083C8.22786 9.37497 7.88759 9.99997 7.66536 10.5833ZM11.3737 9.22913C11.0543 8.90969 10.8945 8.51733 10.8945 8.05205C10.8945 7.58677 11.0543 7.19441 11.3737 6.87497C11.6931 6.55552 12.089 6.3958 12.5612 6.3958C13.0334 6.3958 13.4293 6.55552 13.7487 6.87497C14.0681 7.19441 14.2279 7.58677 14.2279 8.05205C14.2279 8.51733 14.0681 8.90969 13.7487 9.22913C13.4293 9.54858 13.0334 9.7083 12.5612 9.7083C12.089 9.7083 11.6931 9.54858 11.3737 9.22913ZM11.7695 15.9166L13.5195 14.1666L13.2904 13C12.9293 13.25 12.5681 13.4757 12.207 13.677C11.8459 13.8784 11.4709 14.0764 11.082 14.2708L11.7695 15.9166ZM18.2904 2.31247C18.5543 3.99302 18.3911 5.62844 17.8008 7.21872C17.2105 8.80899 16.1931 10.3264 14.7487 11.7708L15.1654 13.8333C15.2209 14.1111 15.207 14.3819 15.1237 14.6458C15.0404 14.9097 14.9015 15.1389 14.707 15.3333L11.207 18.8333L9.45703 14.7291L5.89453 11.1666L1.79036 9.41663L5.26953 5.91663C5.46398 5.72219 5.69661 5.5833 5.96745 5.49997C6.23828 5.41663 6.51259 5.40274 6.79036 5.4583L8.85286 5.87497C10.2973 4.43052 11.8112 3.40969 13.3945 2.81247C14.9779 2.21524 16.6098 2.04858 18.2904 2.31247ZM3.26953 13.8125C3.75564 13.3264 4.34939 13.0798 5.05078 13.0729C5.75217 13.0659 6.34592 13.3055 6.83203 13.7916C7.31814 14.2777 7.55773 14.8715 7.55078 15.5729C7.54384 16.2743 7.29731 16.868 6.8112 17.3541C6.46398 17.7014 5.88411 18 5.07161 18.25C4.25911 18.5 3.13759 18.7222 1.70703 18.9166C1.90148 17.4861 2.1237 16.3645 2.3737 15.552C2.6237 14.7395 2.92231 14.1597 3.26953 13.8125ZM4.45703 14.9791C4.31814 15.118 4.17925 15.3715 4.04036 15.7395C3.90148 16.1076 3.80425 16.4791 3.7487 16.8541C4.1237 16.7986 4.49523 16.7048 4.86328 16.5729C5.23134 16.4409 5.48481 16.3055 5.6237 16.1666C5.79036 16 5.88064 15.7986 5.89453 15.5625C5.90842 15.3264 5.83203 15.125 5.66536 14.9583C5.4987 14.7916 5.29731 14.7118 5.0612 14.7187C4.82509 14.7257 4.6237 14.8125 4.45703 14.9791Z"
                        fill="#9B1C1C"
                      />
                    </g>
                  </svg>