<svg xmlns="http://www.w3.org/2000/svg" width="25" height="24" viewBox="0 0 25 24" fill="none">
  <mask id="mask0_5495_68187" style="mask-type:alpha" maskUnits="userSpaceOnUse" x="0" y="0" width="25" height="24">
    <rect x="0.667969" width="24" height="24" fill="#D9D9D9"/>
  </mask>
  <g mask="url(#mask0_5495_68187)">
    <path d="M12.668 14C13.218 14 13.6888 13.8042 14.0805 13.4125C14.4721 13.0208 14.668 12.55 14.668 12C14.668 11.45 14.4721 10.9792 14.0805 10.5875C13.6888 10.1958 13.218 10 12.668 10C12.118 10 11.6471 10.1958 11.2555 10.5875C10.8638 10.9792 10.668 11.45 10.668 12C10.668 12.55 10.8638 13.0208 11.2555 13.4125C11.6471 13.8042 12.118 14 12.668 14ZM8.66797 18H16.668V17.425C16.668 17.025 16.5596 16.6583 16.343 16.325C16.1263 15.9917 15.8263 15.7417 15.443 15.575C15.0096 15.3917 14.5638 15.25 14.1055 15.15C13.6471 15.05 13.168 15 12.668 15C12.168 15 11.6888 15.05 11.2305 15.15C10.7721 15.25 10.3263 15.3917 9.89297 15.575C9.50964 15.7417 9.20964 15.9917 8.99297 16.325C8.7763 16.6583 8.66797 17.025 8.66797 17.425V18ZM18.668 22H6.66797C6.11797 22 5.64714 21.8042 5.25547 21.4125C4.8638 21.0208 4.66797 20.55 4.66797 20V4C4.66797 3.45 4.8638 2.97917 5.25547 2.5875C5.64714 2.19583 6.11797 2 6.66797 2H14.668L20.668 8V20C20.668 20.55 20.4721 21.0208 20.0805 21.4125C19.6888 21.8042 19.218 22 18.668 22ZM18.668 20V8.85L13.818 4H6.66797V20H18.668Z" fill="#1C1B1F"/>
  </g>
</svg>